%TF.GenerationSoftware,KiCad,Pcbnew,9.0.6*%
%TF.CreationDate,2025-12-28T18:53:21+01:00*%
%TF.ProjectId,scheme,73636865-6d65-42e6-9b69-6361645f7063,rev?*%
%TF.SameCoordinates,Original*%
%TF.FileFunction,Drillmap*%
%TF.FilePolarity,Positive*%
%FSLAX45Y45*%
G04 Gerber Fmt 4.5, Leading zero omitted, Abs format (unit mm)*
G04 Created by KiCad (PCBNEW 9.0.6) date 2025-12-28 18:53:21*
%MOMM*%
%LPD*%
G01*
G04 APERTURE LIST*
%ADD10C,0.050000*%
%ADD11C,0.200000*%
%ADD12C,0.100000*%
G04 APERTURE END LIST*
D10*
X18128000Y-10536000D02*
X23752000Y-10536000D01*
X23752000Y-15641000D01*
X18128000Y-15641000D01*
X18128000Y-10536000D01*
D11*
D12*
X18418500Y-15033000D02*
X18483500Y-15098000D01*
X18483500Y-15033000D02*
X18418500Y-15098000D01*
X18996500Y-15033000D02*
X19061500Y-15098000D01*
X19061500Y-15033000D02*
X18996500Y-15098000D01*
D11*
X18386277Y-15954984D02*
X18386277Y-15754984D01*
X18386277Y-15754984D02*
X18433896Y-15754984D01*
X18433896Y-15754984D02*
X18462467Y-15764508D01*
X18462467Y-15764508D02*
X18481515Y-15783555D01*
X18481515Y-15783555D02*
X18491039Y-15802603D01*
X18491039Y-15802603D02*
X18500563Y-15840698D01*
X18500563Y-15840698D02*
X18500563Y-15869269D01*
X18500563Y-15869269D02*
X18491039Y-15907365D01*
X18491039Y-15907365D02*
X18481515Y-15926412D01*
X18481515Y-15926412D02*
X18462467Y-15945460D01*
X18462467Y-15945460D02*
X18433896Y-15954984D01*
X18433896Y-15954984D02*
X18386277Y-15954984D01*
X18586277Y-15954984D02*
X18586277Y-15821650D01*
X18586277Y-15859746D02*
X18595801Y-15840698D01*
X18595801Y-15840698D02*
X18605324Y-15831174D01*
X18605324Y-15831174D02*
X18624372Y-15821650D01*
X18624372Y-15821650D02*
X18643420Y-15821650D01*
X18710086Y-15954984D02*
X18710086Y-15821650D01*
X18710086Y-15754984D02*
X18700563Y-15764508D01*
X18700563Y-15764508D02*
X18710086Y-15774031D01*
X18710086Y-15774031D02*
X18719610Y-15764508D01*
X18719610Y-15764508D02*
X18710086Y-15754984D01*
X18710086Y-15754984D02*
X18710086Y-15774031D01*
X18833896Y-15954984D02*
X18814848Y-15945460D01*
X18814848Y-15945460D02*
X18805324Y-15926412D01*
X18805324Y-15926412D02*
X18805324Y-15754984D01*
X18938658Y-15954984D02*
X18919610Y-15945460D01*
X18919610Y-15945460D02*
X18910086Y-15926412D01*
X18910086Y-15926412D02*
X18910086Y-15754984D01*
X19167229Y-15954984D02*
X19167229Y-15754984D01*
X19167229Y-15754984D02*
X19233896Y-15897841D01*
X19233896Y-15897841D02*
X19300563Y-15754984D01*
X19300563Y-15754984D02*
X19300563Y-15954984D01*
X19481515Y-15954984D02*
X19481515Y-15850222D01*
X19481515Y-15850222D02*
X19471991Y-15831174D01*
X19471991Y-15831174D02*
X19452944Y-15821650D01*
X19452944Y-15821650D02*
X19414848Y-15821650D01*
X19414848Y-15821650D02*
X19395801Y-15831174D01*
X19481515Y-15945460D02*
X19462467Y-15954984D01*
X19462467Y-15954984D02*
X19414848Y-15954984D01*
X19414848Y-15954984D02*
X19395801Y-15945460D01*
X19395801Y-15945460D02*
X19386277Y-15926412D01*
X19386277Y-15926412D02*
X19386277Y-15907365D01*
X19386277Y-15907365D02*
X19395801Y-15888317D01*
X19395801Y-15888317D02*
X19414848Y-15878793D01*
X19414848Y-15878793D02*
X19462467Y-15878793D01*
X19462467Y-15878793D02*
X19481515Y-15869269D01*
X19576753Y-15821650D02*
X19576753Y-16021650D01*
X19576753Y-15831174D02*
X19595801Y-15821650D01*
X19595801Y-15821650D02*
X19633896Y-15821650D01*
X19633896Y-15821650D02*
X19652944Y-15831174D01*
X19652944Y-15831174D02*
X19662467Y-15840698D01*
X19662467Y-15840698D02*
X19671991Y-15859746D01*
X19671991Y-15859746D02*
X19671991Y-15916888D01*
X19671991Y-15916888D02*
X19662467Y-15935936D01*
X19662467Y-15935936D02*
X19652944Y-15945460D01*
X19652944Y-15945460D02*
X19633896Y-15954984D01*
X19633896Y-15954984D02*
X19595801Y-15954984D01*
X19595801Y-15954984D02*
X19576753Y-15945460D01*
X19757705Y-15935936D02*
X19767229Y-15945460D01*
X19767229Y-15945460D02*
X19757705Y-15954984D01*
X19757705Y-15954984D02*
X19748182Y-15945460D01*
X19748182Y-15945460D02*
X19757705Y-15935936D01*
X19757705Y-15935936D02*
X19757705Y-15954984D01*
X19757705Y-15831174D02*
X19767229Y-15840698D01*
X19767229Y-15840698D02*
X19757705Y-15850222D01*
X19757705Y-15850222D02*
X19748182Y-15840698D01*
X19748182Y-15840698D02*
X19757705Y-15831174D01*
X19757705Y-15831174D02*
X19757705Y-15850222D01*
D12*
X18060500Y-16251000D02*
X18125500Y-16316000D01*
X18125500Y-16251000D02*
X18060500Y-16316000D01*
D11*
X18424372Y-16174984D02*
X18443420Y-16174984D01*
X18443420Y-16174984D02*
X18462467Y-16184508D01*
X18462467Y-16184508D02*
X18471991Y-16194031D01*
X18471991Y-16194031D02*
X18481515Y-16213079D01*
X18481515Y-16213079D02*
X18491039Y-16251174D01*
X18491039Y-16251174D02*
X18491039Y-16298793D01*
X18491039Y-16298793D02*
X18481515Y-16336888D01*
X18481515Y-16336888D02*
X18471991Y-16355936D01*
X18471991Y-16355936D02*
X18462467Y-16365460D01*
X18462467Y-16365460D02*
X18443420Y-16374984D01*
X18443420Y-16374984D02*
X18424372Y-16374984D01*
X18424372Y-16374984D02*
X18405324Y-16365460D01*
X18405324Y-16365460D02*
X18395801Y-16355936D01*
X18395801Y-16355936D02*
X18386277Y-16336888D01*
X18386277Y-16336888D02*
X18376753Y-16298793D01*
X18376753Y-16298793D02*
X18376753Y-16251174D01*
X18376753Y-16251174D02*
X18386277Y-16213079D01*
X18386277Y-16213079D02*
X18395801Y-16194031D01*
X18395801Y-16194031D02*
X18405324Y-16184508D01*
X18405324Y-16184508D02*
X18424372Y-16174984D01*
X18576753Y-16355936D02*
X18586277Y-16365460D01*
X18586277Y-16365460D02*
X18576753Y-16374984D01*
X18576753Y-16374984D02*
X18567229Y-16365460D01*
X18567229Y-16365460D02*
X18576753Y-16355936D01*
X18576753Y-16355936D02*
X18576753Y-16374984D01*
X18757705Y-16174984D02*
X18719610Y-16174984D01*
X18719610Y-16174984D02*
X18700563Y-16184508D01*
X18700563Y-16184508D02*
X18691039Y-16194031D01*
X18691039Y-16194031D02*
X18671991Y-16222603D01*
X18671991Y-16222603D02*
X18662467Y-16260698D01*
X18662467Y-16260698D02*
X18662467Y-16336888D01*
X18662467Y-16336888D02*
X18671991Y-16355936D01*
X18671991Y-16355936D02*
X18681515Y-16365460D01*
X18681515Y-16365460D02*
X18700563Y-16374984D01*
X18700563Y-16374984D02*
X18738658Y-16374984D01*
X18738658Y-16374984D02*
X18757705Y-16365460D01*
X18757705Y-16365460D02*
X18767229Y-16355936D01*
X18767229Y-16355936D02*
X18776753Y-16336888D01*
X18776753Y-16336888D02*
X18776753Y-16289269D01*
X18776753Y-16289269D02*
X18767229Y-16270222D01*
X18767229Y-16270222D02*
X18757705Y-16260698D01*
X18757705Y-16260698D02*
X18738658Y-16251174D01*
X18738658Y-16251174D02*
X18700563Y-16251174D01*
X18700563Y-16251174D02*
X18681515Y-16260698D01*
X18681515Y-16260698D02*
X18671991Y-16270222D01*
X18671991Y-16270222D02*
X18662467Y-16289269D01*
X18957705Y-16174984D02*
X18862467Y-16174984D01*
X18862467Y-16174984D02*
X18852944Y-16270222D01*
X18852944Y-16270222D02*
X18862467Y-16260698D01*
X18862467Y-16260698D02*
X18881515Y-16251174D01*
X18881515Y-16251174D02*
X18929134Y-16251174D01*
X18929134Y-16251174D02*
X18948182Y-16260698D01*
X18948182Y-16260698D02*
X18957705Y-16270222D01*
X18957705Y-16270222D02*
X18967229Y-16289269D01*
X18967229Y-16289269D02*
X18967229Y-16336888D01*
X18967229Y-16336888D02*
X18957705Y-16355936D01*
X18957705Y-16355936D02*
X18948182Y-16365460D01*
X18948182Y-16365460D02*
X18929134Y-16374984D01*
X18929134Y-16374984D02*
X18881515Y-16374984D01*
X18881515Y-16374984D02*
X18862467Y-16365460D01*
X18862467Y-16365460D02*
X18852944Y-16355936D01*
X19091039Y-16174984D02*
X19110086Y-16174984D01*
X19110086Y-16174984D02*
X19129134Y-16184508D01*
X19129134Y-16184508D02*
X19138658Y-16194031D01*
X19138658Y-16194031D02*
X19148182Y-16213079D01*
X19148182Y-16213079D02*
X19157705Y-16251174D01*
X19157705Y-16251174D02*
X19157705Y-16298793D01*
X19157705Y-16298793D02*
X19148182Y-16336888D01*
X19148182Y-16336888D02*
X19138658Y-16355936D01*
X19138658Y-16355936D02*
X19129134Y-16365460D01*
X19129134Y-16365460D02*
X19110086Y-16374984D01*
X19110086Y-16374984D02*
X19091039Y-16374984D01*
X19091039Y-16374984D02*
X19071991Y-16365460D01*
X19071991Y-16365460D02*
X19062467Y-16355936D01*
X19062467Y-16355936D02*
X19052944Y-16336888D01*
X19052944Y-16336888D02*
X19043420Y-16298793D01*
X19043420Y-16298793D02*
X19043420Y-16251174D01*
X19043420Y-16251174D02*
X19052944Y-16213079D01*
X19052944Y-16213079D02*
X19062467Y-16194031D01*
X19062467Y-16194031D02*
X19071991Y-16184508D01*
X19071991Y-16184508D02*
X19091039Y-16174984D01*
X19243420Y-16374984D02*
X19243420Y-16241650D01*
X19243420Y-16260698D02*
X19252944Y-16251174D01*
X19252944Y-16251174D02*
X19271991Y-16241650D01*
X19271991Y-16241650D02*
X19300563Y-16241650D01*
X19300563Y-16241650D02*
X19319610Y-16251174D01*
X19319610Y-16251174D02*
X19329134Y-16270222D01*
X19329134Y-16270222D02*
X19329134Y-16374984D01*
X19329134Y-16270222D02*
X19338658Y-16251174D01*
X19338658Y-16251174D02*
X19357705Y-16241650D01*
X19357705Y-16241650D02*
X19386277Y-16241650D01*
X19386277Y-16241650D02*
X19405325Y-16251174D01*
X19405325Y-16251174D02*
X19414848Y-16270222D01*
X19414848Y-16270222D02*
X19414848Y-16374984D01*
X19510086Y-16374984D02*
X19510086Y-16241650D01*
X19510086Y-16260698D02*
X19519610Y-16251174D01*
X19519610Y-16251174D02*
X19538658Y-16241650D01*
X19538658Y-16241650D02*
X19567229Y-16241650D01*
X19567229Y-16241650D02*
X19586277Y-16251174D01*
X19586277Y-16251174D02*
X19595801Y-16270222D01*
X19595801Y-16270222D02*
X19595801Y-16374984D01*
X19595801Y-16270222D02*
X19605325Y-16251174D01*
X19605325Y-16251174D02*
X19624372Y-16241650D01*
X19624372Y-16241650D02*
X19652944Y-16241650D01*
X19652944Y-16241650D02*
X19671991Y-16251174D01*
X19671991Y-16251174D02*
X19681515Y-16270222D01*
X19681515Y-16270222D02*
X19681515Y-16374984D01*
X20071991Y-16165460D02*
X19900563Y-16422603D01*
X20329134Y-16174984D02*
X20348182Y-16174984D01*
X20348182Y-16174984D02*
X20367229Y-16184508D01*
X20367229Y-16184508D02*
X20376753Y-16194031D01*
X20376753Y-16194031D02*
X20386277Y-16213079D01*
X20386277Y-16213079D02*
X20395801Y-16251174D01*
X20395801Y-16251174D02*
X20395801Y-16298793D01*
X20395801Y-16298793D02*
X20386277Y-16336888D01*
X20386277Y-16336888D02*
X20376753Y-16355936D01*
X20376753Y-16355936D02*
X20367229Y-16365460D01*
X20367229Y-16365460D02*
X20348182Y-16374984D01*
X20348182Y-16374984D02*
X20329134Y-16374984D01*
X20329134Y-16374984D02*
X20310087Y-16365460D01*
X20310087Y-16365460D02*
X20300563Y-16355936D01*
X20300563Y-16355936D02*
X20291039Y-16336888D01*
X20291039Y-16336888D02*
X20281515Y-16298793D01*
X20281515Y-16298793D02*
X20281515Y-16251174D01*
X20281515Y-16251174D02*
X20291039Y-16213079D01*
X20291039Y-16213079D02*
X20300563Y-16194031D01*
X20300563Y-16194031D02*
X20310087Y-16184508D01*
X20310087Y-16184508D02*
X20329134Y-16174984D01*
X20481515Y-16355936D02*
X20491039Y-16365460D01*
X20491039Y-16365460D02*
X20481515Y-16374984D01*
X20481515Y-16374984D02*
X20471991Y-16365460D01*
X20471991Y-16365460D02*
X20481515Y-16355936D01*
X20481515Y-16355936D02*
X20481515Y-16374984D01*
X20614848Y-16174984D02*
X20633896Y-16174984D01*
X20633896Y-16174984D02*
X20652944Y-16184508D01*
X20652944Y-16184508D02*
X20662468Y-16194031D01*
X20662468Y-16194031D02*
X20671991Y-16213079D01*
X20671991Y-16213079D02*
X20681515Y-16251174D01*
X20681515Y-16251174D02*
X20681515Y-16298793D01*
X20681515Y-16298793D02*
X20671991Y-16336888D01*
X20671991Y-16336888D02*
X20662468Y-16355936D01*
X20662468Y-16355936D02*
X20652944Y-16365460D01*
X20652944Y-16365460D02*
X20633896Y-16374984D01*
X20633896Y-16374984D02*
X20614848Y-16374984D01*
X20614848Y-16374984D02*
X20595801Y-16365460D01*
X20595801Y-16365460D02*
X20586277Y-16355936D01*
X20586277Y-16355936D02*
X20576753Y-16336888D01*
X20576753Y-16336888D02*
X20567229Y-16298793D01*
X20567229Y-16298793D02*
X20567229Y-16251174D01*
X20567229Y-16251174D02*
X20576753Y-16213079D01*
X20576753Y-16213079D02*
X20586277Y-16194031D01*
X20586277Y-16194031D02*
X20595801Y-16184508D01*
X20595801Y-16184508D02*
X20614848Y-16174984D01*
X20757706Y-16194031D02*
X20767229Y-16184508D01*
X20767229Y-16184508D02*
X20786277Y-16174984D01*
X20786277Y-16174984D02*
X20833896Y-16174984D01*
X20833896Y-16174984D02*
X20852944Y-16184508D01*
X20852944Y-16184508D02*
X20862468Y-16194031D01*
X20862468Y-16194031D02*
X20871991Y-16213079D01*
X20871991Y-16213079D02*
X20871991Y-16232127D01*
X20871991Y-16232127D02*
X20862468Y-16260698D01*
X20862468Y-16260698D02*
X20748182Y-16374984D01*
X20748182Y-16374984D02*
X20871991Y-16374984D01*
X21052944Y-16174984D02*
X20957706Y-16174984D01*
X20957706Y-16174984D02*
X20948182Y-16270222D01*
X20948182Y-16270222D02*
X20957706Y-16260698D01*
X20957706Y-16260698D02*
X20976753Y-16251174D01*
X20976753Y-16251174D02*
X21024372Y-16251174D01*
X21024372Y-16251174D02*
X21043420Y-16260698D01*
X21043420Y-16260698D02*
X21052944Y-16270222D01*
X21052944Y-16270222D02*
X21062468Y-16289269D01*
X21062468Y-16289269D02*
X21062468Y-16336888D01*
X21062468Y-16336888D02*
X21052944Y-16355936D01*
X21052944Y-16355936D02*
X21043420Y-16365460D01*
X21043420Y-16365460D02*
X21024372Y-16374984D01*
X21024372Y-16374984D02*
X20976753Y-16374984D01*
X20976753Y-16374984D02*
X20957706Y-16365460D01*
X20957706Y-16365460D02*
X20948182Y-16355936D01*
X21233896Y-16174984D02*
X21195801Y-16174984D01*
X21195801Y-16174984D02*
X21176753Y-16184508D01*
X21176753Y-16184508D02*
X21167229Y-16194031D01*
X21167229Y-16194031D02*
X21148182Y-16222603D01*
X21148182Y-16222603D02*
X21138658Y-16260698D01*
X21138658Y-16260698D02*
X21138658Y-16336888D01*
X21138658Y-16336888D02*
X21148182Y-16355936D01*
X21148182Y-16355936D02*
X21157706Y-16365460D01*
X21157706Y-16365460D02*
X21176753Y-16374984D01*
X21176753Y-16374984D02*
X21214849Y-16374984D01*
X21214849Y-16374984D02*
X21233896Y-16365460D01*
X21233896Y-16365460D02*
X21243420Y-16355936D01*
X21243420Y-16355936D02*
X21252944Y-16336888D01*
X21252944Y-16336888D02*
X21252944Y-16289269D01*
X21252944Y-16289269D02*
X21243420Y-16270222D01*
X21243420Y-16270222D02*
X21233896Y-16260698D01*
X21233896Y-16260698D02*
X21214849Y-16251174D01*
X21214849Y-16251174D02*
X21176753Y-16251174D01*
X21176753Y-16251174D02*
X21157706Y-16260698D01*
X21157706Y-16260698D02*
X21148182Y-16270222D01*
X21148182Y-16270222D02*
X21138658Y-16289269D01*
X21329134Y-16174984D02*
X21329134Y-16213079D01*
X21405325Y-16174984D02*
X21405325Y-16213079D01*
X21700563Y-16451174D02*
X21691039Y-16441650D01*
X21691039Y-16441650D02*
X21671991Y-16413079D01*
X21671991Y-16413079D02*
X21662468Y-16394031D01*
X21662468Y-16394031D02*
X21652944Y-16365460D01*
X21652944Y-16365460D02*
X21643420Y-16317841D01*
X21643420Y-16317841D02*
X21643420Y-16279746D01*
X21643420Y-16279746D02*
X21652944Y-16232127D01*
X21652944Y-16232127D02*
X21662468Y-16203555D01*
X21662468Y-16203555D02*
X21671991Y-16184508D01*
X21671991Y-16184508D02*
X21691039Y-16155936D01*
X21691039Y-16155936D02*
X21700563Y-16146412D01*
X21767230Y-16194031D02*
X21776753Y-16184508D01*
X21776753Y-16184508D02*
X21795801Y-16174984D01*
X21795801Y-16174984D02*
X21843420Y-16174984D01*
X21843420Y-16174984D02*
X21862468Y-16184508D01*
X21862468Y-16184508D02*
X21871991Y-16194031D01*
X21871991Y-16194031D02*
X21881515Y-16213079D01*
X21881515Y-16213079D02*
X21881515Y-16232127D01*
X21881515Y-16232127D02*
X21871991Y-16260698D01*
X21871991Y-16260698D02*
X21757706Y-16374984D01*
X21757706Y-16374984D02*
X21881515Y-16374984D01*
X22119611Y-16374984D02*
X22119611Y-16174984D01*
X22205325Y-16374984D02*
X22205325Y-16270222D01*
X22205325Y-16270222D02*
X22195801Y-16251174D01*
X22195801Y-16251174D02*
X22176753Y-16241650D01*
X22176753Y-16241650D02*
X22148182Y-16241650D01*
X22148182Y-16241650D02*
X22129134Y-16251174D01*
X22129134Y-16251174D02*
X22119611Y-16260698D01*
X22329134Y-16374984D02*
X22310087Y-16365460D01*
X22310087Y-16365460D02*
X22300563Y-16355936D01*
X22300563Y-16355936D02*
X22291039Y-16336888D01*
X22291039Y-16336888D02*
X22291039Y-16279746D01*
X22291039Y-16279746D02*
X22300563Y-16260698D01*
X22300563Y-16260698D02*
X22310087Y-16251174D01*
X22310087Y-16251174D02*
X22329134Y-16241650D01*
X22329134Y-16241650D02*
X22357706Y-16241650D01*
X22357706Y-16241650D02*
X22376753Y-16251174D01*
X22376753Y-16251174D02*
X22386277Y-16260698D01*
X22386277Y-16260698D02*
X22395801Y-16279746D01*
X22395801Y-16279746D02*
X22395801Y-16336888D01*
X22395801Y-16336888D02*
X22386277Y-16355936D01*
X22386277Y-16355936D02*
X22376753Y-16365460D01*
X22376753Y-16365460D02*
X22357706Y-16374984D01*
X22357706Y-16374984D02*
X22329134Y-16374984D01*
X22510087Y-16374984D02*
X22491039Y-16365460D01*
X22491039Y-16365460D02*
X22481515Y-16346412D01*
X22481515Y-16346412D02*
X22481515Y-16174984D01*
X22662468Y-16365460D02*
X22643420Y-16374984D01*
X22643420Y-16374984D02*
X22605325Y-16374984D01*
X22605325Y-16374984D02*
X22586277Y-16365460D01*
X22586277Y-16365460D02*
X22576753Y-16346412D01*
X22576753Y-16346412D02*
X22576753Y-16270222D01*
X22576753Y-16270222D02*
X22586277Y-16251174D01*
X22586277Y-16251174D02*
X22605325Y-16241650D01*
X22605325Y-16241650D02*
X22643420Y-16241650D01*
X22643420Y-16241650D02*
X22662468Y-16251174D01*
X22662468Y-16251174D02*
X22671991Y-16270222D01*
X22671991Y-16270222D02*
X22671991Y-16289269D01*
X22671991Y-16289269D02*
X22576753Y-16308317D01*
X22748182Y-16365460D02*
X22767230Y-16374984D01*
X22767230Y-16374984D02*
X22805325Y-16374984D01*
X22805325Y-16374984D02*
X22824372Y-16365460D01*
X22824372Y-16365460D02*
X22833896Y-16346412D01*
X22833896Y-16346412D02*
X22833896Y-16336888D01*
X22833896Y-16336888D02*
X22824372Y-16317841D01*
X22824372Y-16317841D02*
X22805325Y-16308317D01*
X22805325Y-16308317D02*
X22776753Y-16308317D01*
X22776753Y-16308317D02*
X22757706Y-16298793D01*
X22757706Y-16298793D02*
X22748182Y-16279746D01*
X22748182Y-16279746D02*
X22748182Y-16270222D01*
X22748182Y-16270222D02*
X22757706Y-16251174D01*
X22757706Y-16251174D02*
X22776753Y-16241650D01*
X22776753Y-16241650D02*
X22805325Y-16241650D01*
X22805325Y-16241650D02*
X22824372Y-16251174D01*
X22900563Y-16451174D02*
X22910087Y-16441650D01*
X22910087Y-16441650D02*
X22929134Y-16413079D01*
X22929134Y-16413079D02*
X22938658Y-16394031D01*
X22938658Y-16394031D02*
X22948182Y-16365460D01*
X22948182Y-16365460D02*
X22957706Y-16317841D01*
X22957706Y-16317841D02*
X22957706Y-16279746D01*
X22957706Y-16279746D02*
X22948182Y-16232127D01*
X22948182Y-16232127D02*
X22938658Y-16203555D01*
X22938658Y-16203555D02*
X22929134Y-16184508D01*
X22929134Y-16184508D02*
X22910087Y-16155936D01*
X22910087Y-16155936D02*
X22900563Y-16146412D01*
X23262468Y-16451174D02*
X23252944Y-16441650D01*
X23252944Y-16441650D02*
X23233896Y-16413079D01*
X23233896Y-16413079D02*
X23224372Y-16394031D01*
X23224372Y-16394031D02*
X23214849Y-16365460D01*
X23214849Y-16365460D02*
X23205325Y-16317841D01*
X23205325Y-16317841D02*
X23205325Y-16279746D01*
X23205325Y-16279746D02*
X23214849Y-16232127D01*
X23214849Y-16232127D02*
X23224372Y-16203555D01*
X23224372Y-16203555D02*
X23233896Y-16184508D01*
X23233896Y-16184508D02*
X23252944Y-16155936D01*
X23252944Y-16155936D02*
X23262468Y-16146412D01*
X23338658Y-16241650D02*
X23338658Y-16374984D01*
X23338658Y-16260698D02*
X23348182Y-16251174D01*
X23348182Y-16251174D02*
X23367230Y-16241650D01*
X23367230Y-16241650D02*
X23395801Y-16241650D01*
X23395801Y-16241650D02*
X23414849Y-16251174D01*
X23414849Y-16251174D02*
X23424372Y-16270222D01*
X23424372Y-16270222D02*
X23424372Y-16374984D01*
X23548182Y-16374984D02*
X23529134Y-16365460D01*
X23529134Y-16365460D02*
X23519611Y-16355936D01*
X23519611Y-16355936D02*
X23510087Y-16336888D01*
X23510087Y-16336888D02*
X23510087Y-16279746D01*
X23510087Y-16279746D02*
X23519611Y-16260698D01*
X23519611Y-16260698D02*
X23529134Y-16251174D01*
X23529134Y-16251174D02*
X23548182Y-16241650D01*
X23548182Y-16241650D02*
X23576753Y-16241650D01*
X23576753Y-16241650D02*
X23595801Y-16251174D01*
X23595801Y-16251174D02*
X23605325Y-16260698D01*
X23605325Y-16260698D02*
X23614849Y-16279746D01*
X23614849Y-16279746D02*
X23614849Y-16336888D01*
X23614849Y-16336888D02*
X23605325Y-16355936D01*
X23605325Y-16355936D02*
X23595801Y-16365460D01*
X23595801Y-16365460D02*
X23576753Y-16374984D01*
X23576753Y-16374984D02*
X23548182Y-16374984D01*
X23671992Y-16241650D02*
X23748182Y-16241650D01*
X23700563Y-16174984D02*
X23700563Y-16346412D01*
X23700563Y-16346412D02*
X23710087Y-16365460D01*
X23710087Y-16365460D02*
X23729134Y-16374984D01*
X23729134Y-16374984D02*
X23748182Y-16374984D01*
X23967230Y-16241650D02*
X23967230Y-16441650D01*
X23967230Y-16251174D02*
X23986277Y-16241650D01*
X23986277Y-16241650D02*
X24024373Y-16241650D01*
X24024373Y-16241650D02*
X24043420Y-16251174D01*
X24043420Y-16251174D02*
X24052944Y-16260698D01*
X24052944Y-16260698D02*
X24062468Y-16279746D01*
X24062468Y-16279746D02*
X24062468Y-16336888D01*
X24062468Y-16336888D02*
X24052944Y-16355936D01*
X24052944Y-16355936D02*
X24043420Y-16365460D01*
X24043420Y-16365460D02*
X24024373Y-16374984D01*
X24024373Y-16374984D02*
X23986277Y-16374984D01*
X23986277Y-16374984D02*
X23967230Y-16365460D01*
X24176753Y-16374984D02*
X24157706Y-16365460D01*
X24157706Y-16365460D02*
X24148182Y-16346412D01*
X24148182Y-16346412D02*
X24148182Y-16174984D01*
X24338658Y-16374984D02*
X24338658Y-16270222D01*
X24338658Y-16270222D02*
X24329134Y-16251174D01*
X24329134Y-16251174D02*
X24310087Y-16241650D01*
X24310087Y-16241650D02*
X24271992Y-16241650D01*
X24271992Y-16241650D02*
X24252944Y-16251174D01*
X24338658Y-16365460D02*
X24319611Y-16374984D01*
X24319611Y-16374984D02*
X24271992Y-16374984D01*
X24271992Y-16374984D02*
X24252944Y-16365460D01*
X24252944Y-16365460D02*
X24243420Y-16346412D01*
X24243420Y-16346412D02*
X24243420Y-16327365D01*
X24243420Y-16327365D02*
X24252944Y-16308317D01*
X24252944Y-16308317D02*
X24271992Y-16298793D01*
X24271992Y-16298793D02*
X24319611Y-16298793D01*
X24319611Y-16298793D02*
X24338658Y-16289269D01*
X24405325Y-16241650D02*
X24481515Y-16241650D01*
X24433896Y-16174984D02*
X24433896Y-16346412D01*
X24433896Y-16346412D02*
X24443420Y-16365460D01*
X24443420Y-16365460D02*
X24462468Y-16374984D01*
X24462468Y-16374984D02*
X24481515Y-16374984D01*
X24624373Y-16365460D02*
X24605325Y-16374984D01*
X24605325Y-16374984D02*
X24567230Y-16374984D01*
X24567230Y-16374984D02*
X24548182Y-16365460D01*
X24548182Y-16365460D02*
X24538658Y-16346412D01*
X24538658Y-16346412D02*
X24538658Y-16270222D01*
X24538658Y-16270222D02*
X24548182Y-16251174D01*
X24548182Y-16251174D02*
X24567230Y-16241650D01*
X24567230Y-16241650D02*
X24605325Y-16241650D01*
X24605325Y-16241650D02*
X24624373Y-16251174D01*
X24624373Y-16251174D02*
X24633896Y-16270222D01*
X24633896Y-16270222D02*
X24633896Y-16289269D01*
X24633896Y-16289269D02*
X24538658Y-16308317D01*
X24805325Y-16374984D02*
X24805325Y-16174984D01*
X24805325Y-16365460D02*
X24786277Y-16374984D01*
X24786277Y-16374984D02*
X24748182Y-16374984D01*
X24748182Y-16374984D02*
X24729134Y-16365460D01*
X24729134Y-16365460D02*
X24719611Y-16355936D01*
X24719611Y-16355936D02*
X24710087Y-16336888D01*
X24710087Y-16336888D02*
X24710087Y-16279746D01*
X24710087Y-16279746D02*
X24719611Y-16260698D01*
X24719611Y-16260698D02*
X24729134Y-16251174D01*
X24729134Y-16251174D02*
X24748182Y-16241650D01*
X24748182Y-16241650D02*
X24786277Y-16241650D01*
X24786277Y-16241650D02*
X24805325Y-16251174D01*
X24881515Y-16451174D02*
X24891039Y-16441650D01*
X24891039Y-16441650D02*
X24910087Y-16413079D01*
X24910087Y-16413079D02*
X24919611Y-16394031D01*
X24919611Y-16394031D02*
X24929134Y-16365460D01*
X24929134Y-16365460D02*
X24938658Y-16317841D01*
X24938658Y-16317841D02*
X24938658Y-16279746D01*
X24938658Y-16279746D02*
X24929134Y-16232127D01*
X24929134Y-16232127D02*
X24919611Y-16203555D01*
X24919611Y-16203555D02*
X24910087Y-16184508D01*
X24910087Y-16184508D02*
X24891039Y-16155936D01*
X24891039Y-16155936D02*
X24881515Y-16146412D01*
M02*
