%TF.GenerationSoftware,KiCad,Pcbnew,9.0.6*%
%TF.CreationDate,2025-12-28T18:42:45+01:00*%
%TF.ProjectId,scheme,73636865-6d65-42e6-9b69-6361645f7063,rev?*%
%TF.SameCoordinates,Original*%
%TF.FileFunction,Copper,L1,Top*%
%TF.FilePolarity,Positive*%
%FSLAX46Y46*%
G04 Gerber Fmt 4.6, Leading zero omitted, Abs format (unit mm)*
G04 Created by KiCad (PCBNEW 9.0.6) date 2025-12-28 18:42:45*
%MOMM*%
%LPD*%
G01*
G04 APERTURE LIST*
G04 Aperture macros list*
%AMRoundRect*
0 Rectangle with rounded corners*
0 $1 Rounding radius*
0 $2 $3 $4 $5 $6 $7 $8 $9 X,Y pos of 4 corners*
0 Add a 4 corners polygon primitive as box body*
4,1,4,$2,$3,$4,$5,$6,$7,$8,$9,$2,$3,0*
0 Add four circle primitives for the rounded corners*
1,1,$1+$1,$2,$3*
1,1,$1+$1,$4,$5*
1,1,$1+$1,$6,$7*
1,1,$1+$1,$8,$9*
0 Add four rect primitives between the rounded corners*
20,1,$1+$1,$2,$3,$4,$5,0*
20,1,$1+$1,$4,$5,$6,$7,0*
20,1,$1+$1,$6,$7,$8,$9,0*
20,1,$1+$1,$8,$9,$2,$3,0*%
G04 Aperture macros list end*
%TA.AperFunction,SMDPad,CuDef*%
%ADD10RoundRect,0.250000X0.262500X0.450000X-0.262500X0.450000X-0.262500X-0.450000X0.262500X-0.450000X0*%
%TD*%
%TA.AperFunction,SMDPad,CuDef*%
%ADD11RoundRect,0.250000X-0.262500X-0.450000X0.262500X-0.450000X0.262500X0.450000X-0.262500X0.450000X0*%
%TD*%
%TA.AperFunction,SMDPad,CuDef*%
%ADD12RoundRect,0.250000X0.450000X-0.262500X0.450000X0.262500X-0.450000X0.262500X-0.450000X-0.262500X0*%
%TD*%
%TA.AperFunction,SMDPad,CuDef*%
%ADD13RoundRect,0.250000X0.475000X-0.250000X0.475000X0.250000X-0.475000X0.250000X-0.475000X-0.250000X0*%
%TD*%
%TA.AperFunction,SMDPad,CuDef*%
%ADD14RoundRect,0.250000X-0.475000X0.250000X-0.475000X-0.250000X0.475000X-0.250000X0.475000X0.250000X0*%
%TD*%
%TA.AperFunction,SMDPad,CuDef*%
%ADD15R,2.650000X2.650000*%
%TD*%
%TA.AperFunction,SMDPad,CuDef*%
%ADD16R,0.300000X0.850000*%
%TD*%
%TA.AperFunction,SMDPad,CuDef*%
%ADD17R,0.850000X0.300000*%
%TD*%
%TA.AperFunction,SMDPad,CuDef*%
%ADD18RoundRect,0.250000X-0.450000X0.262500X-0.450000X-0.262500X0.450000X-0.262500X0.450000X0.262500X0*%
%TD*%
%TA.AperFunction,ComponentPad*%
%ADD19R,0.850000X0.850000*%
%TD*%
%TA.AperFunction,ComponentPad*%
%ADD20C,0.850000*%
%TD*%
%TA.AperFunction,SMDPad,CuDef*%
%ADD21RoundRect,0.250000X0.250000X0.475000X-0.250000X0.475000X-0.250000X-0.475000X0.250000X-0.475000X0*%
%TD*%
%TA.AperFunction,SMDPad,CuDef*%
%ADD22RoundRect,0.250000X-0.250000X-0.475000X0.250000X-0.475000X0.250000X0.475000X-0.250000X0.475000X0*%
%TD*%
%TA.AperFunction,SMDPad,CuDef*%
%ADD23R,0.900000X1.500000*%
%TD*%
%TA.AperFunction,SMDPad,CuDef*%
%ADD24R,1.500000X0.900000*%
%TD*%
%TA.AperFunction,SMDPad,CuDef*%
%ADD25R,0.900000X0.900000*%
%TD*%
%TA.AperFunction,SMDPad,CuDef*%
%ADD26R,1.475000X0.450000*%
%TD*%
%TA.AperFunction,SMDPad,CuDef*%
%ADD27R,1.550000X0.700000*%
%TD*%
%TA.AperFunction,SMDPad,CuDef*%
%ADD28R,1.300000X0.950000*%
%TD*%
%TA.AperFunction,SMDPad,CuDef*%
%ADD29R,1.300000X3.250000*%
%TD*%
%TA.AperFunction,SMDPad,CuDef*%
%ADD30R,1.600000X1.400000*%
%TD*%
%TA.AperFunction,SMDPad,CuDef*%
%ADD31R,1.400000X0.950000*%
%TD*%
%TA.AperFunction,SMDPad,CuDef*%
%ADD32R,0.400000X1.200000*%
%TD*%
%TA.AperFunction,SMDPad,CuDef*%
%ADD33RoundRect,0.150000X-0.150000X-0.500000X0.150000X-0.500000X0.150000X0.500000X-0.150000X0.500000X0*%
%TD*%
%TA.AperFunction,SMDPad,CuDef*%
%ADD34RoundRect,0.075000X-0.075000X-0.575000X0.075000X-0.575000X0.075000X0.575000X-0.075000X0.575000X0*%
%TD*%
%TA.AperFunction,HeatsinkPad*%
%ADD35O,1.000000X2.100000*%
%TD*%
%TA.AperFunction,HeatsinkPad*%
%ADD36O,1.000000X1.600000*%
%TD*%
%TA.AperFunction,ViaPad*%
%ADD37C,0.600000*%
%TD*%
%TA.AperFunction,Conductor*%
%ADD38C,0.250000*%
%TD*%
G04 APERTURE END LIST*
D10*
%TO.P,R20,2*%
%TO.N,VREF_BUF*%
X223600000Y-129650000D03*
%TO.P,R20,1*%
%TO.N,Net-(IC2-HPSENSE)*%
X225425000Y-129650000D03*
%TD*%
D11*
%TO.P,R12,2*%
%TO.N,Net-(IC10-Y2)*%
X219900000Y-126900000D03*
%TO.P,R12,1*%
%TO.N,3v3_A*%
X218075000Y-126900000D03*
%TD*%
%TO.P,R18,2*%
%TO.N,Net-(J7-Pin_3)*%
X231375000Y-126050000D03*
%TO.P,R18,1*%
%TO.N,Net-(IC2--IN)*%
X229550000Y-126050000D03*
%TD*%
D12*
%TO.P,R8,2*%
%TO.N,Net-(IC2-OPAMP+)*%
X229300000Y-120425000D03*
%TO.P,R8,1*%
%TO.N,VREF_BUF*%
X229300000Y-122250000D03*
%TD*%
D13*
%TO.P,C2,2*%
%TO.N,Net-(IC2-OPAMP+)*%
X218250000Y-120350000D03*
%TO.P,C2,1*%
%TO.N,Net-(IC2-OUT)*%
X218250000Y-122250000D03*
%TD*%
D11*
%TO.P,R19,2*%
%TO.N,Net-(J8-Pin_1)*%
X231375000Y-128050000D03*
%TO.P,R19,1*%
%TO.N,Net-(IC2-+IN)*%
X229550000Y-128050000D03*
%TD*%
%TO.P,R17,2*%
%TO.N,VREF_BUF*%
X231375000Y-124050000D03*
%TO.P,R17,1*%
%TO.N,Net-(IC2-RLDFB)*%
X229550000Y-124050000D03*
%TD*%
D14*
%TO.P,C3,2*%
%TO.N,Net-(IC2-REFOUT)*%
X222950000Y-122250000D03*
%TO.P,C3,1*%
%TO.N,AGND*%
X222950000Y-120350000D03*
%TD*%
D15*
%TO.P,IC2,21,GND_2*%
%TO.N,AGND*%
X223600000Y-125900000D03*
D16*
%TO.P,IC2,20,HPSENSE*%
%TO.N,Net-(IC2-HPSENSE)*%
X224600000Y-127850000D03*
%TO.P,IC2,19,IAOUT*%
X224100000Y-127850000D03*
%TO.P,IC2,18,REFIN*%
%TO.N,VREF_BUF*%
X223600000Y-127850000D03*
%TO.P,IC2,17,+VS*%
%TO.N,3v3_A*%
X223100000Y-127850000D03*
%TO.P,IC2,16,GND_1*%
%TO.N,AGND*%
X222600000Y-127850000D03*
D17*
%TO.P,IC2,15,FR*%
X221650000Y-126900000D03*
%TO.P,IC2,14,AC/~{DC}*%
X221650000Y-126400000D03*
%TO.P,IC2,13,~{SDN}*%
%TO.N,Net-(IC2-~{SDN})*%
X221650000Y-125900000D03*
%TO.P,IC2,12,LOD+*%
%TO.N,Net-(IC10-Y2)*%
X221650000Y-125400000D03*
%TO.P,IC2,11,LOD-*%
%TO.N,Net-(IC10-Y1)*%
X221650000Y-124900000D03*
D16*
%TO.P,IC2,10,OUT*%
%TO.N,Net-(IC2-OUT)*%
X222600000Y-123950000D03*
%TO.P,IC2,9,OPAMP-*%
%TO.N,Net-(IC2-OPAMP-)*%
X223100000Y-123950000D03*
%TO.P,IC2,8,REFOUT*%
%TO.N,Net-(IC2-REFOUT)*%
X223600000Y-123950000D03*
%TO.P,IC2,7,OPAMP+*%
%TO.N,Net-(IC2-OPAMP+)*%
X224100000Y-123950000D03*
%TO.P,IC2,6,SW*%
%TO.N,Net-(IC2-HPSENSE)*%
X224600000Y-123950000D03*
D17*
%TO.P,IC2,5,RLD*%
%TO.N,Net-(IC2-RLD)*%
X225550000Y-124900000D03*
%TO.P,IC2,4,RLDFB*%
%TO.N,Net-(IC2-RLDFB)*%
X225550000Y-125400000D03*
%TO.P,IC2,3,-IN*%
%TO.N,Net-(IC2--IN)*%
X225550000Y-125900000D03*
%TO.P,IC2,2,+IN*%
%TO.N,Net-(IC2-+IN)*%
X225550000Y-126400000D03*
%TO.P,IC2,1,HPDRIVE*%
%TO.N,Net-(IC2-HPDRIVE)*%
X225550000Y-126900000D03*
%TD*%
D12*
%TO.P,R7,2*%
%TO.N,Net-(IC2-OPAMP-)*%
X220400000Y-120425000D03*
%TO.P,R7,1*%
%TO.N,Net-(IC2-OUT)*%
X220400000Y-122250000D03*
%TD*%
%TO.P,R6,2*%
%TO.N,Net-(IC2-OPAMP-)*%
X231600000Y-120425000D03*
%TO.P,R6,1*%
%TO.N,VREF_BUF*%
X231600000Y-122250000D03*
%TD*%
D18*
%TO.P,R13,2*%
%TO.N,Net-(IC2-RLD)*%
X227300000Y-124250000D03*
%TO.P,R13,1*%
%TO.N,VREF_BUF*%
X227300000Y-122425000D03*
%TD*%
D12*
%TO.P,R9,2*%
%TO.N,Net-(IC2-OPAMP+)*%
X225300000Y-120425000D03*
%TO.P,R9,1*%
%TO.N,Net-(IC2-HPSENSE)*%
X225300000Y-122250000D03*
%TD*%
D11*
%TO.P,R10,2*%
%TO.N,Net-(IC10-Y1)*%
X219900000Y-124850000D03*
%TO.P,R10,1*%
%TO.N,3v3_A*%
X218075000Y-124850000D03*
%TD*%
D10*
%TO.P,R11,2*%
%TO.N,3v3_A*%
X218050000Y-128950000D03*
%TO.P,R11,1*%
%TO.N,Net-(IC2-~{SDN})*%
X219875000Y-128950000D03*
%TD*%
D13*
%TO.P,C4,2*%
%TO.N,Net-(IC2-HPDRIVE)*%
X227400000Y-127750000D03*
%TO.P,C4,1*%
%TO.N,Net-(IC2-HPSENSE)*%
X227400000Y-129650000D03*
%TD*%
D12*
%TO.P,R21,1*%
%TO.N,VREF_BUF*%
X231600000Y-110325000D03*
%TO.P,R21,2*%
%TO.N,Net-(IC5-OPAMP-)*%
X231600000Y-108500000D03*
%TD*%
D11*
%TO.P,R30,1*%
%TO.N,Net-(IC5--IN)*%
X229525000Y-114300000D03*
%TO.P,R30,2*%
%TO.N,Net-(J7-Pin_1)*%
X231350000Y-114300000D03*
%TD*%
D14*
%TO.P,C7,1*%
%TO.N,AGND*%
X222650000Y-108500000D03*
%TO.P,C7,2*%
%TO.N,Net-(IC5-REFOUT)*%
X222650000Y-110400000D03*
%TD*%
D12*
%TO.P,R23,1*%
%TO.N,VREF_BUF*%
X229200000Y-110325000D03*
%TO.P,R23,2*%
%TO.N,Net-(IC5-OPAMP+)*%
X229200000Y-108500000D03*
%TD*%
D18*
%TO.P,R28,1*%
%TO.N,VREF_BUF*%
X227100000Y-110675000D03*
%TO.P,R28,2*%
%TO.N,Net-(IC5-RLD)*%
X227100000Y-112500000D03*
%TD*%
D10*
%TO.P,R35,1*%
%TO.N,Net-(IC5-~{SDN})*%
X219550000Y-117000000D03*
%TO.P,R35,2*%
%TO.N,3v3_A*%
X217725000Y-117000000D03*
%TD*%
D12*
%TO.P,R24,1*%
%TO.N,Net-(IC5-HPSENSE)*%
X225050000Y-110350000D03*
%TO.P,R24,2*%
%TO.N,Net-(IC5-OPAMP+)*%
X225050000Y-108525000D03*
%TD*%
D13*
%TO.P,C5,1*%
%TO.N,Net-(IC5-OUT)*%
X218000000Y-110400000D03*
%TO.P,C5,2*%
%TO.N,Net-(IC5-OPAMP+)*%
X218000000Y-108500000D03*
%TD*%
D11*
%TO.P,R31,1*%
%TO.N,Net-(IC5-+IN)*%
X229550000Y-116300000D03*
%TO.P,R31,2*%
%TO.N,Net-(J7-Pin_2)*%
X231375000Y-116300000D03*
%TD*%
%TO.P,R34,1*%
%TO.N,3v3_A*%
X217725000Y-115000000D03*
%TO.P,R34,2*%
%TO.N,Net-(IC10-Y3)*%
X219550000Y-115000000D03*
%TD*%
%TO.P,R29,1*%
%TO.N,Net-(IC5-RLDFB)*%
X229500000Y-112300000D03*
%TO.P,R29,2*%
%TO.N,VREF_BUF*%
X231325000Y-112300000D03*
%TD*%
D17*
%TO.P,IC5,1,HPDRIVE*%
%TO.N,Net-(IC5-HPDRIVE)*%
X225350000Y-115100000D03*
%TO.P,IC5,2,+IN*%
%TO.N,Net-(IC5-+IN)*%
X225350000Y-114600000D03*
%TO.P,IC5,3,-IN*%
%TO.N,Net-(IC5--IN)*%
X225350000Y-114100000D03*
%TO.P,IC5,4,RLDFB*%
%TO.N,Net-(IC5-RLDFB)*%
X225350000Y-113600000D03*
%TO.P,IC5,5,RLD*%
%TO.N,Net-(IC5-RLD)*%
X225350000Y-113100000D03*
D16*
%TO.P,IC5,6,SW*%
%TO.N,Net-(IC5-HPSENSE)*%
X224400000Y-112150000D03*
%TO.P,IC5,7,OPAMP+*%
%TO.N,Net-(IC5-OPAMP+)*%
X223900000Y-112150000D03*
%TO.P,IC5,8,REFOUT*%
%TO.N,Net-(IC5-REFOUT)*%
X223400000Y-112150000D03*
%TO.P,IC5,9,OPAMP-*%
%TO.N,Net-(IC5-OPAMP-)*%
X222900000Y-112150000D03*
%TO.P,IC5,10,OUT*%
%TO.N,Net-(IC5-OUT)*%
X222400000Y-112150000D03*
D17*
%TO.P,IC5,11,LOD-*%
%TO.N,Net-(IC10-Y0)*%
X221450000Y-113100000D03*
%TO.P,IC5,12,LOD+*%
%TO.N,Net-(IC10-Y3)*%
X221450000Y-113600000D03*
%TO.P,IC5,13,~{SDN}*%
%TO.N,Net-(IC5-~{SDN})*%
X221450000Y-114100000D03*
%TO.P,IC5,14,AC/~{DC}*%
%TO.N,AGND*%
X221450000Y-114600000D03*
%TO.P,IC5,15,FR*%
X221450000Y-115100000D03*
D16*
%TO.P,IC5,16,GND_1*%
X222400000Y-116050000D03*
%TO.P,IC5,17,+VS*%
%TO.N,3v3_A*%
X222900000Y-116050000D03*
%TO.P,IC5,18,REFIN*%
%TO.N,VREF_BUF*%
X223400000Y-116050000D03*
%TO.P,IC5,19,IAOUT*%
%TO.N,Net-(IC5-HPSENSE)*%
X223900000Y-116050000D03*
%TO.P,IC5,20,HPSENSE*%
X224400000Y-116050000D03*
D15*
%TO.P,IC5,21,GND_2*%
%TO.N,AGND*%
X223400000Y-114100000D03*
%TD*%
D12*
%TO.P,R22,1*%
%TO.N,Net-(IC5-OUT)*%
X220150000Y-110350000D03*
%TO.P,R22,2*%
%TO.N,Net-(IC5-OPAMP-)*%
X220150000Y-108525000D03*
%TD*%
D11*
%TO.P,R33,1*%
%TO.N,3v3_A*%
X217725000Y-113000000D03*
%TO.P,R33,2*%
%TO.N,Net-(IC10-Y0)*%
X219550000Y-113000000D03*
%TD*%
D13*
%TO.P,C8,1*%
%TO.N,Net-(IC5-HPSENSE)*%
X227150000Y-118000000D03*
%TO.P,C8,2*%
%TO.N,Net-(IC5-HPDRIVE)*%
X227150000Y-116100000D03*
%TD*%
D10*
%TO.P,R32,1*%
%TO.N,Net-(IC5-HPSENSE)*%
X225250000Y-117800000D03*
%TO.P,R32,2*%
%TO.N,VREF_BUF*%
X223425000Y-117800000D03*
%TD*%
D19*
%TO.P,J1,1,Pin_1*%
%TO.N,Net-(IC3-IO16)*%
X198800000Y-129800000D03*
D20*
%TO.P,J1,2,Pin_2*%
%TO.N,Net-(IC3-IO17)*%
X199800000Y-129800000D03*
%TO.P,J1,3,Pin_3*%
%TO.N,Net-(IC3-IO18)*%
X200800000Y-129800000D03*
%TD*%
D19*
%TO.P,J2,1,Pin_1*%
%TO.N,Net-(IC3-IO12)*%
X209100000Y-118800000D03*
D20*
%TO.P,J2,2,Pin_2*%
%TO.N,Net-(IC3-IO13)*%
X209100000Y-117800000D03*
%TO.P,J2,3,Pin_3*%
%TO.N,Net-(IC3-IO14)*%
X209100000Y-116800000D03*
%TD*%
D19*
%TO.P,J3,1,Pin_1*%
%TO.N,Net-(IC3-IO21)*%
X209100000Y-114700000D03*
D20*
%TO.P,J3,2,Pin_2*%
%TO.N,Net-(IC3-IO47)*%
X209100000Y-113700000D03*
%TO.P,J3,3,Pin_3*%
%TO.N,Net-(IC3-IO48)*%
X209100000Y-112700000D03*
%TD*%
D19*
%TO.P,J11,1,Pin_1*%
%TO.N,Net-(IC3-TXD0)*%
X193260000Y-106500000D03*
D20*
%TO.P,J11,2,Pin_2*%
%TO.N,Net-(IC3-IO2)*%
X192260000Y-106500000D03*
%TO.P,J11,3,Pin_3*%
%TO.N,Net-(IC3-IO1)*%
X191260000Y-106500000D03*
%TD*%
D19*
%TO.P,J10,1,Pin_1*%
%TO.N,Net-(IC3-IO41)*%
X196260000Y-106500000D03*
D20*
%TO.P,J10,2,Pin_2*%
%TO.N,Net-(IC3-IO42)*%
X195260000Y-106500000D03*
%TO.P,J10,3,Pin_3*%
%TO.N,Net-(IC3-RXD0)*%
X194260000Y-106500000D03*
%TD*%
%TO.P,J6,3,Pin_3*%
%TO.N,Net-(IC3-IO40)*%
X197260000Y-106500000D03*
%TO.P,J6,2,Pin_2*%
%TO.N,Net-(IC3-IO39)*%
X198260000Y-106500000D03*
D19*
%TO.P,J6,1,Pin_1*%
%TO.N,Net-(IC3-IO38)*%
X199260000Y-106500000D03*
%TD*%
D20*
%TO.P,J4,3,Pin_3*%
%TO.N,Net-(IC3-IO37)*%
X200260000Y-106500000D03*
%TO.P,J4,2,Pin_2*%
%TO.N,Net-(IC3-IO36)*%
X201260000Y-106500000D03*
D19*
%TO.P,J4,1,Pin_1*%
%TO.N,Net-(IC3-IO35)*%
X202260000Y-106500000D03*
%TD*%
D11*
%TO.P,R55,2*%
%TO.N,Net-(J8-Pin_3)*%
X231225000Y-140000000D03*
%TO.P,R55,1*%
%TO.N,Net-(IC6-+IN)*%
X229400000Y-140000000D03*
%TD*%
%TO.P,R15,1*%
%TO.N,AGND*%
X206100000Y-153300000D03*
%TO.P,R15,2*%
%TO.N,/VREF_RAW*%
X207925000Y-153300000D03*
%TD*%
D12*
%TO.P,R60,1*%
%TO.N,Net-(IC7-HPSENSE)*%
X225150000Y-146050000D03*
%TO.P,R60,2*%
%TO.N,Net-(IC7-OPAMP+)*%
X225150000Y-144225000D03*
%TD*%
D21*
%TO.P,C1,1*%
%TO.N,Net-(IC1-CAP)*%
X198125000Y-146800000D03*
%TO.P,C1,2*%
%TO.N,DGND*%
X196225000Y-146800000D03*
%TD*%
D19*
%TO.P,J8,1,Pin_1*%
%TO.N,Net-(J8-Pin_1)*%
X236275000Y-129200000D03*
D20*
%TO.P,J8,2,Pin_2*%
%TO.N,Net-(J8-Pin_2)*%
X236275000Y-130200000D03*
%TO.P,J8,3,Pin_3*%
%TO.N,Net-(J8-Pin_3)*%
X236275000Y-131200000D03*
%TD*%
D10*
%TO.P,R53,1*%
%TO.N,Net-(IC6-~{SDN})*%
X219675000Y-141050000D03*
%TO.P,R53,2*%
%TO.N,3v3_A*%
X217850000Y-141050000D03*
%TD*%
D22*
%TO.P,C21,1*%
%TO.N,Net-(IC1-AIN3P)*%
X208275000Y-140100000D03*
%TO.P,C21,2*%
%TO.N,VREF_BUF*%
X210175000Y-140100000D03*
%TD*%
D17*
%TO.P,IC7,1,HPDRIVE*%
%TO.N,Net-(IC7-HPDRIVE)*%
X225450000Y-150700000D03*
%TO.P,IC7,2,+IN*%
%TO.N,Net-(IC7-+IN)*%
X225450000Y-150200000D03*
%TO.P,IC7,3,-IN*%
%TO.N,Net-(IC7--IN)*%
X225450000Y-149700000D03*
%TO.P,IC7,4,RLDFB*%
%TO.N,Net-(IC7-RLDFB)*%
X225450000Y-149200000D03*
%TO.P,IC7,5,RLD*%
%TO.N,Net-(IC7-RLD)*%
X225450000Y-148700000D03*
D16*
%TO.P,IC7,6,SW*%
%TO.N,Net-(IC7-HPSENSE)*%
X224500000Y-147750000D03*
%TO.P,IC7,7,OPAMP+*%
%TO.N,Net-(IC7-OPAMP+)*%
X224000000Y-147750000D03*
%TO.P,IC7,8,REFOUT*%
%TO.N,Net-(IC7-REFOUT)*%
X223500000Y-147750000D03*
%TO.P,IC7,9,OPAMP-*%
%TO.N,Net-(IC7-OPAMP-)*%
X223000000Y-147750000D03*
%TO.P,IC7,10,OUT*%
%TO.N,Net-(IC7-OUT)*%
X222500000Y-147750000D03*
D17*
%TO.P,IC7,11,LOD-*%
%TO.N,Net-(IC10-Y7)*%
X221550000Y-148700000D03*
%TO.P,IC7,12,LOD+*%
%TO.N,Net-(IC10-Y5)*%
X221550000Y-149200000D03*
%TO.P,IC7,13,~{SDN}*%
%TO.N,Net-(IC7-~{SDN})*%
X221550000Y-149700000D03*
%TO.P,IC7,14,AC/~{DC}*%
%TO.N,AGND*%
X221550000Y-150200000D03*
%TO.P,IC7,15,FR*%
X221550000Y-150700000D03*
D16*
%TO.P,IC7,16,GND_1*%
X222500000Y-151650000D03*
%TO.P,IC7,17,+VS*%
%TO.N,3v3_A*%
X223000000Y-151650000D03*
%TO.P,IC7,18,REFIN*%
%TO.N,VREF_BUF*%
X223500000Y-151650000D03*
%TO.P,IC7,19,IAOUT*%
%TO.N,Net-(IC7-HPSENSE)*%
X224000000Y-151650000D03*
%TO.P,IC7,20,HPSENSE*%
X224500000Y-151650000D03*
D15*
%TO.P,IC7,21,GND_2*%
%TO.N,AGND*%
X223500000Y-149700000D03*
%TD*%
D11*
%TO.P,R69,1*%
%TO.N,Net-(IC1-AIN0P)*%
X211900000Y-147300000D03*
%TO.P,R69,2*%
%TO.N,Net-(IC7-OUT)*%
X213725000Y-147300000D03*
%TD*%
%TO.P,R70,1*%
%TO.N,Net-(IC1-AIN1P)*%
X211875000Y-144850000D03*
%TO.P,R70,2*%
%TO.N,Net-(IC6-OUT)*%
X213700000Y-144850000D03*
%TD*%
D22*
%TO.P,C18,1*%
%TO.N,Net-(IC1-AIN1P)*%
X208275000Y-144850000D03*
%TO.P,C18,2*%
%TO.N,VREF_BUF*%
X210175000Y-144850000D03*
%TD*%
D13*
%TO.P,C14,1*%
%TO.N,Net-(IC6-HPSENSE)*%
X227200000Y-141700000D03*
%TO.P,C14,2*%
%TO.N,Net-(IC6-HPDRIVE)*%
X227200000Y-139800000D03*
%TD*%
D21*
%TO.P,C19,1*%
%TO.N,VREF_BUF*%
X210175000Y-147300000D03*
%TO.P,C19,2*%
%TO.N,Net-(IC1-AIN0P)*%
X208275000Y-147300000D03*
%TD*%
D23*
%TO.P,IC3,1,GND_1*%
%TO.N,DGND*%
X188390000Y-126900000D03*
%TO.P,IC3,2,3V3*%
%TO.N,3V3_D*%
X189660000Y-126900000D03*
%TO.P,IC3,3,EN*%
%TO.N,Net-(IC3-EN)*%
X190930000Y-126900000D03*
%TO.P,IC3,4,IO4*%
%TO.N,Net-(IC1-DIN)*%
X192200000Y-126900000D03*
%TO.P,IC3,5,IO5*%
%TO.N,Net-(IC1-DOUT)*%
X193470000Y-126900000D03*
%TO.P,IC3,6,IO6*%
%TO.N,Net-(IC1-SCLK)*%
X194740000Y-126900000D03*
%TO.P,IC3,7,IO7*%
%TO.N,Net-(IC1-~{DRDY})*%
X196010000Y-126900000D03*
%TO.P,IC3,8,IO15*%
%TO.N,Net-(IC1-~{CS})*%
X197280000Y-126900000D03*
%TO.P,IC3,9,IO16*%
%TO.N,Net-(IC3-IO16)*%
X198550000Y-126900000D03*
%TO.P,IC3,10,IO17*%
%TO.N,Net-(IC3-IO17)*%
X199820000Y-126900000D03*
%TO.P,IC3,11,IO18*%
%TO.N,Net-(IC3-IO18)*%
X201090000Y-126900000D03*
%TO.P,IC3,12,IO8*%
%TO.N,Net-(IC1-~{SYNC}{slash}~{RESET})*%
X202360000Y-126900000D03*
%TO.P,IC3,13,IO19*%
%TO.N,Net-(IC3-IO19)*%
X203630000Y-126900000D03*
%TO.P,IC3,14,IO20*%
%TO.N,Net-(IC3-IO20)*%
X204900000Y-126900000D03*
D24*
%TO.P,IC3,15,IO3*%
%TO.N,Net-(IC10-S0)*%
X206150000Y-125135000D03*
%TO.P,IC3,16,IO46*%
%TO.N,unconnected-(IC3-IO46-Pad16)*%
X206150000Y-123865000D03*
%TO.P,IC3,17,IO9*%
%TO.N,Net-(IC10-S1)*%
X206150000Y-122595000D03*
%TO.P,IC3,18,IO10*%
%TO.N,Net-(IC10-S2)*%
X206150000Y-121325000D03*
%TO.P,IC3,19,IO11*%
%TO.N,Net-(IC10-Z)*%
X206150000Y-120055000D03*
%TO.P,IC3,20,IO12*%
%TO.N,Net-(IC3-IO12)*%
X206150000Y-118785000D03*
%TO.P,IC3,21,IO13*%
%TO.N,Net-(IC3-IO13)*%
X206150000Y-117515000D03*
%TO.P,IC3,22,IO14*%
%TO.N,Net-(IC3-IO14)*%
X206150000Y-116245000D03*
%TO.P,IC3,23,IO21*%
%TO.N,Net-(IC3-IO21)*%
X206150000Y-114975000D03*
%TO.P,IC3,24,IO47*%
%TO.N,Net-(IC3-IO47)*%
X206150000Y-113705000D03*
%TO.P,IC3,25,IO48*%
%TO.N,Net-(IC3-IO48)*%
X206150000Y-112435000D03*
%TO.P,IC3,26,IO45*%
%TO.N,unconnected-(IC3-IO45-Pad26)*%
X206150000Y-111165000D03*
D23*
%TO.P,IC3,27,IO0*%
%TO.N,Net-(IC3-IO0)*%
X204900000Y-109400000D03*
%TO.P,IC3,28,IO35*%
%TO.N,Net-(IC3-IO35)*%
X203630000Y-109400000D03*
%TO.P,IC3,29,IO36*%
%TO.N,Net-(IC3-IO36)*%
X202360000Y-109400000D03*
%TO.P,IC3,30,IO37*%
%TO.N,Net-(IC3-IO37)*%
X201090000Y-109400000D03*
%TO.P,IC3,31,IO38*%
%TO.N,Net-(IC3-IO38)*%
X199820000Y-109400000D03*
%TO.P,IC3,32,IO39*%
%TO.N,Net-(IC3-IO39)*%
X198550000Y-109400000D03*
%TO.P,IC3,33,IO40*%
%TO.N,Net-(IC3-IO40)*%
X197280000Y-109400000D03*
%TO.P,IC3,34,IO41*%
%TO.N,Net-(IC3-IO41)*%
X196010000Y-109400000D03*
%TO.P,IC3,35,IO42*%
%TO.N,Net-(IC3-IO42)*%
X194740000Y-109400000D03*
%TO.P,IC3,36,RXD0*%
%TO.N,Net-(IC3-RXD0)*%
X193470000Y-109400000D03*
%TO.P,IC3,37,TXD0*%
%TO.N,Net-(IC3-TXD0)*%
X192200000Y-109400000D03*
%TO.P,IC3,38,IO2*%
%TO.N,Net-(IC3-IO2)*%
X190930000Y-109400000D03*
%TO.P,IC3,39,IO1*%
%TO.N,Net-(IC3-IO1)*%
X189660000Y-109400000D03*
%TO.P,IC3,40,GND_2*%
%TO.N,DGND*%
X188390000Y-109400000D03*
D25*
%TO.P,IC3,41,GND_3*%
X196110000Y-119650000D03*
%TO.P,IC3,42,GND_4*%
X194710000Y-119650000D03*
%TO.P,IC3,43,GND_5*%
X194710000Y-121050000D03*
%TO.P,IC3,44,GND_6*%
X196110000Y-121050000D03*
%TO.P,IC3,45,GND_7*%
X197510000Y-121050000D03*
%TO.P,IC3,46,GND_8*%
X197510000Y-119650000D03*
%TO.P,IC3,47,GND_9*%
X197510000Y-118250000D03*
%TO.P,IC3,48,GND_10*%
X196110000Y-118250000D03*
%TO.P,IC3,49,GND_11*%
X194710000Y-118250000D03*
%TD*%
D13*
%TO.P,C17,1*%
%TO.N,Net-(IC7-HPSENSE)*%
X227300000Y-153050000D03*
%TO.P,C17,2*%
%TO.N,Net-(IC7-HPDRIVE)*%
X227300000Y-151150000D03*
%TD*%
D11*
%TO.P,R73,1*%
%TO.N,3V3_D*%
X194875000Y-142600000D03*
%TO.P,R73,2*%
%TO.N,Net-(IC1-~{SYNC}{slash}~{RESET})*%
X196700000Y-142600000D03*
%TD*%
D18*
%TO.P,R51,1*%
%TO.N,VREF_BUF*%
X227100000Y-134375000D03*
%TO.P,R51,2*%
%TO.N,Net-(IC6-RLD)*%
X227100000Y-136200000D03*
%TD*%
D11*
%TO.P,R67,1*%
%TO.N,Net-(IC7-+IN)*%
X229525000Y-151950000D03*
%TO.P,R67,2*%
%TO.N,Net-(J9-Pin_2)*%
X231350000Y-151950000D03*
%TD*%
D12*
%TO.P,R59,1*%
%TO.N,VREF_BUF*%
X229300000Y-146100000D03*
%TO.P,R59,2*%
%TO.N,Net-(IC7-OPAMP+)*%
X229300000Y-144275000D03*
%TD*%
D26*
%TO.P,IC1,1,AVDD*%
%TO.N,3v3_A*%
X206075000Y-148100000D03*
%TO.P,IC1,2,AGND*%
%TO.N,AGND*%
X206075000Y-147450000D03*
%TO.P,IC1,3,AIN0P*%
%TO.N,Net-(IC1-AIN0P)*%
X206075000Y-146800000D03*
%TO.P,IC1,4,AIN0N*%
%TO.N,VREF_BUF*%
X206075000Y-146150000D03*
%TO.P,IC1,5,AIN1N*%
X206075000Y-145500000D03*
%TO.P,IC1,6,AIN1P*%
%TO.N,Net-(IC1-AIN1P)*%
X206075000Y-144850000D03*
%TO.P,IC1,7,AIN2P*%
%TO.N,Net-(IC1-AIN2P)*%
X206075000Y-144200000D03*
%TO.P,IC1,8,AIN2N*%
%TO.N,VREF_BUF*%
X206075000Y-143550000D03*
%TO.P,IC1,9,AIN3N*%
X206075000Y-142900000D03*
%TO.P,IC1,10,AIN3P*%
%TO.N,Net-(IC1-AIN3P)*%
X206075000Y-142250000D03*
%TO.P,IC1,11,~{SYNC}/~{RESET}*%
%TO.N,Net-(IC1-~{SYNC}{slash}~{RESET})*%
X200199000Y-142250000D03*
%TO.P,IC1,12,~{CS}*%
%TO.N,Net-(IC1-~{CS})*%
X200199000Y-142900000D03*
%TO.P,IC1,13,~{DRDY}*%
%TO.N,Net-(IC1-~{DRDY})*%
X200199000Y-143550000D03*
%TO.P,IC1,14,SCLK*%
%TO.N,Net-(IC1-SCLK)*%
X200199000Y-144200000D03*
%TO.P,IC1,15,DOUT*%
%TO.N,Net-(IC1-DOUT)*%
X200199000Y-144850000D03*
%TO.P,IC1,16,DIN*%
%TO.N,Net-(IC1-DIN)*%
X200199000Y-145500000D03*
%TO.P,IC1,17,CLKIN*%
%TO.N,DGND*%
X200199000Y-146150000D03*
%TO.P,IC1,18,CAP*%
%TO.N,Net-(IC1-CAP)*%
X200199000Y-146800000D03*
%TO.P,IC1,19,DGND*%
%TO.N,DGND*%
X200199000Y-147450000D03*
%TO.P,IC1,20,DVDD*%
%TO.N,3V3_D*%
X200199000Y-148100000D03*
%TD*%
D27*
%TO.P,IC10,1,Y4*%
%TO.N,Net-(IC10-Y4)*%
X201550000Y-140670000D03*
%TO.P,IC10,2,Y6*%
%TO.N,Net-(IC10-Y6)*%
X201550000Y-139400000D03*
%TO.P,IC10,3,Z*%
%TO.N,Net-(IC10-Z)*%
X201550000Y-138130000D03*
%TO.P,IC10,4,Y7*%
%TO.N,Net-(IC10-Y7)*%
X201550000Y-136860000D03*
%TO.P,IC10,5,Y5*%
%TO.N,Net-(IC10-Y5)*%
X201550000Y-135590000D03*
%TO.P,IC10,6,~{E}*%
%TO.N,DGND*%
X201550000Y-134320000D03*
%TO.P,IC10,7,VEE*%
X201550000Y-133050000D03*
%TO.P,IC10,8,GND*%
X201550000Y-131780000D03*
%TO.P,IC10,9,S2*%
%TO.N,Net-(IC10-S2)*%
X196100000Y-131780000D03*
%TO.P,IC10,10,S1*%
%TO.N,Net-(IC10-S1)*%
X196100000Y-133050000D03*
%TO.P,IC10,11,S0*%
%TO.N,Net-(IC10-S0)*%
X196100000Y-134320000D03*
%TO.P,IC10,12,Y3*%
%TO.N,Net-(IC10-Y3)*%
X196100000Y-135590000D03*
%TO.P,IC10,13,Y0*%
%TO.N,Net-(IC10-Y0)*%
X196100000Y-136860000D03*
%TO.P,IC10,14,Y1*%
%TO.N,Net-(IC10-Y1)*%
X196100000Y-138130000D03*
%TO.P,IC10,15,Y2*%
%TO.N,Net-(IC10-Y2)*%
X196100000Y-139400000D03*
%TO.P,IC10,16,VCC*%
%TO.N,3V3_D*%
X196100000Y-140670000D03*
%TD*%
D10*
%TO.P,R68,1*%
%TO.N,Net-(IC7-HPSENSE)*%
X225400000Y-153650000D03*
%TO.P,R68,2*%
%TO.N,VREF_BUF*%
X223575000Y-153650000D03*
%TD*%
D28*
%TO.P,IC4,1,GND*%
%TO.N,DGND*%
X193900000Y-150210000D03*
%TO.P,IC4,2,VOUT_1*%
%TO.N,3V3_D*%
X193900000Y-152500000D03*
%TO.P,IC4,3,VIN*%
%TO.N,Net-(IC4-VIN)*%
X193900000Y-154790000D03*
D29*
%TO.P,IC4,4,VOUT_2*%
%TO.N,unconnected-(IC4-VOUT_2-Pad4)*%
X200600000Y-152500000D03*
%TD*%
D30*
%TO.P,S2,1,1*%
%TO.N,Net-(IC3-IO0)*%
X191453000Y-136650000D03*
%TO.P,S2,2,2*%
%TO.N,unconnected-(S2-Pad2)*%
X183053000Y-136650000D03*
%TO.P,S2,3,3*%
%TO.N,DGND*%
X191453000Y-132150000D03*
%TO.P,S2,4,4*%
%TO.N,unconnected-(S2-Pad4)*%
X183053000Y-132150000D03*
%TO.P,S2,5,GND*%
%TO.N,unconnected-(S2-GND-Pad5)*%
X183053000Y-134400000D03*
%TD*%
D11*
%TO.P,R71,1*%
%TO.N,Net-(IC1-AIN2P)*%
X211875000Y-142550000D03*
%TO.P,R71,2*%
%TO.N,Net-(IC2-OUT)*%
X213700000Y-142550000D03*
%TD*%
D18*
%TO.P,R2,1*%
%TO.N,Net-(IC3-IO20)*%
X189400000Y-145300000D03*
%TO.P,R2,2*%
%TO.N,Net-(J5-D+-PadA6)*%
X189400000Y-147125000D03*
%TD*%
D14*
%TO.P,C13,1*%
%TO.N,AGND*%
X222700000Y-132350000D03*
%TO.P,C13,2*%
%TO.N,Net-(IC6-REFOUT)*%
X222700000Y-134250000D03*
%TD*%
D13*
%TO.P,C6,1*%
%TO.N,AGND*%
X206075000Y-151500000D03*
%TO.P,C6,2*%
%TO.N,3v3_A*%
X206075000Y-149600000D03*
%TD*%
D18*
%TO.P,R63,1*%
%TO.N,VREF_BUF*%
X227250000Y-146275000D03*
%TO.P,R63,2*%
%TO.N,Net-(IC7-RLD)*%
X227250000Y-148100000D03*
%TD*%
D10*
%TO.P,R5,1*%
%TO.N,3V3_D*%
X193600000Y-134800000D03*
%TO.P,R5,2*%
%TO.N,Net-(IC3-IO0)*%
X191775000Y-134800000D03*
%TD*%
D11*
%TO.P,R72,1*%
%TO.N,Net-(IC1-AIN3P)*%
X211875000Y-140100000D03*
%TO.P,R72,2*%
%TO.N,Net-(IC5-OUT)*%
X213700000Y-140100000D03*
%TD*%
D30*
%TO.P,S1,1,1*%
%TO.N,Net-(IC3-EN)*%
X191453000Y-143350000D03*
%TO.P,S1,2,2*%
%TO.N,unconnected-(S1-Pad2)*%
X183053000Y-143350000D03*
%TO.P,S1,3,3*%
%TO.N,DGND*%
X191453000Y-138850000D03*
%TO.P,S1,4,4*%
%TO.N,unconnected-(S1-Pad4)*%
X183053000Y-138850000D03*
%TO.P,S1,5,GND*%
%TO.N,unconnected-(S1-GND-Pad5)*%
X183053000Y-141100000D03*
%TD*%
D10*
%TO.P,R65,1*%
%TO.N,Net-(IC7-~{SDN})*%
X219800000Y-152800000D03*
%TO.P,R65,2*%
%TO.N,3v3_A*%
X217975000Y-152800000D03*
%TD*%
D11*
%TO.P,R62,1*%
%TO.N,3v3_A*%
X217975000Y-150700000D03*
%TO.P,R62,2*%
%TO.N,Net-(IC10-Y5)*%
X219800000Y-150700000D03*
%TD*%
D31*
%TO.P,R14,1*%
%TO.N,Net-(J5-CC2)*%
X191400000Y-147200000D03*
%TO.P,R14,2*%
%TO.N,DGND*%
X191400000Y-145300000D03*
%TD*%
D11*
%TO.P,R49,1*%
%TO.N,3v3_A*%
X217850000Y-136750000D03*
%TO.P,R49,2*%
%TO.N,Net-(IC10-Y6)*%
X219675000Y-136750000D03*
%TD*%
D18*
%TO.P,R1,1*%
%TO.N,Net-(IC3-IO19)*%
X187400000Y-145300000D03*
%TO.P,R1,2*%
%TO.N,Net-(J5-D--PadA7)*%
X187400000Y-147125000D03*
%TD*%
D11*
%TO.P,R36,1,1*%
%TO.N,DGND*%
X202275000Y-149850000D03*
%TO.P,R36,2,2*%
%TO.N,AGND*%
X204100000Y-149850000D03*
%TD*%
%TO.P,R4,1*%
%TO.N,Net-(IC3-EN)*%
X191375000Y-141200000D03*
%TO.P,R4,2*%
%TO.N,3V3_D*%
X193200000Y-141200000D03*
%TD*%
D32*
%TO.P,IC8,1,IN+*%
%TO.N,/VREF_RAW*%
X209907500Y-151532500D03*
%TO.P,IC8,2,V-*%
%TO.N,AGND*%
X210557500Y-151532500D03*
%TO.P,IC8,3,IN-*%
%TO.N,VREF_BUF*%
X211207500Y-151532500D03*
%TO.P,IC8,4,OUT*%
X211207500Y-149632500D03*
%TO.P,IC8,5,~{SHDN}*%
%TO.N,unconnected-(IC8-~{SHDN}-Pad5)*%
X210557500Y-149632500D03*
%TO.P,IC8,6,V+*%
%TO.N,3v3_A*%
X209907500Y-149632500D03*
%TD*%
D31*
%TO.P,R37,1*%
%TO.N,Net-(J5-CC1)*%
X185500000Y-147200000D03*
%TO.P,R37,2*%
%TO.N,DGND*%
X185500000Y-145300000D03*
%TD*%
D12*
%TO.P,R48,1*%
%TO.N,Net-(IC6-HPSENSE)*%
X225050000Y-134200000D03*
%TO.P,R48,2*%
%TO.N,Net-(IC6-OPAMP+)*%
X225050000Y-132375000D03*
%TD*%
%TO.P,R16,1*%
%TO.N,/VREF_RAW*%
X208075000Y-151425000D03*
%TO.P,R16,2*%
%TO.N,3v3_A*%
X208075000Y-149600000D03*
%TD*%
%TO.P,R57,1*%
%TO.N,VREF_BUF*%
X231600000Y-146050000D03*
%TO.P,R57,2*%
%TO.N,Net-(IC7-OPAMP-)*%
X231600000Y-144225000D03*
%TD*%
%TO.P,R25,1*%
%TO.N,VREF_BUF*%
X231425000Y-134150000D03*
%TO.P,R25,2*%
%TO.N,Net-(IC6-OPAMP-)*%
X231425000Y-132325000D03*
%TD*%
D19*
%TO.P,J9,1,Pin_1*%
%TO.N,Net-(J9-Pin_1)*%
X236275000Y-132200000D03*
D20*
%TO.P,J9,2,Pin_2*%
%TO.N,Net-(J9-Pin_2)*%
X236275000Y-133200000D03*
%TO.P,J9,3,Pin_3*%
%TO.N,VREF_BUF*%
X236275000Y-134200000D03*
%TD*%
D14*
%TO.P,C16,1*%
%TO.N,AGND*%
X222850000Y-144150000D03*
%TO.P,C16,2*%
%TO.N,Net-(IC7-REFOUT)*%
X222850000Y-146050000D03*
%TD*%
D13*
%TO.P,C10,1*%
%TO.N,Net-(J5-SHIELD)*%
X183100000Y-147200000D03*
%TO.P,C10,2*%
%TO.N,DGND*%
X183100000Y-145300000D03*
%TD*%
D11*
%TO.P,R50,1*%
%TO.N,3v3_A*%
X217850000Y-138900000D03*
%TO.P,R50,2*%
%TO.N,Net-(IC10-Y4)*%
X219675000Y-138900000D03*
%TD*%
D12*
%TO.P,R58,1*%
%TO.N,Net-(IC7-OUT)*%
X220400000Y-146050000D03*
%TO.P,R58,2*%
%TO.N,Net-(IC7-OPAMP-)*%
X220400000Y-144225000D03*
%TD*%
D21*
%TO.P,C22,1*%
%TO.N,DGND*%
X196600000Y-144700000D03*
%TO.P,C22,2*%
%TO.N,3V3_D*%
X194700000Y-144700000D03*
%TD*%
D12*
%TO.P,R27,1*%
%TO.N,VREF_BUF*%
X229125000Y-134200000D03*
%TO.P,R27,2*%
%TO.N,Net-(IC6-OPAMP+)*%
X229125000Y-132375000D03*
%TD*%
D11*
%TO.P,R54,1*%
%TO.N,Net-(IC6--IN)*%
X229375000Y-138000000D03*
%TO.P,R54,2*%
%TO.N,Net-(J8-Pin_2)*%
X231200000Y-138000000D03*
%TD*%
%TO.P,R61,1*%
%TO.N,3v3_A*%
X217964500Y-148650000D03*
%TO.P,R61,2*%
%TO.N,Net-(IC10-Y7)*%
X219789500Y-148650000D03*
%TD*%
D21*
%TO.P,C20,1*%
%TO.N,VREF_BUF*%
X210175000Y-142500000D03*
%TO.P,C20,2*%
%TO.N,Net-(IC1-AIN2P)*%
X208275000Y-142500000D03*
%TD*%
D19*
%TO.P,J7,1,Pin_1*%
%TO.N,Net-(J7-Pin_1)*%
X236225000Y-126200000D03*
D20*
%TO.P,J7,2,Pin_2*%
%TO.N,Net-(J7-Pin_2)*%
X236225000Y-127200000D03*
%TO.P,J7,3,Pin_3*%
%TO.N,Net-(J7-Pin_3)*%
X236225000Y-128200000D03*
%TD*%
D13*
%TO.P,C12,1*%
%TO.N,Net-(IC6-OUT)*%
X218050000Y-134200000D03*
%TO.P,C12,2*%
%TO.N,Net-(IC6-OPAMP+)*%
X218050000Y-132300000D03*
%TD*%
D11*
%TO.P,R66,1*%
%TO.N,Net-(IC7--IN)*%
X229525000Y-149950000D03*
%TO.P,R66,2*%
%TO.N,Net-(J9-Pin_1)*%
X231350000Y-149950000D03*
%TD*%
%TO.P,R52,1*%
%TO.N,Net-(IC6-RLDFB)*%
X229375000Y-136000000D03*
%TO.P,R52,2*%
%TO.N,VREF_BUF*%
X231200000Y-136000000D03*
%TD*%
%TO.P,R64,1*%
%TO.N,Net-(IC7-RLDFB)*%
X229525000Y-147950000D03*
%TO.P,R64,2*%
%TO.N,VREF_BUF*%
X231350000Y-147950000D03*
%TD*%
D10*
%TO.P,R56,1*%
%TO.N,Net-(IC6-HPSENSE)*%
X225300000Y-141550000D03*
%TO.P,R56,2*%
%TO.N,VREF_BUF*%
X223475000Y-141550000D03*
%TD*%
D12*
%TO.P,R26,1*%
%TO.N,Net-(IC6-OUT)*%
X220250000Y-134150000D03*
%TO.P,R26,2*%
%TO.N,Net-(IC6-OPAMP-)*%
X220250000Y-132325000D03*
%TD*%
D13*
%TO.P,C15,1*%
%TO.N,Net-(IC7-OUT)*%
X218150000Y-146100000D03*
%TO.P,C15,2*%
%TO.N,Net-(IC7-OPAMP+)*%
X218150000Y-144200000D03*
%TD*%
D17*
%TO.P,IC6,1,HPDRIVE*%
%TO.N,Net-(IC6-HPDRIVE)*%
X225350000Y-138850000D03*
%TO.P,IC6,2,+IN*%
%TO.N,Net-(IC6-+IN)*%
X225350000Y-138350000D03*
%TO.P,IC6,3,-IN*%
%TO.N,Net-(IC6--IN)*%
X225350000Y-137850000D03*
%TO.P,IC6,4,RLDFB*%
%TO.N,Net-(IC6-RLDFB)*%
X225350000Y-137350000D03*
%TO.P,IC6,5,RLD*%
%TO.N,Net-(IC6-RLD)*%
X225350000Y-136850000D03*
D16*
%TO.P,IC6,6,SW*%
%TO.N,Net-(IC6-HPSENSE)*%
X224400000Y-135900000D03*
%TO.P,IC6,7,OPAMP+*%
%TO.N,Net-(IC6-OPAMP+)*%
X223900000Y-135900000D03*
%TO.P,IC6,8,REFOUT*%
%TO.N,Net-(IC6-REFOUT)*%
X223400000Y-135900000D03*
%TO.P,IC6,9,OPAMP-*%
%TO.N,Net-(IC6-OPAMP-)*%
X222900000Y-135900000D03*
%TO.P,IC6,10,OUT*%
%TO.N,Net-(IC6-OUT)*%
X222400000Y-135900000D03*
D17*
%TO.P,IC6,11,LOD-*%
%TO.N,Net-(IC10-Y6)*%
X221450000Y-136850000D03*
%TO.P,IC6,12,LOD+*%
%TO.N,Net-(IC10-Y4)*%
X221450000Y-137350000D03*
%TO.P,IC6,13,~{SDN}*%
%TO.N,Net-(IC6-~{SDN})*%
X221450000Y-137850000D03*
%TO.P,IC6,14,AC/~{DC}*%
%TO.N,AGND*%
X221450000Y-138350000D03*
%TO.P,IC6,15,FR*%
X221450000Y-138850000D03*
D16*
%TO.P,IC6,16,GND_1*%
X222400000Y-139800000D03*
%TO.P,IC6,17,+VS*%
%TO.N,3v3_A*%
X222900000Y-139800000D03*
%TO.P,IC6,18,REFIN*%
%TO.N,VREF_BUF*%
X223400000Y-139800000D03*
%TO.P,IC6,19,IAOUT*%
%TO.N,Net-(IC6-HPSENSE)*%
X223900000Y-139800000D03*
%TO.P,IC6,20,HPSENSE*%
X224400000Y-139800000D03*
D15*
%TO.P,IC6,21,GND_2*%
%TO.N,AGND*%
X223400000Y-137850000D03*
%TD*%
D33*
%TO.P,J5,A1,GND*%
%TO.N,DGND*%
X184200000Y-149515000D03*
%TO.P,J5,A4,VBUS*%
%TO.N,Net-(IC4-VIN)*%
X185000000Y-149515000D03*
D34*
%TO.P,J5,A5,CC1*%
%TO.N,Net-(J5-CC1)*%
X186150000Y-149515000D03*
%TO.P,J5,A6,D+*%
%TO.N,Net-(J5-D+-PadA6)*%
X187150000Y-149515000D03*
%TO.P,J5,A7,D-*%
%TO.N,Net-(J5-D--PadA7)*%
X187650000Y-149515000D03*
%TO.P,J5,A8,SBU1*%
%TO.N,unconnected-(J5-SBU1-PadA8)*%
X188650000Y-149515000D03*
D33*
%TO.P,J5,A9,VBUS*%
%TO.N,Net-(IC4-VIN)*%
X189800000Y-149515000D03*
%TO.P,J5,A12,GND*%
%TO.N,DGND*%
X190600000Y-149515000D03*
%TO.P,J5,B1,GND*%
X190600000Y-149515000D03*
%TO.P,J5,B4,VBUS*%
%TO.N,Net-(IC4-VIN)*%
X189800000Y-149515000D03*
D34*
%TO.P,J5,B5,CC2*%
%TO.N,Net-(J5-CC2)*%
X189150000Y-149515000D03*
%TO.P,J5,B6,D+*%
%TO.N,Net-(J5-D+-PadA6)*%
X188150000Y-149515000D03*
%TO.P,J5,B7,D-*%
%TO.N,Net-(J5-D--PadA7)*%
X186650000Y-149515000D03*
%TO.P,J5,B8,SBU2*%
%TO.N,unconnected-(J5-SBU2-PadB8)*%
X185650000Y-149515000D03*
D33*
%TO.P,J5,B9,VBUS*%
%TO.N,Net-(IC4-VIN)*%
X185000000Y-149515000D03*
%TO.P,J5,B12,GND*%
%TO.N,DGND*%
X184200000Y-149515000D03*
D35*
%TO.P,J5,S1,SHIELD*%
%TO.N,Net-(J5-SHIELD)*%
X183080000Y-150155000D03*
D36*
X183080000Y-154335000D03*
D35*
X191720000Y-150155000D03*
D36*
X191720000Y-154335000D03*
%TD*%
D37*
%TO.N,3v3_A*%
X218300000Y-130225000D03*
%TO.N,AGND*%
X221900000Y-120450000D03*
X221900000Y-127600000D03*
%TO.N,VREF_BUF*%
X228550000Y-123300000D03*
X222700000Y-129700000D03*
X228450000Y-111375000D03*
%TO.N,AGND*%
X221700000Y-115775000D03*
X221500000Y-108525000D03*
%TO.N,Net-(IC10-Y0)*%
X219550000Y-111675000D03*
%TO.N,Net-(IC10-Y3)*%
X218650000Y-111675000D03*
%TO.N,3v3_A*%
X218300000Y-118100000D03*
%TO.N,VREF_BUF*%
X222554442Y-117829442D03*
X232850000Y-110425000D03*
X228500000Y-147100000D03*
X222450000Y-153650000D03*
X212325000Y-150550000D03*
X228375000Y-135325000D03*
X232100000Y-135100000D03*
X232850000Y-122350000D03*
X232950000Y-146050000D03*
X222600000Y-141950000D03*
%TO.N,Net-(IC1-~{CS})*%
X197300000Y-129400000D03*
X198500000Y-142900000D03*
%TO.N,Net-(IC1-~{SYNC}{slash}~{RESET})*%
X202360000Y-129400000D03*
X198621646Y-142109300D03*
%TO.N,Net-(IC1-SCLK)*%
X198500000Y-144200000D03*
X194700000Y-129400000D03*
%TO.N,DGND*%
X193900000Y-146600000D03*
X196100000Y-148075000D03*
%TO.N,AGND*%
X221350000Y-139900000D03*
X221750000Y-144150000D03*
X215170000Y-152535000D03*
X221450000Y-151750000D03*
X221700000Y-132250000D03*
X211800000Y-154100000D03*
%TO.N,3v3_A*%
X207200000Y-148700000D03*
X216800000Y-151775000D03*
X217370491Y-142140982D03*
%TO.N,Net-(IC1-~{DRDY})*%
X196000000Y-129400000D03*
X197900000Y-143525000D03*
%TO.N,Net-(IC1-DIN)*%
X198503007Y-145485768D03*
X192200000Y-129400000D03*
%TO.N,Net-(IC1-DOUT)*%
X193500000Y-129400000D03*
X197900000Y-144825000D03*
%TO.N,Net-(IC10-Y1)*%
X216230000Y-123100000D03*
X198200000Y-138100000D03*
%TO.N,Net-(IC10-Y2)*%
X216257570Y-123899528D03*
X198200000Y-139400000D03*
%TO.N,Net-(IC3-IO19)*%
X203600000Y-123900000D03*
X187400000Y-141100000D03*
%TO.N,Net-(IC10-S0)*%
X208200000Y-125100000D03*
X197900000Y-134300000D03*
%TO.N,Net-(IC3-EN)*%
X190900000Y-129400000D03*
X193000000Y-142600000D03*
%TO.N,Net-(IC10-S1)*%
X207500000Y-122595000D03*
X197900000Y-133000000D03*
%TO.N,Net-(IC10-S2)*%
X197900000Y-131800000D03*
X207500000Y-121400000D03*
%TO.N,Net-(IC3-IO0)*%
X185100000Y-129300000D03*
X204900000Y-107100000D03*
%TO.N,Net-(IC3-IO20)*%
X189400000Y-141100000D03*
X204899998Y-124700000D03*
%TO.N,Net-(IC10-Y0)*%
X198200000Y-136900000D03*
%TO.N,Net-(IC10-Y3)*%
X198200000Y-135600000D03*
%TO.N,Net-(IC10-Y4)*%
X203320000Y-140700000D03*
X216725000Y-135900000D03*
%TO.N,Net-(IC10-Y6)*%
X203300000Y-139400000D03*
X216800000Y-135100000D03*
%TO.N,Net-(IC10-Y7)*%
X215440000Y-150130000D03*
X204300000Y-136800000D03*
%TO.N,Net-(IC10-Y5)*%
X204300000Y-135600000D03*
X216075000Y-151120000D03*
%TD*%
D38*
%TO.N,3v3_A*%
X218462500Y-117937500D02*
X218462500Y-117737500D01*
X218300000Y-118100000D02*
X218462500Y-117937500D01*
X218462500Y-117737500D02*
X217725000Y-117000000D01*
%TO.N,Net-(J7-Pin_3)*%
X231725000Y-126400000D02*
X231375000Y-126050000D01*
%TO.N,Net-(J8-Pin_1)*%
X231850000Y-128050000D02*
X231375000Y-128050000D01*
%TO.N,AGND*%
X222600000Y-127850000D02*
X222150000Y-127850000D01*
X222150000Y-127850000D02*
X221900000Y-127600000D01*
X221650000Y-126400000D02*
X221650000Y-126900000D01*
X223600000Y-125900000D02*
X221900000Y-127600000D01*
X222600000Y-127850000D02*
X222600000Y-126900000D01*
X222600000Y-126900000D02*
X223600000Y-125900000D01*
X222850000Y-120450000D02*
X222950000Y-120350000D01*
X221650000Y-126400000D02*
X223100000Y-126400000D01*
X221900000Y-120450000D02*
X222850000Y-120450000D01*
%TO.N,3v3_A*%
X223100000Y-128400000D02*
X221524000Y-129976000D01*
X223100000Y-127850000D02*
X223100000Y-128400000D01*
X221524000Y-129976000D02*
X219076000Y-129976000D01*
X218050000Y-124875000D02*
X218075000Y-124850000D01*
X218300000Y-129200000D02*
X218050000Y-128950000D01*
X218050000Y-128950000D02*
X218050000Y-124875000D01*
X218300000Y-130225000D02*
X218300000Y-129200000D01*
X219076000Y-129976000D02*
X218050000Y-128950000D01*
%TO.N,Net-(IC2-HPSENSE)*%
X224600000Y-123950000D02*
X224600000Y-122950000D01*
X227400000Y-129650000D02*
X229484014Y-129650000D01*
%TO.N,Net-(IC2-OPAMP-)*%
X217701000Y-118949000D02*
X230124000Y-118949000D01*
%TO.N,Net-(IC2-RLDFB)*%
X228200000Y-125400000D02*
X229550000Y-124050000D01*
%TO.N,Net-(IC2-HPSENSE)*%
X229484014Y-129650000D02*
X230450000Y-128684014D01*
X224600000Y-127850000D02*
X224600000Y-128825000D01*
X230450000Y-121865986D02*
X229934014Y-121350000D01*
%TO.N,Net-(IC2-OPAMP-)*%
X223100000Y-123950000D02*
X223100000Y-123223000D01*
X220400000Y-120425000D02*
X219525000Y-121300000D01*
X230124000Y-118949000D02*
X231600000Y-120425000D01*
X223100000Y-123223000D02*
X222953000Y-123076000D01*
%TO.N,Net-(IC2-OUT)*%
X222600000Y-123950000D02*
X222100000Y-123950000D01*
%TO.N,Net-(IC2-HPSENSE)*%
X224600000Y-128825000D02*
X225425000Y-129650000D01*
X230450000Y-128684014D02*
X230450000Y-121865986D01*
%TO.N,Net-(IC2-OPAMP-)*%
X217100000Y-120900000D02*
X217100000Y-119550000D01*
X217500000Y-121300000D02*
X217100000Y-120900000D01*
X222953000Y-123076000D02*
X222229486Y-123076000D01*
X217100000Y-119550000D02*
X217701000Y-118949000D01*
X222229486Y-123076000D02*
X221600000Y-122446514D01*
X221600000Y-122446514D02*
X221600000Y-121625000D01*
%TO.N,Net-(IC2-OUT)*%
X220400000Y-122250000D02*
X218250000Y-122250000D01*
X222100000Y-123950000D02*
X220400000Y-122250000D01*
%TO.N,Net-(IC2-OPAMP-)*%
X221600000Y-121625000D02*
X220400000Y-120425000D01*
X219525000Y-121300000D02*
X217500000Y-121300000D01*
%TO.N,Net-(IC2-RLDFB)*%
X225550000Y-125400000D02*
X228200000Y-125400000D01*
%TO.N,Net-(IC2-HPSENSE)*%
X224600000Y-122950000D02*
X225300000Y-122250000D01*
X224600000Y-127850000D02*
X224100000Y-127850000D01*
X225425000Y-129650000D02*
X227400000Y-129650000D01*
%TO.N,Net-(IC10-Y2)*%
X216900475Y-123899528D02*
X217100003Y-123700000D01*
%TO.N,Net-(IC2-REFOUT)*%
X223600000Y-123950000D02*
X223600000Y-122900000D01*
%TO.N,Net-(IC2--IN)*%
X225550000Y-125900000D02*
X229400000Y-125900000D01*
%TO.N,Net-(IC2-~{SDN})*%
X221650000Y-125900000D02*
X221060810Y-125900000D01*
%TO.N,Net-(IC2-HPDRIVE)*%
X226550000Y-126900000D02*
X227400000Y-127750000D01*
%TO.N,Net-(IC10-Y2)*%
X217100003Y-123700000D02*
X218700000Y-123700000D01*
%TO.N,Net-(IC2-OPAMP+)*%
X229300000Y-120425000D02*
X225300000Y-120425000D01*
X218250000Y-120350000D02*
X219200000Y-119400000D01*
%TO.N,Net-(IC2-RLD)*%
X226650000Y-124900000D02*
X227300000Y-124250000D01*
%TO.N,Net-(IC2-~{SDN})*%
X221060810Y-125900000D02*
X220850000Y-126110810D01*
%TO.N,Net-(IC2-HPSENSE)*%
X226200000Y-121350000D02*
X225300000Y-122250000D01*
%TO.N,Net-(IC10-Y1)*%
X221650000Y-124900000D02*
X219950000Y-124900000D01*
%TO.N,Net-(IC2-~{SDN})*%
X220850000Y-127975000D02*
X219875000Y-128950000D01*
%TO.N,Net-(IC2-HPSENSE)*%
X229934014Y-121350000D02*
X226200000Y-121350000D01*
%TO.N,Net-(IC10-Y1)*%
X219900000Y-124150000D02*
X219900000Y-124850000D01*
%TO.N,Net-(IC2--IN)*%
X229400000Y-125900000D02*
X229550000Y-126050000D01*
%TO.N,Net-(IC2-OPAMP+)*%
X219200000Y-119400000D02*
X224275000Y-119400000D01*
X224100000Y-123950000D02*
X224100000Y-121625000D01*
X224100000Y-121625000D02*
X225300000Y-120425000D01*
X224275000Y-119400000D02*
X225300000Y-120425000D01*
%TO.N,Net-(IC10-Y2)*%
X219000000Y-126000000D02*
X219900000Y-126900000D01*
X219000000Y-124000000D02*
X219000000Y-126000000D01*
X220911500Y-125400000D02*
X219900000Y-126411500D01*
%TO.N,Net-(IC2-RLD)*%
X225550000Y-124900000D02*
X226650000Y-124900000D01*
%TO.N,Net-(IC10-Y1)*%
X219950000Y-124900000D02*
X219900000Y-124850000D01*
%TO.N,Net-(IC10-Y2)*%
X218700000Y-123700000D02*
X219000000Y-124000000D01*
%TO.N,Net-(IC2-+IN)*%
X228365986Y-126400000D02*
X229550000Y-127584014D01*
X229550000Y-127584014D02*
X229550000Y-128050000D01*
%TO.N,Net-(IC10-Y1)*%
X218850000Y-123100000D02*
X219900000Y-124150000D01*
%TO.N,Net-(IC2-~{SDN})*%
X220850000Y-126110810D02*
X220850000Y-127975000D01*
%TO.N,Net-(IC2-HPDRIVE)*%
X225550000Y-126900000D02*
X226550000Y-126900000D01*
%TO.N,Net-(IC2-+IN)*%
X225550000Y-126400000D02*
X228365986Y-126400000D01*
%TO.N,Net-(IC10-Y2)*%
X219900000Y-126411500D02*
X219900000Y-126900000D01*
%TO.N,Net-(IC2-REFOUT)*%
X223600000Y-122900000D02*
X222950000Y-122250000D01*
%TO.N,Net-(IC10-Y2)*%
X221650000Y-125400000D02*
X220911500Y-125400000D01*
%TO.N,VREF_BUF*%
X232850000Y-122350000D02*
X231700000Y-122350000D01*
X228550000Y-122475000D02*
X228500000Y-122425000D01*
X231375000Y-124050000D02*
X231375000Y-122525000D01*
X231700000Y-122350000D02*
X231600000Y-122250000D01*
X228550000Y-123300000D02*
X228550000Y-122475000D01*
X231375000Y-122525000D02*
X231650000Y-122250000D01*
X229125000Y-122425000D02*
X229300000Y-122250000D01*
X222750000Y-129650000D02*
X222700000Y-129700000D01*
X223600000Y-127850000D02*
X223600000Y-129650000D01*
X223600000Y-129650000D02*
X222750000Y-129650000D01*
X227300000Y-122425000D02*
X228500000Y-122425000D01*
X228500000Y-122425000D02*
X229125000Y-122425000D01*
%TO.N,AGND*%
X223100000Y-126400000D02*
X223600000Y-125900000D01*
X221650000Y-126900000D02*
X222600000Y-126900000D01*
X221650000Y-126900000D02*
X221650000Y-127350000D01*
X221650000Y-127350000D02*
X221900000Y-127600000D01*
%TO.N,Net-(J7-Pin_1)*%
X232450000Y-114300000D02*
X231350000Y-114300000D01*
X236225000Y-126200000D02*
X236225000Y-118075000D01*
X236225000Y-118075000D02*
X232450000Y-114300000D01*
%TO.N,Net-(IC5-OPAMP+)*%
X219000000Y-107500000D02*
X218000000Y-108500000D01*
%TO.N,Net-(IC5-HPSENSE)*%
X226000000Y-109400000D02*
X225050000Y-110350000D01*
X224400000Y-112150000D02*
X224400000Y-111000000D01*
X230400000Y-116984014D02*
X230400000Y-109800000D01*
%TO.N,Net-(IC10-Y3)*%
X219550000Y-115000000D02*
X218650000Y-114100000D01*
%TO.N,Net-(IC5-HPSENSE)*%
X227150000Y-118000000D02*
X229384014Y-118000000D01*
%TO.N,Net-(IC5-OPAMP-)*%
X230150000Y-107050000D02*
X217100000Y-107050000D01*
X222876000Y-111399000D02*
X221899000Y-111399000D01*
X231600000Y-108500000D02*
X230150000Y-107050000D01*
X222900000Y-112150000D02*
X222900000Y-111423000D01*
X219275000Y-109400000D02*
X220150000Y-108525000D01*
X221899000Y-111399000D02*
X221400000Y-110900000D01*
%TO.N,Net-(IC5-RLDFB)*%
X227950000Y-113600000D02*
X229250000Y-112300000D01*
%TO.N,Net-(IC5-HPSENSE)*%
X224400000Y-116950000D02*
X225250000Y-117800000D01*
X225250000Y-117800000D02*
X226950000Y-117800000D01*
X226950000Y-117800000D02*
X227150000Y-118000000D01*
%TO.N,Net-(IC10-Y3)*%
X219550000Y-114635190D02*
X219550000Y-115000000D01*
X220585190Y-113600000D02*
X219550000Y-114635190D01*
X221450000Y-113600000D02*
X220585190Y-113600000D01*
%TO.N,Net-(IC5-HPSENSE)*%
X230000000Y-109400000D02*
X226000000Y-109400000D01*
X224400000Y-111000000D02*
X225050000Y-110350000D01*
%TO.N,Net-(IC5-RLDFB)*%
X229250000Y-112300000D02*
X229500000Y-112300000D01*
%TO.N,Net-(IC5-HPSENSE)*%
X230400000Y-109800000D02*
X230000000Y-109400000D01*
X229384014Y-118000000D02*
X230400000Y-116984014D01*
X224400000Y-116050000D02*
X224400000Y-116950000D01*
%TO.N,Net-(IC5-RLDFB)*%
X225350000Y-113600000D02*
X227950000Y-113600000D01*
%TO.N,Net-(IC5-HPSENSE)*%
X224400000Y-116050000D02*
X223900000Y-116050000D01*
%TO.N,Net-(IC5-RLD)*%
X225350000Y-113100000D02*
X226500000Y-113100000D01*
X226500000Y-113100000D02*
X227100000Y-112500000D01*
%TO.N,Net-(IC5-OPAMP-)*%
X222900000Y-111423000D02*
X222876000Y-111399000D01*
X221400000Y-110900000D02*
X221400000Y-109775000D01*
%TO.N,Net-(IC10-Y3)*%
X218650000Y-114100000D02*
X218650000Y-111675000D01*
%TO.N,Net-(IC5-OPAMP-)*%
X216850000Y-109050000D02*
X217200000Y-109400000D01*
X217100000Y-107050000D02*
X216850000Y-107300000D01*
X217200000Y-109400000D02*
X219275000Y-109400000D01*
X216850000Y-107300000D02*
X216850000Y-109050000D01*
%TO.N,Net-(IC10-Y0)*%
X219550000Y-113000000D02*
X219550000Y-111675000D01*
X221450000Y-113100000D02*
X219650000Y-113100000D01*
X219650000Y-113100000D02*
X219550000Y-113000000D01*
%TO.N,Net-(IC5-OUT)*%
X222400000Y-112150000D02*
X221950000Y-112150000D01*
%TO.N,Net-(IC5-HPDRIVE)*%
X226150000Y-115100000D02*
X227150000Y-116100000D01*
%TO.N,Net-(IC5-REFOUT)*%
X223400000Y-111150000D02*
X222650000Y-110400000D01*
%TO.N,Net-(IC5-+IN)*%
X229550000Y-116150000D02*
X229550000Y-116300000D01*
X225350000Y-114600000D02*
X228000000Y-114600000D01*
%TO.N,Net-(IC5-OUT)*%
X220150000Y-110350000D02*
X218050000Y-110350000D01*
X221950000Y-112150000D02*
X220150000Y-110350000D01*
X218050000Y-110350000D02*
X218000000Y-110400000D01*
%TO.N,Net-(IC5-REFOUT)*%
X223400000Y-112150000D02*
X223400000Y-111150000D01*
%TO.N,Net-(IC5-OUT)*%
X217525000Y-110325000D02*
X217225000Y-110325000D01*
%TO.N,Net-(IC5-HPDRIVE)*%
X225350000Y-115100000D02*
X226150000Y-115100000D01*
%TO.N,Net-(IC5-+IN)*%
X228000000Y-114600000D02*
X229550000Y-116150000D01*
%TO.N,Net-(IC5-OPAMP+)*%
X223900000Y-112150000D02*
X223900000Y-109675000D01*
X225075000Y-108500000D02*
X225050000Y-108525000D01*
X229200000Y-108500000D02*
X225075000Y-108500000D01*
X223900000Y-109675000D02*
X225050000Y-108525000D01*
X228200000Y-107500000D02*
X219000000Y-107500000D01*
%TO.N,Net-(IC5-~{SDN})*%
X220723000Y-114100000D02*
X220388500Y-114434500D01*
%TO.N,Net-(IC5-OPAMP-)*%
X221400000Y-109775000D02*
X220150000Y-108525000D01*
%TO.N,Net-(IC5-~{SDN})*%
X220388500Y-116161500D02*
X219550000Y-117000000D01*
X220388500Y-114434500D02*
X220388500Y-116161500D01*
%TO.N,Net-(IC5-OUT)*%
X217300000Y-110400000D02*
X217225000Y-110325000D01*
X218000000Y-110400000D02*
X217300000Y-110400000D01*
%TO.N,Net-(J7-Pin_2)*%
X231525000Y-116225000D02*
X234000000Y-118700000D01*
%TO.N,AGND*%
X221450000Y-115100000D02*
X221450000Y-114600000D01*
X222400000Y-115100000D02*
X223400000Y-114100000D01*
X223400000Y-114100000D02*
X223375000Y-114100000D01*
X222400000Y-116050000D02*
X222400000Y-115100000D01*
X221450000Y-114600000D02*
X222900000Y-114600000D01*
X221450000Y-115100000D02*
X222400000Y-115100000D01*
X222625000Y-108525000D02*
X222650000Y-108500000D01*
X221500000Y-108525000D02*
X222625000Y-108525000D01*
X222900000Y-114600000D02*
X223400000Y-114100000D01*
%TO.N,3v3_A*%
X221350000Y-118150000D02*
X218875000Y-118150000D01*
X222900000Y-116600000D02*
X221350000Y-118150000D01*
X217725000Y-117000000D02*
X217725000Y-113000000D01*
X218875000Y-118150000D02*
X217725000Y-117000000D01*
X222900000Y-116050000D02*
X222900000Y-116600000D01*
%TO.N,VREF_BUF*%
X222583884Y-117800000D02*
X222554442Y-117829442D01*
X231325000Y-112300000D02*
X231325000Y-110600000D01*
X232850000Y-110425000D02*
X231700000Y-110425000D01*
X228450000Y-110675000D02*
X228850000Y-110675000D01*
X223425000Y-117800000D02*
X222583884Y-117800000D01*
X223400000Y-117775000D02*
X223425000Y-117800000D01*
X228450000Y-111375000D02*
X228450000Y-110675000D01*
X228850000Y-110675000D02*
X229200000Y-110325000D01*
X223400000Y-116050000D02*
X223400000Y-117775000D01*
X231700000Y-110425000D02*
X231600000Y-110325000D01*
X231325000Y-110600000D02*
X231600000Y-110325000D01*
X227100000Y-110675000D02*
X228450000Y-110675000D01*
%TO.N,AGND*%
X223375000Y-114100000D02*
X221700000Y-115775000D01*
X221975000Y-116050000D02*
X221700000Y-115775000D01*
X221450000Y-115525000D02*
X221700000Y-115775000D01*
X221450000Y-115100000D02*
X221450000Y-115525000D01*
X222400000Y-116050000D02*
X221975000Y-116050000D01*
%TO.N,Net-(IC5-~{SDN})*%
X221450000Y-114100000D02*
X220723000Y-114100000D01*
%TO.N,Net-(IC5--IN)*%
X225350000Y-114100000D02*
X229325000Y-114100000D01*
X229325000Y-114100000D02*
X229525000Y-114300000D01*
%TO.N,Net-(IC5-OPAMP+)*%
X229200000Y-108500000D02*
X228200000Y-107500000D01*
%TO.N,Net-(IC5-OUT)*%
X217450000Y-110325000D02*
X215075000Y-110325000D01*
%TO.N,Net-(J7-Pin_2)*%
X234000000Y-118700000D02*
X234000000Y-125400000D01*
X235800000Y-127200000D02*
X236225000Y-127200000D01*
X234000000Y-125400000D02*
X235800000Y-127200000D01*
%TO.N,Net-(IC3-EN)*%
X192203000Y-142600000D02*
X191453000Y-143350000D01*
X193000000Y-142600000D02*
X192203000Y-142600000D01*
%TO.N,DGND*%
X191175620Y-148600000D02*
X191137810Y-148637810D01*
X191250000Y-148600000D02*
X191175620Y-148600000D01*
X191137810Y-148637810D02*
X190600000Y-148637810D01*
X191250000Y-148650000D02*
X191250000Y-148600000D01*
X191050000Y-148850000D02*
X191250000Y-148650000D01*
X190600000Y-149200000D02*
X190950000Y-148850000D01*
X190950000Y-148850000D02*
X191050000Y-148850000D01*
X190600000Y-149515000D02*
X190600000Y-149200000D01*
X190600000Y-148650000D02*
X190600000Y-148637810D01*
X190450000Y-148800000D02*
X190600000Y-148650000D01*
X190600000Y-148950000D02*
X190450000Y-148800000D01*
X191150000Y-148400000D02*
X191050000Y-148500000D01*
X190600000Y-148950000D02*
X191150000Y-148400000D01*
X190600000Y-149515000D02*
X190600000Y-148950000D01*
X190600000Y-148637810D02*
X191087810Y-148150000D01*
X193650000Y-148150000D02*
X193900000Y-148400000D01*
X191087810Y-148150000D02*
X193650000Y-148150000D01*
%TO.N,Net-(J5-CC2)*%
X190800000Y-147800000D02*
X191400000Y-147200000D01*
X189787678Y-148112322D02*
X189850000Y-148050000D01*
X189787678Y-148200000D02*
X189787678Y-148112322D01*
X190250000Y-148050000D02*
X190500000Y-147800000D01*
X190500000Y-147800000D02*
X190800000Y-147800000D01*
X189150000Y-148837678D02*
X189787678Y-148200000D01*
X189850000Y-148050000D02*
X190250000Y-148050000D01*
X189150000Y-149515000D02*
X189150000Y-148837678D01*
%TO.N,DGND*%
X184300000Y-149415000D02*
X184200000Y-149515000D01*
X184300000Y-146500000D02*
X184300000Y-149415000D01*
X185500000Y-145300000D02*
X184300000Y-146500000D01*
%TO.N,AGND*%
X221450000Y-139800000D02*
X221350000Y-139900000D01*
X222200000Y-139800000D02*
X221450000Y-139800000D01*
X221450000Y-138850000D02*
X221450000Y-139800000D01*
X221450000Y-138350000D02*
X221450000Y-138850000D01*
X222400000Y-139800000D02*
X222200000Y-139800000D01*
%TO.N,Net-(IC6-HPSENSE)*%
X225800000Y-133300000D02*
X224400000Y-134700000D01*
X230070440Y-133300000D02*
X225800000Y-133300000D01*
X230342912Y-133572472D02*
X230070440Y-133300000D01*
X224400000Y-134700000D02*
X224400000Y-135900000D01*
X230342912Y-140990935D02*
X230342912Y-133572472D01*
X229633847Y-141700000D02*
X230342912Y-140990935D01*
X227200000Y-141700000D02*
X229633847Y-141700000D01*
%TO.N,VREF_BUF*%
X204475000Y-141500000D02*
X204475000Y-142950000D01*
X223475000Y-141550000D02*
X223000000Y-141550000D01*
X212383014Y-141524000D02*
X212713500Y-141193514D01*
X212383014Y-143824000D02*
X212713500Y-143493514D01*
X206075000Y-143550000D02*
X204475000Y-143550000D01*
X211125000Y-149550000D02*
X211125000Y-150550000D01*
X211125000Y-150550000D02*
X211125000Y-151450000D01*
X212383014Y-141524000D02*
X211151000Y-141524000D01*
X204475000Y-143550000D02*
X204475000Y-145450000D01*
X211151000Y-141524000D02*
X210175000Y-142500000D01*
X204675000Y-146150000D02*
X206075000Y-146150000D01*
X231350000Y-147950000D02*
X231350000Y-146300000D01*
X228400000Y-135300000D02*
X228400000Y-134375000D01*
X231475000Y-134475000D02*
X231475000Y-134200000D01*
X212383014Y-143824000D02*
X212713500Y-144154486D01*
X204475000Y-145950000D02*
X204675000Y-146150000D01*
X211077000Y-139198000D02*
X210175000Y-140100000D01*
X211201000Y-143824000D02*
X210175000Y-144850000D01*
X231475000Y-134200000D02*
X231425000Y-134150000D01*
X206075000Y-142900000D02*
X204525000Y-142900000D01*
X204475000Y-145450000D02*
X204475000Y-145950000D01*
X211207500Y-149632500D02*
X212886500Y-147953500D01*
X222450000Y-153650000D02*
X223575000Y-153650000D01*
X231150000Y-136025000D02*
X231150000Y-134325000D01*
X212713500Y-141193514D02*
X212713500Y-139404486D01*
X223400000Y-141475000D02*
X223400000Y-139800000D01*
X207025000Y-138950000D02*
X204475000Y-141500000D01*
X212713500Y-143493514D02*
X212713500Y-141854486D01*
X232100000Y-135100000D02*
X231475000Y-134475000D01*
X223000000Y-141550000D02*
X222600000Y-141950000D01*
X231350000Y-146300000D02*
X231600000Y-146050000D01*
X212383014Y-143824000D02*
X211201000Y-143824000D01*
X228500000Y-146275000D02*
X229125000Y-146275000D01*
X212259014Y-138950000D02*
X211077000Y-138950000D01*
X228950000Y-134375000D02*
X229125000Y-134200000D01*
X232950000Y-146050000D02*
X231600000Y-146050000D01*
X228375000Y-135325000D02*
X228400000Y-135300000D01*
X223500000Y-151650000D02*
X223500000Y-153575000D01*
X228400000Y-134375000D02*
X228950000Y-134375000D01*
X212503507Y-146369493D02*
X212503507Y-146178507D01*
X212482014Y-146200000D02*
X211275000Y-146200000D01*
X223500000Y-153575000D02*
X223575000Y-153650000D01*
X204475000Y-142950000D02*
X204475000Y-143550000D01*
X211275000Y-146200000D02*
X210175000Y-147300000D01*
X227100000Y-134375000D02*
X228950000Y-134375000D01*
X211077000Y-138950000D02*
X211077000Y-139198000D01*
X228500000Y-147100000D02*
X228500000Y-146275000D01*
X212713500Y-139404486D02*
X212259014Y-138950000D01*
X212886500Y-146752486D02*
X212503507Y-146369493D01*
X223487500Y-151662500D02*
X223500000Y-151650000D01*
X222600000Y-141950000D02*
X222750000Y-142100000D01*
X204525000Y-145500000D02*
X204475000Y-145450000D01*
X223475000Y-141550000D02*
X223400000Y-141475000D01*
X212713500Y-141854486D02*
X212383014Y-141524000D01*
X227250000Y-146275000D02*
X228500000Y-146275000D01*
X212886500Y-147953500D02*
X212886500Y-146752486D01*
X229125000Y-146275000D02*
X229300000Y-146100000D01*
X212713500Y-145968514D02*
X212482014Y-146200000D01*
X211125000Y-150550000D02*
X212325000Y-150550000D01*
X212713500Y-144154486D02*
X212713500Y-145968514D01*
X206075000Y-145500000D02*
X204525000Y-145500000D01*
X204525000Y-142900000D02*
X204475000Y-142950000D01*
X211077000Y-138950000D02*
X207025000Y-138950000D01*
%TO.N,3V3_D*%
X194800000Y-148100000D02*
X194800000Y-142675000D01*
X194300000Y-141200000D02*
X194300000Y-134800000D01*
X193200000Y-141200000D02*
X194300000Y-141200000D01*
X195400000Y-148700000D02*
X194800000Y-148100000D01*
X194875000Y-142600000D02*
X194800000Y-142600000D01*
X193900000Y-152500000D02*
X195400000Y-151000000D01*
X194800000Y-142675000D02*
X194875000Y-142600000D01*
X194300000Y-134800000D02*
X193600000Y-134800000D01*
X194300000Y-132400000D02*
X192500000Y-130600000D01*
X195430000Y-140670000D02*
X196100000Y-140670000D01*
X194875000Y-142600000D02*
X194875000Y-141225000D01*
X194800000Y-142600000D02*
X194300000Y-142100000D01*
X199599000Y-148700000D02*
X195400000Y-148700000D01*
X192500000Y-130600000D02*
X190700000Y-130600000D01*
X200199000Y-148100000D02*
X199599000Y-148700000D01*
X194700000Y-144700000D02*
X194700000Y-142800000D01*
X195400000Y-151000000D02*
X195400000Y-148700000D01*
X194300000Y-134800000D02*
X194300000Y-132400000D01*
X194300000Y-142100000D02*
X194300000Y-141200000D01*
X189625000Y-126935000D02*
X189660000Y-126900000D01*
X189660000Y-129560000D02*
X189660000Y-126900000D01*
X194875000Y-141225000D02*
X195430000Y-140670000D01*
X190700000Y-130600000D02*
X189660000Y-129560000D01*
%TO.N,Net-(IC1-AIN2P)*%
X208275000Y-142500000D02*
X209425000Y-143650000D01*
X210571514Y-143650000D02*
X211671514Y-142550000D01*
X207062500Y-144200000D02*
X208275000Y-142987500D01*
X209425000Y-143650000D02*
X210571514Y-143650000D01*
X208275000Y-142987500D02*
X208275000Y-142500000D01*
X211671514Y-142550000D02*
X211875000Y-142550000D01*
X206075000Y-144200000D02*
X207062500Y-144200000D01*
%TO.N,Net-(IC1-~{CS})*%
X197280000Y-129380000D02*
X197280000Y-126900000D01*
X198500000Y-142900000D02*
X200199000Y-142900000D01*
X197300000Y-129400000D02*
X197280000Y-129380000D01*
%TO.N,Net-(IC1-~{SYNC}{slash}~{RESET})*%
X198621646Y-142109300D02*
X197190700Y-142109300D01*
X197190700Y-142109300D02*
X196700000Y-142600000D01*
X202360000Y-129400000D02*
X202360000Y-126900000D01*
X198762346Y-142250000D02*
X200199000Y-142250000D01*
X198621646Y-142109300D02*
X198762346Y-142250000D01*
%TO.N,Net-(IC1-SCLK)*%
X194740000Y-128760000D02*
X194740000Y-126900000D01*
X194700000Y-129400000D02*
X194700000Y-128800000D01*
X200199000Y-144200000D02*
X198500000Y-144200000D01*
X194700000Y-128800000D02*
X194740000Y-128760000D01*
%TO.N,DGND*%
X201262500Y-147374000D02*
X201262500Y-146226000D01*
X192700000Y-133397000D02*
X191453000Y-132150000D01*
X190500000Y-146200000D02*
X191400000Y-145300000D01*
X185500000Y-145300000D02*
X183100000Y-145300000D01*
X196100000Y-146925000D02*
X196225000Y-146800000D01*
X193900000Y-147300000D02*
X193900000Y-146600000D01*
X200199000Y-147450000D02*
X199350000Y-147450000D01*
X193900000Y-147300000D02*
X193900000Y-148400000D01*
X196100000Y-148075000D02*
X196100000Y-146925000D01*
X186400000Y-146200000D02*
X190500000Y-146200000D01*
X188390000Y-126900000D02*
X188390000Y-126318000D01*
X196225000Y-147125000D02*
X196225000Y-146800000D01*
X190300000Y-140003000D02*
X191453000Y-138850000D01*
X201600000Y-145888500D02*
X201600000Y-141600000D01*
X196225000Y-146800000D02*
X196500000Y-146525000D01*
X191453000Y-132150000D02*
X188390000Y-129087000D01*
X201262500Y-146226000D02*
X201186500Y-146150000D01*
X199900000Y-135545000D02*
X201125000Y-134320000D01*
X191453000Y-138850000D02*
X192700000Y-137603000D01*
X198800000Y-148000000D02*
X197100000Y-148000000D01*
X191900000Y-145300000D02*
X191400000Y-145300000D01*
X196500000Y-146525000D02*
X196500000Y-144800000D01*
X200199000Y-147450000D02*
X200099000Y-147550000D01*
X200800000Y-141600000D02*
X199900000Y-140700000D01*
X193900000Y-148400000D02*
X193900000Y-150210000D01*
X201125000Y-134320000D02*
X201550000Y-134320000D01*
X201186500Y-147450000D02*
X202275000Y-148538500D01*
X188390000Y-111930000D02*
X188390000Y-109400000D01*
X188390000Y-129087000D02*
X188390000Y-126900000D01*
X201600000Y-141600000D02*
X200800000Y-141600000D01*
X201550000Y-134320000D02*
X201550000Y-133050000D01*
X193658000Y-121050000D02*
X194710000Y-121050000D01*
X197100000Y-148000000D02*
X196225000Y-147125000D01*
X199900000Y-140700000D02*
X199900000Y-135545000D01*
X188390000Y-126900000D02*
X188390000Y-126210000D01*
X194710000Y-118250000D02*
X188390000Y-111930000D01*
X200199000Y-147450000D02*
X201186500Y-147450000D01*
X202275000Y-148538500D02*
X202275000Y-149850000D01*
X201186500Y-146150000D02*
X200199000Y-146150000D01*
X188390000Y-126318000D02*
X193658000Y-121050000D01*
X199350000Y-147450000D02*
X198800000Y-148000000D01*
X191400000Y-145300000D02*
X190300000Y-144200000D01*
X193900000Y-147300000D02*
X191900000Y-145300000D01*
X201186500Y-147450000D02*
X201262500Y-147374000D01*
X190300000Y-144200000D02*
X190300000Y-140003000D01*
X196500000Y-144800000D02*
X196600000Y-144700000D01*
X186400000Y-146200000D02*
X185500000Y-145300000D01*
X201550000Y-133050000D02*
X201550000Y-131780000D01*
X192700000Y-137603000D02*
X192700000Y-133397000D01*
X201262500Y-146226000D02*
X201600000Y-145888500D01*
%TO.N,Net-(IC1-AIN3P)*%
X210675000Y-141300000D02*
X211875000Y-140100000D01*
X208275000Y-140100000D02*
X209475000Y-141300000D01*
X206075000Y-142250000D02*
X206125000Y-142250000D01*
X209475000Y-141300000D02*
X210675000Y-141300000D01*
X206125000Y-142250000D02*
X208275000Y-140100000D01*
%TO.N,AGND*%
X215170000Y-152535000D02*
X215093500Y-152458500D01*
X221650000Y-151650000D02*
X221550000Y-151550000D01*
X223400000Y-137850000D02*
X222900000Y-138350000D01*
X221450000Y-151750000D02*
X223500000Y-149700000D01*
X210557500Y-152382500D02*
X210633500Y-152458500D01*
X221550000Y-150700000D02*
X221550000Y-150200000D01*
X204425000Y-149850000D02*
X204100000Y-149850000D01*
X221350000Y-139900000D02*
X223400000Y-137850000D01*
X222900000Y-138350000D02*
X221450000Y-138350000D01*
X221550000Y-151550000D02*
X221550000Y-150700000D01*
X206075000Y-151500000D02*
X204425000Y-149850000D01*
X221550000Y-150200000D02*
X223000000Y-150200000D01*
X221700000Y-132250000D02*
X222600000Y-132250000D01*
X205110500Y-147450000D02*
X206075000Y-147450000D01*
X222500000Y-151650000D02*
X222500000Y-150700000D01*
X210633500Y-152458500D02*
X211800000Y-152458500D01*
X223000000Y-150200000D02*
X223500000Y-149700000D01*
X206100000Y-153300000D02*
X206100000Y-151525000D01*
X221550000Y-150700000D02*
X222500000Y-150700000D01*
X206100000Y-151525000D02*
X206075000Y-151500000D01*
X221750000Y-144150000D02*
X222850000Y-144150000D01*
X223400000Y-137850000D02*
X222400000Y-138850000D01*
X221550000Y-151750000D02*
X221650000Y-151650000D01*
X211800000Y-152458500D02*
X211800000Y-154100000D01*
X204100000Y-149850000D02*
X204100000Y-148460500D01*
X208614000Y-154326000D02*
X210557500Y-152382500D01*
X215093500Y-152458500D02*
X211800000Y-152458500D01*
X206100000Y-153300000D02*
X207126000Y-154326000D01*
X222600000Y-132250000D02*
X222700000Y-132350000D01*
X222400000Y-138850000D02*
X221450000Y-138850000D01*
X221450000Y-151750000D02*
X221550000Y-151750000D01*
X210557500Y-152382500D02*
X210557500Y-151532500D01*
X207126000Y-154326000D02*
X208614000Y-154326000D01*
X204100000Y-148460500D02*
X205110500Y-147450000D01*
X222500000Y-150700000D02*
X223500000Y-149700000D01*
X222500000Y-151650000D02*
X221650000Y-151650000D01*
%TO.N,3v3_A*%
X222250000Y-152500000D02*
X220924000Y-153826000D01*
X206300000Y-149600000D02*
X207200000Y-148700000D01*
X217898000Y-151790000D02*
X217898000Y-148191500D01*
X206075000Y-149600000D02*
X206300000Y-149600000D01*
X216800000Y-151775000D02*
X217883000Y-151775000D01*
X217850000Y-141550000D02*
X217850000Y-141050000D01*
X209825000Y-149550000D02*
X208125000Y-149550000D01*
X218000000Y-152825000D02*
X217975000Y-152800000D01*
X222900000Y-140527000D02*
X221227000Y-142200000D01*
X220924000Y-153826000D02*
X218176000Y-153826000D01*
X222900000Y-139800000D02*
X222900000Y-140527000D01*
X206075000Y-149600000D02*
X206075000Y-148100000D01*
X222976000Y-151774000D02*
X222976000Y-152500000D01*
X223000000Y-151750000D02*
X222976000Y-151774000D01*
X217370491Y-142140982D02*
X217850000Y-141661473D01*
X218500000Y-142200000D02*
X217850000Y-141550000D01*
X217850000Y-141661473D02*
X217850000Y-141050000D01*
X221227000Y-142200000D02*
X218500000Y-142200000D01*
X218000000Y-153650000D02*
X218000000Y-152825000D01*
X217975000Y-152800000D02*
X217898000Y-152723000D01*
X218176000Y-153826000D02*
X218000000Y-153650000D01*
X208125000Y-149550000D02*
X208075000Y-149600000D01*
X222976000Y-152500000D02*
X222250000Y-152500000D01*
X217883000Y-151775000D02*
X217898000Y-151790000D01*
X217975000Y-150700000D02*
X217814500Y-150539500D01*
X217898000Y-152723000D02*
X217898000Y-151790000D01*
X206075000Y-149600000D02*
X208075000Y-149600000D01*
X217850000Y-141050000D02*
X217850000Y-136750000D01*
X223000000Y-151650000D02*
X223000000Y-151750000D01*
%TO.N,Net-(IC1-~{DRDY})*%
X196010000Y-129390000D02*
X196010000Y-126900000D01*
X200199000Y-143550000D02*
X197925000Y-143550000D01*
X197925000Y-143550000D02*
X197900000Y-143525000D01*
X196000000Y-129400000D02*
X196010000Y-129390000D01*
%TO.N,Net-(IC1-AIN1P)*%
X206075000Y-144850000D02*
X208225000Y-144850000D01*
X210675000Y-146050000D02*
X211875000Y-144850000D01*
X209475000Y-146050000D02*
X210675000Y-146050000D01*
X208275000Y-144850000D02*
X209475000Y-146050000D01*
%TO.N,Net-(IC1-AIN0P)*%
X210750000Y-148450000D02*
X211900000Y-147300000D01*
X208275000Y-147300000D02*
X209425000Y-148450000D01*
X206075000Y-146800000D02*
X207775000Y-146800000D01*
X207775000Y-146800000D02*
X208275000Y-147300000D01*
X209425000Y-148450000D02*
X210750000Y-148450000D01*
%TO.N,Net-(IC1-DIN)*%
X198517239Y-145500000D02*
X198503007Y-145485768D01*
X192200000Y-129400000D02*
X192200000Y-126900000D01*
X200199000Y-145500000D02*
X198517239Y-145500000D01*
%TO.N,Net-(IC1-CAP)*%
X200199000Y-146800000D02*
X198425000Y-146800000D01*
X200099000Y-146900000D02*
X200199000Y-146800000D01*
X198425000Y-146800000D02*
X198125000Y-146500000D01*
%TO.N,Net-(IC1-DOUT)*%
X193500000Y-129400000D02*
X193470000Y-129370000D01*
X200199000Y-144850000D02*
X197925000Y-144850000D01*
X197925000Y-144850000D02*
X197900000Y-144825000D01*
X193470000Y-129370000D02*
X193470000Y-126900000D01*
%TO.N,Net-(IC2-OUT)*%
X215100000Y-122250000D02*
X215100000Y-141150000D01*
X215100000Y-141150000D02*
X213700000Y-142550000D01*
X218250000Y-122250000D02*
X215100000Y-122250000D01*
%TO.N,Net-(IC10-Y1)*%
X216230000Y-123100000D02*
X218850000Y-123100000D01*
X198200000Y-138100000D02*
X196130000Y-138100000D01*
X196130000Y-138100000D02*
X196100000Y-138130000D01*
%TO.N,Net-(IC10-Y2)*%
X216257570Y-123899528D02*
X216900475Y-123899528D01*
X198200000Y-139400000D02*
X196100000Y-139400000D01*
%TO.N,Net-(IC10-Z)*%
X207955000Y-120055000D02*
X206150000Y-120055000D01*
X203855298Y-138130000D02*
X209000000Y-132985298D01*
X209000000Y-132985298D02*
X209000000Y-121100000D01*
X201550000Y-138130000D02*
X203855298Y-138130000D01*
X209000000Y-121100000D02*
X207955000Y-120055000D01*
%TO.N,Net-(IC3-IO19)*%
X203600000Y-124200000D02*
X203630000Y-124230000D01*
X203630000Y-124230000D02*
X203630000Y-126900000D01*
X187400000Y-145300000D02*
X187400000Y-141100000D01*
X203600000Y-123900000D02*
X203600000Y-124200000D01*
%TO.N,Net-(IC10-S0)*%
X206085000Y-125200000D02*
X206150000Y-125135000D01*
X197880000Y-134320000D02*
X197900000Y-134300000D01*
X206185000Y-125100000D02*
X206150000Y-125135000D01*
X196100000Y-134320000D02*
X197880000Y-134320000D01*
X208200000Y-125100000D02*
X206185000Y-125100000D01*
%TO.N,Net-(IC3-EN)*%
X190930000Y-128895000D02*
X190930000Y-129370000D01*
X191453000Y-141278000D02*
X191375000Y-141200000D01*
X190930000Y-126900000D02*
X190930000Y-128895000D01*
X190930000Y-129370000D02*
X190900000Y-129400000D01*
X191453000Y-143350000D02*
X191453000Y-141278000D01*
%TO.N,Net-(IC10-S1)*%
X206145000Y-122600000D02*
X206150000Y-122595000D01*
X197850000Y-133050000D02*
X197900000Y-133000000D01*
X206155000Y-122600000D02*
X206150000Y-122595000D01*
X196100000Y-133050000D02*
X197850000Y-133050000D01*
X207495000Y-122600000D02*
X206155000Y-122600000D01*
X207500000Y-122595000D02*
X207495000Y-122600000D01*
%TO.N,Net-(IC10-S2)*%
X206075000Y-121400000D02*
X206150000Y-121325000D01*
X196100000Y-131780000D02*
X197880000Y-131780000D01*
X207500000Y-121400000D02*
X206225000Y-121400000D01*
X197880000Y-131780000D02*
X197900000Y-131800000D01*
X206225000Y-121400000D02*
X206150000Y-121325000D01*
%TO.N,Net-(IC3-IO0)*%
X204900000Y-109400000D02*
X204900000Y-107100000D01*
X185100000Y-134400000D02*
X185100000Y-129300000D01*
X185500000Y-134800000D02*
X185100000Y-134400000D01*
X191453000Y-136650000D02*
X191453000Y-134978000D01*
X191775000Y-134800000D02*
X185500000Y-134800000D01*
X191503000Y-136700000D02*
X191453000Y-136650000D01*
X191800000Y-136503000D02*
X191753000Y-136550000D01*
X191453000Y-134978000D02*
X191275000Y-134800000D01*
%TO.N,Net-(IC3-IO20)*%
X204900000Y-124700002D02*
X204900000Y-126900000D01*
X204899998Y-124700000D02*
X204900000Y-124700002D01*
X189400000Y-145300000D02*
X189400000Y-141100000D01*
%TO.N,Net-(IC4-VIN)*%
X185000000Y-149515000D02*
X185000000Y-150084178D01*
X190466000Y-151356000D02*
X189349450Y-151356000D01*
X185000000Y-150084178D02*
X185861186Y-150945364D01*
X188938814Y-150945364D02*
X189589000Y-150295178D01*
X193900000Y-154790000D02*
X190466000Y-151356000D01*
X185861186Y-150945364D02*
X188938814Y-150945364D01*
X189589000Y-150295178D02*
X189800000Y-150084178D01*
X189349450Y-151356000D02*
X188938814Y-150945364D01*
X189800000Y-150084178D02*
X189800000Y-149515000D01*
%TO.N,Net-(IC10-Y0)*%
X198200000Y-136900000D02*
X196140000Y-136900000D01*
X196140000Y-136900000D02*
X196100000Y-136860000D01*
%TO.N,Net-(IC5-OUT)*%
X215075000Y-110325000D02*
X213700000Y-111700000D01*
X213700000Y-111700000D02*
X213700000Y-140100000D01*
%TO.N,Net-(IC10-Y3)*%
X198200000Y-135600000D02*
X196110000Y-135600000D01*
X196110000Y-135600000D02*
X196100000Y-135590000D01*
%TO.N,Net-(IC6-+IN)*%
X227675000Y-138350000D02*
X229350000Y-140025000D01*
X225350000Y-138350000D02*
X227675000Y-138350000D01*
%TO.N,Net-(IC10-Y4)*%
X218800000Y-135900000D02*
X218800000Y-138025000D01*
X216725003Y-135899997D02*
X216899000Y-135726000D01*
X217059298Y-135726000D02*
X217184298Y-135601000D01*
X216725000Y-135900000D02*
X216725003Y-135900003D01*
X218800000Y-138025000D02*
X219675000Y-138900000D01*
X221450000Y-137350000D02*
X220609014Y-137350000D01*
X220609014Y-137350000D02*
X219675000Y-138284014D01*
X217184298Y-135601000D02*
X218501000Y-135601000D01*
X216899000Y-135726000D02*
X217059298Y-135726000D01*
X219675000Y-138284014D02*
X219675000Y-138900000D01*
X201580000Y-140700000D02*
X201550000Y-140670000D01*
X203320000Y-140700000D02*
X201580000Y-140700000D01*
X216725003Y-135900003D02*
X216725003Y-135899997D01*
X218501000Y-135601000D02*
X218800000Y-135900000D01*
X219675000Y-138200000D02*
X219675000Y-138900000D01*
%TO.N,Net-(IC6--IN)*%
X229150000Y-137850000D02*
X225350000Y-137850000D01*
X229325000Y-138025000D02*
X229150000Y-137850000D01*
%TO.N,Net-(IC6-OPAMP-)*%
X221276000Y-134372514D02*
X221276000Y-133351000D01*
X217650000Y-130850000D02*
X216800000Y-131700000D01*
X222900000Y-135900000D02*
X222900000Y-135173000D01*
X221979486Y-135076000D02*
X221276000Y-134372514D01*
X217453486Y-133250000D02*
X219325000Y-133250000D01*
X229800000Y-130850000D02*
X217650000Y-130850000D01*
X221276000Y-133351000D02*
X220250000Y-132325000D01*
X216800000Y-132596514D02*
X217453486Y-133250000D01*
X222900000Y-135173000D02*
X222803000Y-135076000D01*
X231300000Y-132350000D02*
X229800000Y-130850000D01*
X222803000Y-135076000D02*
X221979486Y-135076000D01*
X219325000Y-133250000D02*
X220250000Y-132325000D01*
X216800000Y-131700000D02*
X216800000Y-132596514D01*
%TO.N,Net-(IC6-REFOUT)*%
X223400000Y-135900000D02*
X223400000Y-134950000D01*
X223400000Y-134950000D02*
X222700000Y-134250000D01*
%TO.N,Net-(IC6-OPAMP+)*%
X224900000Y-132375000D02*
X224900000Y-131750000D01*
X229125000Y-132375000D02*
X225050000Y-132375000D01*
X224450000Y-131300000D02*
X219050000Y-131300000D01*
X223900000Y-133375000D02*
X224900000Y-132375000D01*
X224900000Y-131750000D02*
X224450000Y-131300000D01*
X223900000Y-135900000D02*
X223900000Y-133375000D01*
X219050000Y-131300000D02*
X218050000Y-132300000D01*
%TO.N,Net-(IC6-HPSENSE)*%
X227050000Y-141550000D02*
X227200000Y-141700000D01*
X225300000Y-141550000D02*
X225300000Y-140700000D01*
X227150000Y-141750000D02*
X227200000Y-141700000D01*
X225300000Y-141550000D02*
X227050000Y-141550000D01*
X223900000Y-139800000D02*
X224400000Y-139800000D01*
X225300000Y-140700000D02*
X224400000Y-139800000D01*
%TO.N,Net-(IC10-Y6)*%
X216850000Y-135150000D02*
X216800000Y-135100000D01*
X221450000Y-136850000D02*
X219775000Y-136850000D01*
X219675000Y-136750000D02*
X219675000Y-135775000D01*
X203300000Y-139400000D02*
X201550000Y-139400000D01*
X219675000Y-135775000D02*
X219050000Y-135150000D01*
X219775000Y-136850000D02*
X219675000Y-136750000D01*
X219050000Y-135150000D02*
X216850000Y-135150000D01*
%TO.N,Net-(IC6-HPDRIVE)*%
X226250000Y-138850000D02*
X227200000Y-139800000D01*
X225350000Y-138850000D02*
X226250000Y-138850000D01*
%TO.N,Net-(IC6-OUT)*%
X218100000Y-134150000D02*
X218050000Y-134200000D01*
X216100000Y-142450000D02*
X213700000Y-144850000D01*
X218050000Y-134200000D02*
X216100000Y-134200000D01*
X220250000Y-134150000D02*
X218100000Y-134150000D01*
X222000000Y-135900000D02*
X220250000Y-134150000D01*
X216100000Y-134200000D02*
X216100000Y-142450000D01*
X222400000Y-135900000D02*
X222000000Y-135900000D01*
%TO.N,Net-(IC6-~{SDN})*%
X221450000Y-137850000D02*
X220867986Y-137850000D01*
X220867986Y-137850000D02*
X220513500Y-138204486D01*
X220513500Y-138204486D02*
X220513500Y-140211500D01*
X220513500Y-140211500D02*
X219675000Y-141050000D01*
%TO.N,Net-(IC6-RLD)*%
X225350000Y-136850000D02*
X226450000Y-136850000D01*
X226450000Y-136850000D02*
X227100000Y-136200000D01*
%TO.N,Net-(IC6-RLDFB)*%
X229325000Y-136025000D02*
X228000000Y-137350000D01*
X228000000Y-137350000D02*
X225350000Y-137350000D01*
%TO.N,Net-(IC7-HPDRIVE)*%
X225450000Y-150700000D02*
X226850000Y-150700000D01*
X226850000Y-150700000D02*
X227300000Y-151150000D01*
%TO.N,Net-(IC7-RLDFB)*%
X227950000Y-149200000D02*
X229200000Y-147950000D01*
X229200000Y-147950000D02*
X229525000Y-147950000D01*
X225450000Y-149200000D02*
X227950000Y-149200000D01*
%TO.N,Net-(IC10-Y7)*%
X219789500Y-147950000D02*
X219789500Y-148650000D01*
X204300000Y-136800000D02*
X201610000Y-136800000D01*
X221550000Y-148700000D02*
X219839500Y-148700000D01*
X218889500Y-147050000D02*
X219789500Y-147950000D01*
X201610000Y-136800000D02*
X201550000Y-136860000D01*
X219789500Y-148650000D02*
X219789500Y-148303176D01*
X215450000Y-147450000D02*
X215850000Y-147050000D01*
X219839500Y-148700000D02*
X219789500Y-148650000D01*
X215850000Y-147050000D02*
X218889500Y-147050000D01*
X215450000Y-150120000D02*
X215450000Y-147450000D01*
X215440000Y-150130000D02*
X215450000Y-150120000D01*
%TO.N,Net-(IC7-REFOUT)*%
X223500000Y-146700000D02*
X222850000Y-146050000D01*
X223500000Y-147750000D02*
X223500000Y-146700000D01*
%TO.N,Net-(IC7-OPAMP+)*%
X229300000Y-144275000D02*
X225200000Y-144275000D01*
X224000000Y-147750000D02*
X224000000Y-145375000D01*
X225200000Y-144275000D02*
X225150000Y-144225000D01*
X225150000Y-144225000D02*
X224076000Y-143151000D01*
X224076000Y-143151000D02*
X219199000Y-143151000D01*
X224000000Y-145375000D02*
X225150000Y-144225000D01*
X219199000Y-143151000D02*
X218150000Y-144200000D01*
%TO.N,Net-(IC7-HPSENSE)*%
X224500000Y-152750000D02*
X225400000Y-153650000D01*
X225988500Y-145211500D02*
X229945514Y-145211500D01*
X225350000Y-146900000D02*
X225025000Y-147225000D01*
X224000000Y-151650000D02*
X224500000Y-151650000D01*
X225150000Y-146050000D02*
X225988500Y-145211500D01*
X224500000Y-151650000D02*
X224500000Y-152750000D01*
X225025000Y-147225000D02*
X224500000Y-147750000D01*
X225400000Y-153650000D02*
X226700000Y-153650000D01*
X230450000Y-152600000D02*
X230000000Y-153050000D01*
X229945514Y-145211500D02*
X230450000Y-145715986D01*
X226700000Y-153650000D02*
X227300000Y-153050000D01*
X230000000Y-153050000D02*
X227300000Y-153050000D01*
X230450000Y-145715986D02*
X230450000Y-152600000D01*
X225350000Y-146050000D02*
X225350000Y-146900000D01*
%TO.N,Net-(IC10-Y5)*%
X218950000Y-149850000D02*
X219800000Y-150700000D01*
X221550000Y-149200000D02*
X220805176Y-149200000D01*
X216075000Y-147625000D02*
X216200000Y-147500000D01*
X218950000Y-148101486D02*
X218950000Y-149850000D01*
X204300000Y-135600000D02*
X204290000Y-135590000D01*
X220805176Y-149200000D02*
X219800000Y-150205176D01*
X218348514Y-147500000D02*
X218950000Y-148101486D01*
X216200000Y-147500000D02*
X218348514Y-147500000D01*
X216075000Y-151120000D02*
X216075000Y-147625000D01*
X204290000Y-135590000D02*
X201550000Y-135590000D01*
X219800000Y-150205176D02*
X219800000Y-150700000D01*
%TO.N,Net-(IC7-RLD)*%
X226650000Y-148700000D02*
X227250000Y-148100000D01*
X225450000Y-148700000D02*
X226650000Y-148700000D01*
%TO.N,Net-(IC7-OPAMP-)*%
X221650000Y-145475000D02*
X220400000Y-144225000D01*
X221650000Y-146424000D02*
X221650000Y-145750000D01*
X223000000Y-147023000D02*
X222927000Y-146950000D01*
X230075000Y-142700000D02*
X217650000Y-142700000D01*
X222176000Y-146950000D02*
X221650000Y-146424000D01*
X231600000Y-144225000D02*
X230075000Y-142700000D01*
X217300000Y-145150000D02*
X219475000Y-145150000D01*
X219475000Y-145150000D02*
X220400000Y-144225000D01*
X217000000Y-143350000D02*
X217000000Y-144850000D01*
X222927000Y-146950000D02*
X222176000Y-146950000D01*
X217000000Y-144850000D02*
X217300000Y-145150000D01*
X221650000Y-145750000D02*
X221650000Y-145475000D01*
X223000000Y-147750000D02*
X223000000Y-147023000D01*
X217650000Y-142700000D02*
X217000000Y-143350000D01*
%TO.N,Net-(IC7--IN)*%
X229275000Y-149700000D02*
X225450000Y-149700000D01*
X229525000Y-149950000D02*
X229275000Y-149700000D01*
%TO.N,Net-(IC7-~{SDN})*%
X220638500Y-151611500D02*
X219800000Y-152450000D01*
X219800000Y-152800000D02*
X219723000Y-152877000D01*
X221550000Y-149700000D02*
X220942986Y-149700000D01*
X219800000Y-152450000D02*
X219800000Y-152800000D01*
X220942986Y-149700000D02*
X220638500Y-150004486D01*
X220638500Y-150004486D02*
X220638500Y-151611500D01*
%TO.N,Net-(IC7-+IN)*%
X229525000Y-151828486D02*
X227896514Y-150200000D01*
X229525000Y-151950000D02*
X229525000Y-151828486D01*
X227896514Y-150200000D02*
X225450000Y-150200000D01*
%TO.N,Net-(IC7-OUT)*%
X222500000Y-147750000D02*
X222500000Y-147600000D01*
X221750000Y-147400000D02*
X220400000Y-146050000D01*
X218200000Y-146050000D02*
X218150000Y-146100000D01*
X220400000Y-146050000D02*
X218200000Y-146050000D01*
X222300000Y-147400000D02*
X221750000Y-147400000D01*
X214925000Y-146100000D02*
X218150000Y-146100000D01*
X222500000Y-147600000D02*
X222300000Y-147400000D01*
X213725000Y-147300000D02*
X214925000Y-146100000D01*
%TO.N,/VREF_RAW*%
X208675000Y-153300000D02*
X207925000Y-153300000D01*
X209907500Y-152067500D02*
X208675000Y-153300000D01*
X209907500Y-151532500D02*
X209907500Y-152067500D01*
X209800000Y-151425000D02*
X209825000Y-151450000D01*
X207925000Y-151575000D02*
X208075000Y-151425000D01*
X208075000Y-151425000D02*
X209800000Y-151425000D01*
%TO.N,Net-(J5-SHIELD)*%
X183100000Y-147200000D02*
X183100000Y-150135000D01*
X183100000Y-150135000D02*
X183080000Y-150155000D01*
%TO.N,Net-(IC3-IO13)*%
X206150000Y-117515000D02*
X208815000Y-117515000D01*
X208815000Y-117515000D02*
X209100000Y-117800000D01*
%TO.N,Net-(IC3-IO18)*%
X201090000Y-129510000D02*
X200800000Y-129800000D01*
X201090000Y-126900000D02*
X201090000Y-129510000D01*
%TO.N,Net-(IC3-IO38)*%
X199820000Y-108620000D02*
X199260000Y-108060000D01*
X199820000Y-109400000D02*
X199820000Y-108620000D01*
X199260000Y-108060000D02*
X199260000Y-106500000D01*
%TO.N,Net-(IC3-IO40)*%
X197280000Y-109400000D02*
X197280000Y-106520000D01*
X197280000Y-106520000D02*
X197260000Y-106500000D01*
%TO.N,Net-(IC3-IO39)*%
X198400000Y-106640000D02*
X198260000Y-106500000D01*
X198400000Y-108500000D02*
X198400000Y-106640000D01*
X198550000Y-109400000D02*
X198550000Y-108650000D01*
X198550000Y-108650000D02*
X198400000Y-108500000D01*
%TO.N,Net-(IC3-IO37)*%
X201090000Y-109400000D02*
X201090000Y-108690000D01*
X200260000Y-107860000D02*
X200260000Y-106500000D01*
X201090000Y-108690000D02*
X200260000Y-107860000D01*
%TO.N,Net-(IC3-IO41)*%
X196010000Y-106750000D02*
X196260000Y-106500000D01*
X196010000Y-109400000D02*
X196010000Y-106750000D01*
%TO.N,Net-(IC3-IO35)*%
X203630000Y-109400000D02*
X203630000Y-108680000D01*
X202260000Y-107310000D02*
X202260000Y-106500000D01*
X203630000Y-108680000D02*
X202260000Y-107310000D01*
%TO.N,Net-(IC3-IO14)*%
X208545000Y-116245000D02*
X209100000Y-116800000D01*
X206150000Y-116245000D02*
X208545000Y-116245000D01*
%TO.N,Net-(IC3-IO17)*%
X199820000Y-126900000D02*
X199820000Y-129780000D01*
X199820000Y-129780000D02*
X199800000Y-129800000D01*
%TO.N,Net-(IC3-IO48)*%
X206150000Y-112435000D02*
X208835000Y-112435000D01*
X208835000Y-112435000D02*
X209100000Y-112700000D01*
%TO.N,Net-(IC3-IO47)*%
X209095000Y-113705000D02*
X209100000Y-113700000D01*
X206150000Y-113705000D02*
X209095000Y-113705000D01*
%TO.N,Net-(IC3-IO16)*%
X198550000Y-129550000D02*
X198800000Y-129800000D01*
X198550000Y-126900000D02*
X198550000Y-129550000D01*
%TO.N,Net-(IC3-TXD0)*%
X193260000Y-107590000D02*
X192200000Y-108650000D01*
X192200000Y-108650000D02*
X192200000Y-109400000D01*
X193260000Y-106500000D02*
X193260000Y-107590000D01*
%TO.N,Net-(IC3-IO12)*%
X209085000Y-118785000D02*
X209100000Y-118800000D01*
X206150000Y-118785000D02*
X209085000Y-118785000D01*
%TO.N,Net-(IC3-IO21)*%
X208825000Y-114975000D02*
X209100000Y-114700000D01*
X206150000Y-114975000D02*
X208825000Y-114975000D01*
%TO.N,Net-(IC3-IO36)*%
X202360000Y-109400000D02*
X202360000Y-108660000D01*
X202360000Y-108660000D02*
X201260000Y-107560000D01*
X201260000Y-107560000D02*
X201260000Y-106500000D01*
%TO.N,Net-(IC3-IO42)*%
X194750000Y-109390000D02*
X194750000Y-108550000D01*
X194740000Y-109400000D02*
X194750000Y-109390000D01*
X194750000Y-108550000D02*
X195234000Y-108066000D01*
X195234000Y-108066000D02*
X195234000Y-106526000D01*
X195234000Y-106526000D02*
X195260000Y-106500000D01*
%TO.N,Net-(IC3-IO1)*%
X189660000Y-108690000D02*
X189660000Y-109400000D01*
X191260000Y-107090000D02*
X189660000Y-108690000D01*
X191260000Y-106500000D02*
X191260000Y-107090000D01*
%TO.N,Net-(IC3-IO2)*%
X190930000Y-108720000D02*
X190930000Y-109400000D01*
X192260000Y-106500000D02*
X192260000Y-107390000D01*
X192260000Y-107390000D02*
X190930000Y-108720000D01*
%TO.N,Net-(IC3-RXD0)*%
X194260000Y-107990000D02*
X194260000Y-106500000D01*
X193470000Y-108780000D02*
X194260000Y-107990000D01*
X193470000Y-109400000D02*
X193470000Y-108780000D01*
%TO.N,Net-(J5-D--PadA7)*%
X187409000Y-150491000D02*
X187650000Y-150250000D01*
X186650000Y-150234178D02*
X186906822Y-150491000D01*
X186650000Y-149515000D02*
X186650000Y-150234178D01*
X186650000Y-147875000D02*
X186650000Y-149515000D01*
X187650000Y-150250000D02*
X187650000Y-149515000D01*
X187400000Y-147125000D02*
X186650000Y-147875000D01*
X186906822Y-150491000D02*
X187409000Y-150491000D01*
%TO.N,Net-(J5-D+-PadA6)*%
X187893178Y-148539000D02*
X188150000Y-148795822D01*
X187150000Y-149515000D02*
X187150000Y-148795822D01*
X188150000Y-148795822D02*
X188150000Y-149515000D01*
X187406822Y-148539000D02*
X187893178Y-148539000D01*
X188150000Y-148375000D02*
X188150000Y-149515000D01*
X189400000Y-147125000D02*
X188150000Y-148375000D01*
X187150000Y-148795822D02*
X187406822Y-148539000D01*
%TO.N,Net-(J5-CC1)*%
X185500000Y-147200000D02*
X186150000Y-147850000D01*
X186150000Y-147850000D02*
X186150000Y-149515000D01*
%TO.N,Net-(J7-Pin_3)*%
X233000000Y-126400000D02*
X231725000Y-126400000D01*
X234800000Y-128200000D02*
X233000000Y-126400000D01*
X236225000Y-128200000D02*
X234800000Y-128200000D01*
X236125000Y-128100000D02*
X236225000Y-128200000D01*
%TO.N,Net-(J8-Pin_1)*%
X234100000Y-129200000D02*
X232950000Y-128050000D01*
X236275000Y-129200000D02*
X234100000Y-129200000D01*
X235963925Y-129449000D02*
X236026000Y-129449000D01*
X236026000Y-129449000D02*
X236275000Y-129200000D01*
X232950000Y-128050000D02*
X231375000Y-128050000D01*
%TO.N,Net-(J8-Pin_2)*%
X233000000Y-136200000D02*
X233000000Y-131300000D01*
X233000000Y-131300000D02*
X234100000Y-130200000D01*
X236225000Y-130300000D02*
X236162925Y-130300000D01*
X234100000Y-130200000D02*
X236275000Y-130200000D01*
X231200000Y-138000000D02*
X233000000Y-136200000D01*
%TO.N,Net-(J8-Pin_3)*%
X236275000Y-131200000D02*
X235000000Y-131200000D01*
X235000000Y-131200000D02*
X233750000Y-132450000D01*
X233750000Y-137475000D02*
X231225000Y-140000000D01*
X233750000Y-132450000D02*
X233750000Y-137475000D01*
%TO.N,Net-(J9-Pin_2)*%
X236000000Y-133200000D02*
X235400000Y-133800000D01*
X235400000Y-133800000D02*
X235400000Y-147900000D01*
X235400000Y-147900000D02*
X231350000Y-151950000D01*
X236275000Y-133200000D02*
X236000000Y-133200000D01*
%TO.N,Net-(J9-Pin_1)*%
X234600000Y-133400000D02*
X235800000Y-132200000D01*
X234600000Y-146700000D02*
X234600000Y-133400000D01*
X235800000Y-132200000D02*
X236275000Y-132200000D01*
X231350000Y-149950000D02*
X234600000Y-146700000D01*
%TO.N,AGND*%
X222400000Y-138850000D02*
X222400000Y-139800000D01*
%TD*%
%TA.AperFunction,Conductor*%
%TO.N,AGND*%
G36*
X236960667Y-134942123D02*
G01*
X237007357Y-134994102D01*
X237019500Y-135047618D01*
X237019500Y-155785500D01*
X236999815Y-155852539D01*
X236947011Y-155898294D01*
X236895500Y-155909500D01*
X203594000Y-155909500D01*
X203526961Y-155889815D01*
X203481206Y-155837011D01*
X203470000Y-155785500D01*
X203470000Y-153799986D01*
X205087501Y-153799986D01*
X205097994Y-153902697D01*
X205153141Y-154069119D01*
X205153143Y-154069124D01*
X205245184Y-154218345D01*
X205369154Y-154342315D01*
X205518375Y-154434356D01*
X205518380Y-154434358D01*
X205684802Y-154489505D01*
X205684809Y-154489506D01*
X205787519Y-154499999D01*
X205849999Y-154499998D01*
X205850000Y-154499998D01*
X205850000Y-153550000D01*
X205087501Y-153550000D01*
X205087501Y-153799986D01*
X203470000Y-153799986D01*
X203470000Y-151799986D01*
X204850001Y-151799986D01*
X204860494Y-151902697D01*
X204915641Y-152069119D01*
X204915643Y-152069124D01*
X205007684Y-152218345D01*
X205131655Y-152342316D01*
X205137323Y-152346798D01*
X205135375Y-152349260D01*
X205172701Y-152390826D01*
X205183867Y-152459797D01*
X205166376Y-152509420D01*
X205153147Y-152530868D01*
X205153141Y-152530880D01*
X205097994Y-152697302D01*
X205097993Y-152697309D01*
X205087500Y-152800013D01*
X205087500Y-153050000D01*
X205850000Y-153050000D01*
X205850000Y-152620589D01*
X205827834Y-152579996D01*
X205825000Y-152553638D01*
X205825000Y-151750000D01*
X204850001Y-151750000D01*
X204850001Y-151799986D01*
X203470000Y-151799986D01*
X203470000Y-151140046D01*
X203489685Y-151073007D01*
X203542489Y-151027252D01*
X203611647Y-151017308D01*
X203633005Y-151022341D01*
X203684797Y-151039503D01*
X203684809Y-151039506D01*
X203787519Y-151049999D01*
X203849999Y-151049998D01*
X203850000Y-151049998D01*
X203850000Y-148650000D01*
X203849999Y-148649999D01*
X203787528Y-148650000D01*
X203787511Y-148650001D01*
X203684801Y-148660494D01*
X203633003Y-148677658D01*
X203563175Y-148680059D01*
X203503133Y-148644327D01*
X203471941Y-148581807D01*
X203470000Y-148559952D01*
X203470000Y-141587029D01*
X203475648Y-141567794D01*
X203476383Y-141547757D01*
X203485291Y-141534953D01*
X203489685Y-141519990D01*
X203504835Y-141506861D01*
X203516287Y-141490403D01*
X203535588Y-141480214D01*
X203542489Y-141474235D01*
X203546657Y-141472422D01*
X203552840Y-141469867D01*
X203553497Y-141469737D01*
X203678158Y-141418100D01*
X203713254Y-141414361D01*
X203747517Y-141410678D01*
X203747572Y-141410705D01*
X203747634Y-141410699D01*
X203779330Y-141426603D01*
X203809996Y-141441954D01*
X203810026Y-141442005D01*
X203810083Y-141442034D01*
X203828178Y-141472599D01*
X203845648Y-141502043D01*
X203845658Y-141502124D01*
X203845678Y-141502158D01*
X203845674Y-141502253D01*
X203849500Y-141532708D01*
X203849500Y-142888393D01*
X203849500Y-142888394D01*
X203849500Y-143488394D01*
X203849500Y-145388393D01*
X203849500Y-145388394D01*
X203849500Y-145888393D01*
X203849500Y-146011607D01*
X203856398Y-146046286D01*
X203873537Y-146132452D01*
X203885613Y-146161606D01*
X203888859Y-146169443D01*
X203888861Y-146169450D01*
X203920685Y-146246281D01*
X203920687Y-146246284D01*
X203920688Y-146246286D01*
X203945553Y-146283497D01*
X203954914Y-146297507D01*
X203954915Y-146297509D01*
X203989140Y-146348731D01*
X203989141Y-146348732D01*
X203989142Y-146348733D01*
X204076267Y-146435858D01*
X204076269Y-146435859D01*
X204276267Y-146635858D01*
X204276268Y-146635859D01*
X204378710Y-146704309D01*
X204378711Y-146704309D01*
X204378715Y-146704312D01*
X204445396Y-146731931D01*
X204445398Y-146731933D01*
X204475129Y-146744247D01*
X204492548Y-146751463D01*
X204613394Y-146775500D01*
X204713000Y-146775500D01*
X204720333Y-146777653D01*
X204727874Y-146776395D01*
X204753395Y-146787361D01*
X204780039Y-146795185D01*
X204785043Y-146800960D01*
X204792068Y-146803979D01*
X204807610Y-146827003D01*
X204825794Y-146847989D01*
X204827862Y-146857006D01*
X204831159Y-146861890D01*
X204835722Y-146891272D01*
X204836968Y-146896703D01*
X204837000Y-146898139D01*
X204837001Y-147072872D01*
X204841990Y-147119285D01*
X204842109Y-147124547D01*
X204841431Y-147127064D01*
X204841431Y-147140596D01*
X204837500Y-147177165D01*
X204837500Y-147225000D01*
X204853111Y-147240611D01*
X204866984Y-147244685D01*
X204871168Y-147248580D01*
X204874255Y-147249732D01*
X204899211Y-147274689D01*
X204974820Y-147375689D01*
X204999238Y-147441153D01*
X204984387Y-147509426D01*
X204974820Y-147524311D01*
X204899211Y-147625311D01*
X204851392Y-147661107D01*
X204837500Y-147675000D01*
X204837500Y-147722832D01*
X204841431Y-147759399D01*
X204841431Y-147785905D01*
X204837000Y-147827122D01*
X204837000Y-148372870D01*
X204837001Y-148372876D01*
X204843408Y-148432483D01*
X204893702Y-148567328D01*
X204897954Y-148575114D01*
X204895613Y-148576392D01*
X204915192Y-148628877D01*
X204900343Y-148697151D01*
X204850940Y-148746558D01*
X204782668Y-148761413D01*
X204726412Y-148743268D01*
X204681628Y-148715645D01*
X204681619Y-148715641D01*
X204515197Y-148660494D01*
X204515190Y-148660493D01*
X204412486Y-148650000D01*
X204350000Y-148650000D01*
X204350000Y-151049999D01*
X204412472Y-151049999D01*
X204412486Y-151049998D01*
X204515197Y-151039505D01*
X204681618Y-150984358D01*
X204683584Y-150983442D01*
X204685063Y-150983217D01*
X204688477Y-150982086D01*
X204688670Y-150982668D01*
X204752660Y-150972943D01*
X204816447Y-151001457D01*
X204854692Y-151059930D01*
X204859357Y-151108420D01*
X204850000Y-151200009D01*
X204850000Y-151250000D01*
X205951000Y-151250000D01*
X206018039Y-151269685D01*
X206063794Y-151322489D01*
X206075000Y-151374000D01*
X206075000Y-151500000D01*
X206201000Y-151500000D01*
X206268039Y-151519685D01*
X206313794Y-151572489D01*
X206325000Y-151624000D01*
X206325000Y-151979410D01*
X206347166Y-152020004D01*
X206350000Y-152046362D01*
X206350000Y-154499999D01*
X206412472Y-154499999D01*
X206412486Y-154499998D01*
X206515197Y-154489505D01*
X206681619Y-154434358D01*
X206681624Y-154434356D01*
X206830842Y-154342317D01*
X206924464Y-154248695D01*
X206985787Y-154215210D01*
X207055479Y-154220194D01*
X207099827Y-154248695D01*
X207193844Y-154342712D01*
X207343166Y-154434814D01*
X207509703Y-154489999D01*
X207612491Y-154500500D01*
X208237508Y-154500499D01*
X208237516Y-154500498D01*
X208237519Y-154500498D01*
X208293802Y-154494748D01*
X208340297Y-154489999D01*
X208506834Y-154434814D01*
X208656156Y-154342712D01*
X208780212Y-154218656D01*
X208872314Y-154069334D01*
X208922284Y-153918533D01*
X208935543Y-153899383D01*
X208944840Y-153878024D01*
X208959366Y-153864974D01*
X208962057Y-153861089D01*
X208971096Y-153854438D01*
X208971282Y-153854313D01*
X208971286Y-153854312D01*
X209022509Y-153820084D01*
X209073733Y-153785858D01*
X209160858Y-153698733D01*
X209160859Y-153698731D01*
X209167925Y-153691665D01*
X209167928Y-153691661D01*
X210193163Y-152666425D01*
X210216614Y-152648040D01*
X210311498Y-152590592D01*
X210349831Y-152576296D01*
X210465046Y-152490046D01*
X210465048Y-152490042D01*
X210469819Y-152485273D01*
X210531142Y-152451788D01*
X210600834Y-152456772D01*
X210645181Y-152485273D01*
X210649953Y-152490045D01*
X210649954Y-152490046D01*
X210707811Y-152533358D01*
X210749682Y-152589289D01*
X210757472Y-152632472D01*
X210757500Y-152632500D01*
X210805328Y-152632500D01*
X210805339Y-152632499D01*
X210866895Y-152625880D01*
X210893409Y-152625880D01*
X210900014Y-152626590D01*
X210900017Y-152626591D01*
X210959627Y-152633000D01*
X211455372Y-152632999D01*
X211514983Y-152626591D01*
X211649831Y-152576296D01*
X211765046Y-152490046D01*
X211851296Y-152374831D01*
X211901591Y-152239983D01*
X211908000Y-152180373D01*
X211907999Y-151429305D01*
X211927683Y-151362267D01*
X211980487Y-151316512D01*
X212049646Y-151306568D01*
X212079449Y-151314744D01*
X212091503Y-151319737D01*
X212213938Y-151344091D01*
X212246153Y-151350499D01*
X212246156Y-151350500D01*
X212246158Y-151350500D01*
X212403844Y-151350500D01*
X212403845Y-151350499D01*
X212558497Y-151319737D01*
X212704179Y-151259394D01*
X212835289Y-151171789D01*
X212946789Y-151060289D01*
X213034394Y-150929179D01*
X213094737Y-150783497D01*
X213125500Y-150628842D01*
X213125500Y-150471158D01*
X213125500Y-150471155D01*
X213125499Y-150471153D01*
X213107391Y-150380118D01*
X213094737Y-150316503D01*
X213079771Y-150280372D01*
X213034397Y-150170827D01*
X213034390Y-150170814D01*
X212946789Y-150039711D01*
X212946786Y-150039707D01*
X212835292Y-149928213D01*
X212835288Y-149928210D01*
X212704185Y-149840609D01*
X212704172Y-149840602D01*
X212558501Y-149780264D01*
X212558489Y-149780261D01*
X212403845Y-149749500D01*
X212403842Y-149749500D01*
X212274451Y-149749500D01*
X212207412Y-149729815D01*
X212161657Y-149677011D01*
X212151713Y-149607853D01*
X212180738Y-149544297D01*
X212186770Y-149537819D01*
X212574588Y-149150001D01*
X213200147Y-148524442D01*
X213261468Y-148490959D01*
X213302806Y-148490894D01*
X213302968Y-148489311D01*
X213309703Y-148489999D01*
X213412491Y-148500500D01*
X214037508Y-148500499D01*
X214037516Y-148500498D01*
X214037519Y-148500498D01*
X214093802Y-148494748D01*
X214140297Y-148489999D01*
X214306834Y-148434814D01*
X214456156Y-148342712D01*
X214580212Y-148218656D01*
X214594961Y-148194744D01*
X214646909Y-148148019D01*
X214715871Y-148136796D01*
X214779954Y-148164640D01*
X214818810Y-148222708D01*
X214824500Y-148259840D01*
X214824500Y-149572683D01*
X214804815Y-149639722D01*
X214803602Y-149641574D01*
X214730609Y-149750814D01*
X214730602Y-149750827D01*
X214670264Y-149896498D01*
X214670261Y-149896510D01*
X214639500Y-150051153D01*
X214639500Y-150208846D01*
X214670261Y-150363489D01*
X214670264Y-150363501D01*
X214730602Y-150509172D01*
X214730609Y-150509185D01*
X214818210Y-150640288D01*
X214818213Y-150640292D01*
X214929707Y-150751786D01*
X214929711Y-150751789D01*
X215060814Y-150839390D01*
X215060826Y-150839397D01*
X215147661Y-150875364D01*
X215201294Y-150897579D01*
X215255698Y-150941419D01*
X215277763Y-151007713D01*
X215275461Y-151036324D01*
X215274500Y-151041156D01*
X215274500Y-151198846D01*
X215305261Y-151353489D01*
X215305264Y-151353501D01*
X215365602Y-151499172D01*
X215365609Y-151499185D01*
X215453210Y-151630288D01*
X215453213Y-151630292D01*
X215564707Y-151741786D01*
X215564711Y-151741789D01*
X215695814Y-151829390D01*
X215695827Y-151829397D01*
X215804717Y-151874500D01*
X215841503Y-151889737D01*
X215906657Y-151902697D01*
X215932180Y-151907774D01*
X215994091Y-151940158D01*
X216028665Y-152000874D01*
X216029605Y-152005191D01*
X216030262Y-152008493D01*
X216030264Y-152008501D01*
X216090602Y-152154172D01*
X216090609Y-152154185D01*
X216178210Y-152285288D01*
X216178213Y-152285292D01*
X216289707Y-152396786D01*
X216289711Y-152396789D01*
X216420814Y-152484390D01*
X216420827Y-152484397D01*
X216566498Y-152544735D01*
X216566503Y-152544737D01*
X216721153Y-152575499D01*
X216721156Y-152575500D01*
X216838000Y-152575500D01*
X216905039Y-152595185D01*
X216950794Y-152647989D01*
X216962000Y-152699500D01*
X216962000Y-153300001D01*
X216962001Y-153300019D01*
X216972500Y-153402796D01*
X216972501Y-153402799D01*
X217016593Y-153535858D01*
X217027686Y-153569334D01*
X217119788Y-153718656D01*
X217243844Y-153842712D01*
X217393166Y-153934814D01*
X217410347Y-153940507D01*
X217429466Y-153953743D01*
X217450797Y-153963012D01*
X217463907Y-153977589D01*
X217467790Y-153980277D01*
X217474399Y-153989254D01*
X217474852Y-153989931D01*
X217474877Y-153990012D01*
X217474897Y-153989999D01*
X217514140Y-154048731D01*
X217514141Y-154048732D01*
X217514142Y-154048733D01*
X217601267Y-154135858D01*
X217601269Y-154135859D01*
X217737195Y-154271786D01*
X217777268Y-154311859D01*
X217879710Y-154380309D01*
X217879711Y-154380309D01*
X217879715Y-154380312D01*
X217946397Y-154407932D01*
X217993548Y-154427463D01*
X218013597Y-154431451D01*
X218078624Y-154444385D01*
X218114392Y-154451501D01*
X218114394Y-154451501D01*
X218243721Y-154451501D01*
X218243741Y-154451500D01*
X220985607Y-154451500D01*
X221046029Y-154439481D01*
X221106452Y-154427463D01*
X221139792Y-154413652D01*
X221220286Y-154380312D01*
X221276557Y-154342712D01*
X221322733Y-154311858D01*
X221409858Y-154224733D01*
X221409859Y-154224731D01*
X221416925Y-154217665D01*
X221416928Y-154217661D01*
X221579615Y-154054973D01*
X221640936Y-154021490D01*
X221710628Y-154026474D01*
X221766561Y-154068346D01*
X221770396Y-154073764D01*
X221828211Y-154160289D01*
X221828213Y-154160292D01*
X221939707Y-154271786D01*
X221939711Y-154271789D01*
X222070814Y-154359390D01*
X222070827Y-154359397D01*
X222215530Y-154419334D01*
X222216503Y-154419737D01*
X222320478Y-154440419D01*
X222371153Y-154450499D01*
X222371156Y-154450500D01*
X222371158Y-154450500D01*
X222528842Y-154450500D01*
X222549503Y-154446390D01*
X222619094Y-154452616D01*
X222674272Y-154495478D01*
X222679234Y-154502909D01*
X222719787Y-154568655D01*
X222719788Y-154568656D01*
X222843844Y-154692712D01*
X222993166Y-154784814D01*
X223159703Y-154839999D01*
X223262491Y-154850500D01*
X223887508Y-154850499D01*
X223887516Y-154850498D01*
X223887519Y-154850498D01*
X223943802Y-154844748D01*
X223990297Y-154839999D01*
X224156834Y-154784814D01*
X224306156Y-154692712D01*
X224399819Y-154599049D01*
X224461142Y-154565564D01*
X224530834Y-154570548D01*
X224575181Y-154599049D01*
X224668844Y-154692712D01*
X224818166Y-154784814D01*
X224984703Y-154839999D01*
X225087491Y-154850500D01*
X225712508Y-154850499D01*
X225712516Y-154850498D01*
X225712519Y-154850498D01*
X225768802Y-154844748D01*
X225815297Y-154839999D01*
X225981834Y-154784814D01*
X226131156Y-154692712D01*
X226255212Y-154568656D01*
X226347314Y-154419334D01*
X226366811Y-154360493D01*
X226406584Y-154303051D01*
X226471100Y-154276228D01*
X226484517Y-154275500D01*
X226761607Y-154275500D01*
X226822029Y-154263481D01*
X226882452Y-154251463D01*
X226915792Y-154237652D01*
X226996286Y-154204312D01*
X227062169Y-154160289D01*
X227098733Y-154135858D01*
X227151282Y-154083307D01*
X227155064Y-154080088D01*
X227182618Y-154067790D01*
X227209095Y-154053333D01*
X227216892Y-154052494D01*
X227218868Y-154051613D01*
X227221440Y-154052005D01*
X227235454Y-154050499D01*
X227825002Y-154050499D01*
X227825008Y-154050499D01*
X227927797Y-154039999D01*
X228094334Y-153984814D01*
X228243656Y-153892712D01*
X228367712Y-153768656D01*
X228388839Y-153734402D01*
X228440787Y-153687679D01*
X228494378Y-153675500D01*
X230061607Y-153675500D01*
X230122029Y-153663481D01*
X230182452Y-153651463D01*
X230218320Y-153636606D01*
X230296286Y-153604312D01*
X230348633Y-153569334D01*
X230398733Y-153535858D01*
X230485858Y-153448733D01*
X230485859Y-153448731D01*
X230492925Y-153441665D01*
X230492928Y-153441661D01*
X230775382Y-153159206D01*
X230836703Y-153125723D01*
X230902061Y-153129182D01*
X230934703Y-153139999D01*
X231037491Y-153150500D01*
X231662508Y-153150499D01*
X231662516Y-153150498D01*
X231662519Y-153150498D01*
X231718802Y-153144748D01*
X231765297Y-153139999D01*
X231931834Y-153084814D01*
X232081156Y-152992712D01*
X232205212Y-152868656D01*
X232297314Y-152719334D01*
X232352499Y-152552797D01*
X232363000Y-152450009D01*
X232362999Y-151872950D01*
X232382683Y-151805912D01*
X232399313Y-151785275D01*
X235798729Y-148385860D01*
X235798733Y-148385858D01*
X235885858Y-148298733D01*
X235954311Y-148196286D01*
X235954312Y-148196285D01*
X235989697Y-148110857D01*
X236001463Y-148082452D01*
X236014859Y-148015106D01*
X236025500Y-147961607D01*
X236025500Y-147838393D01*
X236025500Y-135245097D01*
X236045185Y-135178058D01*
X236097989Y-135132303D01*
X236167147Y-135122359D01*
X236173690Y-135123479D01*
X236178415Y-135124419D01*
X236183845Y-135125500D01*
X236183846Y-135125500D01*
X236366156Y-135125500D01*
X236486445Y-135101572D01*
X236544958Y-135089933D01*
X236713389Y-135020167D01*
X236826609Y-134944515D01*
X236893287Y-134923638D01*
X236960667Y-134942123D01*
G37*
%TD.AperFunction*%
%TA.AperFunction,Conductor*%
G36*
X222527217Y-150555455D02*
G01*
X222546574Y-150555946D01*
X222560049Y-150565096D01*
X222575677Y-150569685D01*
X222596319Y-150586319D01*
X222611441Y-150601441D01*
X222644926Y-150662764D01*
X222639942Y-150732456D01*
X222598071Y-150788389D01*
X222506983Y-150856577D01*
X222484810Y-150864846D01*
X222464583Y-150877134D01*
X222452676Y-150876832D01*
X222441518Y-150880994D01*
X222418393Y-150875963D01*
X222394736Y-150875364D01*
X222383167Y-150868300D01*
X222373245Y-150866142D01*
X222363230Y-150856127D01*
X222353195Y-150850000D01*
X221700000Y-150850000D01*
X221700000Y-151350000D01*
X221726000Y-151350000D01*
X221793039Y-151369685D01*
X221838794Y-151422489D01*
X221850000Y-151474000D01*
X221850000Y-151500000D01*
X222225500Y-151500000D01*
X222234185Y-151502550D01*
X222243145Y-151501262D01*
X222267186Y-151512240D01*
X222292539Y-151519685D01*
X222298465Y-151526524D01*
X222306701Y-151530285D01*
X222320991Y-151552520D01*
X222338294Y-151572489D01*
X222340581Y-151583002D01*
X222344476Y-151589063D01*
X222349500Y-151623998D01*
X222349501Y-151675998D01*
X222329818Y-151743037D01*
X222277015Y-151788793D01*
X222225501Y-151800000D01*
X221850000Y-151800000D01*
X221850000Y-151964047D01*
X221830315Y-152031086D01*
X221813681Y-152051728D01*
X221024680Y-152840729D01*
X220963357Y-152874214D01*
X220893665Y-152869230D01*
X220837732Y-152827358D01*
X220813315Y-152761894D01*
X220812999Y-152753048D01*
X220812999Y-152372952D01*
X220832684Y-152305913D01*
X220849318Y-152285271D01*
X220929052Y-152205537D01*
X221037229Y-152097360D01*
X221037233Y-152097358D01*
X221124358Y-152010233D01*
X221176329Y-151932454D01*
X221176330Y-151932453D01*
X221192809Y-151907790D01*
X221192812Y-151907786D01*
X221239963Y-151793951D01*
X221244486Y-151771215D01*
X221254805Y-151719334D01*
X221264000Y-151673107D01*
X221264000Y-151549893D01*
X221264000Y-151474000D01*
X221283685Y-151406961D01*
X221336489Y-151361206D01*
X221388000Y-151350000D01*
X221400000Y-151350000D01*
X221400000Y-150824000D01*
X221402550Y-150815314D01*
X221401262Y-150806353D01*
X221412240Y-150782312D01*
X221419685Y-150756961D01*
X221426525Y-150751033D01*
X221430287Y-150742797D01*
X221452521Y-150728507D01*
X221472489Y-150711206D01*
X221483003Y-150708918D01*
X221489065Y-150705023D01*
X221524000Y-150700000D01*
X221550000Y-150700000D01*
X221550000Y-150674000D01*
X221569685Y-150606961D01*
X221622489Y-150561206D01*
X221674000Y-150550000D01*
X222508638Y-150550000D01*
X222527217Y-150555455D01*
G37*
%TD.AperFunction*%
%TA.AperFunction,Conductor*%
G36*
X222427217Y-138705455D02*
G01*
X222446574Y-138705946D01*
X222460049Y-138715096D01*
X222475677Y-138719685D01*
X222496319Y-138736319D01*
X222511441Y-138751441D01*
X222544926Y-138812764D01*
X222539942Y-138882456D01*
X222498071Y-138938389D01*
X222406983Y-139006577D01*
X222384810Y-139014846D01*
X222364583Y-139027134D01*
X222352676Y-139026832D01*
X222341518Y-139030994D01*
X222318393Y-139025963D01*
X222294736Y-139025364D01*
X222283167Y-139018300D01*
X222273245Y-139016142D01*
X222263230Y-139006127D01*
X222253195Y-139000000D01*
X221600000Y-139000000D01*
X221600000Y-139500000D01*
X221626000Y-139500000D01*
X221693039Y-139519685D01*
X221738794Y-139572489D01*
X221750000Y-139624000D01*
X221750000Y-139650000D01*
X222125500Y-139650000D01*
X222134185Y-139652550D01*
X222143145Y-139651262D01*
X222167186Y-139662240D01*
X222192539Y-139669685D01*
X222198465Y-139676524D01*
X222206701Y-139680285D01*
X222220991Y-139702520D01*
X222238294Y-139722489D01*
X222240581Y-139733002D01*
X222244476Y-139739063D01*
X222249500Y-139773998D01*
X222249501Y-139825998D01*
X222229818Y-139893037D01*
X222177015Y-139938793D01*
X222125501Y-139950000D01*
X221750000Y-139950000D01*
X221750000Y-140272844D01*
X221756401Y-140332372D01*
X221756403Y-140332379D01*
X221806645Y-140467086D01*
X221806646Y-140467088D01*
X221857278Y-140534723D01*
X221881695Y-140600187D01*
X221866844Y-140668460D01*
X221845692Y-140696715D01*
X221004229Y-141538181D01*
X220977301Y-141552884D01*
X220951483Y-141569477D01*
X220945282Y-141570368D01*
X220942906Y-141571666D01*
X220916548Y-141574500D01*
X220812000Y-141574500D01*
X220744961Y-141554815D01*
X220699206Y-141502011D01*
X220688000Y-141450500D01*
X220687999Y-140972951D01*
X220707683Y-140905912D01*
X220724313Y-140885275D01*
X220912229Y-140697360D01*
X220912233Y-140697358D01*
X220999358Y-140610233D01*
X221039610Y-140549992D01*
X221067812Y-140507786D01*
X221102627Y-140423733D01*
X221114963Y-140393952D01*
X221124094Y-140348044D01*
X221136465Y-140285856D01*
X221139000Y-140273108D01*
X221139000Y-139624000D01*
X221158685Y-139556961D01*
X221211489Y-139511206D01*
X221263000Y-139500000D01*
X221300000Y-139500000D01*
X221300000Y-138974000D01*
X221302550Y-138965314D01*
X221301262Y-138956353D01*
X221312240Y-138932312D01*
X221319685Y-138906961D01*
X221326525Y-138901033D01*
X221330287Y-138892797D01*
X221352521Y-138878507D01*
X221372489Y-138861206D01*
X221383003Y-138858918D01*
X221389065Y-138855023D01*
X221424000Y-138850000D01*
X221450000Y-138850000D01*
X221450000Y-138824000D01*
X221469685Y-138756961D01*
X221522489Y-138711206D01*
X221574000Y-138700000D01*
X222408638Y-138700000D01*
X222427217Y-138705455D01*
G37*
%TD.AperFunction*%
%TA.AperFunction,Conductor*%
G36*
X222627217Y-126755455D02*
G01*
X222646574Y-126755946D01*
X222660049Y-126765096D01*
X222675677Y-126769685D01*
X222696319Y-126786319D01*
X222711441Y-126801441D01*
X222744926Y-126862764D01*
X222739942Y-126932456D01*
X222698071Y-126988389D01*
X222606983Y-127056577D01*
X222584810Y-127064846D01*
X222564583Y-127077134D01*
X222552676Y-127076832D01*
X222541518Y-127080994D01*
X222518393Y-127075963D01*
X222494736Y-127075364D01*
X222483167Y-127068300D01*
X222473245Y-127066142D01*
X222463230Y-127056127D01*
X222453195Y-127050000D01*
X221800000Y-127050000D01*
X221800000Y-127541704D01*
X221851778Y-127552709D01*
X221913261Y-127585900D01*
X221947039Y-127647062D01*
X221950000Y-127674000D01*
X221950000Y-127700000D01*
X222325500Y-127700000D01*
X222334185Y-127702550D01*
X222343147Y-127701262D01*
X222367187Y-127712240D01*
X222392539Y-127719685D01*
X222398466Y-127726525D01*
X222406703Y-127730287D01*
X222420992Y-127752521D01*
X222438294Y-127772489D01*
X222440581Y-127783003D01*
X222444477Y-127789065D01*
X222449500Y-127824000D01*
X222449500Y-127876000D01*
X222429815Y-127943039D01*
X222377011Y-127988794D01*
X222325500Y-128000000D01*
X221950000Y-128000000D01*
X221950000Y-128322844D01*
X221956401Y-128382372D01*
X221956403Y-128382380D01*
X222003701Y-128509193D01*
X222008685Y-128578885D01*
X221975200Y-128640207D01*
X221301229Y-129314181D01*
X221274301Y-129328884D01*
X221248483Y-129345477D01*
X221242282Y-129346368D01*
X221239906Y-129347666D01*
X221213548Y-129350500D01*
X221012000Y-129350500D01*
X220944961Y-129330815D01*
X220899206Y-129278011D01*
X220888000Y-129226500D01*
X220887999Y-128872951D01*
X220907683Y-128805912D01*
X220924313Y-128785275D01*
X221248729Y-128460860D01*
X221248733Y-128460858D01*
X221335858Y-128373733D01*
X221404311Y-128271286D01*
X221451463Y-128157452D01*
X221475500Y-128036606D01*
X221475500Y-127625862D01*
X221481657Y-127604893D01*
X221483112Y-127583085D01*
X221491307Y-127572026D01*
X221495185Y-127558823D01*
X221500000Y-127552847D01*
X221500000Y-127024000D01*
X221519685Y-126956961D01*
X221572489Y-126911206D01*
X221624000Y-126900000D01*
X221650000Y-126900000D01*
X221650000Y-126874000D01*
X221669685Y-126806961D01*
X221722489Y-126761206D01*
X221774000Y-126750000D01*
X222608638Y-126750000D01*
X222627217Y-126755455D01*
G37*
%TD.AperFunction*%
%TA.AperFunction,Conductor*%
G36*
X222427217Y-114955455D02*
G01*
X222446574Y-114955946D01*
X222460049Y-114965096D01*
X222475677Y-114969685D01*
X222496319Y-114986319D01*
X222511441Y-115001441D01*
X222544926Y-115062764D01*
X222539942Y-115132456D01*
X222498071Y-115188389D01*
X222406983Y-115256577D01*
X222384810Y-115264846D01*
X222364583Y-115277134D01*
X222352676Y-115276832D01*
X222341518Y-115280994D01*
X222318393Y-115275963D01*
X222294736Y-115275364D01*
X222283167Y-115268300D01*
X222273245Y-115266142D01*
X222263230Y-115256127D01*
X222253195Y-115250000D01*
X221600000Y-115250000D01*
X221600000Y-115750000D01*
X221626000Y-115750000D01*
X221693039Y-115769685D01*
X221738794Y-115822489D01*
X221750000Y-115874000D01*
X221750000Y-115900000D01*
X222125500Y-115900000D01*
X222134185Y-115902550D01*
X222143147Y-115901262D01*
X222167187Y-115912240D01*
X222192539Y-115919685D01*
X222198466Y-115926525D01*
X222206703Y-115930287D01*
X222220992Y-115952521D01*
X222238294Y-115972489D01*
X222240581Y-115983003D01*
X222244477Y-115989065D01*
X222249500Y-116024000D01*
X222249500Y-116076000D01*
X222229815Y-116143039D01*
X222177011Y-116188794D01*
X222125500Y-116200000D01*
X221750000Y-116200000D01*
X221750000Y-116522844D01*
X221756401Y-116582372D01*
X221756403Y-116582380D01*
X221803701Y-116709193D01*
X221808685Y-116778885D01*
X221775200Y-116840207D01*
X221127229Y-117488181D01*
X221065906Y-117521666D01*
X221039548Y-117524500D01*
X220687000Y-117524500D01*
X220619961Y-117504815D01*
X220574206Y-117452011D01*
X220563000Y-117400500D01*
X220562999Y-116922951D01*
X220582683Y-116855912D01*
X220599313Y-116835275D01*
X220787229Y-116647360D01*
X220787233Y-116647358D01*
X220874358Y-116560233D01*
X220914610Y-116499992D01*
X220942812Y-116457786D01*
X220983931Y-116358514D01*
X220989963Y-116343952D01*
X221014000Y-116223106D01*
X221014000Y-115874000D01*
X221033685Y-115806961D01*
X221086489Y-115761206D01*
X221138000Y-115750000D01*
X221300000Y-115750000D01*
X221300000Y-115224000D01*
X221302550Y-115215314D01*
X221301262Y-115206353D01*
X221312240Y-115182312D01*
X221319685Y-115156961D01*
X221326525Y-115151033D01*
X221330287Y-115142797D01*
X221352521Y-115128507D01*
X221372489Y-115111206D01*
X221383003Y-115108918D01*
X221389065Y-115105023D01*
X221424000Y-115100000D01*
X221450000Y-115100000D01*
X221450000Y-115074000D01*
X221469685Y-115006961D01*
X221522489Y-114961206D01*
X221574000Y-114950000D01*
X222408638Y-114950000D01*
X222427217Y-114955455D01*
G37*
%TD.AperFunction*%
%TD*%
%TA.AperFunction,Conductor*%
%TO.N,DGND*%
G36*
X202850492Y-141349038D02*
G01*
X202919686Y-141395272D01*
X202964491Y-141448884D01*
X202973198Y-141518209D01*
X202972806Y-141520496D01*
X202971223Y-141529222D01*
X202971222Y-141529235D01*
X202970919Y-141537482D01*
X202969741Y-141550568D01*
X202964500Y-141587023D01*
X202964500Y-148559964D01*
X202965141Y-148574434D01*
X202948443Y-148642279D01*
X202897716Y-148690326D01*
X202829065Y-148703321D01*
X202802259Y-148697628D01*
X202690197Y-148660494D01*
X202690190Y-148660493D01*
X202587486Y-148650000D01*
X202525000Y-148650000D01*
X202525000Y-151049999D01*
X202587472Y-151049999D01*
X202587486Y-151049998D01*
X202690195Y-151039506D01*
X202803132Y-151002082D01*
X202872961Y-150999680D01*
X202933003Y-151035412D01*
X202964196Y-151097932D01*
X202964877Y-151137423D01*
X202964500Y-151140045D01*
X202964500Y-155785500D01*
X202944815Y-155852539D01*
X202892011Y-155898294D01*
X202840500Y-155909500D01*
X194896782Y-155909500D01*
X194829743Y-155889815D01*
X194783988Y-155837011D01*
X194774044Y-155767853D01*
X194803069Y-155704297D01*
X194822471Y-155686234D01*
X194875366Y-155646635D01*
X194907546Y-155622546D01*
X194993796Y-155507331D01*
X195044091Y-155372483D01*
X195050500Y-155312873D01*
X195050499Y-154267128D01*
X195044091Y-154207517D01*
X195042872Y-154204250D01*
X194993797Y-154072671D01*
X194993793Y-154072664D01*
X194907547Y-153957455D01*
X194907544Y-153957452D01*
X194792335Y-153871206D01*
X194792328Y-153871202D01*
X194657482Y-153820908D01*
X194657483Y-153820908D01*
X194597883Y-153814501D01*
X194597881Y-153814500D01*
X194597873Y-153814500D01*
X194597865Y-153814500D01*
X193860453Y-153814500D01*
X193831012Y-153805855D01*
X193801026Y-153799332D01*
X193796010Y-153795577D01*
X193793414Y-153794815D01*
X193772772Y-153778181D01*
X193681771Y-153687180D01*
X193648286Y-153625857D01*
X193653270Y-153556165D01*
X193695142Y-153500232D01*
X193760606Y-153475815D01*
X193769452Y-153475499D01*
X194597871Y-153475499D01*
X194597872Y-153475499D01*
X194657483Y-153469091D01*
X194792331Y-153418796D01*
X194907546Y-153332546D01*
X194993796Y-153217331D01*
X195044091Y-153082483D01*
X195050500Y-153022873D01*
X195050499Y-152285452D01*
X195070183Y-152218414D01*
X195086818Y-152197772D01*
X195469534Y-151815057D01*
X195885857Y-151398734D01*
X195930726Y-151331584D01*
X195954311Y-151296286D01*
X196001463Y-151182452D01*
X196025500Y-151061606D01*
X196025500Y-150827135D01*
X199449500Y-150827135D01*
X199449500Y-154172870D01*
X199449501Y-154172876D01*
X199455908Y-154232483D01*
X199506202Y-154367328D01*
X199506206Y-154367335D01*
X199592452Y-154482544D01*
X199592455Y-154482547D01*
X199707664Y-154568793D01*
X199707671Y-154568797D01*
X199842517Y-154619091D01*
X199842516Y-154619091D01*
X199849444Y-154619835D01*
X199902127Y-154625500D01*
X201297872Y-154625499D01*
X201357483Y-154619091D01*
X201492331Y-154568796D01*
X201607546Y-154482546D01*
X201693796Y-154367331D01*
X201744091Y-154232483D01*
X201750500Y-154172873D01*
X201750499Y-151165651D01*
X201770184Y-151098613D01*
X201822988Y-151052858D01*
X201887103Y-151042294D01*
X201962520Y-151049999D01*
X202024999Y-151049998D01*
X202025000Y-151049998D01*
X202025000Y-150100000D01*
X201262501Y-150100000D01*
X201262501Y-150250500D01*
X201242816Y-150317539D01*
X201190012Y-150363294D01*
X201138501Y-150374500D01*
X199902129Y-150374500D01*
X199902123Y-150374501D01*
X199842516Y-150380908D01*
X199707671Y-150431202D01*
X199707664Y-150431206D01*
X199592455Y-150517452D01*
X199592452Y-150517455D01*
X199506206Y-150632664D01*
X199506202Y-150632671D01*
X199455908Y-150767517D01*
X199449501Y-150827116D01*
X199449500Y-150827135D01*
X196025500Y-150827135D01*
X196025500Y-149449500D01*
X196045185Y-149382461D01*
X196082632Y-149350013D01*
X201262500Y-149350013D01*
X201262500Y-149600000D01*
X202025000Y-149600000D01*
X202025000Y-148650000D01*
X202024999Y-148649999D01*
X201962528Y-148650000D01*
X201962511Y-148650001D01*
X201859802Y-148660494D01*
X201693380Y-148715641D01*
X201693375Y-148715643D01*
X201544154Y-148807684D01*
X201420184Y-148931654D01*
X201328143Y-149080875D01*
X201328141Y-149080880D01*
X201272994Y-149247302D01*
X201272993Y-149247309D01*
X201262500Y-149350013D01*
X196082632Y-149350013D01*
X196097989Y-149336706D01*
X196149500Y-149325500D01*
X199660608Y-149325500D01*
X199660608Y-149325499D01*
X199722620Y-149313165D01*
X199781452Y-149301463D01*
X199816156Y-149287088D01*
X199895286Y-149254312D01*
X199948561Y-149218714D01*
X199997733Y-149185858D01*
X200084858Y-149098733D01*
X200084859Y-149098731D01*
X200091925Y-149091665D01*
X200091928Y-149091661D01*
X200321771Y-148861818D01*
X200383094Y-148828333D01*
X200409452Y-148825499D01*
X200984371Y-148825499D01*
X200984372Y-148825499D01*
X201043983Y-148819091D01*
X201178831Y-148768796D01*
X201294046Y-148682546D01*
X201380296Y-148567331D01*
X201430591Y-148432483D01*
X201437000Y-148372873D01*
X201436999Y-147827128D01*
X201430591Y-147767517D01*
X201380296Y-147632669D01*
X201351598Y-147594334D01*
X201325939Y-147560058D01*
X201299178Y-147524309D01*
X201274761Y-147458848D01*
X201289612Y-147390575D01*
X201299173Y-147375696D01*
X201374789Y-147274688D01*
X201422605Y-147238894D01*
X201436500Y-147225000D01*
X201436500Y-147177182D01*
X201436499Y-147177164D01*
X201432568Y-147140602D01*
X201432568Y-147114094D01*
X201437000Y-147072873D01*
X201436999Y-146527128D01*
X201430591Y-146467517D01*
X201380296Y-146332669D01*
X201362596Y-146309025D01*
X201329698Y-146265079D01*
X201299178Y-146224309D01*
X201274761Y-146158848D01*
X201289612Y-146090575D01*
X201299173Y-146075696D01*
X201351598Y-146005666D01*
X201374789Y-145974688D01*
X201422605Y-145938894D01*
X201436500Y-145925000D01*
X201436500Y-145877182D01*
X201436499Y-145877164D01*
X201432568Y-145840602D01*
X201432568Y-145814094D01*
X201437000Y-145772873D01*
X201436999Y-145227128D01*
X201436998Y-145227111D01*
X201432820Y-145188253D01*
X201432820Y-145161747D01*
X201437000Y-145122873D01*
X201436999Y-144577128D01*
X201436998Y-144577111D01*
X201432820Y-144538253D01*
X201432820Y-144511747D01*
X201437000Y-144472873D01*
X201436999Y-143927128D01*
X201436998Y-143927111D01*
X201432820Y-143888253D01*
X201432820Y-143861747D01*
X201437000Y-143822873D01*
X201436999Y-143277128D01*
X201436998Y-143277111D01*
X201432820Y-143238253D01*
X201432820Y-143211747D01*
X201437000Y-143172873D01*
X201436999Y-142627128D01*
X201436998Y-142627111D01*
X201432820Y-142588253D01*
X201432820Y-142561747D01*
X201437000Y-142522873D01*
X201436999Y-141977128D01*
X201430591Y-141917517D01*
X201429481Y-141914542D01*
X201380297Y-141782671D01*
X201380296Y-141782669D01*
X201332491Y-141718810D01*
X201308074Y-141653346D01*
X201322925Y-141585073D01*
X201372330Y-141535667D01*
X201431755Y-141520499D01*
X202372872Y-141520499D01*
X202432483Y-141514091D01*
X202567331Y-141463796D01*
X202682546Y-141377546D01*
X202682551Y-141377538D01*
X202688820Y-141371272D01*
X202689793Y-141372245D01*
X202738266Y-141335959D01*
X202807957Y-141330973D01*
X202850492Y-141349038D01*
G37*
%TD.AperFunction*%
%TA.AperFunction,Conductor*%
G36*
X193825577Y-143060249D02*
G01*
X193862298Y-143119691D01*
X193866075Y-143139897D01*
X193872501Y-143202797D01*
X193872501Y-143202799D01*
X193927685Y-143369331D01*
X193927689Y-143369340D01*
X193997000Y-143481712D01*
X194015440Y-143549105D01*
X193994517Y-143615768D01*
X193979143Y-143634489D01*
X193857287Y-143756345D01*
X193765187Y-143905663D01*
X193765185Y-143905668D01*
X193737349Y-143989670D01*
X193710001Y-144072203D01*
X193710001Y-144072204D01*
X193710000Y-144072204D01*
X193699500Y-144174983D01*
X193699500Y-145225001D01*
X193699501Y-145225019D01*
X193710000Y-145327796D01*
X193710001Y-145327799D01*
X193735954Y-145406119D01*
X193765186Y-145494334D01*
X193857288Y-145643656D01*
X193981344Y-145767712D01*
X194115597Y-145850519D01*
X194162321Y-145902465D01*
X194174500Y-145956057D01*
X194174500Y-148161609D01*
X194179552Y-148187004D01*
X194180655Y-148192549D01*
X194198537Y-148282452D01*
X194209137Y-148308043D01*
X194241364Y-148385847D01*
X194245689Y-148396288D01*
X194249147Y-148401463D01*
X194273094Y-148437300D01*
X194273095Y-148437303D01*
X194314138Y-148498728D01*
X194314144Y-148498736D01*
X194405586Y-148590178D01*
X194405608Y-148590198D01*
X194738181Y-148922771D01*
X194752884Y-148949698D01*
X194769477Y-148975517D01*
X194770368Y-148981717D01*
X194771666Y-148984094D01*
X194774500Y-149010451D01*
X194774500Y-149115948D01*
X194754815Y-149182987D01*
X194702011Y-149228742D01*
X194637244Y-149239237D01*
X194597844Y-149235000D01*
X194150000Y-149235000D01*
X194150000Y-151185000D01*
X194152523Y-151187523D01*
X194156861Y-151195468D01*
X194164109Y-151200894D01*
X194173343Y-151225653D01*
X194186008Y-151248846D01*
X194185362Y-151257875D01*
X194188526Y-151266358D01*
X194182909Y-151292178D01*
X194181024Y-151318538D01*
X194175205Y-151327591D01*
X194173674Y-151334631D01*
X194152523Y-151362885D01*
X194027227Y-151488181D01*
X193965904Y-151521666D01*
X193939546Y-151524500D01*
X193202129Y-151524500D01*
X193202123Y-151524501D01*
X193142516Y-151530908D01*
X193007671Y-151581202D01*
X193007664Y-151581206D01*
X192892455Y-151667452D01*
X192892452Y-151667455D01*
X192806206Y-151782664D01*
X192806202Y-151782671D01*
X192755908Y-151917517D01*
X192749501Y-151977116D01*
X192749500Y-151977135D01*
X192749500Y-152455548D01*
X192729815Y-152522587D01*
X192677011Y-152568342D01*
X192607853Y-152578286D01*
X192544297Y-152549261D01*
X192537819Y-152543229D01*
X191883782Y-151889192D01*
X191850297Y-151827869D01*
X191855281Y-151758177D01*
X191897153Y-151702244D01*
X191947272Y-151679894D01*
X191976070Y-151674165D01*
X192011835Y-151667051D01*
X192193914Y-151591632D01*
X192357782Y-151482139D01*
X192497139Y-151342782D01*
X192606632Y-151178914D01*
X192627575Y-151128354D01*
X192635714Y-151108702D01*
X192661702Y-151045961D01*
X192705542Y-150991558D01*
X192771836Y-150969493D01*
X192839536Y-150986772D01*
X192875530Y-151019104D01*
X192892811Y-151042189D01*
X192892812Y-151042190D01*
X193007906Y-151128350D01*
X193007913Y-151128354D01*
X193142620Y-151178596D01*
X193142627Y-151178598D01*
X193202155Y-151184999D01*
X193202172Y-151185000D01*
X193650000Y-151185000D01*
X193650000Y-149235000D01*
X193202155Y-149235000D01*
X193142627Y-149241401D01*
X193142620Y-149241403D01*
X193007913Y-149291645D01*
X193007906Y-149291649D01*
X192892808Y-149377812D01*
X192891777Y-149378844D01*
X192890497Y-149379542D01*
X192885712Y-149383125D01*
X192885196Y-149382436D01*
X192830452Y-149412325D01*
X192760760Y-149407336D01*
X192704830Y-149365461D01*
X192684079Y-149318918D01*
X192683820Y-149318997D01*
X192683193Y-149316931D01*
X192682483Y-149315338D01*
X192682051Y-149313165D01*
X192682049Y-149313160D01*
X192606635Y-149131092D01*
X192606628Y-149131079D01*
X192497139Y-148967218D01*
X192497136Y-148967214D01*
X192357785Y-148827863D01*
X192357781Y-148827860D01*
X192193920Y-148718371D01*
X192193907Y-148718364D01*
X192011839Y-148642950D01*
X192011829Y-148642947D01*
X191818543Y-148604500D01*
X191818541Y-148604500D01*
X191621459Y-148604500D01*
X191621457Y-148604500D01*
X191428170Y-148642947D01*
X191428160Y-148642950D01*
X191246093Y-148718364D01*
X191246077Y-148718373D01*
X191194602Y-148752767D01*
X191173266Y-148759447D01*
X191153797Y-148770442D01*
X191140568Y-148769685D01*
X191127925Y-148773644D01*
X191106365Y-148767728D01*
X191084041Y-148766452D01*
X191070510Y-148757892D01*
X191060545Y-148755158D01*
X191053116Y-148746888D01*
X191038032Y-148737345D01*
X190988050Y-148687363D01*
X190988045Y-148687360D01*
X190901526Y-148643276D01*
X190850730Y-148595301D01*
X190833935Y-148527480D01*
X190856472Y-148461346D01*
X190911187Y-148417894D01*
X190933625Y-148411174D01*
X190982452Y-148401463D01*
X191020152Y-148385847D01*
X191096286Y-148354312D01*
X191150809Y-148317880D01*
X191198733Y-148285858D01*
X191272774Y-148211816D01*
X191334095Y-148178333D01*
X191360454Y-148175499D01*
X192147871Y-148175499D01*
X192147872Y-148175499D01*
X192207483Y-148169091D01*
X192342331Y-148118796D01*
X192457546Y-148032546D01*
X192543796Y-147917331D01*
X192594091Y-147782483D01*
X192600500Y-147722873D01*
X192600499Y-146677128D01*
X192594091Y-146617517D01*
X192586685Y-146597661D01*
X192543797Y-146482671D01*
X192543793Y-146482664D01*
X192457547Y-146367455D01*
X192432832Y-146348953D01*
X192390962Y-146293019D01*
X192385978Y-146223327D01*
X192419464Y-146162004D01*
X192432835Y-146150418D01*
X192457192Y-146132185D01*
X192543350Y-146017093D01*
X192543354Y-146017086D01*
X192593596Y-145882379D01*
X192593598Y-145882372D01*
X192599999Y-145822844D01*
X192600000Y-145822827D01*
X192600000Y-145550000D01*
X191524000Y-145550000D01*
X191456961Y-145530315D01*
X191411206Y-145477511D01*
X191400000Y-145426000D01*
X191400000Y-145174000D01*
X191419685Y-145106961D01*
X191472489Y-145061206D01*
X191524000Y-145050000D01*
X192600000Y-145050000D01*
X192600000Y-144777172D01*
X192599999Y-144777155D01*
X192593598Y-144717627D01*
X192593597Y-144717623D01*
X192540253Y-144574602D01*
X192543130Y-144573528D01*
X192531516Y-144520190D01*
X192555920Y-144454720D01*
X192580888Y-144429747D01*
X192610546Y-144407546D01*
X192696796Y-144292331D01*
X192747091Y-144157483D01*
X192753500Y-144097873D01*
X192753499Y-143518244D01*
X192773183Y-143451206D01*
X192825987Y-143405451D01*
X192895146Y-143395507D01*
X192901691Y-143396628D01*
X192921156Y-143400500D01*
X192921158Y-143400500D01*
X193078844Y-143400500D01*
X193078845Y-143400499D01*
X193233497Y-143369737D01*
X193379179Y-143309394D01*
X193510289Y-143221789D01*
X193621789Y-143110289D01*
X193639615Y-143083610D01*
X193693224Y-143038806D01*
X193762548Y-143030096D01*
X193825577Y-143060249D01*
G37*
%TD.AperFunction*%
%TA.AperFunction,Conductor*%
G36*
X184352295Y-147913517D02*
G01*
X184361622Y-147924570D01*
X184442452Y-148032544D01*
X184442455Y-148032547D01*
X184557664Y-148118793D01*
X184557671Y-148118797D01*
X184664702Y-148158717D01*
X184689409Y-148177212D01*
X184715312Y-148193963D01*
X184717122Y-148197958D01*
X184720636Y-148200588D01*
X184731420Y-148229503D01*
X184744156Y-148257600D01*
X184743519Y-148261940D01*
X184745053Y-148266052D01*
X184738493Y-148296205D01*
X184734017Y-148326730D01*
X184731134Y-148330037D01*
X184730202Y-148334325D01*
X184708382Y-148356144D01*
X184688112Y-148379404D01*
X184682644Y-148381882D01*
X184680796Y-148383731D01*
X184655966Y-148393975D01*
X184633701Y-148400444D01*
X184564509Y-148400444D01*
X184452494Y-148367900D01*
X184452497Y-148367900D01*
X184450000Y-148367703D01*
X184450000Y-148443691D01*
X184430315Y-148510730D01*
X184413681Y-148531372D01*
X184331923Y-148613129D01*
X184331917Y-148613137D01*
X184248255Y-148754603D01*
X184248254Y-148754606D01*
X184202402Y-148912426D01*
X184202401Y-148912432D01*
X184199500Y-148949298D01*
X184199500Y-149071715D01*
X184198054Y-149076636D01*
X184199101Y-149081659D01*
X184188309Y-149109823D01*
X184179815Y-149138754D01*
X184175938Y-149142112D01*
X184174103Y-149146904D01*
X184149797Y-149164764D01*
X184127011Y-149184509D01*
X184121934Y-149185238D01*
X184117800Y-149188277D01*
X184087703Y-149190160D01*
X184057853Y-149194453D01*
X184053185Y-149192321D01*
X184048067Y-149192642D01*
X184021733Y-149177958D01*
X183994297Y-149165428D01*
X183990309Y-149160435D01*
X183987044Y-149158614D01*
X183966144Y-149130173D01*
X183964644Y-149127367D01*
X183950000Y-149068909D01*
X183950000Y-148367703D01*
X183943903Y-148362069D01*
X183896698Y-148352171D01*
X183846923Y-148303138D01*
X183831559Y-148234979D01*
X183855484Y-148169333D01*
X183890210Y-148137357D01*
X183894331Y-148134814D01*
X183894334Y-148134814D01*
X184043656Y-148042712D01*
X184167712Y-147918656D01*
X184167712Y-147918655D01*
X184172819Y-147913549D01*
X184174550Y-147915280D01*
X184222068Y-147881608D01*
X184291866Y-147878444D01*
X184352295Y-147913517D01*
G37*
%TD.AperFunction*%
%TA.AperFunction,Conductor*%
G36*
X197179191Y-147684167D02*
G01*
X197190073Y-147682396D01*
X197212568Y-147692168D01*
X197236416Y-147697886D01*
X197249773Y-147708332D01*
X197254156Y-147710236D01*
X197258250Y-147714961D01*
X197264218Y-147719628D01*
X197273330Y-147729133D01*
X197282288Y-147743656D01*
X197402400Y-147863768D01*
X197403282Y-147864688D01*
X197418803Y-147894597D01*
X197434936Y-147924142D01*
X197434839Y-147925497D01*
X197435465Y-147926704D01*
X197432354Y-147960236D01*
X197429952Y-147993834D01*
X197429137Y-147994922D01*
X197429012Y-147996275D01*
X197408265Y-148022803D01*
X197388080Y-148049767D01*
X197386806Y-148050241D01*
X197385969Y-148051313D01*
X197354165Y-148062416D01*
X197322616Y-148074184D01*
X197321287Y-148073895D01*
X197320005Y-148074343D01*
X197313770Y-148074500D01*
X197035523Y-148074500D01*
X196968484Y-148054815D01*
X196922729Y-148002011D01*
X196912785Y-147932853D01*
X196941810Y-147869297D01*
X196947842Y-147862819D01*
X197067316Y-147743344D01*
X197067318Y-147743342D01*
X197069165Y-147740348D01*
X197070969Y-147738724D01*
X197071798Y-147737677D01*
X197071976Y-147737818D01*
X197087397Y-147723946D01*
X197102507Y-147704627D01*
X197112914Y-147700993D01*
X197121110Y-147693621D01*
X197145316Y-147689680D01*
X197168471Y-147681597D01*
X197179191Y-147684167D01*
G37*
%TD.AperFunction*%
%TA.AperFunction,Conductor*%
G36*
X184352323Y-146012715D02*
G01*
X184361631Y-146023748D01*
X184439116Y-146127254D01*
X184471496Y-146153814D01*
X184489685Y-146180503D01*
X184509037Y-146206353D01*
X184509240Y-146209195D01*
X184510845Y-146211550D01*
X184511717Y-146243839D01*
X184514021Y-146276045D01*
X184512655Y-146278544D01*
X184512733Y-146281394D01*
X184496012Y-146309025D01*
X184480537Y-146337368D01*
X184477015Y-146340419D01*
X184476561Y-146341171D01*
X184475611Y-146341635D01*
X184467169Y-146348952D01*
X184442453Y-146367454D01*
X184361622Y-146475430D01*
X184305688Y-146517300D01*
X184235996Y-146522284D01*
X184174673Y-146488798D01*
X184170694Y-146484326D01*
X184043657Y-146357289D01*
X184043656Y-146357288D01*
X184040342Y-146355243D01*
X184038546Y-146353248D01*
X184037989Y-146352807D01*
X184038064Y-146352711D01*
X183993618Y-146303297D01*
X183982397Y-146234334D01*
X184010240Y-146170252D01*
X184040348Y-146144165D01*
X184043342Y-146142318D01*
X184043344Y-146142316D01*
X184172424Y-146013237D01*
X184174020Y-146014833D01*
X184222103Y-145980777D01*
X184291902Y-145977628D01*
X184352323Y-146012715D01*
G37*
%TD.AperFunction*%
%TA.AperFunction,Conductor*%
G36*
X184485807Y-134696032D02*
G01*
X184495146Y-134694690D01*
X184518850Y-134705515D01*
X184543898Y-134712704D01*
X184554547Y-134721818D01*
X184558701Y-134723715D01*
X184564673Y-134730484D01*
X184570712Y-134735652D01*
X184576082Y-134741774D01*
X184614142Y-134798733D01*
X184701267Y-134885858D01*
X184701269Y-134885859D01*
X185014141Y-135198732D01*
X185014142Y-135198733D01*
X185101267Y-135285858D01*
X185136283Y-135309255D01*
X185203714Y-135354311D01*
X185317548Y-135401463D01*
X185438388Y-135425499D01*
X185438392Y-135425500D01*
X185438393Y-135425500D01*
X185438394Y-135425500D01*
X190172714Y-135425500D01*
X190239753Y-135445185D01*
X190285508Y-135497989D01*
X190295452Y-135567147D01*
X190271980Y-135623810D01*
X190253512Y-135648481D01*
X190209204Y-135707668D01*
X190209202Y-135707671D01*
X190158908Y-135842517D01*
X190155846Y-135871002D01*
X190152501Y-135902123D01*
X190152500Y-135902135D01*
X190152500Y-137397870D01*
X190152501Y-137397876D01*
X190158908Y-137457483D01*
X190209202Y-137592328D01*
X190209204Y-137592331D01*
X190269231Y-137672517D01*
X190271917Y-137676104D01*
X190296335Y-137741569D01*
X190281484Y-137809842D01*
X190271918Y-137824727D01*
X190209647Y-137907910D01*
X190209645Y-137907913D01*
X190159403Y-138042620D01*
X190159401Y-138042627D01*
X190153000Y-138102155D01*
X190153000Y-138600000D01*
X192753000Y-138600000D01*
X192753000Y-138102172D01*
X192752999Y-138102155D01*
X192746598Y-138042627D01*
X192746596Y-138042620D01*
X192696354Y-137907913D01*
X192696352Y-137907910D01*
X192634082Y-137824727D01*
X192609665Y-137759262D01*
X192624517Y-137690989D01*
X192634083Y-137676104D01*
X192634394Y-137675689D01*
X192696796Y-137592331D01*
X192747091Y-137457483D01*
X192753500Y-137397873D01*
X192753499Y-135993739D01*
X192773184Y-135926701D01*
X192825987Y-135880946D01*
X192895146Y-135871002D01*
X192942594Y-135888201D01*
X192965154Y-135902116D01*
X193018157Y-135934809D01*
X193018160Y-135934810D01*
X193018166Y-135934814D01*
X193184703Y-135989999D01*
X193287491Y-136000500D01*
X193550501Y-136000499D01*
X193617539Y-136020183D01*
X193663294Y-136072987D01*
X193674500Y-136124499D01*
X193674500Y-139878735D01*
X193654815Y-139945774D01*
X193602011Y-139991529D01*
X193537900Y-140002093D01*
X193512523Y-139999501D01*
X193512514Y-139999500D01*
X193512509Y-139999500D01*
X193512503Y-139999500D01*
X192887498Y-139999500D01*
X192887478Y-139999502D01*
X192793758Y-140009075D01*
X192725066Y-139996305D01*
X192674182Y-139948423D01*
X192657262Y-139880633D01*
X192679679Y-139814457D01*
X192681894Y-139811403D01*
X192696351Y-139792091D01*
X192696354Y-139792086D01*
X192746596Y-139657379D01*
X192746598Y-139657372D01*
X192752999Y-139597844D01*
X192753000Y-139597827D01*
X192753000Y-139100000D01*
X190153000Y-139100000D01*
X190153000Y-139597844D01*
X190159401Y-139657372D01*
X190159403Y-139657379D01*
X190209645Y-139792086D01*
X190209649Y-139792093D01*
X190295809Y-139907187D01*
X190295812Y-139907190D01*
X190410906Y-139993350D01*
X190410915Y-139993355D01*
X190519183Y-140033736D01*
X190575117Y-140075607D01*
X190599535Y-140141071D01*
X190584684Y-140209344D01*
X190563533Y-140237598D01*
X190519789Y-140281342D01*
X190427687Y-140430663D01*
X190427685Y-140430668D01*
X190414343Y-140470931D01*
X190372501Y-140597203D01*
X190372501Y-140597204D01*
X190372500Y-140597204D01*
X190362000Y-140699983D01*
X190362000Y-140707275D01*
X190342315Y-140774314D01*
X190289511Y-140820069D01*
X190220353Y-140830013D01*
X190156797Y-140800988D01*
X190123439Y-140754728D01*
X190113045Y-140729636D01*
X190109394Y-140720821D01*
X190109392Y-140720818D01*
X190109390Y-140720814D01*
X190021789Y-140589711D01*
X190021786Y-140589707D01*
X189910292Y-140478213D01*
X189910288Y-140478210D01*
X189779185Y-140390609D01*
X189779172Y-140390602D01*
X189633501Y-140330264D01*
X189633489Y-140330261D01*
X189478845Y-140299500D01*
X189478842Y-140299500D01*
X189321158Y-140299500D01*
X189321155Y-140299500D01*
X189166510Y-140330261D01*
X189166498Y-140330264D01*
X189020827Y-140390602D01*
X189020814Y-140390609D01*
X188889711Y-140478210D01*
X188889707Y-140478213D01*
X188778213Y-140589707D01*
X188778210Y-140589711D01*
X188690609Y-140720814D01*
X188690602Y-140720827D01*
X188630264Y-140866498D01*
X188630261Y-140866510D01*
X188599500Y-141021153D01*
X188599500Y-141178846D01*
X188630261Y-141333489D01*
X188630264Y-141333501D01*
X188690602Y-141479172D01*
X188690609Y-141479184D01*
X188753602Y-141573459D01*
X188774480Y-141640136D01*
X188774500Y-141642350D01*
X188774500Y-144215483D01*
X188754815Y-144282522D01*
X188702011Y-144328277D01*
X188689510Y-144333186D01*
X188638796Y-144349992D01*
X188630666Y-144352686D01*
X188630663Y-144352687D01*
X188481342Y-144444789D01*
X188476909Y-144448295D01*
X188412113Y-144474434D01*
X188343471Y-144461392D01*
X188323091Y-144448295D01*
X188318657Y-144444789D01*
X188318656Y-144444788D01*
X188221433Y-144384821D01*
X188169336Y-144352687D01*
X188169335Y-144352686D01*
X188169334Y-144352686D01*
X188110493Y-144333188D01*
X188053051Y-144293416D01*
X188026228Y-144228900D01*
X188025500Y-144215483D01*
X188025500Y-141642350D01*
X188045185Y-141575311D01*
X188046398Y-141573459D01*
X188057203Y-141557288D01*
X188109394Y-141479179D01*
X188169737Y-141333497D01*
X188200500Y-141178842D01*
X188200500Y-141021158D01*
X188200500Y-141021155D01*
X188200499Y-141021153D01*
X188183284Y-140934609D01*
X188169737Y-140866503D01*
X188154840Y-140830538D01*
X188109397Y-140720827D01*
X188109390Y-140720814D01*
X188021789Y-140589711D01*
X188021786Y-140589707D01*
X187910292Y-140478213D01*
X187910288Y-140478210D01*
X187779185Y-140390609D01*
X187779172Y-140390602D01*
X187633501Y-140330264D01*
X187633489Y-140330261D01*
X187478845Y-140299500D01*
X187478842Y-140299500D01*
X187321158Y-140299500D01*
X187321155Y-140299500D01*
X187166510Y-140330261D01*
X187166498Y-140330264D01*
X187020827Y-140390602D01*
X187020814Y-140390609D01*
X186889711Y-140478210D01*
X186889707Y-140478213D01*
X186778213Y-140589707D01*
X186778210Y-140589711D01*
X186690609Y-140720814D01*
X186690602Y-140720827D01*
X186630264Y-140866498D01*
X186630261Y-140866510D01*
X186599500Y-141021153D01*
X186599500Y-141178846D01*
X186630261Y-141333489D01*
X186630264Y-141333501D01*
X186690602Y-141479172D01*
X186690609Y-141479184D01*
X186753602Y-141573459D01*
X186774480Y-141640136D01*
X186774500Y-141642350D01*
X186774500Y-144215483D01*
X186769612Y-144232127D01*
X186769750Y-144249473D01*
X186759973Y-144264954D01*
X186754815Y-144282522D01*
X186741577Y-144294084D01*
X186732443Y-144308549D01*
X186710797Y-144320970D01*
X186702904Y-144327865D01*
X186696355Y-144330918D01*
X186630666Y-144352686D01*
X186571767Y-144389014D01*
X186565211Y-144392072D01*
X186537523Y-144396277D01*
X186510508Y-144403669D01*
X186503448Y-144401453D01*
X186496134Y-144402564D01*
X186470569Y-144391133D01*
X186450459Y-144384821D01*
X186449872Y-144385897D01*
X186444444Y-144382933D01*
X186443845Y-144382745D01*
X186442987Y-144382137D01*
X186442086Y-144381645D01*
X186307379Y-144331403D01*
X186307372Y-144331401D01*
X186247844Y-144325000D01*
X185750000Y-144325000D01*
X185750000Y-145176000D01*
X185730315Y-145243039D01*
X185677511Y-145288794D01*
X185626000Y-145300000D01*
X185500000Y-145300000D01*
X185500000Y-145426000D01*
X185480315Y-145493039D01*
X185427511Y-145538794D01*
X185376000Y-145550000D01*
X183224000Y-145550000D01*
X183156961Y-145530315D01*
X183111206Y-145477511D01*
X183100000Y-145426000D01*
X183100000Y-145174000D01*
X183119685Y-145106961D01*
X183172489Y-145061206D01*
X183224000Y-145050000D01*
X185250000Y-145050000D01*
X185250000Y-144325000D01*
X184752155Y-144325000D01*
X184692627Y-144331401D01*
X184692620Y-144331403D01*
X184557913Y-144381645D01*
X184557907Y-144381649D01*
X184487503Y-144434353D01*
X184422039Y-144458770D01*
X184353766Y-144443918D01*
X184304361Y-144394513D01*
X184289509Y-144326240D01*
X184297009Y-144291758D01*
X184347091Y-144157483D01*
X184353500Y-144097873D01*
X184353499Y-142602128D01*
X184347091Y-142542517D01*
X184340097Y-142523766D01*
X184296797Y-142407671D01*
X184296795Y-142407668D01*
X184252880Y-142349005D01*
X184215678Y-142299309D01*
X184191261Y-142233848D01*
X184206112Y-142165574D01*
X184215673Y-142150696D01*
X184296796Y-142042331D01*
X184347091Y-141907483D01*
X184353500Y-141847873D01*
X184353499Y-140352128D01*
X184347091Y-140292517D01*
X184345603Y-140288528D01*
X184296797Y-140157671D01*
X184296795Y-140157668D01*
X184291869Y-140151088D01*
X184215678Y-140049309D01*
X184191261Y-139983848D01*
X184206112Y-139915574D01*
X184215673Y-139900696D01*
X184296796Y-139792331D01*
X184347091Y-139657483D01*
X184353500Y-139597873D01*
X184353499Y-138102128D01*
X184347091Y-138042517D01*
X184339123Y-138021155D01*
X184296797Y-137907671D01*
X184296796Y-137907669D01*
X184253999Y-137850500D01*
X184234393Y-137824310D01*
X184209977Y-137758847D01*
X184224828Y-137690574D01*
X184234394Y-137675689D01*
X184239171Y-137669308D01*
X184296796Y-137592331D01*
X184347091Y-137457483D01*
X184353500Y-137397873D01*
X184353499Y-135902128D01*
X184347091Y-135842517D01*
X184343728Y-135833501D01*
X184296797Y-135707671D01*
X184296795Y-135707668D01*
X184215678Y-135599309D01*
X184191261Y-135533848D01*
X184206112Y-135465574D01*
X184215673Y-135450696D01*
X184296796Y-135342331D01*
X184347091Y-135207483D01*
X184353500Y-135147873D01*
X184353499Y-134817425D01*
X184360841Y-134792422D01*
X184364391Y-134766609D01*
X184370524Y-134759441D01*
X184373183Y-134750389D01*
X184392878Y-134733323D01*
X184409821Y-134713526D01*
X184418856Y-134710812D01*
X184425987Y-134704634D01*
X184451780Y-134700925D01*
X184476739Y-134693430D01*
X184485807Y-134696032D01*
G37*
%TD.AperFunction*%
%TA.AperFunction,Conductor*%
G36*
X190242260Y-141371018D02*
G01*
X190251085Y-141369414D01*
X190275590Y-141379524D01*
X190301271Y-141386079D01*
X190307381Y-141392642D01*
X190315673Y-141396063D01*
X190330819Y-141417814D01*
X190348883Y-141437215D01*
X190351222Y-141447114D01*
X190355600Y-141453401D01*
X190356138Y-141467917D01*
X190362000Y-141492721D01*
X190362000Y-141700000D01*
X190362001Y-141700019D01*
X190372500Y-141802796D01*
X190372501Y-141802799D01*
X190427685Y-141969331D01*
X190427689Y-141969340D01*
X190464057Y-142028302D01*
X190482497Y-142095695D01*
X190461574Y-142162358D01*
X190417948Y-142202228D01*
X190410669Y-142206202D01*
X190295455Y-142292452D01*
X190295452Y-142292455D01*
X190248766Y-142354820D01*
X190192832Y-142396691D01*
X190123141Y-142401675D01*
X190061818Y-142368189D01*
X190028334Y-142306866D01*
X190025500Y-142280509D01*
X190025500Y-141642350D01*
X190029851Y-141626445D01*
X190029310Y-141611849D01*
X190041078Y-141585410D01*
X190042771Y-141579223D01*
X190044501Y-141576297D01*
X190109394Y-141479179D01*
X190126803Y-141437147D01*
X190131271Y-141429595D01*
X190150646Y-141411506D01*
X190167277Y-141390868D01*
X190175787Y-141388035D01*
X190182343Y-141381915D01*
X190208420Y-141377172D01*
X190233571Y-141368801D01*
X190242260Y-141371018D01*
G37*
%TD.AperFunction*%
%TA.AperFunction,Conductor*%
G36*
X207724689Y-125745185D02*
G01*
X207726541Y-125746398D01*
X207820821Y-125809394D01*
X207820823Y-125809395D01*
X207820827Y-125809397D01*
X207966498Y-125869735D01*
X207966503Y-125869737D01*
X208121153Y-125900499D01*
X208121156Y-125900500D01*
X208250500Y-125900500D01*
X208317539Y-125920185D01*
X208363294Y-125972989D01*
X208374500Y-126024500D01*
X208374500Y-132674844D01*
X208354815Y-132741883D01*
X208338181Y-132762525D01*
X205309750Y-135790954D01*
X205248427Y-135824439D01*
X205178735Y-135819455D01*
X205122802Y-135777583D01*
X205098385Y-135712119D01*
X205100087Y-135684925D01*
X205099903Y-135684907D01*
X205100414Y-135679716D01*
X205100454Y-135679070D01*
X205100500Y-135678842D01*
X205100500Y-135521158D01*
X205100500Y-135521155D01*
X205100499Y-135521153D01*
X205093090Y-135483906D01*
X205069737Y-135366503D01*
X205059725Y-135342331D01*
X205009397Y-135220827D01*
X205009390Y-135220814D01*
X204921789Y-135089711D01*
X204921786Y-135089707D01*
X204810292Y-134978213D01*
X204810288Y-134978210D01*
X204679185Y-134890609D01*
X204679172Y-134890602D01*
X204533501Y-134830264D01*
X204533489Y-134830261D01*
X204378845Y-134799500D01*
X204378842Y-134799500D01*
X204221158Y-134799500D01*
X204221155Y-134799500D01*
X204066510Y-134830261D01*
X204066498Y-134830264D01*
X203920827Y-134890602D01*
X203920815Y-134890609D01*
X203841507Y-134943602D01*
X203774830Y-134964480D01*
X203772616Y-134964500D01*
X202927398Y-134964500D01*
X202860359Y-134944815D01*
X202814604Y-134892011D01*
X202804660Y-134822853D01*
X202811217Y-134797165D01*
X202818596Y-134777380D01*
X202818598Y-134777372D01*
X202824999Y-134717844D01*
X202825000Y-134717827D01*
X202825000Y-134570000D01*
X200275000Y-134570000D01*
X200275000Y-134717844D01*
X200281401Y-134777372D01*
X200281403Y-134777380D01*
X200331222Y-134910952D01*
X200336206Y-134980644D01*
X200331222Y-134997617D01*
X200280909Y-135132514D01*
X200280908Y-135132516D01*
X200274501Y-135192116D01*
X200274500Y-135192135D01*
X200274500Y-135987870D01*
X200274501Y-135987876D01*
X200280909Y-136047484D01*
X200330955Y-136181668D01*
X200335939Y-136251360D01*
X200330955Y-136268332D01*
X200280909Y-136402514D01*
X200280908Y-136402516D01*
X200274501Y-136462116D01*
X200274500Y-136462135D01*
X200274500Y-137257870D01*
X200274501Y-137257876D01*
X200280909Y-137317484D01*
X200330955Y-137451668D01*
X200335939Y-137521360D01*
X200330955Y-137538332D01*
X200280909Y-137672514D01*
X200280908Y-137672516D01*
X200274501Y-137732116D01*
X200274500Y-137732135D01*
X200274500Y-138527870D01*
X200274501Y-138527876D01*
X200280909Y-138587484D01*
X200330955Y-138721668D01*
X200335939Y-138791360D01*
X200330955Y-138808332D01*
X200280909Y-138942514D01*
X200280908Y-138942516D01*
X200274501Y-139002116D01*
X200274500Y-139002135D01*
X200274500Y-139797870D01*
X200274501Y-139797876D01*
X200280909Y-139857484D01*
X200330955Y-139991668D01*
X200335939Y-140061360D01*
X200330955Y-140078332D01*
X200280909Y-140212514D01*
X200280908Y-140212516D01*
X200274512Y-140272017D01*
X200274501Y-140272123D01*
X200274500Y-140272135D01*
X200274500Y-141067870D01*
X200274501Y-141067876D01*
X200280908Y-141127483D01*
X200331202Y-141262328D01*
X200331204Y-141262331D01*
X200379008Y-141326189D01*
X200403425Y-141391653D01*
X200388573Y-141459926D01*
X200339168Y-141509332D01*
X200279741Y-141524500D01*
X199413629Y-141524500D01*
X199413623Y-141524501D01*
X199354017Y-141530908D01*
X199298536Y-141551601D01*
X199228844Y-141556584D01*
X199167524Y-141523099D01*
X199131938Y-141487513D01*
X199131934Y-141487510D01*
X199000831Y-141399909D01*
X199000818Y-141399902D01*
X198855147Y-141339564D01*
X198855135Y-141339561D01*
X198700491Y-141308800D01*
X198700488Y-141308800D01*
X198542804Y-141308800D01*
X198542801Y-141308800D01*
X198388156Y-141339561D01*
X198388144Y-141339564D01*
X198242473Y-141399902D01*
X198242461Y-141399909D01*
X198148187Y-141462902D01*
X198081510Y-141483780D01*
X198079296Y-141483800D01*
X197400727Y-141483800D01*
X197333688Y-141464115D01*
X197287933Y-141411311D01*
X197277989Y-141342153D01*
X197301460Y-141285489D01*
X197302877Y-141283595D01*
X197318796Y-141262331D01*
X197369091Y-141127483D01*
X197375500Y-141067873D01*
X197375499Y-140272128D01*
X197369091Y-140212517D01*
X197368038Y-140209695D01*
X197361750Y-140192835D01*
X197359559Y-140162224D01*
X197355193Y-140131853D01*
X197357089Y-140127699D01*
X197356764Y-140123144D01*
X197371469Y-140096213D01*
X197384218Y-140068297D01*
X197388060Y-140065827D01*
X197390249Y-140061820D01*
X197417179Y-140047114D01*
X197442996Y-140030523D01*
X197449194Y-140029631D01*
X197451571Y-140028334D01*
X197477931Y-140025500D01*
X197657650Y-140025500D01*
X197724689Y-140045185D01*
X197726541Y-140046398D01*
X197755618Y-140065827D01*
X197820821Y-140109394D01*
X197820823Y-140109395D01*
X197820827Y-140109397D01*
X197948365Y-140162224D01*
X197966503Y-140169737D01*
X198121153Y-140200499D01*
X198121156Y-140200500D01*
X198121158Y-140200500D01*
X198278844Y-140200500D01*
X198278845Y-140200499D01*
X198433497Y-140169737D01*
X198579179Y-140109394D01*
X198710289Y-140021789D01*
X198821789Y-139910289D01*
X198909394Y-139779179D01*
X198969737Y-139633497D01*
X199000500Y-139478842D01*
X199000500Y-139321158D01*
X199000500Y-139321155D01*
X199000499Y-139321153D01*
X198980783Y-139222035D01*
X198969737Y-139166503D01*
X198959328Y-139141373D01*
X198909397Y-139020827D01*
X198909390Y-139020814D01*
X198821789Y-138889711D01*
X198821786Y-138889707D01*
X198769760Y-138837681D01*
X198736275Y-138776358D01*
X198741259Y-138706666D01*
X198769760Y-138662319D01*
X198821786Y-138610292D01*
X198821789Y-138610289D01*
X198909394Y-138479179D01*
X198969737Y-138333497D01*
X199000500Y-138178842D01*
X199000500Y-138021158D01*
X199000500Y-138021155D01*
X199000499Y-138021153D01*
X198993234Y-137984628D01*
X198969737Y-137866503D01*
X198966546Y-137858799D01*
X198909397Y-137720827D01*
X198909390Y-137720814D01*
X198821789Y-137589711D01*
X198819766Y-137587688D01*
X198819043Y-137586365D01*
X198817924Y-137585001D01*
X198818182Y-137584788D01*
X198786276Y-137526368D01*
X198791255Y-137456676D01*
X198817999Y-137415060D01*
X198817924Y-137414999D01*
X198818454Y-137414351D01*
X198819766Y-137412312D01*
X198821789Y-137410289D01*
X198909394Y-137279179D01*
X198969737Y-137133497D01*
X199000500Y-136978842D01*
X199000500Y-136821158D01*
X199000500Y-136821155D01*
X199000499Y-136821153D01*
X198979216Y-136714159D01*
X198969737Y-136666503D01*
X198969047Y-136664838D01*
X198909397Y-136520827D01*
X198909390Y-136520814D01*
X198821789Y-136389711D01*
X198821786Y-136389707D01*
X198769760Y-136337681D01*
X198736275Y-136276358D01*
X198741259Y-136206666D01*
X198769760Y-136162319D01*
X198821786Y-136110292D01*
X198821789Y-136110289D01*
X198909394Y-135979179D01*
X198969737Y-135833497D01*
X199000500Y-135678842D01*
X199000500Y-135521158D01*
X199000500Y-135521155D01*
X199000499Y-135521153D01*
X198993090Y-135483906D01*
X198969737Y-135366503D01*
X198959725Y-135342331D01*
X198909397Y-135220827D01*
X198909390Y-135220814D01*
X198821789Y-135089711D01*
X198821786Y-135089707D01*
X198710289Y-134978210D01*
X198605503Y-134908195D01*
X198560698Y-134854583D01*
X198551991Y-134785258D01*
X198571293Y-134736201D01*
X198609389Y-134679187D01*
X198609390Y-134679184D01*
X198609394Y-134679179D01*
X198669737Y-134533497D01*
X198700500Y-134378842D01*
X198700500Y-134221158D01*
X198700500Y-134221155D01*
X198700499Y-134221153D01*
X198678324Y-134109673D01*
X198669737Y-134066503D01*
X198669735Y-134066498D01*
X198609397Y-133920827D01*
X198609390Y-133920814D01*
X198521789Y-133789711D01*
X198521786Y-133789707D01*
X198469760Y-133737681D01*
X198436275Y-133676358D01*
X198441259Y-133606666D01*
X198469760Y-133562319D01*
X198521786Y-133510292D01*
X198521789Y-133510289D01*
X198563513Y-133447844D01*
X200275000Y-133447844D01*
X200281401Y-133507372D01*
X200281403Y-133507379D01*
X200331489Y-133641667D01*
X200336473Y-133711359D01*
X200331489Y-133728333D01*
X200281403Y-133862620D01*
X200281401Y-133862627D01*
X200275000Y-133922155D01*
X200275000Y-134070000D01*
X201300000Y-134070000D01*
X201800000Y-134070000D01*
X202825000Y-134070000D01*
X202825000Y-133922172D01*
X202824999Y-133922155D01*
X202818598Y-133862627D01*
X202818595Y-133862616D01*
X202768510Y-133728334D01*
X202763525Y-133658643D01*
X202768510Y-133641666D01*
X202818595Y-133507383D01*
X202818598Y-133507372D01*
X202824999Y-133447844D01*
X202825000Y-133447827D01*
X202825000Y-133300000D01*
X201800000Y-133300000D01*
X201800000Y-134070000D01*
X201300000Y-134070000D01*
X201300000Y-133300000D01*
X200275000Y-133300000D01*
X200275000Y-133447844D01*
X198563513Y-133447844D01*
X198609394Y-133379179D01*
X198669737Y-133233497D01*
X198700500Y-133078842D01*
X198700500Y-132921158D01*
X198700500Y-132921155D01*
X198700499Y-132921153D01*
X198695868Y-132897873D01*
X198669737Y-132766503D01*
X198646520Y-132710452D01*
X198609397Y-132620827D01*
X198609390Y-132620814D01*
X198521789Y-132489711D01*
X198519766Y-132487688D01*
X198519043Y-132486365D01*
X198517924Y-132485001D01*
X198518182Y-132484788D01*
X198486276Y-132426368D01*
X198491255Y-132356676D01*
X198517999Y-132315060D01*
X198517924Y-132314999D01*
X198518454Y-132314351D01*
X198519766Y-132312312D01*
X198521789Y-132310289D01*
X198609394Y-132179179D01*
X198609947Y-132177844D01*
X200275000Y-132177844D01*
X200281401Y-132237372D01*
X200281403Y-132237379D01*
X200331489Y-132371667D01*
X200336473Y-132441359D01*
X200331489Y-132458333D01*
X200281403Y-132592620D01*
X200281401Y-132592627D01*
X200275000Y-132652155D01*
X200275000Y-132800000D01*
X201300000Y-132800000D01*
X201800000Y-132800000D01*
X202825000Y-132800000D01*
X202825000Y-132652172D01*
X202824999Y-132652155D01*
X202818598Y-132592627D01*
X202818595Y-132592616D01*
X202768510Y-132458334D01*
X202763525Y-132388643D01*
X202768510Y-132371666D01*
X202818595Y-132237383D01*
X202818598Y-132237372D01*
X202824999Y-132177844D01*
X202825000Y-132177827D01*
X202825000Y-132030000D01*
X201800000Y-132030000D01*
X201800000Y-132800000D01*
X201300000Y-132800000D01*
X201300000Y-132030000D01*
X200275000Y-132030000D01*
X200275000Y-132177844D01*
X198609947Y-132177844D01*
X198669737Y-132033497D01*
X198676148Y-132001267D01*
X198685462Y-131954446D01*
X198685462Y-131954445D01*
X198700499Y-131878846D01*
X198700500Y-131878844D01*
X198700500Y-131721155D01*
X198700499Y-131721153D01*
X198682989Y-131633124D01*
X198669737Y-131566503D01*
X198654617Y-131530000D01*
X198609397Y-131420827D01*
X198609390Y-131420814D01*
X198521789Y-131289711D01*
X198521786Y-131289707D01*
X198410292Y-131178213D01*
X198410288Y-131178210D01*
X198279185Y-131090609D01*
X198279172Y-131090602D01*
X198133501Y-131030264D01*
X198133489Y-131030261D01*
X197978845Y-130999500D01*
X197978842Y-130999500D01*
X197821158Y-130999500D01*
X197821155Y-130999500D01*
X197666510Y-131030261D01*
X197666498Y-131030264D01*
X197520827Y-131090602D01*
X197520815Y-131090609D01*
X197456473Y-131133602D01*
X197438426Y-131139252D01*
X197422517Y-131149477D01*
X197391557Y-131153928D01*
X197389796Y-131154480D01*
X197387582Y-131154500D01*
X197356035Y-131154500D01*
X197288996Y-131134815D01*
X197256768Y-131104810D01*
X197232550Y-131072458D01*
X197232547Y-131072455D01*
X197232546Y-131072454D01*
X197208523Y-131054470D01*
X197117335Y-130986206D01*
X197117328Y-130986202D01*
X196982482Y-130935908D01*
X196982483Y-130935908D01*
X196922883Y-130929501D01*
X196922881Y-130929500D01*
X196922873Y-130929500D01*
X196922864Y-130929500D01*
X195277129Y-130929500D01*
X195277123Y-130929501D01*
X195217516Y-130935908D01*
X195082671Y-130986202D01*
X195082664Y-130986206D01*
X194967455Y-131072452D01*
X194967452Y-131072455D01*
X194881206Y-131187664D01*
X194881202Y-131187671D01*
X194830908Y-131322517D01*
X194824501Y-131382116D01*
X194824500Y-131382135D01*
X194824500Y-131740547D01*
X194804815Y-131807586D01*
X194752011Y-131853341D01*
X194682853Y-131863285D01*
X194619297Y-131834260D01*
X194612819Y-131828228D01*
X193165859Y-130381268D01*
X193132374Y-130319945D01*
X193137358Y-130250253D01*
X193179230Y-130194320D01*
X193244694Y-130169903D01*
X193277727Y-130171969D01*
X193364091Y-130189148D01*
X193421156Y-130200500D01*
X193421158Y-130200500D01*
X193578844Y-130200500D01*
X193578845Y-130200499D01*
X193733497Y-130169737D01*
X193879179Y-130109394D01*
X194010289Y-130021789D01*
X194012312Y-130019766D01*
X194013634Y-130019043D01*
X194014999Y-130017924D01*
X194015211Y-130018182D01*
X194073632Y-129986276D01*
X194143324Y-129991255D01*
X194184939Y-130017999D01*
X194185001Y-130017924D01*
X194185648Y-130018454D01*
X194187688Y-130019766D01*
X194189711Y-130021789D01*
X194320814Y-130109390D01*
X194320827Y-130109397D01*
X194455670Y-130165250D01*
X194466503Y-130169737D01*
X194621153Y-130200499D01*
X194621156Y-130200500D01*
X194621158Y-130200500D01*
X194778844Y-130200500D01*
X194778845Y-130200499D01*
X194933497Y-130169737D01*
X195079179Y-130109394D01*
X195210289Y-130021789D01*
X195230444Y-130001634D01*
X195262319Y-129969760D01*
X195323642Y-129936275D01*
X195393334Y-129941259D01*
X195437681Y-129969760D01*
X195489707Y-130021786D01*
X195489711Y-130021789D01*
X195620814Y-130109390D01*
X195620827Y-130109397D01*
X195755670Y-130165250D01*
X195766503Y-130169737D01*
X195921153Y-130200499D01*
X195921156Y-130200500D01*
X195921158Y-130200500D01*
X196078844Y-130200500D01*
X196078845Y-130200499D01*
X196233497Y-130169737D01*
X196379179Y-130109394D01*
X196510289Y-130021789D01*
X196530444Y-130001634D01*
X196562319Y-129969760D01*
X196623642Y-129936275D01*
X196693334Y-129941259D01*
X196737681Y-129969760D01*
X196789707Y-130021786D01*
X196789711Y-130021789D01*
X196920814Y-130109390D01*
X196920827Y-130109397D01*
X197055670Y-130165250D01*
X197066503Y-130169737D01*
X197221153Y-130200499D01*
X197221156Y-130200500D01*
X197221158Y-130200500D01*
X197378844Y-130200500D01*
X197378845Y-130200499D01*
X197533497Y-130169737D01*
X197679179Y-130109394D01*
X197681600Y-130107775D01*
X197683063Y-130107317D01*
X197684554Y-130106521D01*
X197684704Y-130106803D01*
X197748275Y-130086892D01*
X197815657Y-130105371D01*
X197862352Y-130157345D01*
X197874500Y-130210870D01*
X197874500Y-130272869D01*
X197874501Y-130272876D01*
X197880908Y-130332483D01*
X197931202Y-130467328D01*
X197931206Y-130467335D01*
X198017452Y-130582544D01*
X198017455Y-130582547D01*
X198132664Y-130668793D01*
X198132671Y-130668797D01*
X198267517Y-130719091D01*
X198267516Y-130719091D01*
X198274444Y-130719835D01*
X198327127Y-130725500D01*
X199272872Y-130725499D01*
X199332483Y-130719091D01*
X199427768Y-130683551D01*
X199497457Y-130678568D01*
X199518551Y-130685173D01*
X199530042Y-130689933D01*
X199530044Y-130689933D01*
X199530046Y-130689934D01*
X199708843Y-130725500D01*
X199708846Y-130725500D01*
X199891156Y-130725500D01*
X200011445Y-130701572D01*
X200069958Y-130689933D01*
X200238389Y-130620167D01*
X200238394Y-130620163D01*
X200241541Y-130618482D01*
X200243386Y-130618097D01*
X200244018Y-130617836D01*
X200244067Y-130617955D01*
X200309943Y-130604236D01*
X200358459Y-130618482D01*
X200361615Y-130620169D01*
X200514637Y-130683552D01*
X200530042Y-130689933D01*
X200530046Y-130689933D01*
X200530047Y-130689934D01*
X200622445Y-130708314D01*
X200684356Y-130740699D01*
X200718930Y-130801415D01*
X200715189Y-130871185D01*
X200674323Y-130927856D01*
X200641586Y-130946113D01*
X200532913Y-130986645D01*
X200532906Y-130986649D01*
X200417812Y-131072809D01*
X200417809Y-131072812D01*
X200331649Y-131187906D01*
X200331645Y-131187913D01*
X200281403Y-131322620D01*
X200281401Y-131322627D01*
X200275000Y-131382155D01*
X200275000Y-131530000D01*
X201300000Y-131530000D01*
X201800000Y-131530000D01*
X202825000Y-131530000D01*
X202825000Y-131382172D01*
X202824999Y-131382155D01*
X202818598Y-131322627D01*
X202818596Y-131322620D01*
X202768354Y-131187913D01*
X202768350Y-131187906D01*
X202682190Y-131072812D01*
X202682187Y-131072809D01*
X202567093Y-130986649D01*
X202567086Y-130986645D01*
X202432379Y-130936403D01*
X202432372Y-130936401D01*
X202372844Y-130930000D01*
X201800000Y-130930000D01*
X201800000Y-131530000D01*
X201300000Y-131530000D01*
X201300000Y-130930000D01*
X201113775Y-130930000D01*
X201046736Y-130910315D01*
X201000981Y-130857511D01*
X200991037Y-130788353D01*
X201020062Y-130724797D01*
X201066323Y-130691439D01*
X201238387Y-130620168D01*
X201238391Y-130620166D01*
X201322147Y-130564202D01*
X201389972Y-130518883D01*
X201518883Y-130389972D01*
X201597126Y-130272872D01*
X201620166Y-130238391D01*
X201620168Y-130238387D01*
X201682374Y-130088207D01*
X201726214Y-130033803D01*
X201792508Y-130011738D01*
X201860208Y-130029017D01*
X201865826Y-130032557D01*
X201980814Y-130109390D01*
X201980827Y-130109397D01*
X202115670Y-130165250D01*
X202126503Y-130169737D01*
X202281153Y-130200499D01*
X202281156Y-130200500D01*
X202281158Y-130200500D01*
X202438844Y-130200500D01*
X202438845Y-130200499D01*
X202593497Y-130169737D01*
X202739179Y-130109394D01*
X202870289Y-130021789D01*
X202981789Y-129910289D01*
X203069394Y-129779179D01*
X203129737Y-129633497D01*
X203160500Y-129478842D01*
X203160500Y-129321158D01*
X203160500Y-129321155D01*
X203160499Y-129321153D01*
X203141671Y-129226501D01*
X203129737Y-129166503D01*
X203095392Y-129083587D01*
X203069397Y-129020828D01*
X203069396Y-129020827D01*
X203069394Y-129020821D01*
X203006397Y-128926539D01*
X202985520Y-128859863D01*
X202985500Y-128857650D01*
X202985500Y-128272781D01*
X203005185Y-128205742D01*
X203057989Y-128159987D01*
X203122756Y-128149492D01*
X203132127Y-128150500D01*
X204127872Y-128150499D01*
X204187483Y-128144091D01*
X204221667Y-128131340D01*
X204291358Y-128126357D01*
X204308327Y-128131338D01*
X204342517Y-128144091D01*
X204402127Y-128150500D01*
X205397872Y-128150499D01*
X205457483Y-128144091D01*
X205592331Y-128093796D01*
X205707546Y-128007546D01*
X205793796Y-127892331D01*
X205844091Y-127757483D01*
X205850500Y-127697873D01*
X205850499Y-126209498D01*
X205870184Y-126142460D01*
X205922987Y-126096705D01*
X205974499Y-126085499D01*
X206947871Y-126085499D01*
X206947872Y-126085499D01*
X207007483Y-126079091D01*
X207142331Y-126028796D01*
X207257546Y-125942546D01*
X207343796Y-125827331D01*
X207350486Y-125809394D01*
X207351690Y-125806167D01*
X207364959Y-125788440D01*
X207374159Y-125768297D01*
X207385489Y-125761015D01*
X207393561Y-125750233D01*
X207414309Y-125742494D01*
X207432937Y-125730523D01*
X207454853Y-125727371D01*
X207459025Y-125725816D01*
X207467872Y-125725500D01*
X207657650Y-125725500D01*
X207724689Y-125745185D01*
G37*
%TD.AperFunction*%
%TA.AperFunction,Conductor*%
G36*
X190409262Y-105880185D02*
G01*
X190455017Y-105932989D01*
X190464961Y-106002147D01*
X190445327Y-106053388D01*
X190439831Y-106061612D01*
X190370068Y-106230037D01*
X190370065Y-106230047D01*
X190334500Y-106408843D01*
X190334500Y-106408846D01*
X190334500Y-106591154D01*
X190334500Y-106591156D01*
X190334499Y-106591156D01*
X190370065Y-106769952D01*
X190370068Y-106769962D01*
X190433662Y-106923493D01*
X190441131Y-106992962D01*
X190409855Y-107055441D01*
X190406782Y-107058626D01*
X189352227Y-108113181D01*
X189331217Y-108124653D01*
X189312663Y-108139784D01*
X189298134Y-108142717D01*
X189290904Y-108146666D01*
X189278517Y-108148710D01*
X189271547Y-108149500D01*
X189162128Y-108149501D01*
X189102517Y-108155909D01*
X189053371Y-108174239D01*
X189038256Y-108175953D01*
X189018218Y-108172457D01*
X188997925Y-108173909D01*
X188980952Y-108168925D01*
X188947379Y-108156403D01*
X188947372Y-108156401D01*
X188887844Y-108150000D01*
X188640000Y-108150000D01*
X188640000Y-110650000D01*
X188887828Y-110650000D01*
X188887844Y-110649999D01*
X188947372Y-110643598D01*
X188947375Y-110643597D01*
X188980949Y-110631075D01*
X189050640Y-110626089D01*
X189067619Y-110631075D01*
X189102511Y-110644089D01*
X189102512Y-110644089D01*
X189102517Y-110644091D01*
X189162127Y-110650500D01*
X190157872Y-110650499D01*
X190217483Y-110644091D01*
X190251667Y-110631340D01*
X190321358Y-110626357D01*
X190338327Y-110631338D01*
X190372517Y-110644091D01*
X190432127Y-110650500D01*
X191427872Y-110650499D01*
X191487483Y-110644091D01*
X191521667Y-110631340D01*
X191591358Y-110626357D01*
X191608327Y-110631338D01*
X191642517Y-110644091D01*
X191702127Y-110650500D01*
X192697872Y-110650499D01*
X192757483Y-110644091D01*
X192791667Y-110631340D01*
X192861358Y-110626357D01*
X192878327Y-110631338D01*
X192912517Y-110644091D01*
X192972127Y-110650500D01*
X193967872Y-110650499D01*
X194027483Y-110644091D01*
X194061667Y-110631340D01*
X194131358Y-110626357D01*
X194148327Y-110631338D01*
X194182517Y-110644091D01*
X194242127Y-110650500D01*
X195237872Y-110650499D01*
X195297483Y-110644091D01*
X195331667Y-110631340D01*
X195401358Y-110626357D01*
X195418327Y-110631338D01*
X195452517Y-110644091D01*
X195512127Y-110650500D01*
X196507872Y-110650499D01*
X196567483Y-110644091D01*
X196601667Y-110631340D01*
X196671358Y-110626357D01*
X196688327Y-110631338D01*
X196722517Y-110644091D01*
X196782127Y-110650500D01*
X197777872Y-110650499D01*
X197837483Y-110644091D01*
X197871667Y-110631340D01*
X197941358Y-110626357D01*
X197958327Y-110631338D01*
X197992517Y-110644091D01*
X198052127Y-110650500D01*
X199047872Y-110650499D01*
X199107483Y-110644091D01*
X199141667Y-110631340D01*
X199211358Y-110626357D01*
X199228327Y-110631338D01*
X199262517Y-110644091D01*
X199322127Y-110650500D01*
X200317872Y-110650499D01*
X200377483Y-110644091D01*
X200411667Y-110631340D01*
X200481358Y-110626357D01*
X200498327Y-110631338D01*
X200532517Y-110644091D01*
X200592127Y-110650500D01*
X201587872Y-110650499D01*
X201647483Y-110644091D01*
X201681667Y-110631340D01*
X201751358Y-110626357D01*
X201768327Y-110631338D01*
X201802517Y-110644091D01*
X201862127Y-110650500D01*
X202857872Y-110650499D01*
X202917483Y-110644091D01*
X202951667Y-110631340D01*
X203021358Y-110626357D01*
X203038327Y-110631338D01*
X203072517Y-110644091D01*
X203132127Y-110650500D01*
X204127872Y-110650499D01*
X204187483Y-110644091D01*
X204221667Y-110631340D01*
X204291358Y-110626357D01*
X204308327Y-110631338D01*
X204336462Y-110641832D01*
X204342511Y-110644089D01*
X204342517Y-110644091D01*
X204402127Y-110650500D01*
X204775500Y-110650499D01*
X204842539Y-110670183D01*
X204888294Y-110722987D01*
X204899500Y-110774499D01*
X204899500Y-111662870D01*
X204899501Y-111662876D01*
X204905908Y-111722481D01*
X204918659Y-111756669D01*
X204923642Y-111826361D01*
X204918659Y-111843331D01*
X204905908Y-111877518D01*
X204899501Y-111937116D01*
X204899500Y-111937135D01*
X204899500Y-112932870D01*
X204899501Y-112932876D01*
X204905908Y-112992481D01*
X204918659Y-113026669D01*
X204923642Y-113096361D01*
X204918659Y-113113331D01*
X204905908Y-113147518D01*
X204899501Y-113207116D01*
X204899500Y-113207135D01*
X204899500Y-114202870D01*
X204899501Y-114202876D01*
X204905908Y-114262481D01*
X204918659Y-114296669D01*
X204923642Y-114366361D01*
X204918659Y-114383331D01*
X204905908Y-114417518D01*
X204899501Y-114477116D01*
X204899500Y-114477135D01*
X204899500Y-115472870D01*
X204899501Y-115472876D01*
X204905908Y-115532481D01*
X204918659Y-115566669D01*
X204923642Y-115636361D01*
X204918659Y-115653331D01*
X204905908Y-115687518D01*
X204899501Y-115747116D01*
X204899500Y-115747135D01*
X204899500Y-116742870D01*
X204899501Y-116742876D01*
X204905908Y-116802481D01*
X204918659Y-116836669D01*
X204923642Y-116906361D01*
X204918659Y-116923331D01*
X204905908Y-116957518D01*
X204899501Y-117017116D01*
X204899500Y-117017135D01*
X204899500Y-118012870D01*
X204899501Y-118012876D01*
X204905908Y-118072481D01*
X204918659Y-118106669D01*
X204923642Y-118176361D01*
X204918659Y-118193331D01*
X204905908Y-118227518D01*
X204899501Y-118287116D01*
X204899500Y-118287135D01*
X204899500Y-119282870D01*
X204899501Y-119282876D01*
X204905908Y-119342481D01*
X204918659Y-119376669D01*
X204923642Y-119446361D01*
X204918659Y-119463331D01*
X204905908Y-119497518D01*
X204899501Y-119557116D01*
X204899500Y-119557135D01*
X204899500Y-120552870D01*
X204899501Y-120552876D01*
X204905908Y-120612481D01*
X204918659Y-120646669D01*
X204923642Y-120716361D01*
X204918659Y-120733331D01*
X204905908Y-120767518D01*
X204899501Y-120827116D01*
X204899500Y-120827135D01*
X204899500Y-121822870D01*
X204899501Y-121822876D01*
X204905908Y-121882481D01*
X204918659Y-121916669D01*
X204923642Y-121986361D01*
X204918659Y-122003331D01*
X204905908Y-122037518D01*
X204899501Y-122097116D01*
X204899500Y-122097135D01*
X204899500Y-123092870D01*
X204899501Y-123092876D01*
X204905908Y-123152481D01*
X204918659Y-123186669D01*
X204923642Y-123256361D01*
X204918659Y-123273331D01*
X204905908Y-123307518D01*
X204899501Y-123367117D01*
X204899500Y-123367137D01*
X204899500Y-123782151D01*
X204879815Y-123849190D01*
X204827011Y-123894945D01*
X204799692Y-123903768D01*
X204666506Y-123930261D01*
X204666505Y-123930262D01*
X204666504Y-123930262D01*
X204666501Y-123930263D01*
X204592240Y-123961022D01*
X204571952Y-123969426D01*
X204502482Y-123976894D01*
X204440003Y-123945618D01*
X204404351Y-123885529D01*
X204400500Y-123854864D01*
X204400500Y-123821155D01*
X204400499Y-123821153D01*
X204376098Y-123698481D01*
X204369737Y-123666503D01*
X204364614Y-123654134D01*
X204309397Y-123520827D01*
X204309390Y-123520814D01*
X204221789Y-123389711D01*
X204221786Y-123389707D01*
X204110292Y-123278213D01*
X204110288Y-123278210D01*
X203979185Y-123190609D01*
X203979172Y-123190602D01*
X203833501Y-123130264D01*
X203833489Y-123130261D01*
X203678845Y-123099500D01*
X203678842Y-123099500D01*
X203521158Y-123099500D01*
X203521155Y-123099500D01*
X203366510Y-123130261D01*
X203366498Y-123130264D01*
X203220827Y-123190602D01*
X203220814Y-123190609D01*
X203089711Y-123278210D01*
X203089707Y-123278213D01*
X202978213Y-123389707D01*
X202978210Y-123389711D01*
X202890609Y-123520814D01*
X202890602Y-123520827D01*
X202830264Y-123666498D01*
X202830261Y-123666510D01*
X202799500Y-123821153D01*
X202799500Y-123978846D01*
X202830261Y-124133489D01*
X202830264Y-124133501D01*
X202890602Y-124279172D01*
X202890609Y-124279185D01*
X202981595Y-124415354D01*
X202979934Y-124416463D01*
X203003665Y-124472322D01*
X203004500Y-124486690D01*
X203004500Y-125527218D01*
X202984815Y-125594257D01*
X202932011Y-125640012D01*
X202867250Y-125650508D01*
X202862523Y-125650000D01*
X202857873Y-125649500D01*
X202857870Y-125649500D01*
X201862129Y-125649500D01*
X201862123Y-125649501D01*
X201802518Y-125655908D01*
X201768331Y-125668659D01*
X201698639Y-125673642D01*
X201681669Y-125668659D01*
X201664140Y-125662121D01*
X201647483Y-125655909D01*
X201647482Y-125655908D01*
X201587883Y-125649501D01*
X201587881Y-125649500D01*
X201587873Y-125649500D01*
X201587864Y-125649500D01*
X200592129Y-125649500D01*
X200592123Y-125649501D01*
X200532518Y-125655908D01*
X200498331Y-125668659D01*
X200428639Y-125673642D01*
X200411669Y-125668659D01*
X200394140Y-125662121D01*
X200377483Y-125655909D01*
X200377482Y-125655908D01*
X200317883Y-125649501D01*
X200317881Y-125649500D01*
X200317873Y-125649500D01*
X200317864Y-125649500D01*
X199322129Y-125649500D01*
X199322123Y-125649501D01*
X199262518Y-125655908D01*
X199228331Y-125668659D01*
X199158639Y-125673642D01*
X199141669Y-125668659D01*
X199124140Y-125662121D01*
X199107483Y-125655909D01*
X199107482Y-125655908D01*
X199047883Y-125649501D01*
X199047881Y-125649500D01*
X199047873Y-125649500D01*
X199047864Y-125649500D01*
X198052129Y-125649500D01*
X198052123Y-125649501D01*
X197992518Y-125655908D01*
X197958331Y-125668659D01*
X197888639Y-125673642D01*
X197871669Y-125668659D01*
X197854140Y-125662121D01*
X197837483Y-125655909D01*
X197837482Y-125655908D01*
X197777883Y-125649501D01*
X197777881Y-125649500D01*
X197777873Y-125649500D01*
X197777864Y-125649500D01*
X196782129Y-125649500D01*
X196782123Y-125649501D01*
X196722518Y-125655908D01*
X196688331Y-125668659D01*
X196618639Y-125673642D01*
X196601669Y-125668659D01*
X196584140Y-125662121D01*
X196567483Y-125655909D01*
X196567482Y-125655908D01*
X196507883Y-125649501D01*
X196507881Y-125649500D01*
X196507873Y-125649500D01*
X196507864Y-125649500D01*
X195512129Y-125649500D01*
X195512123Y-125649501D01*
X195452518Y-125655908D01*
X195418331Y-125668659D01*
X195348639Y-125673642D01*
X195331669Y-125668659D01*
X195314140Y-125662121D01*
X195297483Y-125655909D01*
X195297482Y-125655908D01*
X195237883Y-125649501D01*
X195237881Y-125649500D01*
X195237873Y-125649500D01*
X195237864Y-125649500D01*
X194242129Y-125649500D01*
X194242123Y-125649501D01*
X194182518Y-125655908D01*
X194148331Y-125668659D01*
X194078639Y-125673642D01*
X194061669Y-125668659D01*
X194044140Y-125662121D01*
X194027483Y-125655909D01*
X194027482Y-125655908D01*
X193967883Y-125649501D01*
X193967881Y-125649500D01*
X193967873Y-125649500D01*
X193967864Y-125649500D01*
X192972129Y-125649500D01*
X192972123Y-125649501D01*
X192912518Y-125655908D01*
X192878331Y-125668659D01*
X192808639Y-125673642D01*
X192791669Y-125668659D01*
X192774140Y-125662121D01*
X192757483Y-125655909D01*
X192757482Y-125655908D01*
X192697883Y-125649501D01*
X192697881Y-125649500D01*
X192697873Y-125649500D01*
X192697864Y-125649500D01*
X191702129Y-125649500D01*
X191702123Y-125649501D01*
X191642518Y-125655908D01*
X191608331Y-125668659D01*
X191538639Y-125673642D01*
X191521669Y-125668659D01*
X191504140Y-125662121D01*
X191487483Y-125655909D01*
X191487482Y-125655908D01*
X191427883Y-125649501D01*
X191427881Y-125649500D01*
X191427873Y-125649500D01*
X191427864Y-125649500D01*
X190432129Y-125649500D01*
X190432123Y-125649501D01*
X190372518Y-125655908D01*
X190338331Y-125668659D01*
X190268639Y-125673642D01*
X190251669Y-125668659D01*
X190234140Y-125662121D01*
X190217483Y-125655909D01*
X190217482Y-125655908D01*
X190157883Y-125649501D01*
X190157881Y-125649500D01*
X190157873Y-125649500D01*
X190157864Y-125649500D01*
X189162129Y-125649500D01*
X189162123Y-125649501D01*
X189102520Y-125655908D01*
X189102517Y-125655908D01*
X189102517Y-125655909D01*
X189067620Y-125668925D01*
X189067617Y-125668926D01*
X188997925Y-125673909D01*
X188980952Y-125668925D01*
X188947379Y-125656403D01*
X188947372Y-125656401D01*
X188887844Y-125650000D01*
X188640000Y-125650000D01*
X188640000Y-128150000D01*
X188887828Y-128150000D01*
X188887834Y-128149999D01*
X188897240Y-128148988D01*
X188966000Y-128161391D01*
X189017139Y-128208999D01*
X189034500Y-128272277D01*
X189034500Y-129621610D01*
X189053823Y-129718754D01*
X189058537Y-129742452D01*
X189067419Y-129763895D01*
X189069619Y-129769206D01*
X189069618Y-129769206D01*
X189105685Y-129856281D01*
X189105690Y-129856290D01*
X189124905Y-129885046D01*
X189124907Y-129885049D01*
X189128987Y-129891154D01*
X189174142Y-129958733D01*
X189261267Y-130045858D01*
X189261270Y-130045860D01*
X189269033Y-130053623D01*
X190211016Y-130995606D01*
X190211045Y-130995637D01*
X190225146Y-131009738D01*
X190258631Y-131071061D01*
X190253647Y-131140753D01*
X190236732Y-131171730D01*
X190209647Y-131207910D01*
X190209645Y-131207913D01*
X190159403Y-131342620D01*
X190159401Y-131342627D01*
X190153000Y-131402155D01*
X190153000Y-131900000D01*
X192758384Y-131900000D01*
X192807847Y-131872991D01*
X192877539Y-131877975D01*
X192921886Y-131906476D01*
X193638181Y-132622771D01*
X193671666Y-132684094D01*
X193674500Y-132710452D01*
X193674500Y-133475500D01*
X193654815Y-133542539D01*
X193602011Y-133588294D01*
X193550500Y-133599500D01*
X193287499Y-133599500D01*
X193287480Y-133599501D01*
X193184703Y-133610000D01*
X193184700Y-133610001D01*
X193018168Y-133665185D01*
X193018163Y-133665187D01*
X192868842Y-133757289D01*
X192775181Y-133850951D01*
X192713858Y-133884436D01*
X192644166Y-133879452D01*
X192599819Y-133850951D01*
X192506157Y-133757289D01*
X192506156Y-133757288D01*
X192356834Y-133665186D01*
X192190297Y-133610001D01*
X192190295Y-133610000D01*
X192087510Y-133599500D01*
X191462498Y-133599500D01*
X191462480Y-133599501D01*
X191359703Y-133610000D01*
X191359700Y-133610001D01*
X191193168Y-133665185D01*
X191193163Y-133665187D01*
X191043842Y-133757289D01*
X190919789Y-133881342D01*
X190827687Y-134030663D01*
X190827686Y-134030666D01*
X190811339Y-134080000D01*
X190808189Y-134089505D01*
X190768416Y-134146949D01*
X190703900Y-134173772D01*
X190690483Y-134174500D01*
X185849500Y-134174500D01*
X185782461Y-134154815D01*
X185736706Y-134102011D01*
X185725500Y-134050500D01*
X185725500Y-132897844D01*
X190153000Y-132897844D01*
X190159401Y-132957372D01*
X190159403Y-132957379D01*
X190209645Y-133092086D01*
X190209649Y-133092093D01*
X190295809Y-133207187D01*
X190295812Y-133207190D01*
X190410906Y-133293350D01*
X190410913Y-133293354D01*
X190545620Y-133343596D01*
X190545627Y-133343598D01*
X190605155Y-133349999D01*
X190605172Y-133350000D01*
X191203000Y-133350000D01*
X191703000Y-133350000D01*
X192300828Y-133350000D01*
X192300844Y-133349999D01*
X192360372Y-133343598D01*
X192360379Y-133343596D01*
X192495086Y-133293354D01*
X192495093Y-133293350D01*
X192610187Y-133207190D01*
X192610190Y-133207187D01*
X192696350Y-133092093D01*
X192696354Y-133092086D01*
X192746596Y-132957379D01*
X192746598Y-132957372D01*
X192752999Y-132897844D01*
X192753000Y-132897827D01*
X192753000Y-132400000D01*
X191703000Y-132400000D01*
X191703000Y-133350000D01*
X191203000Y-133350000D01*
X191203000Y-132400000D01*
X190153000Y-132400000D01*
X190153000Y-132897844D01*
X185725500Y-132897844D01*
X185725500Y-129842350D01*
X185745185Y-129775311D01*
X185746398Y-129773459D01*
X185767122Y-129742443D01*
X185809394Y-129679179D01*
X185869737Y-129533497D01*
X185900500Y-129378842D01*
X185900500Y-129221158D01*
X185900500Y-129221155D01*
X185900499Y-129221153D01*
X185878699Y-129111560D01*
X185869737Y-129066503D01*
X185837798Y-128989394D01*
X185809397Y-128920827D01*
X185809390Y-128920814D01*
X185721789Y-128789711D01*
X185721786Y-128789707D01*
X185610292Y-128678213D01*
X185610288Y-128678210D01*
X185479185Y-128590609D01*
X185479172Y-128590602D01*
X185333501Y-128530264D01*
X185333489Y-128530261D01*
X185178845Y-128499500D01*
X185178842Y-128499500D01*
X185021158Y-128499500D01*
X185021155Y-128499500D01*
X184866510Y-128530261D01*
X184866498Y-128530264D01*
X184720827Y-128590602D01*
X184720814Y-128590609D01*
X184589711Y-128678210D01*
X184589707Y-128678213D01*
X184478213Y-128789707D01*
X184478210Y-128789711D01*
X184390609Y-128920814D01*
X184390602Y-128920827D01*
X184330264Y-129066498D01*
X184330261Y-129066510D01*
X184299500Y-129221153D01*
X184299500Y-129378846D01*
X184330261Y-129533489D01*
X184330264Y-129533501D01*
X184390602Y-129679172D01*
X184390609Y-129679184D01*
X184453602Y-129773459D01*
X184474480Y-129840136D01*
X184474500Y-129842350D01*
X184474500Y-131072494D01*
X184454815Y-131139533D01*
X184402011Y-131185288D01*
X184332853Y-131195232D01*
X184269297Y-131166207D01*
X184251234Y-131146806D01*
X184231230Y-131120084D01*
X184210546Y-131092454D01*
X184210544Y-131092453D01*
X184210544Y-131092452D01*
X184095335Y-131006206D01*
X184095328Y-131006202D01*
X183960482Y-130955908D01*
X183960483Y-130955908D01*
X183900883Y-130949501D01*
X183900881Y-130949500D01*
X183900873Y-130949500D01*
X183900864Y-130949500D01*
X182205129Y-130949500D01*
X182205123Y-130949501D01*
X182145516Y-130955908D01*
X182010671Y-131006202D01*
X182010669Y-131006203D01*
X181978811Y-131030053D01*
X181913347Y-131054470D01*
X181845074Y-131039619D01*
X181795668Y-130990214D01*
X181780500Y-130930786D01*
X181780500Y-127697844D01*
X187440000Y-127697844D01*
X187446401Y-127757372D01*
X187446403Y-127757379D01*
X187496645Y-127892086D01*
X187496649Y-127892093D01*
X187582809Y-128007187D01*
X187582812Y-128007190D01*
X187697906Y-128093350D01*
X187697913Y-128093354D01*
X187832620Y-128143596D01*
X187832627Y-128143598D01*
X187892155Y-128149999D01*
X187892172Y-128150000D01*
X188140000Y-128150000D01*
X188140000Y-127150000D01*
X187440000Y-127150000D01*
X187440000Y-127697844D01*
X181780500Y-127697844D01*
X181780500Y-126102155D01*
X187440000Y-126102155D01*
X187440000Y-126650000D01*
X188140000Y-126650000D01*
X188140000Y-125650000D01*
X187892155Y-125650000D01*
X187832627Y-125656401D01*
X187832620Y-125656403D01*
X187697913Y-125706645D01*
X187697906Y-125706649D01*
X187582812Y-125792809D01*
X187582809Y-125792812D01*
X187496649Y-125907906D01*
X187496645Y-125907913D01*
X187446403Y-126042620D01*
X187446401Y-126042627D01*
X187440000Y-126102155D01*
X181780500Y-126102155D01*
X181780500Y-121547844D01*
X193760000Y-121547844D01*
X193766401Y-121607372D01*
X193766403Y-121607379D01*
X193816645Y-121742086D01*
X193816649Y-121742093D01*
X193902809Y-121857187D01*
X193902812Y-121857190D01*
X194017906Y-121943350D01*
X194017913Y-121943354D01*
X194152620Y-121993596D01*
X194152627Y-121993598D01*
X194212155Y-121999999D01*
X194212172Y-122000000D01*
X194460000Y-122000000D01*
X194960000Y-122000000D01*
X195207828Y-122000000D01*
X195207844Y-121999999D01*
X195267372Y-121993598D01*
X195267376Y-121993597D01*
X195366666Y-121956564D01*
X195436358Y-121951580D01*
X195453334Y-121956564D01*
X195552623Y-121993597D01*
X195552627Y-121993598D01*
X195612155Y-121999999D01*
X195612172Y-122000000D01*
X195860000Y-122000000D01*
X196360000Y-122000000D01*
X196607828Y-122000000D01*
X196607844Y-121999999D01*
X196667372Y-121993598D01*
X196667376Y-121993597D01*
X196766666Y-121956564D01*
X196836358Y-121951580D01*
X196853334Y-121956564D01*
X196952623Y-121993597D01*
X196952627Y-121993598D01*
X197012155Y-121999999D01*
X197012172Y-122000000D01*
X197260000Y-122000000D01*
X197760000Y-122000000D01*
X198007828Y-122000000D01*
X198007844Y-121999999D01*
X198067372Y-121993598D01*
X198067379Y-121993596D01*
X198202086Y-121943354D01*
X198202093Y-121943350D01*
X198317187Y-121857190D01*
X198317190Y-121857187D01*
X198403350Y-121742093D01*
X198403354Y-121742086D01*
X198453596Y-121607379D01*
X198453598Y-121607372D01*
X198459999Y-121547844D01*
X198460000Y-121547827D01*
X198460000Y-121300000D01*
X197760000Y-121300000D01*
X197760000Y-122000000D01*
X197260000Y-122000000D01*
X197260000Y-121300000D01*
X196360000Y-121300000D01*
X196360000Y-122000000D01*
X195860000Y-122000000D01*
X195860000Y-121300000D01*
X194960000Y-121300000D01*
X194960000Y-122000000D01*
X194460000Y-122000000D01*
X194460000Y-121300000D01*
X193760000Y-121300000D01*
X193760000Y-121547844D01*
X181780500Y-121547844D01*
X181780500Y-120147844D01*
X193760000Y-120147844D01*
X193766401Y-120207372D01*
X193766403Y-120207383D01*
X193803434Y-120306668D01*
X193808418Y-120376360D01*
X193803434Y-120393332D01*
X193766403Y-120492616D01*
X193766401Y-120492627D01*
X193760000Y-120552155D01*
X193760000Y-120800000D01*
X194460000Y-120800000D01*
X194960000Y-120800000D01*
X195860000Y-120800000D01*
X196360000Y-120800000D01*
X197260000Y-120800000D01*
X197760000Y-120800000D01*
X198460000Y-120800000D01*
X198460000Y-120552172D01*
X198459999Y-120552155D01*
X198453598Y-120492627D01*
X198453597Y-120492623D01*
X198416564Y-120393334D01*
X198411580Y-120323642D01*
X198416564Y-120306666D01*
X198453597Y-120207376D01*
X198453598Y-120207372D01*
X198459999Y-120147844D01*
X198460000Y-120147827D01*
X198460000Y-119900000D01*
X197760000Y-119900000D01*
X197760000Y-120800000D01*
X197260000Y-120800000D01*
X197260000Y-119900000D01*
X196360000Y-119900000D01*
X196360000Y-120800000D01*
X195860000Y-120800000D01*
X195860000Y-119900000D01*
X194960000Y-119900000D01*
X194960000Y-120800000D01*
X194460000Y-120800000D01*
X194460000Y-119900000D01*
X193760000Y-119900000D01*
X193760000Y-120147844D01*
X181780500Y-120147844D01*
X181780500Y-118747844D01*
X193760000Y-118747844D01*
X193766401Y-118807372D01*
X193766403Y-118807383D01*
X193803434Y-118906668D01*
X193808418Y-118976360D01*
X193803434Y-118993332D01*
X193766403Y-119092616D01*
X193766401Y-119092627D01*
X193760000Y-119152155D01*
X193760000Y-119400000D01*
X194460000Y-119400000D01*
X194960000Y-119400000D01*
X195860000Y-119400000D01*
X196360000Y-119400000D01*
X197260000Y-119400000D01*
X197760000Y-119400000D01*
X198460000Y-119400000D01*
X198460000Y-119152172D01*
X198459999Y-119152155D01*
X198453598Y-119092627D01*
X198453597Y-119092623D01*
X198416564Y-118993334D01*
X198411580Y-118923642D01*
X198416564Y-118906666D01*
X198453597Y-118807376D01*
X198453598Y-118807372D01*
X198459999Y-118747844D01*
X198460000Y-118747827D01*
X198460000Y-118500000D01*
X197760000Y-118500000D01*
X197760000Y-119400000D01*
X197260000Y-119400000D01*
X197260000Y-118500000D01*
X196360000Y-118500000D01*
X196360000Y-119400000D01*
X195860000Y-119400000D01*
X195860000Y-118500000D01*
X194960000Y-118500000D01*
X194960000Y-119400000D01*
X194460000Y-119400000D01*
X194460000Y-118500000D01*
X193760000Y-118500000D01*
X193760000Y-118747844D01*
X181780500Y-118747844D01*
X181780500Y-117752155D01*
X193760000Y-117752155D01*
X193760000Y-118000000D01*
X194460000Y-118000000D01*
X194960000Y-118000000D01*
X195860000Y-118000000D01*
X196360000Y-118000000D01*
X197260000Y-118000000D01*
X197760000Y-118000000D01*
X198460000Y-118000000D01*
X198460000Y-117752172D01*
X198459999Y-117752155D01*
X198453598Y-117692627D01*
X198453596Y-117692620D01*
X198403354Y-117557913D01*
X198403350Y-117557906D01*
X198317190Y-117442812D01*
X198317187Y-117442809D01*
X198202093Y-117356649D01*
X198202086Y-117356645D01*
X198067379Y-117306403D01*
X198067372Y-117306401D01*
X198007844Y-117300000D01*
X197760000Y-117300000D01*
X197760000Y-118000000D01*
X197260000Y-118000000D01*
X197260000Y-117300000D01*
X197012155Y-117300000D01*
X196952627Y-117306401D01*
X196952616Y-117306403D01*
X196853332Y-117343434D01*
X196783640Y-117348418D01*
X196766668Y-117343434D01*
X196667383Y-117306403D01*
X196667372Y-117306401D01*
X196607844Y-117300000D01*
X196360000Y-117300000D01*
X196360000Y-118000000D01*
X195860000Y-118000000D01*
X195860000Y-117300000D01*
X195612155Y-117300000D01*
X195552627Y-117306401D01*
X195552616Y-117306403D01*
X195453332Y-117343434D01*
X195383640Y-117348418D01*
X195366668Y-117343434D01*
X195267383Y-117306403D01*
X195267372Y-117306401D01*
X195207844Y-117300000D01*
X194960000Y-117300000D01*
X194960000Y-118000000D01*
X194460000Y-118000000D01*
X194460000Y-117300000D01*
X194212155Y-117300000D01*
X194152627Y-117306401D01*
X194152620Y-117306403D01*
X194017913Y-117356645D01*
X194017906Y-117356649D01*
X193902812Y-117442809D01*
X193902809Y-117442812D01*
X193816649Y-117557906D01*
X193816645Y-117557913D01*
X193766403Y-117692620D01*
X193766401Y-117692627D01*
X193760000Y-117752155D01*
X181780500Y-117752155D01*
X181780500Y-110197844D01*
X187440000Y-110197844D01*
X187446401Y-110257372D01*
X187446403Y-110257379D01*
X187496645Y-110392086D01*
X187496649Y-110392093D01*
X187582809Y-110507187D01*
X187582812Y-110507190D01*
X187697906Y-110593350D01*
X187697913Y-110593354D01*
X187832620Y-110643596D01*
X187832627Y-110643598D01*
X187892155Y-110649999D01*
X187892172Y-110650000D01*
X188140000Y-110650000D01*
X188140000Y-109650000D01*
X187440000Y-109650000D01*
X187440000Y-110197844D01*
X181780500Y-110197844D01*
X181780500Y-108602155D01*
X187440000Y-108602155D01*
X187440000Y-109150000D01*
X188140000Y-109150000D01*
X188140000Y-108150000D01*
X187892155Y-108150000D01*
X187832627Y-108156401D01*
X187832620Y-108156403D01*
X187697913Y-108206645D01*
X187697906Y-108206649D01*
X187582812Y-108292809D01*
X187582809Y-108292812D01*
X187496649Y-108407906D01*
X187496645Y-108407913D01*
X187446403Y-108542620D01*
X187446401Y-108542627D01*
X187440000Y-108602155D01*
X181780500Y-108602155D01*
X181780500Y-105984500D01*
X181800185Y-105917461D01*
X181852989Y-105871706D01*
X181904500Y-105860500D01*
X190342223Y-105860500D01*
X190409262Y-105880185D01*
G37*
%TD.AperFunction*%
%TD*%
M02*
