%TF.GenerationSoftware,KiCad,Pcbnew,9.0.6*%
%TF.CreationDate,2025-12-28T18:53:21+01:00*%
%TF.ProjectId,scheme,73636865-6d65-42e6-9b69-6361645f7063,rev?*%
%TF.SameCoordinates,Original*%
%TF.FileFunction,Drillmap*%
%TF.FilePolarity,Positive*%
%FSLAX45Y45*%
G04 Gerber Fmt 4.5, Leading zero omitted, Abs format (unit mm)*
G04 Created by KiCad (PCBNEW 9.0.6) date 2025-12-28 18:53:21*
%MOMM*%
%LPD*%
G01*
G04 APERTURE LIST*
%ADD10C,0.050000*%
%ADD11C,0.200000*%
%ADD12C,0.100000*%
G04 APERTURE END LIST*
D10*
X18128000Y-10536000D02*
X23752000Y-10536000D01*
X23752000Y-15641000D01*
X18128000Y-15641000D01*
X18128000Y-10536000D01*
D11*
D12*
X18495000Y-12915000D02*
X18525000Y-12945000D01*
X18525000Y-12915000D02*
X18495000Y-12945000D01*
X18725000Y-14095000D02*
X18755000Y-14125000D01*
X18755000Y-14095000D02*
X18725000Y-14125000D01*
X18925000Y-14095000D02*
X18955000Y-14125000D01*
X18955000Y-14095000D02*
X18925000Y-14125000D01*
X19075000Y-12925000D02*
X19105000Y-12955000D01*
X19105000Y-12925000D02*
X19075000Y-12955000D01*
X19205000Y-12925000D02*
X19235000Y-12955000D01*
X19235000Y-12925000D02*
X19205000Y-12955000D01*
X19285000Y-14245000D02*
X19315000Y-14275000D01*
X19315000Y-14245000D02*
X19285000Y-14275000D01*
X19335000Y-12925000D02*
X19365000Y-12955000D01*
X19365000Y-12925000D02*
X19335000Y-12955000D01*
X19375000Y-14645000D02*
X19405000Y-14675000D01*
X19405000Y-14645000D02*
X19375000Y-14675000D01*
X19455000Y-12925000D02*
X19485000Y-12955000D01*
X19485000Y-12925000D02*
X19455000Y-12955000D01*
X19585000Y-12925000D02*
X19615000Y-12955000D01*
X19615000Y-12925000D02*
X19585000Y-12955000D01*
X19595000Y-14792500D02*
X19625000Y-14822500D01*
X19625000Y-14792500D02*
X19595000Y-14822500D01*
X19715000Y-12925000D02*
X19745000Y-12955000D01*
X19745000Y-12925000D02*
X19715000Y-12955000D01*
X19775000Y-13165000D02*
X19805000Y-13195000D01*
X19805000Y-13165000D02*
X19775000Y-13195000D01*
X19775000Y-13285000D02*
X19805000Y-13315000D01*
X19805000Y-13285000D02*
X19775000Y-13315000D01*
X19775000Y-13415000D02*
X19805000Y-13445000D01*
X19805000Y-13415000D02*
X19775000Y-13445000D01*
X19775000Y-14337500D02*
X19805000Y-14367500D01*
X19805000Y-14337500D02*
X19775000Y-14367500D01*
X19775000Y-14467500D02*
X19805000Y-14497500D01*
X19805000Y-14467500D02*
X19775000Y-14497500D01*
X19805000Y-13545000D02*
X19835000Y-13575000D01*
X19835000Y-13545000D02*
X19805000Y-13575000D01*
X19805000Y-13675000D02*
X19835000Y-13705000D01*
X19835000Y-13675000D02*
X19805000Y-13705000D01*
X19805000Y-13795000D02*
X19835000Y-13825000D01*
X19835000Y-13795000D02*
X19805000Y-13825000D01*
X19805000Y-13925000D02*
X19835000Y-13955000D01*
X19835000Y-13925000D02*
X19805000Y-13955000D01*
X19835000Y-14275000D02*
X19865000Y-14305000D01*
X19865000Y-14275000D02*
X19835000Y-14305000D01*
X19835000Y-14405000D02*
X19865000Y-14435000D01*
X19865000Y-14405000D02*
X19835000Y-14435000D01*
X19835301Y-14533577D02*
X19865301Y-14563577D01*
X19865301Y-14533577D02*
X19835301Y-14563577D01*
X19847165Y-14195930D02*
X19877165Y-14225930D01*
X19877165Y-14195930D02*
X19847165Y-14225930D01*
X20221000Y-12925000D02*
X20251000Y-12955000D01*
X20251000Y-12925000D02*
X20221000Y-12955000D01*
X20315000Y-13925000D02*
X20345000Y-13955000D01*
X20345000Y-13925000D02*
X20315000Y-13955000D01*
X20317000Y-14055000D02*
X20347000Y-14085000D01*
X20347000Y-14055000D02*
X20317000Y-14085000D01*
X20345000Y-12375000D02*
X20375000Y-12405000D01*
X20375000Y-12375000D02*
X20345000Y-12405000D01*
X20415000Y-13545000D02*
X20445000Y-13575000D01*
X20445000Y-13545000D02*
X20415000Y-13575000D01*
X20415000Y-13665000D02*
X20445000Y-13695000D01*
X20445000Y-13665000D02*
X20415000Y-13695000D01*
X20475000Y-12455000D02*
X20505000Y-12485000D01*
X20505000Y-12455000D02*
X20475000Y-12485000D01*
X20475000Y-10695000D02*
X20505000Y-10725000D01*
X20505000Y-10695000D02*
X20475000Y-10725000D01*
X20705000Y-14855000D02*
X20735000Y-14885000D01*
X20735000Y-14855000D02*
X20705000Y-14885000D01*
X20735000Y-12125000D02*
X20765000Y-12155000D01*
X20765000Y-12125000D02*
X20735000Y-12155000D01*
X20735000Y-12244500D02*
X20765000Y-12274500D01*
X20765000Y-12244500D02*
X20735000Y-12274500D01*
X20805000Y-12495000D02*
X20835000Y-12525000D01*
X20835000Y-12495000D02*
X20805000Y-12525000D01*
X21165000Y-15395000D02*
X21195000Y-15425000D01*
X21195000Y-15395000D02*
X21165000Y-15425000D01*
X21217500Y-15040000D02*
X21247500Y-15070000D01*
X21247500Y-15040000D02*
X21217500Y-15070000D01*
X21502000Y-15238500D02*
X21532000Y-15268500D01*
X21532000Y-15238500D02*
X21502000Y-15268500D01*
X21529000Y-14998000D02*
X21559000Y-15028000D01*
X21559000Y-14998000D02*
X21529000Y-15028000D01*
X21592500Y-15097000D02*
X21622500Y-15127000D01*
X21622500Y-15097000D02*
X21592500Y-15127000D01*
X21608000Y-12295000D02*
X21638000Y-12325000D01*
X21638000Y-12295000D02*
X21608000Y-12325000D01*
X21610757Y-12374953D02*
X21640757Y-12404953D01*
X21640757Y-12374953D02*
X21610757Y-12404953D01*
X21657500Y-13575000D02*
X21687500Y-13605000D01*
X21687500Y-13575000D02*
X21657500Y-13605000D01*
X21665000Y-13495000D02*
X21695000Y-13525000D01*
X21695000Y-13495000D02*
X21665000Y-13525000D01*
X21665000Y-15162500D02*
X21695000Y-15192500D01*
X21695000Y-15162500D02*
X21665000Y-15192500D01*
X21722049Y-14199098D02*
X21752049Y-14229098D01*
X21752049Y-14199098D02*
X21722049Y-14229098D01*
X21815000Y-11795000D02*
X21845000Y-11825000D01*
X21845000Y-11795000D02*
X21815000Y-11825000D01*
X21815000Y-13007500D02*
X21845000Y-13037500D01*
X21845000Y-13007500D02*
X21815000Y-13037500D01*
X21850000Y-11152500D02*
X21880000Y-11182500D01*
X21880000Y-11152500D02*
X21850000Y-11182500D01*
X21940000Y-11152500D02*
X21970000Y-11182500D01*
X21970000Y-11152500D02*
X21940000Y-11182500D01*
X22120000Y-13975000D02*
X22150000Y-14005000D01*
X22150000Y-13975000D02*
X22120000Y-14005000D01*
X22130000Y-15160000D02*
X22160000Y-15190000D01*
X22160000Y-15160000D02*
X22130000Y-15190000D01*
X22135000Y-10837500D02*
X22165000Y-10867500D01*
X22165000Y-10837500D02*
X22135000Y-10867500D01*
X22155000Y-11562500D02*
X22185000Y-11592500D01*
X22185000Y-11562500D02*
X22155000Y-11592500D01*
X22155000Y-13210000D02*
X22185000Y-13240000D01*
X22185000Y-13210000D02*
X22155000Y-13240000D01*
X22160000Y-14400000D02*
X22190000Y-14430000D01*
X22190000Y-14400000D02*
X22160000Y-14430000D01*
X22175000Y-12030000D02*
X22205000Y-12060000D01*
X22205000Y-12030000D02*
X22175000Y-12060000D01*
X22175000Y-12745000D02*
X22205000Y-12775000D01*
X22205000Y-12745000D02*
X22175000Y-12775000D01*
X22230000Y-15350000D02*
X22260000Y-15380000D01*
X22260000Y-15350000D02*
X22230000Y-15380000D01*
X22240444Y-11767944D02*
X22270444Y-11797944D01*
X22270444Y-11767944D02*
X22240444Y-11797944D01*
X22245000Y-14180000D02*
X22275000Y-14210000D01*
X22275000Y-14180000D02*
X22245000Y-14210000D01*
X22255000Y-12955000D02*
X22285000Y-12985000D01*
X22285000Y-12955000D02*
X22255000Y-12985000D01*
X22822500Y-13517500D02*
X22852500Y-13547500D01*
X22852500Y-13517500D02*
X22822500Y-13547500D01*
X22830000Y-11122500D02*
X22860000Y-11152500D01*
X22860000Y-11122500D02*
X22830000Y-11152500D01*
X22835000Y-14695000D02*
X22865000Y-14725000D01*
X22865000Y-14695000D02*
X22835000Y-14725000D01*
X22840000Y-12315000D02*
X22870000Y-12345000D01*
X22870000Y-12315000D02*
X22840000Y-12345000D01*
X23195000Y-13495000D02*
X23225000Y-13525000D01*
X23225000Y-13495000D02*
X23195000Y-13525000D01*
X23270000Y-11027500D02*
X23300000Y-11057500D01*
X23300000Y-11027500D02*
X23270000Y-11057500D01*
X23270000Y-12220000D02*
X23300000Y-12250000D01*
X23300000Y-12220000D02*
X23270000Y-12250000D01*
X23280000Y-14590000D02*
X23310000Y-14620000D01*
X23310000Y-14590000D02*
X23280000Y-14620000D01*
X19151000Y-10650000D02*
G75*
G02*
X19101000Y-10650000I-25000J0D01*
G01*
X19101000Y-10650000D02*
G75*
G02*
X19151000Y-10650000I25000J0D01*
G01*
X19251000Y-10650000D02*
G75*
G02*
X19201000Y-10650000I-25000J0D01*
G01*
X19201000Y-10650000D02*
G75*
G02*
X19251000Y-10650000I25000J0D01*
G01*
X19351000Y-10650000D02*
G75*
G02*
X19301000Y-10650000I-25000J0D01*
G01*
X19301000Y-10650000D02*
G75*
G02*
X19351000Y-10650000I25000J0D01*
G01*
X19451000Y-10650000D02*
G75*
G02*
X19401000Y-10650000I-25000J0D01*
G01*
X19401000Y-10650000D02*
G75*
G02*
X19451000Y-10650000I25000J0D01*
G01*
X19551000Y-10650000D02*
G75*
G02*
X19501000Y-10650000I-25000J0D01*
G01*
X19501000Y-10650000D02*
G75*
G02*
X19551000Y-10650000I25000J0D01*
G01*
X19651000Y-10650000D02*
G75*
G02*
X19601000Y-10650000I-25000J0D01*
G01*
X19601000Y-10650000D02*
G75*
G02*
X19651000Y-10650000I25000J0D01*
G01*
X19751000Y-10650000D02*
G75*
G02*
X19701000Y-10650000I-25000J0D01*
G01*
X19701000Y-10650000D02*
G75*
G02*
X19751000Y-10650000I25000J0D01*
G01*
X19851000Y-10650000D02*
G75*
G02*
X19801000Y-10650000I-25000J0D01*
G01*
X19801000Y-10650000D02*
G75*
G02*
X19851000Y-10650000I25000J0D01*
G01*
X19905000Y-12980000D02*
G75*
G02*
X19855000Y-12980000I-25000J0D01*
G01*
X19855000Y-12980000D02*
G75*
G02*
X19905000Y-12980000I25000J0D01*
G01*
X19951000Y-10650000D02*
G75*
G02*
X19901000Y-10650000I-25000J0D01*
G01*
X19901000Y-10650000D02*
G75*
G02*
X19951000Y-10650000I25000J0D01*
G01*
X20005000Y-12980000D02*
G75*
G02*
X19955000Y-12980000I-25000J0D01*
G01*
X19955000Y-12980000D02*
G75*
G02*
X20005000Y-12980000I25000J0D01*
G01*
X20051000Y-10650000D02*
G75*
G02*
X20001000Y-10650000I-25000J0D01*
G01*
X20001000Y-10650000D02*
G75*
G02*
X20051000Y-10650000I25000J0D01*
G01*
X20105000Y-12980000D02*
G75*
G02*
X20055000Y-12980000I-25000J0D01*
G01*
X20055000Y-12980000D02*
G75*
G02*
X20105000Y-12980000I25000J0D01*
G01*
X20151000Y-10650000D02*
G75*
G02*
X20101000Y-10650000I-25000J0D01*
G01*
X20101000Y-10650000D02*
G75*
G02*
X20151000Y-10650000I25000J0D01*
G01*
X20251000Y-10650000D02*
G75*
G02*
X20201000Y-10650000I-25000J0D01*
G01*
X20201000Y-10650000D02*
G75*
G02*
X20251000Y-10650000I25000J0D01*
G01*
X20935000Y-11270000D02*
G75*
G02*
X20885000Y-11270000I-25000J0D01*
G01*
X20885000Y-11270000D02*
G75*
G02*
X20935000Y-11270000I25000J0D01*
G01*
X20935000Y-11370000D02*
G75*
G02*
X20885000Y-11370000I-25000J0D01*
G01*
X20885000Y-11370000D02*
G75*
G02*
X20935000Y-11370000I25000J0D01*
G01*
X20935000Y-11470000D02*
G75*
G02*
X20885000Y-11470000I-25000J0D01*
G01*
X20885000Y-11470000D02*
G75*
G02*
X20935000Y-11470000I25000J0D01*
G01*
X20935000Y-11680000D02*
G75*
G02*
X20885000Y-11680000I-25000J0D01*
G01*
X20885000Y-11680000D02*
G75*
G02*
X20935000Y-11680000I25000J0D01*
G01*
X20935000Y-11780000D02*
G75*
G02*
X20885000Y-11780000I-25000J0D01*
G01*
X20885000Y-11780000D02*
G75*
G02*
X20935000Y-11780000I25000J0D01*
G01*
X20935000Y-11880000D02*
G75*
G02*
X20885000Y-11880000I-25000J0D01*
G01*
X20885000Y-11880000D02*
G75*
G02*
X20935000Y-11880000I25000J0D01*
G01*
X23647500Y-12620000D02*
G75*
G02*
X23597500Y-12620000I-25000J0D01*
G01*
X23597500Y-12620000D02*
G75*
G02*
X23647500Y-12620000I25000J0D01*
G01*
X23647500Y-12720000D02*
G75*
G02*
X23597500Y-12720000I-25000J0D01*
G01*
X23597500Y-12720000D02*
G75*
G02*
X23647500Y-12720000I25000J0D01*
G01*
X23647500Y-12820000D02*
G75*
G02*
X23597500Y-12820000I-25000J0D01*
G01*
X23597500Y-12820000D02*
G75*
G02*
X23647500Y-12820000I25000J0D01*
G01*
X23652500Y-12920000D02*
G75*
G02*
X23602500Y-12920000I-25000J0D01*
G01*
X23602500Y-12920000D02*
G75*
G02*
X23652500Y-12920000I25000J0D01*
G01*
X23652500Y-13020000D02*
G75*
G02*
X23602500Y-13020000I-25000J0D01*
G01*
X23602500Y-13020000D02*
G75*
G02*
X23652500Y-13020000I25000J0D01*
G01*
X23652500Y-13120000D02*
G75*
G02*
X23602500Y-13120000I-25000J0D01*
G01*
X23602500Y-13120000D02*
G75*
G02*
X23652500Y-13120000I25000J0D01*
G01*
X23652500Y-13220000D02*
G75*
G02*
X23602500Y-13220000I-25000J0D01*
G01*
X23602500Y-13220000D02*
G75*
G02*
X23652500Y-13220000I25000J0D01*
G01*
X23652500Y-13320000D02*
G75*
G02*
X23602500Y-13320000I-25000J0D01*
G01*
X23602500Y-13320000D02*
G75*
G02*
X23652500Y-13320000I25000J0D01*
G01*
X23652500Y-13420000D02*
G75*
G02*
X23602500Y-13420000I-25000J0D01*
G01*
X23602500Y-13420000D02*
G75*
G02*
X23652500Y-13420000I25000J0D01*
G01*
X18308000Y-14985500D02*
X18308000Y-15045500D01*
X18278000Y-15015500D02*
X18338000Y-15015500D01*
X18278000Y-14960500D02*
X18278000Y-15070500D01*
X18338000Y-15070500D02*
G75*
G02*
X18278000Y-15070500I-30000J0D01*
G01*
X18338000Y-15070500D02*
X18338000Y-14960500D01*
X18338000Y-14960500D02*
G75*
G03*
X18278000Y-14960500I-30000J0D01*
G01*
X18308000Y-15403500D02*
X18308000Y-15463500D01*
X18278000Y-15433500D02*
X18338000Y-15433500D01*
X18278000Y-15403500D02*
X18278000Y-15463500D01*
X18338000Y-15463500D02*
G75*
G02*
X18278000Y-15463500I-30000J0D01*
G01*
X18338000Y-15463500D02*
X18338000Y-15403500D01*
X18338000Y-15403500D02*
G75*
G03*
X18278000Y-15403500I-30000J0D01*
G01*
X19172000Y-14985500D02*
X19172000Y-15045500D01*
X19142000Y-15015500D02*
X19202000Y-15015500D01*
X19142000Y-14960500D02*
X19142000Y-15070500D01*
X19202000Y-15070500D02*
G75*
G02*
X19142000Y-15070500I-30000J0D01*
G01*
X19202000Y-15070500D02*
X19202000Y-14960500D01*
X19202000Y-14960500D02*
G75*
G03*
X19142000Y-14960500I-30000J0D01*
G01*
X19172000Y-15403500D02*
X19172000Y-15463500D01*
X19142000Y-15433500D02*
X19202000Y-15433500D01*
X19142000Y-15403500D02*
X19142000Y-15463500D01*
X19202000Y-15463500D02*
G75*
G02*
X19142000Y-15463500I-30000J0D01*
G01*
X19202000Y-15463500D02*
X19202000Y-15403500D01*
X19202000Y-15403500D02*
G75*
G03*
X19142000Y-15403500I-30000J0D01*
G01*
D11*
X18386277Y-15954984D02*
X18386277Y-15754984D01*
X18386277Y-15754984D02*
X18433896Y-15754984D01*
X18433896Y-15754984D02*
X18462467Y-15764508D01*
X18462467Y-15764508D02*
X18481515Y-15783555D01*
X18481515Y-15783555D02*
X18491039Y-15802603D01*
X18491039Y-15802603D02*
X18500563Y-15840698D01*
X18500563Y-15840698D02*
X18500563Y-15869269D01*
X18500563Y-15869269D02*
X18491039Y-15907365D01*
X18491039Y-15907365D02*
X18481515Y-15926412D01*
X18481515Y-15926412D02*
X18462467Y-15945460D01*
X18462467Y-15945460D02*
X18433896Y-15954984D01*
X18433896Y-15954984D02*
X18386277Y-15954984D01*
X18586277Y-15954984D02*
X18586277Y-15821650D01*
X18586277Y-15859746D02*
X18595801Y-15840698D01*
X18595801Y-15840698D02*
X18605324Y-15831174D01*
X18605324Y-15831174D02*
X18624372Y-15821650D01*
X18624372Y-15821650D02*
X18643420Y-15821650D01*
X18710086Y-15954984D02*
X18710086Y-15821650D01*
X18710086Y-15754984D02*
X18700563Y-15764508D01*
X18700563Y-15764508D02*
X18710086Y-15774031D01*
X18710086Y-15774031D02*
X18719610Y-15764508D01*
X18719610Y-15764508D02*
X18710086Y-15754984D01*
X18710086Y-15754984D02*
X18710086Y-15774031D01*
X18833896Y-15954984D02*
X18814848Y-15945460D01*
X18814848Y-15945460D02*
X18805324Y-15926412D01*
X18805324Y-15926412D02*
X18805324Y-15754984D01*
X18938658Y-15954984D02*
X18919610Y-15945460D01*
X18919610Y-15945460D02*
X18910086Y-15926412D01*
X18910086Y-15926412D02*
X18910086Y-15754984D01*
X19167229Y-15954984D02*
X19167229Y-15754984D01*
X19167229Y-15754984D02*
X19233896Y-15897841D01*
X19233896Y-15897841D02*
X19300563Y-15754984D01*
X19300563Y-15754984D02*
X19300563Y-15954984D01*
X19481515Y-15954984D02*
X19481515Y-15850222D01*
X19481515Y-15850222D02*
X19471991Y-15831174D01*
X19471991Y-15831174D02*
X19452944Y-15821650D01*
X19452944Y-15821650D02*
X19414848Y-15821650D01*
X19414848Y-15821650D02*
X19395801Y-15831174D01*
X19481515Y-15945460D02*
X19462467Y-15954984D01*
X19462467Y-15954984D02*
X19414848Y-15954984D01*
X19414848Y-15954984D02*
X19395801Y-15945460D01*
X19395801Y-15945460D02*
X19386277Y-15926412D01*
X19386277Y-15926412D02*
X19386277Y-15907365D01*
X19386277Y-15907365D02*
X19395801Y-15888317D01*
X19395801Y-15888317D02*
X19414848Y-15878793D01*
X19414848Y-15878793D02*
X19462467Y-15878793D01*
X19462467Y-15878793D02*
X19481515Y-15869269D01*
X19576753Y-15821650D02*
X19576753Y-16021650D01*
X19576753Y-15831174D02*
X19595801Y-15821650D01*
X19595801Y-15821650D02*
X19633896Y-15821650D01*
X19633896Y-15821650D02*
X19652944Y-15831174D01*
X19652944Y-15831174D02*
X19662467Y-15840698D01*
X19662467Y-15840698D02*
X19671991Y-15859746D01*
X19671991Y-15859746D02*
X19671991Y-15916888D01*
X19671991Y-15916888D02*
X19662467Y-15935936D01*
X19662467Y-15935936D02*
X19652944Y-15945460D01*
X19652944Y-15945460D02*
X19633896Y-15954984D01*
X19633896Y-15954984D02*
X19595801Y-15954984D01*
X19595801Y-15954984D02*
X19576753Y-15945460D01*
X19757705Y-15935936D02*
X19767229Y-15945460D01*
X19767229Y-15945460D02*
X19757705Y-15954984D01*
X19757705Y-15954984D02*
X19748182Y-15945460D01*
X19748182Y-15945460D02*
X19757705Y-15935936D01*
X19757705Y-15935936D02*
X19757705Y-15954984D01*
X19757705Y-15831174D02*
X19767229Y-15840698D01*
X19767229Y-15840698D02*
X19757705Y-15850222D01*
X19757705Y-15850222D02*
X19748182Y-15840698D01*
X19748182Y-15840698D02*
X19757705Y-15831174D01*
X19757705Y-15831174D02*
X19757705Y-15850222D01*
D12*
X18095500Y-16268500D02*
X18125500Y-16298500D01*
X18125500Y-16268500D02*
X18095500Y-16298500D01*
D11*
X18424372Y-16174984D02*
X18443420Y-16174984D01*
X18443420Y-16174984D02*
X18462467Y-16184508D01*
X18462467Y-16184508D02*
X18471991Y-16194031D01*
X18471991Y-16194031D02*
X18481515Y-16213079D01*
X18481515Y-16213079D02*
X18491039Y-16251174D01*
X18491039Y-16251174D02*
X18491039Y-16298793D01*
X18491039Y-16298793D02*
X18481515Y-16336888D01*
X18481515Y-16336888D02*
X18471991Y-16355936D01*
X18471991Y-16355936D02*
X18462467Y-16365460D01*
X18462467Y-16365460D02*
X18443420Y-16374984D01*
X18443420Y-16374984D02*
X18424372Y-16374984D01*
X18424372Y-16374984D02*
X18405324Y-16365460D01*
X18405324Y-16365460D02*
X18395801Y-16355936D01*
X18395801Y-16355936D02*
X18386277Y-16336888D01*
X18386277Y-16336888D02*
X18376753Y-16298793D01*
X18376753Y-16298793D02*
X18376753Y-16251174D01*
X18376753Y-16251174D02*
X18386277Y-16213079D01*
X18386277Y-16213079D02*
X18395801Y-16194031D01*
X18395801Y-16194031D02*
X18405324Y-16184508D01*
X18405324Y-16184508D02*
X18424372Y-16174984D01*
X18576753Y-16355936D02*
X18586277Y-16365460D01*
X18586277Y-16365460D02*
X18576753Y-16374984D01*
X18576753Y-16374984D02*
X18567229Y-16365460D01*
X18567229Y-16365460D02*
X18576753Y-16355936D01*
X18576753Y-16355936D02*
X18576753Y-16374984D01*
X18652944Y-16174984D02*
X18776753Y-16174984D01*
X18776753Y-16174984D02*
X18710086Y-16251174D01*
X18710086Y-16251174D02*
X18738658Y-16251174D01*
X18738658Y-16251174D02*
X18757705Y-16260698D01*
X18757705Y-16260698D02*
X18767229Y-16270222D01*
X18767229Y-16270222D02*
X18776753Y-16289269D01*
X18776753Y-16289269D02*
X18776753Y-16336888D01*
X18776753Y-16336888D02*
X18767229Y-16355936D01*
X18767229Y-16355936D02*
X18757705Y-16365460D01*
X18757705Y-16365460D02*
X18738658Y-16374984D01*
X18738658Y-16374984D02*
X18681515Y-16374984D01*
X18681515Y-16374984D02*
X18662467Y-16365460D01*
X18662467Y-16365460D02*
X18652944Y-16355936D01*
X18900563Y-16174984D02*
X18919610Y-16174984D01*
X18919610Y-16174984D02*
X18938658Y-16184508D01*
X18938658Y-16184508D02*
X18948182Y-16194031D01*
X18948182Y-16194031D02*
X18957705Y-16213079D01*
X18957705Y-16213079D02*
X18967229Y-16251174D01*
X18967229Y-16251174D02*
X18967229Y-16298793D01*
X18967229Y-16298793D02*
X18957705Y-16336888D01*
X18957705Y-16336888D02*
X18948182Y-16355936D01*
X18948182Y-16355936D02*
X18938658Y-16365460D01*
X18938658Y-16365460D02*
X18919610Y-16374984D01*
X18919610Y-16374984D02*
X18900563Y-16374984D01*
X18900563Y-16374984D02*
X18881515Y-16365460D01*
X18881515Y-16365460D02*
X18871991Y-16355936D01*
X18871991Y-16355936D02*
X18862467Y-16336888D01*
X18862467Y-16336888D02*
X18852944Y-16298793D01*
X18852944Y-16298793D02*
X18852944Y-16251174D01*
X18852944Y-16251174D02*
X18862467Y-16213079D01*
X18862467Y-16213079D02*
X18871991Y-16194031D01*
X18871991Y-16194031D02*
X18881515Y-16184508D01*
X18881515Y-16184508D02*
X18900563Y-16174984D01*
X19091039Y-16174984D02*
X19110086Y-16174984D01*
X19110086Y-16174984D02*
X19129134Y-16184508D01*
X19129134Y-16184508D02*
X19138658Y-16194031D01*
X19138658Y-16194031D02*
X19148182Y-16213079D01*
X19148182Y-16213079D02*
X19157705Y-16251174D01*
X19157705Y-16251174D02*
X19157705Y-16298793D01*
X19157705Y-16298793D02*
X19148182Y-16336888D01*
X19148182Y-16336888D02*
X19138658Y-16355936D01*
X19138658Y-16355936D02*
X19129134Y-16365460D01*
X19129134Y-16365460D02*
X19110086Y-16374984D01*
X19110086Y-16374984D02*
X19091039Y-16374984D01*
X19091039Y-16374984D02*
X19071991Y-16365460D01*
X19071991Y-16365460D02*
X19062467Y-16355936D01*
X19062467Y-16355936D02*
X19052944Y-16336888D01*
X19052944Y-16336888D02*
X19043420Y-16298793D01*
X19043420Y-16298793D02*
X19043420Y-16251174D01*
X19043420Y-16251174D02*
X19052944Y-16213079D01*
X19052944Y-16213079D02*
X19062467Y-16194031D01*
X19062467Y-16194031D02*
X19071991Y-16184508D01*
X19071991Y-16184508D02*
X19091039Y-16174984D01*
X19243420Y-16374984D02*
X19243420Y-16241650D01*
X19243420Y-16260698D02*
X19252944Y-16251174D01*
X19252944Y-16251174D02*
X19271991Y-16241650D01*
X19271991Y-16241650D02*
X19300563Y-16241650D01*
X19300563Y-16241650D02*
X19319610Y-16251174D01*
X19319610Y-16251174D02*
X19329134Y-16270222D01*
X19329134Y-16270222D02*
X19329134Y-16374984D01*
X19329134Y-16270222D02*
X19338658Y-16251174D01*
X19338658Y-16251174D02*
X19357705Y-16241650D01*
X19357705Y-16241650D02*
X19386277Y-16241650D01*
X19386277Y-16241650D02*
X19405325Y-16251174D01*
X19405325Y-16251174D02*
X19414848Y-16270222D01*
X19414848Y-16270222D02*
X19414848Y-16374984D01*
X19510086Y-16374984D02*
X19510086Y-16241650D01*
X19510086Y-16260698D02*
X19519610Y-16251174D01*
X19519610Y-16251174D02*
X19538658Y-16241650D01*
X19538658Y-16241650D02*
X19567229Y-16241650D01*
X19567229Y-16241650D02*
X19586277Y-16251174D01*
X19586277Y-16251174D02*
X19595801Y-16270222D01*
X19595801Y-16270222D02*
X19595801Y-16374984D01*
X19595801Y-16270222D02*
X19605325Y-16251174D01*
X19605325Y-16251174D02*
X19624372Y-16241650D01*
X19624372Y-16241650D02*
X19652944Y-16241650D01*
X19652944Y-16241650D02*
X19671991Y-16251174D01*
X19671991Y-16251174D02*
X19681515Y-16270222D01*
X19681515Y-16270222D02*
X19681515Y-16374984D01*
X20071991Y-16165460D02*
X19900563Y-16422603D01*
X20329134Y-16174984D02*
X20348182Y-16174984D01*
X20348182Y-16174984D02*
X20367229Y-16184508D01*
X20367229Y-16184508D02*
X20376753Y-16194031D01*
X20376753Y-16194031D02*
X20386277Y-16213079D01*
X20386277Y-16213079D02*
X20395801Y-16251174D01*
X20395801Y-16251174D02*
X20395801Y-16298793D01*
X20395801Y-16298793D02*
X20386277Y-16336888D01*
X20386277Y-16336888D02*
X20376753Y-16355936D01*
X20376753Y-16355936D02*
X20367229Y-16365460D01*
X20367229Y-16365460D02*
X20348182Y-16374984D01*
X20348182Y-16374984D02*
X20329134Y-16374984D01*
X20329134Y-16374984D02*
X20310087Y-16365460D01*
X20310087Y-16365460D02*
X20300563Y-16355936D01*
X20300563Y-16355936D02*
X20291039Y-16336888D01*
X20291039Y-16336888D02*
X20281515Y-16298793D01*
X20281515Y-16298793D02*
X20281515Y-16251174D01*
X20281515Y-16251174D02*
X20291039Y-16213079D01*
X20291039Y-16213079D02*
X20300563Y-16194031D01*
X20300563Y-16194031D02*
X20310087Y-16184508D01*
X20310087Y-16184508D02*
X20329134Y-16174984D01*
X20481515Y-16355936D02*
X20491039Y-16365460D01*
X20491039Y-16365460D02*
X20481515Y-16374984D01*
X20481515Y-16374984D02*
X20471991Y-16365460D01*
X20471991Y-16365460D02*
X20481515Y-16355936D01*
X20481515Y-16355936D02*
X20481515Y-16374984D01*
X20614848Y-16174984D02*
X20633896Y-16174984D01*
X20633896Y-16174984D02*
X20652944Y-16184508D01*
X20652944Y-16184508D02*
X20662468Y-16194031D01*
X20662468Y-16194031D02*
X20671991Y-16213079D01*
X20671991Y-16213079D02*
X20681515Y-16251174D01*
X20681515Y-16251174D02*
X20681515Y-16298793D01*
X20681515Y-16298793D02*
X20671991Y-16336888D01*
X20671991Y-16336888D02*
X20662468Y-16355936D01*
X20662468Y-16355936D02*
X20652944Y-16365460D01*
X20652944Y-16365460D02*
X20633896Y-16374984D01*
X20633896Y-16374984D02*
X20614848Y-16374984D01*
X20614848Y-16374984D02*
X20595801Y-16365460D01*
X20595801Y-16365460D02*
X20586277Y-16355936D01*
X20586277Y-16355936D02*
X20576753Y-16336888D01*
X20576753Y-16336888D02*
X20567229Y-16298793D01*
X20567229Y-16298793D02*
X20567229Y-16251174D01*
X20567229Y-16251174D02*
X20576753Y-16213079D01*
X20576753Y-16213079D02*
X20586277Y-16194031D01*
X20586277Y-16194031D02*
X20595801Y-16184508D01*
X20595801Y-16184508D02*
X20614848Y-16174984D01*
X20871991Y-16374984D02*
X20757706Y-16374984D01*
X20814848Y-16374984D02*
X20814848Y-16174984D01*
X20814848Y-16174984D02*
X20795801Y-16203555D01*
X20795801Y-16203555D02*
X20776753Y-16222603D01*
X20776753Y-16222603D02*
X20757706Y-16232127D01*
X21062468Y-16374984D02*
X20948182Y-16374984D01*
X21005325Y-16374984D02*
X21005325Y-16174984D01*
X21005325Y-16174984D02*
X20986277Y-16203555D01*
X20986277Y-16203555D02*
X20967229Y-16222603D01*
X20967229Y-16222603D02*
X20948182Y-16232127D01*
X21176753Y-16260698D02*
X21157706Y-16251174D01*
X21157706Y-16251174D02*
X21148182Y-16241650D01*
X21148182Y-16241650D02*
X21138658Y-16222603D01*
X21138658Y-16222603D02*
X21138658Y-16213079D01*
X21138658Y-16213079D02*
X21148182Y-16194031D01*
X21148182Y-16194031D02*
X21157706Y-16184508D01*
X21157706Y-16184508D02*
X21176753Y-16174984D01*
X21176753Y-16174984D02*
X21214849Y-16174984D01*
X21214849Y-16174984D02*
X21233896Y-16184508D01*
X21233896Y-16184508D02*
X21243420Y-16194031D01*
X21243420Y-16194031D02*
X21252944Y-16213079D01*
X21252944Y-16213079D02*
X21252944Y-16222603D01*
X21252944Y-16222603D02*
X21243420Y-16241650D01*
X21243420Y-16241650D02*
X21233896Y-16251174D01*
X21233896Y-16251174D02*
X21214849Y-16260698D01*
X21214849Y-16260698D02*
X21176753Y-16260698D01*
X21176753Y-16260698D02*
X21157706Y-16270222D01*
X21157706Y-16270222D02*
X21148182Y-16279746D01*
X21148182Y-16279746D02*
X21138658Y-16298793D01*
X21138658Y-16298793D02*
X21138658Y-16336888D01*
X21138658Y-16336888D02*
X21148182Y-16355936D01*
X21148182Y-16355936D02*
X21157706Y-16365460D01*
X21157706Y-16365460D02*
X21176753Y-16374984D01*
X21176753Y-16374984D02*
X21214849Y-16374984D01*
X21214849Y-16374984D02*
X21233896Y-16365460D01*
X21233896Y-16365460D02*
X21243420Y-16355936D01*
X21243420Y-16355936D02*
X21252944Y-16336888D01*
X21252944Y-16336888D02*
X21252944Y-16298793D01*
X21252944Y-16298793D02*
X21243420Y-16279746D01*
X21243420Y-16279746D02*
X21233896Y-16270222D01*
X21233896Y-16270222D02*
X21214849Y-16260698D01*
X21329134Y-16174984D02*
X21329134Y-16213079D01*
X21405325Y-16174984D02*
X21405325Y-16213079D01*
X21700563Y-16451174D02*
X21691039Y-16441650D01*
X21691039Y-16441650D02*
X21671991Y-16413079D01*
X21671991Y-16413079D02*
X21662468Y-16394031D01*
X21662468Y-16394031D02*
X21652944Y-16365460D01*
X21652944Y-16365460D02*
X21643420Y-16317841D01*
X21643420Y-16317841D02*
X21643420Y-16279746D01*
X21643420Y-16279746D02*
X21652944Y-16232127D01*
X21652944Y-16232127D02*
X21662468Y-16203555D01*
X21662468Y-16203555D02*
X21671991Y-16184508D01*
X21671991Y-16184508D02*
X21691039Y-16155936D01*
X21691039Y-16155936D02*
X21700563Y-16146412D01*
X21757706Y-16174984D02*
X21891039Y-16174984D01*
X21891039Y-16174984D02*
X21805325Y-16374984D01*
X21957706Y-16194031D02*
X21967230Y-16184508D01*
X21967230Y-16184508D02*
X21986277Y-16174984D01*
X21986277Y-16174984D02*
X22033896Y-16174984D01*
X22033896Y-16174984D02*
X22052944Y-16184508D01*
X22052944Y-16184508D02*
X22062468Y-16194031D01*
X22062468Y-16194031D02*
X22071991Y-16213079D01*
X22071991Y-16213079D02*
X22071991Y-16232127D01*
X22071991Y-16232127D02*
X22062468Y-16260698D01*
X22062468Y-16260698D02*
X21948182Y-16374984D01*
X21948182Y-16374984D02*
X22071991Y-16374984D01*
X22310087Y-16374984D02*
X22310087Y-16174984D01*
X22395801Y-16374984D02*
X22395801Y-16270222D01*
X22395801Y-16270222D02*
X22386277Y-16251174D01*
X22386277Y-16251174D02*
X22367230Y-16241650D01*
X22367230Y-16241650D02*
X22338658Y-16241650D01*
X22338658Y-16241650D02*
X22319611Y-16251174D01*
X22319611Y-16251174D02*
X22310087Y-16260698D01*
X22519610Y-16374984D02*
X22500563Y-16365460D01*
X22500563Y-16365460D02*
X22491039Y-16355936D01*
X22491039Y-16355936D02*
X22481515Y-16336888D01*
X22481515Y-16336888D02*
X22481515Y-16279746D01*
X22481515Y-16279746D02*
X22491039Y-16260698D01*
X22491039Y-16260698D02*
X22500563Y-16251174D01*
X22500563Y-16251174D02*
X22519610Y-16241650D01*
X22519610Y-16241650D02*
X22548182Y-16241650D01*
X22548182Y-16241650D02*
X22567230Y-16251174D01*
X22567230Y-16251174D02*
X22576753Y-16260698D01*
X22576753Y-16260698D02*
X22586277Y-16279746D01*
X22586277Y-16279746D02*
X22586277Y-16336888D01*
X22586277Y-16336888D02*
X22576753Y-16355936D01*
X22576753Y-16355936D02*
X22567230Y-16365460D01*
X22567230Y-16365460D02*
X22548182Y-16374984D01*
X22548182Y-16374984D02*
X22519610Y-16374984D01*
X22700563Y-16374984D02*
X22681515Y-16365460D01*
X22681515Y-16365460D02*
X22671991Y-16346412D01*
X22671991Y-16346412D02*
X22671991Y-16174984D01*
X22852944Y-16365460D02*
X22833896Y-16374984D01*
X22833896Y-16374984D02*
X22795801Y-16374984D01*
X22795801Y-16374984D02*
X22776753Y-16365460D01*
X22776753Y-16365460D02*
X22767230Y-16346412D01*
X22767230Y-16346412D02*
X22767230Y-16270222D01*
X22767230Y-16270222D02*
X22776753Y-16251174D01*
X22776753Y-16251174D02*
X22795801Y-16241650D01*
X22795801Y-16241650D02*
X22833896Y-16241650D01*
X22833896Y-16241650D02*
X22852944Y-16251174D01*
X22852944Y-16251174D02*
X22862468Y-16270222D01*
X22862468Y-16270222D02*
X22862468Y-16289269D01*
X22862468Y-16289269D02*
X22767230Y-16308317D01*
X22938658Y-16365460D02*
X22957706Y-16374984D01*
X22957706Y-16374984D02*
X22995801Y-16374984D01*
X22995801Y-16374984D02*
X23014849Y-16365460D01*
X23014849Y-16365460D02*
X23024372Y-16346412D01*
X23024372Y-16346412D02*
X23024372Y-16336888D01*
X23024372Y-16336888D02*
X23014849Y-16317841D01*
X23014849Y-16317841D02*
X22995801Y-16308317D01*
X22995801Y-16308317D02*
X22967230Y-16308317D01*
X22967230Y-16308317D02*
X22948182Y-16298793D01*
X22948182Y-16298793D02*
X22938658Y-16279746D01*
X22938658Y-16279746D02*
X22938658Y-16270222D01*
X22938658Y-16270222D02*
X22948182Y-16251174D01*
X22948182Y-16251174D02*
X22967230Y-16241650D01*
X22967230Y-16241650D02*
X22995801Y-16241650D01*
X22995801Y-16241650D02*
X23014849Y-16251174D01*
X23091039Y-16451174D02*
X23100563Y-16441650D01*
X23100563Y-16441650D02*
X23119611Y-16413079D01*
X23119611Y-16413079D02*
X23129134Y-16394031D01*
X23129134Y-16394031D02*
X23138658Y-16365460D01*
X23138658Y-16365460D02*
X23148182Y-16317841D01*
X23148182Y-16317841D02*
X23148182Y-16279746D01*
X23148182Y-16279746D02*
X23138658Y-16232127D01*
X23138658Y-16232127D02*
X23129134Y-16203555D01*
X23129134Y-16203555D02*
X23119611Y-16184508D01*
X23119611Y-16184508D02*
X23100563Y-16155936D01*
X23100563Y-16155936D02*
X23091039Y-16146412D01*
D12*
X18125500Y-16547500D02*
G75*
G02*
X18075500Y-16547500I-25000J0D01*
G01*
X18075500Y-16547500D02*
G75*
G02*
X18125500Y-16547500I25000J0D01*
G01*
D11*
X18424372Y-16438984D02*
X18443420Y-16438984D01*
X18443420Y-16438984D02*
X18462467Y-16448508D01*
X18462467Y-16448508D02*
X18471991Y-16458031D01*
X18471991Y-16458031D02*
X18481515Y-16477079D01*
X18481515Y-16477079D02*
X18491039Y-16515174D01*
X18491039Y-16515174D02*
X18491039Y-16562793D01*
X18491039Y-16562793D02*
X18481515Y-16600888D01*
X18481515Y-16600888D02*
X18471991Y-16619936D01*
X18471991Y-16619936D02*
X18462467Y-16629460D01*
X18462467Y-16629460D02*
X18443420Y-16638984D01*
X18443420Y-16638984D02*
X18424372Y-16638984D01*
X18424372Y-16638984D02*
X18405324Y-16629460D01*
X18405324Y-16629460D02*
X18395801Y-16619936D01*
X18395801Y-16619936D02*
X18386277Y-16600888D01*
X18386277Y-16600888D02*
X18376753Y-16562793D01*
X18376753Y-16562793D02*
X18376753Y-16515174D01*
X18376753Y-16515174D02*
X18386277Y-16477079D01*
X18386277Y-16477079D02*
X18395801Y-16458031D01*
X18395801Y-16458031D02*
X18405324Y-16448508D01*
X18405324Y-16448508D02*
X18424372Y-16438984D01*
X18576753Y-16619936D02*
X18586277Y-16629460D01*
X18586277Y-16629460D02*
X18576753Y-16638984D01*
X18576753Y-16638984D02*
X18567229Y-16629460D01*
X18567229Y-16629460D02*
X18576753Y-16619936D01*
X18576753Y-16619936D02*
X18576753Y-16638984D01*
X18767229Y-16438984D02*
X18671991Y-16438984D01*
X18671991Y-16438984D02*
X18662467Y-16534222D01*
X18662467Y-16534222D02*
X18671991Y-16524698D01*
X18671991Y-16524698D02*
X18691039Y-16515174D01*
X18691039Y-16515174D02*
X18738658Y-16515174D01*
X18738658Y-16515174D02*
X18757705Y-16524698D01*
X18757705Y-16524698D02*
X18767229Y-16534222D01*
X18767229Y-16534222D02*
X18776753Y-16553269D01*
X18776753Y-16553269D02*
X18776753Y-16600888D01*
X18776753Y-16600888D02*
X18767229Y-16619936D01*
X18767229Y-16619936D02*
X18757705Y-16629460D01*
X18757705Y-16629460D02*
X18738658Y-16638984D01*
X18738658Y-16638984D02*
X18691039Y-16638984D01*
X18691039Y-16638984D02*
X18671991Y-16629460D01*
X18671991Y-16629460D02*
X18662467Y-16619936D01*
X18900563Y-16438984D02*
X18919610Y-16438984D01*
X18919610Y-16438984D02*
X18938658Y-16448508D01*
X18938658Y-16448508D02*
X18948182Y-16458031D01*
X18948182Y-16458031D02*
X18957705Y-16477079D01*
X18957705Y-16477079D02*
X18967229Y-16515174D01*
X18967229Y-16515174D02*
X18967229Y-16562793D01*
X18967229Y-16562793D02*
X18957705Y-16600888D01*
X18957705Y-16600888D02*
X18948182Y-16619936D01*
X18948182Y-16619936D02*
X18938658Y-16629460D01*
X18938658Y-16629460D02*
X18919610Y-16638984D01*
X18919610Y-16638984D02*
X18900563Y-16638984D01*
X18900563Y-16638984D02*
X18881515Y-16629460D01*
X18881515Y-16629460D02*
X18871991Y-16619936D01*
X18871991Y-16619936D02*
X18862467Y-16600888D01*
X18862467Y-16600888D02*
X18852944Y-16562793D01*
X18852944Y-16562793D02*
X18852944Y-16515174D01*
X18852944Y-16515174D02*
X18862467Y-16477079D01*
X18862467Y-16477079D02*
X18871991Y-16458031D01*
X18871991Y-16458031D02*
X18881515Y-16448508D01*
X18881515Y-16448508D02*
X18900563Y-16438984D01*
X19091039Y-16438984D02*
X19110086Y-16438984D01*
X19110086Y-16438984D02*
X19129134Y-16448508D01*
X19129134Y-16448508D02*
X19138658Y-16458031D01*
X19138658Y-16458031D02*
X19148182Y-16477079D01*
X19148182Y-16477079D02*
X19157705Y-16515174D01*
X19157705Y-16515174D02*
X19157705Y-16562793D01*
X19157705Y-16562793D02*
X19148182Y-16600888D01*
X19148182Y-16600888D02*
X19138658Y-16619936D01*
X19138658Y-16619936D02*
X19129134Y-16629460D01*
X19129134Y-16629460D02*
X19110086Y-16638984D01*
X19110086Y-16638984D02*
X19091039Y-16638984D01*
X19091039Y-16638984D02*
X19071991Y-16629460D01*
X19071991Y-16629460D02*
X19062467Y-16619936D01*
X19062467Y-16619936D02*
X19052944Y-16600888D01*
X19052944Y-16600888D02*
X19043420Y-16562793D01*
X19043420Y-16562793D02*
X19043420Y-16515174D01*
X19043420Y-16515174D02*
X19052944Y-16477079D01*
X19052944Y-16477079D02*
X19062467Y-16458031D01*
X19062467Y-16458031D02*
X19071991Y-16448508D01*
X19071991Y-16448508D02*
X19091039Y-16438984D01*
X19243420Y-16638984D02*
X19243420Y-16505650D01*
X19243420Y-16524698D02*
X19252944Y-16515174D01*
X19252944Y-16515174D02*
X19271991Y-16505650D01*
X19271991Y-16505650D02*
X19300563Y-16505650D01*
X19300563Y-16505650D02*
X19319610Y-16515174D01*
X19319610Y-16515174D02*
X19329134Y-16534222D01*
X19329134Y-16534222D02*
X19329134Y-16638984D01*
X19329134Y-16534222D02*
X19338658Y-16515174D01*
X19338658Y-16515174D02*
X19357705Y-16505650D01*
X19357705Y-16505650D02*
X19386277Y-16505650D01*
X19386277Y-16505650D02*
X19405325Y-16515174D01*
X19405325Y-16515174D02*
X19414848Y-16534222D01*
X19414848Y-16534222D02*
X19414848Y-16638984D01*
X19510086Y-16638984D02*
X19510086Y-16505650D01*
X19510086Y-16524698D02*
X19519610Y-16515174D01*
X19519610Y-16515174D02*
X19538658Y-16505650D01*
X19538658Y-16505650D02*
X19567229Y-16505650D01*
X19567229Y-16505650D02*
X19586277Y-16515174D01*
X19586277Y-16515174D02*
X19595801Y-16534222D01*
X19595801Y-16534222D02*
X19595801Y-16638984D01*
X19595801Y-16534222D02*
X19605325Y-16515174D01*
X19605325Y-16515174D02*
X19624372Y-16505650D01*
X19624372Y-16505650D02*
X19652944Y-16505650D01*
X19652944Y-16505650D02*
X19671991Y-16515174D01*
X19671991Y-16515174D02*
X19681515Y-16534222D01*
X19681515Y-16534222D02*
X19681515Y-16638984D01*
X20071991Y-16429460D02*
X19900563Y-16686603D01*
X20329134Y-16438984D02*
X20348182Y-16438984D01*
X20348182Y-16438984D02*
X20367229Y-16448508D01*
X20367229Y-16448508D02*
X20376753Y-16458031D01*
X20376753Y-16458031D02*
X20386277Y-16477079D01*
X20386277Y-16477079D02*
X20395801Y-16515174D01*
X20395801Y-16515174D02*
X20395801Y-16562793D01*
X20395801Y-16562793D02*
X20386277Y-16600888D01*
X20386277Y-16600888D02*
X20376753Y-16619936D01*
X20376753Y-16619936D02*
X20367229Y-16629460D01*
X20367229Y-16629460D02*
X20348182Y-16638984D01*
X20348182Y-16638984D02*
X20329134Y-16638984D01*
X20329134Y-16638984D02*
X20310087Y-16629460D01*
X20310087Y-16629460D02*
X20300563Y-16619936D01*
X20300563Y-16619936D02*
X20291039Y-16600888D01*
X20291039Y-16600888D02*
X20281515Y-16562793D01*
X20281515Y-16562793D02*
X20281515Y-16515174D01*
X20281515Y-16515174D02*
X20291039Y-16477079D01*
X20291039Y-16477079D02*
X20300563Y-16458031D01*
X20300563Y-16458031D02*
X20310087Y-16448508D01*
X20310087Y-16448508D02*
X20329134Y-16438984D01*
X20481515Y-16619936D02*
X20491039Y-16629460D01*
X20491039Y-16629460D02*
X20481515Y-16638984D01*
X20481515Y-16638984D02*
X20471991Y-16629460D01*
X20471991Y-16629460D02*
X20481515Y-16619936D01*
X20481515Y-16619936D02*
X20481515Y-16638984D01*
X20614848Y-16438984D02*
X20633896Y-16438984D01*
X20633896Y-16438984D02*
X20652944Y-16448508D01*
X20652944Y-16448508D02*
X20662468Y-16458031D01*
X20662468Y-16458031D02*
X20671991Y-16477079D01*
X20671991Y-16477079D02*
X20681515Y-16515174D01*
X20681515Y-16515174D02*
X20681515Y-16562793D01*
X20681515Y-16562793D02*
X20671991Y-16600888D01*
X20671991Y-16600888D02*
X20662468Y-16619936D01*
X20662468Y-16619936D02*
X20652944Y-16629460D01*
X20652944Y-16629460D02*
X20633896Y-16638984D01*
X20633896Y-16638984D02*
X20614848Y-16638984D01*
X20614848Y-16638984D02*
X20595801Y-16629460D01*
X20595801Y-16629460D02*
X20586277Y-16619936D01*
X20586277Y-16619936D02*
X20576753Y-16600888D01*
X20576753Y-16600888D02*
X20567229Y-16562793D01*
X20567229Y-16562793D02*
X20567229Y-16515174D01*
X20567229Y-16515174D02*
X20576753Y-16477079D01*
X20576753Y-16477079D02*
X20586277Y-16458031D01*
X20586277Y-16458031D02*
X20595801Y-16448508D01*
X20595801Y-16448508D02*
X20614848Y-16438984D01*
X20871991Y-16638984D02*
X20757706Y-16638984D01*
X20814848Y-16638984D02*
X20814848Y-16438984D01*
X20814848Y-16438984D02*
X20795801Y-16467555D01*
X20795801Y-16467555D02*
X20776753Y-16486603D01*
X20776753Y-16486603D02*
X20757706Y-16496127D01*
X20967229Y-16638984D02*
X21005325Y-16638984D01*
X21005325Y-16638984D02*
X21024372Y-16629460D01*
X21024372Y-16629460D02*
X21033896Y-16619936D01*
X21033896Y-16619936D02*
X21052944Y-16591365D01*
X21052944Y-16591365D02*
X21062468Y-16553269D01*
X21062468Y-16553269D02*
X21062468Y-16477079D01*
X21062468Y-16477079D02*
X21052944Y-16458031D01*
X21052944Y-16458031D02*
X21043420Y-16448508D01*
X21043420Y-16448508D02*
X21024372Y-16438984D01*
X21024372Y-16438984D02*
X20986277Y-16438984D01*
X20986277Y-16438984D02*
X20967229Y-16448508D01*
X20967229Y-16448508D02*
X20957706Y-16458031D01*
X20957706Y-16458031D02*
X20948182Y-16477079D01*
X20948182Y-16477079D02*
X20948182Y-16524698D01*
X20948182Y-16524698D02*
X20957706Y-16543746D01*
X20957706Y-16543746D02*
X20967229Y-16553269D01*
X20967229Y-16553269D02*
X20986277Y-16562793D01*
X20986277Y-16562793D02*
X21024372Y-16562793D01*
X21024372Y-16562793D02*
X21043420Y-16553269D01*
X21043420Y-16553269D02*
X21052944Y-16543746D01*
X21052944Y-16543746D02*
X21062468Y-16524698D01*
X21129134Y-16438984D02*
X21262468Y-16438984D01*
X21262468Y-16438984D02*
X21176753Y-16638984D01*
X21329134Y-16438984D02*
X21329134Y-16477079D01*
X21405325Y-16438984D02*
X21405325Y-16477079D01*
X21700563Y-16715174D02*
X21691039Y-16705650D01*
X21691039Y-16705650D02*
X21671991Y-16677079D01*
X21671991Y-16677079D02*
X21662468Y-16658031D01*
X21662468Y-16658031D02*
X21652944Y-16629460D01*
X21652944Y-16629460D02*
X21643420Y-16581841D01*
X21643420Y-16581841D02*
X21643420Y-16543746D01*
X21643420Y-16543746D02*
X21652944Y-16496127D01*
X21652944Y-16496127D02*
X21662468Y-16467555D01*
X21662468Y-16467555D02*
X21671991Y-16448508D01*
X21671991Y-16448508D02*
X21691039Y-16419936D01*
X21691039Y-16419936D02*
X21700563Y-16410412D01*
X21757706Y-16438984D02*
X21881515Y-16438984D01*
X21881515Y-16438984D02*
X21814849Y-16515174D01*
X21814849Y-16515174D02*
X21843420Y-16515174D01*
X21843420Y-16515174D02*
X21862468Y-16524698D01*
X21862468Y-16524698D02*
X21871991Y-16534222D01*
X21871991Y-16534222D02*
X21881515Y-16553269D01*
X21881515Y-16553269D02*
X21881515Y-16600888D01*
X21881515Y-16600888D02*
X21871991Y-16619936D01*
X21871991Y-16619936D02*
X21862468Y-16629460D01*
X21862468Y-16629460D02*
X21843420Y-16638984D01*
X21843420Y-16638984D02*
X21786277Y-16638984D01*
X21786277Y-16638984D02*
X21767230Y-16629460D01*
X21767230Y-16629460D02*
X21757706Y-16619936D01*
X22005325Y-16438984D02*
X22024372Y-16438984D01*
X22024372Y-16438984D02*
X22043420Y-16448508D01*
X22043420Y-16448508D02*
X22052944Y-16458031D01*
X22052944Y-16458031D02*
X22062468Y-16477079D01*
X22062468Y-16477079D02*
X22071991Y-16515174D01*
X22071991Y-16515174D02*
X22071991Y-16562793D01*
X22071991Y-16562793D02*
X22062468Y-16600888D01*
X22062468Y-16600888D02*
X22052944Y-16619936D01*
X22052944Y-16619936D02*
X22043420Y-16629460D01*
X22043420Y-16629460D02*
X22024372Y-16638984D01*
X22024372Y-16638984D02*
X22005325Y-16638984D01*
X22005325Y-16638984D02*
X21986277Y-16629460D01*
X21986277Y-16629460D02*
X21976753Y-16619936D01*
X21976753Y-16619936D02*
X21967230Y-16600888D01*
X21967230Y-16600888D02*
X21957706Y-16562793D01*
X21957706Y-16562793D02*
X21957706Y-16515174D01*
X21957706Y-16515174D02*
X21967230Y-16477079D01*
X21967230Y-16477079D02*
X21976753Y-16458031D01*
X21976753Y-16458031D02*
X21986277Y-16448508D01*
X21986277Y-16448508D02*
X22005325Y-16438984D01*
X22310087Y-16638984D02*
X22310087Y-16438984D01*
X22395801Y-16638984D02*
X22395801Y-16534222D01*
X22395801Y-16534222D02*
X22386277Y-16515174D01*
X22386277Y-16515174D02*
X22367230Y-16505650D01*
X22367230Y-16505650D02*
X22338658Y-16505650D01*
X22338658Y-16505650D02*
X22319611Y-16515174D01*
X22319611Y-16515174D02*
X22310087Y-16524698D01*
X22519610Y-16638984D02*
X22500563Y-16629460D01*
X22500563Y-16629460D02*
X22491039Y-16619936D01*
X22491039Y-16619936D02*
X22481515Y-16600888D01*
X22481515Y-16600888D02*
X22481515Y-16543746D01*
X22481515Y-16543746D02*
X22491039Y-16524698D01*
X22491039Y-16524698D02*
X22500563Y-16515174D01*
X22500563Y-16515174D02*
X22519610Y-16505650D01*
X22519610Y-16505650D02*
X22548182Y-16505650D01*
X22548182Y-16505650D02*
X22567230Y-16515174D01*
X22567230Y-16515174D02*
X22576753Y-16524698D01*
X22576753Y-16524698D02*
X22586277Y-16543746D01*
X22586277Y-16543746D02*
X22586277Y-16600888D01*
X22586277Y-16600888D02*
X22576753Y-16619936D01*
X22576753Y-16619936D02*
X22567230Y-16629460D01*
X22567230Y-16629460D02*
X22548182Y-16638984D01*
X22548182Y-16638984D02*
X22519610Y-16638984D01*
X22700563Y-16638984D02*
X22681515Y-16629460D01*
X22681515Y-16629460D02*
X22671991Y-16610412D01*
X22671991Y-16610412D02*
X22671991Y-16438984D01*
X22852944Y-16629460D02*
X22833896Y-16638984D01*
X22833896Y-16638984D02*
X22795801Y-16638984D01*
X22795801Y-16638984D02*
X22776753Y-16629460D01*
X22776753Y-16629460D02*
X22767230Y-16610412D01*
X22767230Y-16610412D02*
X22767230Y-16534222D01*
X22767230Y-16534222D02*
X22776753Y-16515174D01*
X22776753Y-16515174D02*
X22795801Y-16505650D01*
X22795801Y-16505650D02*
X22833896Y-16505650D01*
X22833896Y-16505650D02*
X22852944Y-16515174D01*
X22852944Y-16515174D02*
X22862468Y-16534222D01*
X22862468Y-16534222D02*
X22862468Y-16553269D01*
X22862468Y-16553269D02*
X22767230Y-16572317D01*
X22938658Y-16629460D02*
X22957706Y-16638984D01*
X22957706Y-16638984D02*
X22995801Y-16638984D01*
X22995801Y-16638984D02*
X23014849Y-16629460D01*
X23014849Y-16629460D02*
X23024372Y-16610412D01*
X23024372Y-16610412D02*
X23024372Y-16600888D01*
X23024372Y-16600888D02*
X23014849Y-16581841D01*
X23014849Y-16581841D02*
X22995801Y-16572317D01*
X22995801Y-16572317D02*
X22967230Y-16572317D01*
X22967230Y-16572317D02*
X22948182Y-16562793D01*
X22948182Y-16562793D02*
X22938658Y-16543746D01*
X22938658Y-16543746D02*
X22938658Y-16534222D01*
X22938658Y-16534222D02*
X22948182Y-16515174D01*
X22948182Y-16515174D02*
X22967230Y-16505650D01*
X22967230Y-16505650D02*
X22995801Y-16505650D01*
X22995801Y-16505650D02*
X23014849Y-16515174D01*
X23091039Y-16715174D02*
X23100563Y-16705650D01*
X23100563Y-16705650D02*
X23119611Y-16677079D01*
X23119611Y-16677079D02*
X23129134Y-16658031D01*
X23129134Y-16658031D02*
X23138658Y-16629460D01*
X23138658Y-16629460D02*
X23148182Y-16581841D01*
X23148182Y-16581841D02*
X23148182Y-16543746D01*
X23148182Y-16543746D02*
X23138658Y-16496127D01*
X23138658Y-16496127D02*
X23129134Y-16467555D01*
X23129134Y-16467555D02*
X23119611Y-16448508D01*
X23119611Y-16448508D02*
X23100563Y-16419936D01*
X23100563Y-16419936D02*
X23091039Y-16410412D01*
D12*
X18095500Y-16781500D02*
X18095500Y-16841500D01*
X18065500Y-16811500D02*
X18125500Y-16811500D01*
D11*
X18424372Y-16702984D02*
X18443420Y-16702984D01*
X18443420Y-16702984D02*
X18462467Y-16712508D01*
X18462467Y-16712508D02*
X18471991Y-16722031D01*
X18471991Y-16722031D02*
X18481515Y-16741079D01*
X18481515Y-16741079D02*
X18491039Y-16779174D01*
X18491039Y-16779174D02*
X18491039Y-16826793D01*
X18491039Y-16826793D02*
X18481515Y-16864889D01*
X18481515Y-16864889D02*
X18471991Y-16883936D01*
X18471991Y-16883936D02*
X18462467Y-16893460D01*
X18462467Y-16893460D02*
X18443420Y-16902984D01*
X18443420Y-16902984D02*
X18424372Y-16902984D01*
X18424372Y-16902984D02*
X18405324Y-16893460D01*
X18405324Y-16893460D02*
X18395801Y-16883936D01*
X18395801Y-16883936D02*
X18386277Y-16864889D01*
X18386277Y-16864889D02*
X18376753Y-16826793D01*
X18376753Y-16826793D02*
X18376753Y-16779174D01*
X18376753Y-16779174D02*
X18386277Y-16741079D01*
X18386277Y-16741079D02*
X18395801Y-16722031D01*
X18395801Y-16722031D02*
X18405324Y-16712508D01*
X18405324Y-16712508D02*
X18424372Y-16702984D01*
X18576753Y-16883936D02*
X18586277Y-16893460D01*
X18586277Y-16893460D02*
X18576753Y-16902984D01*
X18576753Y-16902984D02*
X18567229Y-16893460D01*
X18567229Y-16893460D02*
X18576753Y-16883936D01*
X18576753Y-16883936D02*
X18576753Y-16902984D01*
X18757705Y-16702984D02*
X18719610Y-16702984D01*
X18719610Y-16702984D02*
X18700563Y-16712508D01*
X18700563Y-16712508D02*
X18691039Y-16722031D01*
X18691039Y-16722031D02*
X18671991Y-16750603D01*
X18671991Y-16750603D02*
X18662467Y-16788698D01*
X18662467Y-16788698D02*
X18662467Y-16864889D01*
X18662467Y-16864889D02*
X18671991Y-16883936D01*
X18671991Y-16883936D02*
X18681515Y-16893460D01*
X18681515Y-16893460D02*
X18700563Y-16902984D01*
X18700563Y-16902984D02*
X18738658Y-16902984D01*
X18738658Y-16902984D02*
X18757705Y-16893460D01*
X18757705Y-16893460D02*
X18767229Y-16883936D01*
X18767229Y-16883936D02*
X18776753Y-16864889D01*
X18776753Y-16864889D02*
X18776753Y-16817270D01*
X18776753Y-16817270D02*
X18767229Y-16798222D01*
X18767229Y-16798222D02*
X18757705Y-16788698D01*
X18757705Y-16788698D02*
X18738658Y-16779174D01*
X18738658Y-16779174D02*
X18700563Y-16779174D01*
X18700563Y-16779174D02*
X18681515Y-16788698D01*
X18681515Y-16788698D02*
X18671991Y-16798222D01*
X18671991Y-16798222D02*
X18662467Y-16817270D01*
X18900563Y-16702984D02*
X18919610Y-16702984D01*
X18919610Y-16702984D02*
X18938658Y-16712508D01*
X18938658Y-16712508D02*
X18948182Y-16722031D01*
X18948182Y-16722031D02*
X18957705Y-16741079D01*
X18957705Y-16741079D02*
X18967229Y-16779174D01*
X18967229Y-16779174D02*
X18967229Y-16826793D01*
X18967229Y-16826793D02*
X18957705Y-16864889D01*
X18957705Y-16864889D02*
X18948182Y-16883936D01*
X18948182Y-16883936D02*
X18938658Y-16893460D01*
X18938658Y-16893460D02*
X18919610Y-16902984D01*
X18919610Y-16902984D02*
X18900563Y-16902984D01*
X18900563Y-16902984D02*
X18881515Y-16893460D01*
X18881515Y-16893460D02*
X18871991Y-16883936D01*
X18871991Y-16883936D02*
X18862467Y-16864889D01*
X18862467Y-16864889D02*
X18852944Y-16826793D01*
X18852944Y-16826793D02*
X18852944Y-16779174D01*
X18852944Y-16779174D02*
X18862467Y-16741079D01*
X18862467Y-16741079D02*
X18871991Y-16722031D01*
X18871991Y-16722031D02*
X18881515Y-16712508D01*
X18881515Y-16712508D02*
X18900563Y-16702984D01*
X19091039Y-16702984D02*
X19110086Y-16702984D01*
X19110086Y-16702984D02*
X19129134Y-16712508D01*
X19129134Y-16712508D02*
X19138658Y-16722031D01*
X19138658Y-16722031D02*
X19148182Y-16741079D01*
X19148182Y-16741079D02*
X19157705Y-16779174D01*
X19157705Y-16779174D02*
X19157705Y-16826793D01*
X19157705Y-16826793D02*
X19148182Y-16864889D01*
X19148182Y-16864889D02*
X19138658Y-16883936D01*
X19138658Y-16883936D02*
X19129134Y-16893460D01*
X19129134Y-16893460D02*
X19110086Y-16902984D01*
X19110086Y-16902984D02*
X19091039Y-16902984D01*
X19091039Y-16902984D02*
X19071991Y-16893460D01*
X19071991Y-16893460D02*
X19062467Y-16883936D01*
X19062467Y-16883936D02*
X19052944Y-16864889D01*
X19052944Y-16864889D02*
X19043420Y-16826793D01*
X19043420Y-16826793D02*
X19043420Y-16779174D01*
X19043420Y-16779174D02*
X19052944Y-16741079D01*
X19052944Y-16741079D02*
X19062467Y-16722031D01*
X19062467Y-16722031D02*
X19071991Y-16712508D01*
X19071991Y-16712508D02*
X19091039Y-16702984D01*
X19243420Y-16902984D02*
X19243420Y-16769650D01*
X19243420Y-16788698D02*
X19252944Y-16779174D01*
X19252944Y-16779174D02*
X19271991Y-16769650D01*
X19271991Y-16769650D02*
X19300563Y-16769650D01*
X19300563Y-16769650D02*
X19319610Y-16779174D01*
X19319610Y-16779174D02*
X19329134Y-16798222D01*
X19329134Y-16798222D02*
X19329134Y-16902984D01*
X19329134Y-16798222D02*
X19338658Y-16779174D01*
X19338658Y-16779174D02*
X19357705Y-16769650D01*
X19357705Y-16769650D02*
X19386277Y-16769650D01*
X19386277Y-16769650D02*
X19405325Y-16779174D01*
X19405325Y-16779174D02*
X19414848Y-16798222D01*
X19414848Y-16798222D02*
X19414848Y-16902984D01*
X19510086Y-16902984D02*
X19510086Y-16769650D01*
X19510086Y-16788698D02*
X19519610Y-16779174D01*
X19519610Y-16779174D02*
X19538658Y-16769650D01*
X19538658Y-16769650D02*
X19567229Y-16769650D01*
X19567229Y-16769650D02*
X19586277Y-16779174D01*
X19586277Y-16779174D02*
X19595801Y-16798222D01*
X19595801Y-16798222D02*
X19595801Y-16902984D01*
X19595801Y-16798222D02*
X19605325Y-16779174D01*
X19605325Y-16779174D02*
X19624372Y-16769650D01*
X19624372Y-16769650D02*
X19652944Y-16769650D01*
X19652944Y-16769650D02*
X19671991Y-16779174D01*
X19671991Y-16779174D02*
X19681515Y-16798222D01*
X19681515Y-16798222D02*
X19681515Y-16902984D01*
X20071991Y-16693460D02*
X19900563Y-16950603D01*
X20329134Y-16702984D02*
X20348182Y-16702984D01*
X20348182Y-16702984D02*
X20367229Y-16712508D01*
X20367229Y-16712508D02*
X20376753Y-16722031D01*
X20376753Y-16722031D02*
X20386277Y-16741079D01*
X20386277Y-16741079D02*
X20395801Y-16779174D01*
X20395801Y-16779174D02*
X20395801Y-16826793D01*
X20395801Y-16826793D02*
X20386277Y-16864889D01*
X20386277Y-16864889D02*
X20376753Y-16883936D01*
X20376753Y-16883936D02*
X20367229Y-16893460D01*
X20367229Y-16893460D02*
X20348182Y-16902984D01*
X20348182Y-16902984D02*
X20329134Y-16902984D01*
X20329134Y-16902984D02*
X20310087Y-16893460D01*
X20310087Y-16893460D02*
X20300563Y-16883936D01*
X20300563Y-16883936D02*
X20291039Y-16864889D01*
X20291039Y-16864889D02*
X20281515Y-16826793D01*
X20281515Y-16826793D02*
X20281515Y-16779174D01*
X20281515Y-16779174D02*
X20291039Y-16741079D01*
X20291039Y-16741079D02*
X20300563Y-16722031D01*
X20300563Y-16722031D02*
X20310087Y-16712508D01*
X20310087Y-16712508D02*
X20329134Y-16702984D01*
X20481515Y-16883936D02*
X20491039Y-16893460D01*
X20491039Y-16893460D02*
X20481515Y-16902984D01*
X20481515Y-16902984D02*
X20471991Y-16893460D01*
X20471991Y-16893460D02*
X20481515Y-16883936D01*
X20481515Y-16883936D02*
X20481515Y-16902984D01*
X20614848Y-16702984D02*
X20633896Y-16702984D01*
X20633896Y-16702984D02*
X20652944Y-16712508D01*
X20652944Y-16712508D02*
X20662468Y-16722031D01*
X20662468Y-16722031D02*
X20671991Y-16741079D01*
X20671991Y-16741079D02*
X20681515Y-16779174D01*
X20681515Y-16779174D02*
X20681515Y-16826793D01*
X20681515Y-16826793D02*
X20671991Y-16864889D01*
X20671991Y-16864889D02*
X20662468Y-16883936D01*
X20662468Y-16883936D02*
X20652944Y-16893460D01*
X20652944Y-16893460D02*
X20633896Y-16902984D01*
X20633896Y-16902984D02*
X20614848Y-16902984D01*
X20614848Y-16902984D02*
X20595801Y-16893460D01*
X20595801Y-16893460D02*
X20586277Y-16883936D01*
X20586277Y-16883936D02*
X20576753Y-16864889D01*
X20576753Y-16864889D02*
X20567229Y-16826793D01*
X20567229Y-16826793D02*
X20567229Y-16779174D01*
X20567229Y-16779174D02*
X20576753Y-16741079D01*
X20576753Y-16741079D02*
X20586277Y-16722031D01*
X20586277Y-16722031D02*
X20595801Y-16712508D01*
X20595801Y-16712508D02*
X20614848Y-16702984D01*
X20757706Y-16722031D02*
X20767229Y-16712508D01*
X20767229Y-16712508D02*
X20786277Y-16702984D01*
X20786277Y-16702984D02*
X20833896Y-16702984D01*
X20833896Y-16702984D02*
X20852944Y-16712508D01*
X20852944Y-16712508D02*
X20862468Y-16722031D01*
X20862468Y-16722031D02*
X20871991Y-16741079D01*
X20871991Y-16741079D02*
X20871991Y-16760127D01*
X20871991Y-16760127D02*
X20862468Y-16788698D01*
X20862468Y-16788698D02*
X20748182Y-16902984D01*
X20748182Y-16902984D02*
X20871991Y-16902984D01*
X20938658Y-16702984D02*
X21062468Y-16702984D01*
X21062468Y-16702984D02*
X20995801Y-16779174D01*
X20995801Y-16779174D02*
X21024372Y-16779174D01*
X21024372Y-16779174D02*
X21043420Y-16788698D01*
X21043420Y-16788698D02*
X21052944Y-16798222D01*
X21052944Y-16798222D02*
X21062468Y-16817270D01*
X21062468Y-16817270D02*
X21062468Y-16864889D01*
X21062468Y-16864889D02*
X21052944Y-16883936D01*
X21052944Y-16883936D02*
X21043420Y-16893460D01*
X21043420Y-16893460D02*
X21024372Y-16902984D01*
X21024372Y-16902984D02*
X20967229Y-16902984D01*
X20967229Y-16902984D02*
X20948182Y-16893460D01*
X20948182Y-16893460D02*
X20938658Y-16883936D01*
X21233896Y-16702984D02*
X21195801Y-16702984D01*
X21195801Y-16702984D02*
X21176753Y-16712508D01*
X21176753Y-16712508D02*
X21167229Y-16722031D01*
X21167229Y-16722031D02*
X21148182Y-16750603D01*
X21148182Y-16750603D02*
X21138658Y-16788698D01*
X21138658Y-16788698D02*
X21138658Y-16864889D01*
X21138658Y-16864889D02*
X21148182Y-16883936D01*
X21148182Y-16883936D02*
X21157706Y-16893460D01*
X21157706Y-16893460D02*
X21176753Y-16902984D01*
X21176753Y-16902984D02*
X21214849Y-16902984D01*
X21214849Y-16902984D02*
X21233896Y-16893460D01*
X21233896Y-16893460D02*
X21243420Y-16883936D01*
X21243420Y-16883936D02*
X21252944Y-16864889D01*
X21252944Y-16864889D02*
X21252944Y-16817270D01*
X21252944Y-16817270D02*
X21243420Y-16798222D01*
X21243420Y-16798222D02*
X21233896Y-16788698D01*
X21233896Y-16788698D02*
X21214849Y-16779174D01*
X21214849Y-16779174D02*
X21176753Y-16779174D01*
X21176753Y-16779174D02*
X21157706Y-16788698D01*
X21157706Y-16788698D02*
X21148182Y-16798222D01*
X21148182Y-16798222D02*
X21138658Y-16817270D01*
X21329134Y-16702984D02*
X21329134Y-16741079D01*
X21405325Y-16702984D02*
X21405325Y-16741079D01*
X21700563Y-16979174D02*
X21691039Y-16969650D01*
X21691039Y-16969650D02*
X21671991Y-16941079D01*
X21671991Y-16941079D02*
X21662468Y-16922031D01*
X21662468Y-16922031D02*
X21652944Y-16893460D01*
X21652944Y-16893460D02*
X21643420Y-16845841D01*
X21643420Y-16845841D02*
X21643420Y-16807746D01*
X21643420Y-16807746D02*
X21652944Y-16760127D01*
X21652944Y-16760127D02*
X21662468Y-16731555D01*
X21662468Y-16731555D02*
X21671991Y-16712508D01*
X21671991Y-16712508D02*
X21691039Y-16683936D01*
X21691039Y-16683936D02*
X21700563Y-16674412D01*
X21814849Y-16702984D02*
X21833896Y-16702984D01*
X21833896Y-16702984D02*
X21852944Y-16712508D01*
X21852944Y-16712508D02*
X21862468Y-16722031D01*
X21862468Y-16722031D02*
X21871991Y-16741079D01*
X21871991Y-16741079D02*
X21881515Y-16779174D01*
X21881515Y-16779174D02*
X21881515Y-16826793D01*
X21881515Y-16826793D02*
X21871991Y-16864889D01*
X21871991Y-16864889D02*
X21862468Y-16883936D01*
X21862468Y-16883936D02*
X21852944Y-16893460D01*
X21852944Y-16893460D02*
X21833896Y-16902984D01*
X21833896Y-16902984D02*
X21814849Y-16902984D01*
X21814849Y-16902984D02*
X21795801Y-16893460D01*
X21795801Y-16893460D02*
X21786277Y-16883936D01*
X21786277Y-16883936D02*
X21776753Y-16864889D01*
X21776753Y-16864889D02*
X21767230Y-16826793D01*
X21767230Y-16826793D02*
X21767230Y-16779174D01*
X21767230Y-16779174D02*
X21776753Y-16741079D01*
X21776753Y-16741079D02*
X21786277Y-16722031D01*
X21786277Y-16722031D02*
X21795801Y-16712508D01*
X21795801Y-16712508D02*
X21814849Y-16702984D01*
X22119611Y-16902984D02*
X22119611Y-16702984D01*
X22205325Y-16902984D02*
X22205325Y-16798222D01*
X22205325Y-16798222D02*
X22195801Y-16779174D01*
X22195801Y-16779174D02*
X22176753Y-16769650D01*
X22176753Y-16769650D02*
X22148182Y-16769650D01*
X22148182Y-16769650D02*
X22129134Y-16779174D01*
X22129134Y-16779174D02*
X22119611Y-16788698D01*
X22329134Y-16902984D02*
X22310087Y-16893460D01*
X22310087Y-16893460D02*
X22300563Y-16883936D01*
X22300563Y-16883936D02*
X22291039Y-16864889D01*
X22291039Y-16864889D02*
X22291039Y-16807746D01*
X22291039Y-16807746D02*
X22300563Y-16788698D01*
X22300563Y-16788698D02*
X22310087Y-16779174D01*
X22310087Y-16779174D02*
X22329134Y-16769650D01*
X22329134Y-16769650D02*
X22357706Y-16769650D01*
X22357706Y-16769650D02*
X22376753Y-16779174D01*
X22376753Y-16779174D02*
X22386277Y-16788698D01*
X22386277Y-16788698D02*
X22395801Y-16807746D01*
X22395801Y-16807746D02*
X22395801Y-16864889D01*
X22395801Y-16864889D02*
X22386277Y-16883936D01*
X22386277Y-16883936D02*
X22376753Y-16893460D01*
X22376753Y-16893460D02*
X22357706Y-16902984D01*
X22357706Y-16902984D02*
X22329134Y-16902984D01*
X22510087Y-16902984D02*
X22491039Y-16893460D01*
X22491039Y-16893460D02*
X22481515Y-16874412D01*
X22481515Y-16874412D02*
X22481515Y-16702984D01*
X22662468Y-16893460D02*
X22643420Y-16902984D01*
X22643420Y-16902984D02*
X22605325Y-16902984D01*
X22605325Y-16902984D02*
X22586277Y-16893460D01*
X22586277Y-16893460D02*
X22576753Y-16874412D01*
X22576753Y-16874412D02*
X22576753Y-16798222D01*
X22576753Y-16798222D02*
X22586277Y-16779174D01*
X22586277Y-16779174D02*
X22605325Y-16769650D01*
X22605325Y-16769650D02*
X22643420Y-16769650D01*
X22643420Y-16769650D02*
X22662468Y-16779174D01*
X22662468Y-16779174D02*
X22671991Y-16798222D01*
X22671991Y-16798222D02*
X22671991Y-16817270D01*
X22671991Y-16817270D02*
X22576753Y-16836317D01*
X22748182Y-16893460D02*
X22767230Y-16902984D01*
X22767230Y-16902984D02*
X22805325Y-16902984D01*
X22805325Y-16902984D02*
X22824372Y-16893460D01*
X22824372Y-16893460D02*
X22833896Y-16874412D01*
X22833896Y-16874412D02*
X22833896Y-16864889D01*
X22833896Y-16864889D02*
X22824372Y-16845841D01*
X22824372Y-16845841D02*
X22805325Y-16836317D01*
X22805325Y-16836317D02*
X22776753Y-16836317D01*
X22776753Y-16836317D02*
X22757706Y-16826793D01*
X22757706Y-16826793D02*
X22748182Y-16807746D01*
X22748182Y-16807746D02*
X22748182Y-16798222D01*
X22748182Y-16798222D02*
X22757706Y-16779174D01*
X22757706Y-16779174D02*
X22776753Y-16769650D01*
X22776753Y-16769650D02*
X22805325Y-16769650D01*
X22805325Y-16769650D02*
X22824372Y-16779174D01*
X23071992Y-16826793D02*
X23224373Y-16826793D01*
X23148182Y-16902984D02*
X23148182Y-16750603D01*
X23557706Y-16769650D02*
X23557706Y-16902984D01*
X23510087Y-16693460D02*
X23462468Y-16836317D01*
X23462468Y-16836317D02*
X23586277Y-16836317D01*
X23805325Y-16893460D02*
X23824373Y-16902984D01*
X23824373Y-16902984D02*
X23862468Y-16902984D01*
X23862468Y-16902984D02*
X23881515Y-16893460D01*
X23881515Y-16893460D02*
X23891039Y-16874412D01*
X23891039Y-16874412D02*
X23891039Y-16864889D01*
X23891039Y-16864889D02*
X23881515Y-16845841D01*
X23881515Y-16845841D02*
X23862468Y-16836317D01*
X23862468Y-16836317D02*
X23833896Y-16836317D01*
X23833896Y-16836317D02*
X23814849Y-16826793D01*
X23814849Y-16826793D02*
X23805325Y-16807746D01*
X23805325Y-16807746D02*
X23805325Y-16798222D01*
X23805325Y-16798222D02*
X23814849Y-16779174D01*
X23814849Y-16779174D02*
X23833896Y-16769650D01*
X23833896Y-16769650D02*
X23862468Y-16769650D01*
X23862468Y-16769650D02*
X23881515Y-16779174D01*
X24005325Y-16902984D02*
X23986277Y-16893460D01*
X23986277Y-16893460D02*
X23976754Y-16874412D01*
X23976754Y-16874412D02*
X23976754Y-16702984D01*
X24110087Y-16902984D02*
X24091039Y-16893460D01*
X24091039Y-16893460D02*
X24081515Y-16883936D01*
X24081515Y-16883936D02*
X24071992Y-16864889D01*
X24071992Y-16864889D02*
X24071992Y-16807746D01*
X24071992Y-16807746D02*
X24081515Y-16788698D01*
X24081515Y-16788698D02*
X24091039Y-16779174D01*
X24091039Y-16779174D02*
X24110087Y-16769650D01*
X24110087Y-16769650D02*
X24138658Y-16769650D01*
X24138658Y-16769650D02*
X24157706Y-16779174D01*
X24157706Y-16779174D02*
X24167230Y-16788698D01*
X24167230Y-16788698D02*
X24176754Y-16807746D01*
X24176754Y-16807746D02*
X24176754Y-16864889D01*
X24176754Y-16864889D02*
X24167230Y-16883936D01*
X24167230Y-16883936D02*
X24157706Y-16893460D01*
X24157706Y-16893460D02*
X24138658Y-16902984D01*
X24138658Y-16902984D02*
X24110087Y-16902984D01*
X24233896Y-16769650D02*
X24310087Y-16769650D01*
X24262468Y-16702984D02*
X24262468Y-16874412D01*
X24262468Y-16874412D02*
X24271992Y-16893460D01*
X24271992Y-16893460D02*
X24291039Y-16902984D01*
X24291039Y-16902984D02*
X24310087Y-16902984D01*
X24367230Y-16893460D02*
X24386277Y-16902984D01*
X24386277Y-16902984D02*
X24424373Y-16902984D01*
X24424373Y-16902984D02*
X24443420Y-16893460D01*
X24443420Y-16893460D02*
X24452944Y-16874412D01*
X24452944Y-16874412D02*
X24452944Y-16864889D01*
X24452944Y-16864889D02*
X24443420Y-16845841D01*
X24443420Y-16845841D02*
X24424373Y-16836317D01*
X24424373Y-16836317D02*
X24395801Y-16836317D01*
X24395801Y-16836317D02*
X24376754Y-16826793D01*
X24376754Y-16826793D02*
X24367230Y-16807746D01*
X24367230Y-16807746D02*
X24367230Y-16798222D01*
X24367230Y-16798222D02*
X24376754Y-16779174D01*
X24376754Y-16779174D02*
X24395801Y-16769650D01*
X24395801Y-16769650D02*
X24424373Y-16769650D01*
X24424373Y-16769650D02*
X24443420Y-16779174D01*
X24519611Y-16979174D02*
X24529135Y-16969650D01*
X24529135Y-16969650D02*
X24548182Y-16941079D01*
X24548182Y-16941079D02*
X24557706Y-16922031D01*
X24557706Y-16922031D02*
X24567230Y-16893460D01*
X24567230Y-16893460D02*
X24576754Y-16845841D01*
X24576754Y-16845841D02*
X24576754Y-16807746D01*
X24576754Y-16807746D02*
X24567230Y-16760127D01*
X24567230Y-16760127D02*
X24557706Y-16731555D01*
X24557706Y-16731555D02*
X24548182Y-16712508D01*
X24548182Y-16712508D02*
X24529135Y-16683936D01*
X24529135Y-16683936D02*
X24519611Y-16674412D01*
M02*
