%TF.GenerationSoftware,KiCad,Pcbnew,9.0.6*%
%TF.CreationDate,2025-12-28T18:42:45+01:00*%
%TF.ProjectId,scheme,73636865-6d65-42e6-9b69-6361645f7063,rev?*%
%TF.SameCoordinates,Original*%
%TF.FileFunction,Copper,L2,Bot*%
%TF.FilePolarity,Positive*%
%FSLAX46Y46*%
G04 Gerber Fmt 4.6, Leading zero omitted, Abs format (unit mm)*
G04 Created by KiCad (PCBNEW 9.0.6) date 2025-12-28 18:42:45*
%MOMM*%
%LPD*%
G01*
G04 APERTURE LIST*
%TA.AperFunction,ComponentPad*%
%ADD10R,0.850000X0.850000*%
%TD*%
%TA.AperFunction,ComponentPad*%
%ADD11C,0.850000*%
%TD*%
%TA.AperFunction,HeatsinkPad*%
%ADD12O,1.000000X2.100000*%
%TD*%
%TA.AperFunction,HeatsinkPad*%
%ADD13O,1.000000X1.600000*%
%TD*%
%TA.AperFunction,ViaPad*%
%ADD14C,0.600000*%
%TD*%
%TA.AperFunction,Conductor*%
%ADD15C,0.250000*%
%TD*%
G04 APERTURE END LIST*
D10*
%TO.P,J1,1,Pin_1*%
%TO.N,Net-(IC3-IO16)*%
X198800000Y-129800000D03*
D11*
%TO.P,J1,2,Pin_2*%
%TO.N,Net-(IC3-IO17)*%
X199800000Y-129800000D03*
%TO.P,J1,3,Pin_3*%
%TO.N,Net-(IC3-IO18)*%
X200800000Y-129800000D03*
%TD*%
D10*
%TO.P,J2,1,Pin_1*%
%TO.N,Net-(IC3-IO12)*%
X209100000Y-118800000D03*
D11*
%TO.P,J2,2,Pin_2*%
%TO.N,Net-(IC3-IO13)*%
X209100000Y-117800000D03*
%TO.P,J2,3,Pin_3*%
%TO.N,Net-(IC3-IO14)*%
X209100000Y-116800000D03*
%TD*%
D10*
%TO.P,J3,1,Pin_1*%
%TO.N,Net-(IC3-IO21)*%
X209100000Y-114700000D03*
D11*
%TO.P,J3,2,Pin_2*%
%TO.N,Net-(IC3-IO47)*%
X209100000Y-113700000D03*
%TO.P,J3,3,Pin_3*%
%TO.N,Net-(IC3-IO48)*%
X209100000Y-112700000D03*
%TD*%
D10*
%TO.P,J11,1,Pin_1*%
%TO.N,Net-(IC3-TXD0)*%
X193260000Y-106500000D03*
D11*
%TO.P,J11,2,Pin_2*%
%TO.N,Net-(IC3-IO2)*%
X192260000Y-106500000D03*
%TO.P,J11,3,Pin_3*%
%TO.N,Net-(IC3-IO1)*%
X191260000Y-106500000D03*
%TD*%
D10*
%TO.P,J10,1,Pin_1*%
%TO.N,Net-(IC3-IO41)*%
X196260000Y-106500000D03*
D11*
%TO.P,J10,2,Pin_2*%
%TO.N,Net-(IC3-IO42)*%
X195260000Y-106500000D03*
%TO.P,J10,3,Pin_3*%
%TO.N,Net-(IC3-RXD0)*%
X194260000Y-106500000D03*
%TD*%
%TO.P,J6,3,Pin_3*%
%TO.N,Net-(IC3-IO40)*%
X197260000Y-106500000D03*
%TO.P,J6,2,Pin_2*%
%TO.N,Net-(IC3-IO39)*%
X198260000Y-106500000D03*
D10*
%TO.P,J6,1,Pin_1*%
%TO.N,Net-(IC3-IO38)*%
X199260000Y-106500000D03*
%TD*%
D11*
%TO.P,J4,3,Pin_3*%
%TO.N,Net-(IC3-IO37)*%
X200260000Y-106500000D03*
%TO.P,J4,2,Pin_2*%
%TO.N,Net-(IC3-IO36)*%
X201260000Y-106500000D03*
D10*
%TO.P,J4,1,Pin_1*%
%TO.N,Net-(IC3-IO35)*%
X202260000Y-106500000D03*
%TD*%
%TO.P,J8,1,Pin_1*%
%TO.N,Net-(J8-Pin_1)*%
X236275000Y-129200000D03*
D11*
%TO.P,J8,2,Pin_2*%
%TO.N,Net-(J8-Pin_2)*%
X236275000Y-130200000D03*
%TO.P,J8,3,Pin_3*%
%TO.N,Net-(J8-Pin_3)*%
X236275000Y-131200000D03*
%TD*%
D10*
%TO.P,J9,1,Pin_1*%
%TO.N,Net-(J9-Pin_1)*%
X236275000Y-132200000D03*
D11*
%TO.P,J9,2,Pin_2*%
%TO.N,Net-(J9-Pin_2)*%
X236275000Y-133200000D03*
%TO.P,J9,3,Pin_3*%
%TO.N,VREF_BUF*%
X236275000Y-134200000D03*
%TD*%
D10*
%TO.P,J7,1,Pin_1*%
%TO.N,Net-(J7-Pin_1)*%
X236225000Y-126200000D03*
D11*
%TO.P,J7,2,Pin_2*%
%TO.N,Net-(J7-Pin_2)*%
X236225000Y-127200000D03*
%TO.P,J7,3,Pin_3*%
%TO.N,Net-(J7-Pin_3)*%
X236225000Y-128200000D03*
%TD*%
D12*
%TO.P,J5,S1,SHIELD*%
%TO.N,Net-(J5-SHIELD)*%
X183080000Y-150155000D03*
D13*
X183080000Y-154335000D03*
D12*
X191720000Y-150155000D03*
D13*
X191720000Y-154335000D03*
%TD*%
D14*
%TO.N,3v3_A*%
X218300000Y-130225000D03*
%TO.N,AGND*%
X221900000Y-120450000D03*
X221900000Y-127600000D03*
%TO.N,VREF_BUF*%
X228550000Y-123300000D03*
X222700000Y-129700000D03*
X228450000Y-111375000D03*
%TO.N,AGND*%
X221700000Y-115775000D03*
X221500000Y-108525000D03*
%TO.N,Net-(IC10-Y0)*%
X219550000Y-111675000D03*
%TO.N,Net-(IC10-Y3)*%
X218650000Y-111675000D03*
%TO.N,3v3_A*%
X218300000Y-118100000D03*
%TO.N,VREF_BUF*%
X222554442Y-117829442D03*
X232850000Y-110425000D03*
X228500000Y-147100000D03*
X222450000Y-153650000D03*
X212325000Y-150550000D03*
X228375000Y-135325000D03*
X232100000Y-135100000D03*
X232850000Y-122350000D03*
X232950000Y-146050000D03*
X222600000Y-141950000D03*
%TO.N,Net-(IC1-~{CS})*%
X197300000Y-129400000D03*
X198500000Y-142900000D03*
%TO.N,Net-(IC1-~{SYNC}{slash}~{RESET})*%
X202360000Y-129400000D03*
X198621646Y-142109300D03*
%TO.N,Net-(IC1-SCLK)*%
X198500000Y-144200000D03*
X194700000Y-129400000D03*
%TO.N,DGND*%
X193900000Y-146600000D03*
X196100000Y-148075000D03*
%TO.N,AGND*%
X221350000Y-139900000D03*
X221750000Y-144150000D03*
X215170000Y-152535000D03*
X221450000Y-151750000D03*
X221700000Y-132250000D03*
X211800000Y-154100000D03*
%TO.N,3v3_A*%
X207200000Y-148700000D03*
X216800000Y-151775000D03*
X217370491Y-142140982D03*
%TO.N,Net-(IC1-~{DRDY})*%
X196000000Y-129400000D03*
X197900000Y-143525000D03*
%TO.N,Net-(IC1-DIN)*%
X198503007Y-145485768D03*
X192200000Y-129400000D03*
%TO.N,Net-(IC1-DOUT)*%
X193500000Y-129400000D03*
X197900000Y-144825000D03*
%TO.N,Net-(IC10-Y1)*%
X216230000Y-123100000D03*
X198200000Y-138100000D03*
%TO.N,Net-(IC10-Y2)*%
X216257570Y-123899528D03*
X198200000Y-139400000D03*
%TO.N,Net-(IC3-IO19)*%
X203600000Y-123900000D03*
X187400000Y-141100000D03*
%TO.N,Net-(IC10-S0)*%
X208200000Y-125100000D03*
X197900000Y-134300000D03*
%TO.N,Net-(IC3-EN)*%
X190900000Y-129400000D03*
X193000000Y-142600000D03*
%TO.N,Net-(IC10-S1)*%
X207500000Y-122595000D03*
X197900000Y-133000000D03*
%TO.N,Net-(IC10-S2)*%
X197900000Y-131800000D03*
X207500000Y-121400000D03*
%TO.N,Net-(IC3-IO0)*%
X185100000Y-129300000D03*
X204900000Y-107100000D03*
%TO.N,Net-(IC3-IO20)*%
X189400000Y-141100000D03*
X204899998Y-124700000D03*
%TO.N,Net-(IC10-Y0)*%
X198200000Y-136900000D03*
%TO.N,Net-(IC10-Y3)*%
X198200000Y-135600000D03*
%TO.N,Net-(IC10-Y4)*%
X203320000Y-140700000D03*
X216725000Y-135900000D03*
%TO.N,Net-(IC10-Y6)*%
X203300000Y-139400000D03*
X216800000Y-135100000D03*
%TO.N,Net-(IC10-Y7)*%
X215440000Y-150130000D03*
X204300000Y-136800000D03*
%TO.N,Net-(IC10-Y5)*%
X204300000Y-135600000D03*
X216075000Y-151120000D03*
%TD*%
D15*
%TO.N,3v3_A*%
X218350000Y-118575000D02*
X218350000Y-130175000D01*
X218300000Y-118525000D02*
X218350000Y-118575000D01*
X218300000Y-118100000D02*
X218300000Y-118525000D01*
X218350000Y-130175000D02*
X218300000Y-130225000D01*
%TO.N,AGND*%
X221050000Y-128450000D02*
X221900000Y-127600000D01*
X221900000Y-127600000D02*
X221900000Y-120450000D01*
%TO.N,3v3_A*%
X218000000Y-130525000D02*
X218300000Y-130225000D01*
%TO.N,VREF_BUF*%
X223600000Y-128800000D02*
X228550000Y-128800000D01*
X228550000Y-128800000D02*
X228550000Y-123300000D01*
X222700000Y-129700000D02*
X223600000Y-128800000D01*
X228550000Y-123300000D02*
X231900000Y-123300000D01*
X231900000Y-123300000D02*
X232850000Y-122350000D01*
X228550000Y-123300000D02*
X227600000Y-123300000D01*
%TO.N,AGND*%
X221900000Y-120450000D02*
X221125000Y-119675000D01*
%TO.N,Net-(IC10-Y3)*%
X218525000Y-111800000D02*
X218400000Y-111800000D01*
X218650000Y-111675000D02*
X218525000Y-111800000D01*
%TO.N,Net-(IC10-Y0)*%
X219550000Y-111850000D02*
X219550000Y-111675000D01*
X211100000Y-120300000D02*
X219550000Y-111850000D01*
X211100000Y-126500000D02*
X211100000Y-120300000D01*
X200700000Y-136900000D02*
X211100000Y-126500000D01*
X198200000Y-136900000D02*
X200700000Y-136900000D01*
%TO.N,AGND*%
X221125000Y-116350000D02*
X221700000Y-115775000D01*
X221125000Y-116575000D02*
X221125000Y-116350000D01*
%TO.N,VREF_BUF*%
X222554442Y-118254442D02*
X222554442Y-117829442D01*
X227600000Y-123300000D02*
X222554442Y-118254442D01*
%TO.N,AGND*%
X221500000Y-115575000D02*
X221500000Y-108525000D01*
X221700000Y-115775000D02*
X221500000Y-115575000D01*
%TO.N,VREF_BUF*%
X231900000Y-111375000D02*
X232850000Y-110425000D01*
X228450000Y-111375000D02*
X231900000Y-111375000D01*
X228450000Y-116975000D02*
X228450000Y-111375000D01*
X222900000Y-116975000D02*
X228450000Y-116975000D01*
%TO.N,Net-(IC10-Y0)*%
X219550000Y-111775000D02*
X219550000Y-111675000D01*
%TO.N,VREF_BUF*%
X222554442Y-117829442D02*
X222554442Y-117320558D01*
X222554442Y-117320558D02*
X222900000Y-116975000D01*
%TO.N,Net-(IC10-Y3)*%
X201362190Y-135600000D02*
X198200000Y-135600000D01*
X210500000Y-126462190D02*
X201362190Y-135600000D01*
X210500000Y-119700000D02*
X210500000Y-126462190D01*
X218400000Y-111800000D02*
X210500000Y-119700000D01*
%TO.N,AGND*%
X221125000Y-119675000D02*
X221125000Y-116575000D01*
%TO.N,Net-(IC3-EN)*%
X194100000Y-132600000D02*
X190900000Y-129400000D01*
X194100000Y-142500000D02*
X194100000Y-132600000D01*
X193000000Y-142600000D02*
X194000000Y-142600000D01*
X194000000Y-142600000D02*
X194100000Y-142500000D01*
%TO.N,VREF_BUF*%
X227450000Y-147100000D02*
X228500000Y-147100000D01*
X222450000Y-153650000D02*
X223800000Y-152300000D01*
X212325000Y-150550000D02*
X212325000Y-153650000D01*
X232100000Y-134300000D02*
X232000000Y-134200000D01*
X229500000Y-134200000D02*
X228375000Y-135325000D01*
X223800000Y-152300000D02*
X228500000Y-152300000D01*
X232100000Y-135100000D02*
X232100000Y-134300000D01*
X222600000Y-142250000D02*
X227450000Y-147100000D01*
X232200000Y-134200000D02*
X236275000Y-134200000D01*
X212325000Y-153650000D02*
X222450000Y-153650000D01*
X228375000Y-135325000D02*
X228325000Y-135325000D01*
X228375000Y-140800000D02*
X228375000Y-135325000D01*
X228325000Y-135325000D02*
X222700000Y-129700000D01*
X223750000Y-140800000D02*
X228375000Y-140800000D01*
X228500000Y-152300000D02*
X228500000Y-147100000D01*
X222600000Y-141950000D02*
X223750000Y-140800000D01*
X222600000Y-141950000D02*
X222600000Y-142250000D01*
X231900000Y-147100000D02*
X232950000Y-146050000D01*
X232000000Y-134200000D02*
X229500000Y-134200000D01*
X228500000Y-147100000D02*
X231900000Y-147100000D01*
X232100000Y-134300000D02*
X232200000Y-134200000D01*
%TO.N,Net-(IC1-~{CS})*%
X196700000Y-130000000D02*
X197300000Y-129400000D01*
X197600000Y-142900000D02*
X196700000Y-142000000D01*
X196700000Y-142000000D02*
X196700000Y-130000000D01*
X198500000Y-142900000D02*
X197600000Y-142900000D01*
%TO.N,Net-(IC1-~{SYNC}{slash}~{RESET})*%
X197509300Y-142109300D02*
X198621646Y-142109300D01*
X202300000Y-130900000D02*
X197200000Y-130900000D01*
X202360000Y-129400000D02*
X202300000Y-129460000D01*
X197200000Y-130900000D02*
X197200000Y-141800000D01*
X202300000Y-129460000D02*
X202300000Y-130900000D01*
X197200000Y-141800000D02*
X197509300Y-142109300D01*
%TO.N,Net-(IC1-SCLK)*%
X195749000Y-130449000D02*
X194700000Y-129400000D01*
X198500000Y-144200000D02*
X197624380Y-144200000D01*
X197624380Y-144200000D02*
X195749000Y-142324620D01*
X195749000Y-142324620D02*
X195749000Y-130449000D01*
%TO.N,DGND*%
X194625000Y-146600000D02*
X196100000Y-148075000D01*
X193900000Y-146600000D02*
X194625000Y-146600000D01*
%TO.N,AGND*%
X221700000Y-132250000D02*
X221050000Y-131600000D01*
X221350000Y-139300000D02*
X221350000Y-133700000D01*
X215305000Y-152400000D02*
X220800000Y-152400000D01*
X221450000Y-144450000D02*
X221750000Y-144150000D01*
X221700000Y-133350000D02*
X221700000Y-132250000D01*
X221350000Y-139900000D02*
X221350000Y-139300000D01*
X221100000Y-139550000D02*
X221350000Y-139300000D01*
X221350000Y-133700000D02*
X221700000Y-133350000D01*
X215170000Y-152535000D02*
X215305000Y-152400000D01*
X221450000Y-151750000D02*
X221450000Y-144450000D01*
X220650000Y-143050000D02*
X220650000Y-140600000D01*
X221750000Y-144150000D02*
X220650000Y-143050000D01*
X220800000Y-152400000D02*
X221450000Y-151750000D01*
X221050000Y-131600000D02*
X221050000Y-128450000D01*
X220650000Y-140600000D02*
X221350000Y-139900000D01*
%TO.N,3v3_A*%
X216700000Y-142800000D02*
X217359018Y-142140982D01*
X217370491Y-142140982D02*
X217370491Y-142129509D01*
X213760000Y-150730000D02*
X211830000Y-148800000D01*
X217370491Y-142129509D02*
X218000000Y-141500000D01*
X216800000Y-151775000D02*
X216780000Y-151775000D01*
X216700000Y-151695000D02*
X216700000Y-142800000D01*
X218000000Y-141500000D02*
X218000000Y-130525000D01*
X217359018Y-142140982D02*
X217370491Y-142140982D01*
X216780000Y-151775000D02*
X216700000Y-151695000D01*
X216800000Y-151775000D02*
X213760000Y-151775000D01*
X213760000Y-151775000D02*
X213760000Y-150730000D01*
X207300000Y-148800000D02*
X207200000Y-148700000D01*
X211830000Y-148800000D02*
X207300000Y-148800000D01*
%TO.N,Net-(IC1-~{DRDY})*%
X197587190Y-143525000D02*
X196200000Y-142137810D01*
X196200000Y-129600000D02*
X196000000Y-129400000D01*
X197900000Y-143525000D02*
X197587190Y-143525000D01*
X196200000Y-142137810D02*
X196200000Y-129600000D01*
%TO.N,Net-(IC1-DIN)*%
X198503007Y-145485768D02*
X197634528Y-145485768D01*
X194847000Y-142698240D02*
X194847000Y-132047000D01*
X197634528Y-145485768D02*
X194847000Y-142698240D01*
X194847000Y-132047000D02*
X192200000Y-129400000D01*
%TO.N,Net-(IC1-DOUT)*%
X197900000Y-144825000D02*
X197611570Y-144825000D01*
X197611570Y-144825000D02*
X195298000Y-142511430D01*
X195298000Y-131198000D02*
X193500000Y-129400000D01*
X195298000Y-142511430D02*
X195298000Y-131198000D01*
%TO.N,Net-(IC10-Y1)*%
X216230000Y-123100000D02*
X215162190Y-123100000D01*
X215162190Y-123100000D02*
X200162190Y-138100000D01*
X200162190Y-138100000D02*
X198200000Y-138100000D01*
%TO.N,Net-(IC10-Y2)*%
X215037807Y-123900003D02*
X206737810Y-132200000D01*
X216257570Y-123899528D02*
X216257095Y-123900003D01*
X206700000Y-132200000D02*
X199500000Y-139400000D01*
X216257095Y-123900003D02*
X215037807Y-123900003D01*
X199500000Y-139400000D02*
X198200000Y-139400000D01*
X206737810Y-132200000D02*
X206700000Y-132200000D01*
%TO.N,Net-(IC3-IO19)*%
X187400000Y-141100000D02*
X187400000Y-128900000D01*
X192400000Y-123900000D02*
X203600000Y-123900000D01*
X187400000Y-128900000D02*
X192400000Y-123900000D01*
%TO.N,Net-(IC10-S0)*%
X208400000Y-125300000D02*
X208400000Y-127924380D01*
X208400000Y-127924380D02*
X202024380Y-134300000D01*
X202024380Y-134300000D02*
X197900000Y-134300000D01*
X208200000Y-125100000D02*
X208400000Y-125300000D01*
%TO.N,Net-(IC10-S1)*%
X207500000Y-122595000D02*
X207500000Y-128186570D01*
X202686570Y-133000000D02*
X197900000Y-133000000D01*
X207500000Y-128186570D02*
X202686570Y-133000000D01*
%TO.N,Net-(IC10-S2)*%
X207500000Y-121400000D02*
X206874000Y-121400000D01*
X206874000Y-128174760D02*
X203248760Y-131800000D01*
X203248760Y-131800000D02*
X197900000Y-131800000D01*
X206874000Y-121400000D02*
X206874000Y-128174760D01*
%TO.N,Net-(IC3-IO0)*%
X190200000Y-121800000D02*
X185100000Y-126900000D01*
X190200000Y-121800000D02*
X204900000Y-107100000D01*
X185100000Y-126900000D02*
X185100000Y-129300000D01*
%TO.N,Net-(IC3-IO20)*%
X189400000Y-128200000D02*
X189400000Y-141100000D01*
X204899998Y-124700000D02*
X192900000Y-124700000D01*
X192900000Y-124700000D02*
X189400000Y-128200000D01*
%TO.N,Net-(IC10-Y4)*%
X211925000Y-140700000D02*
X216725000Y-135900000D01*
X203320000Y-140700000D02*
X211925000Y-140700000D01*
%TO.N,Net-(IC10-Y6)*%
X216800000Y-135100000D02*
X216600000Y-135100000D01*
X212300000Y-139400000D02*
X203300000Y-139400000D01*
X216600000Y-135100000D02*
X212300000Y-139400000D01*
%TO.N,Net-(IC10-Y7)*%
X208714702Y-147000000D02*
X202674000Y-140959298D01*
X211669000Y-147349000D02*
X211320000Y-147000000D01*
X211676810Y-147349000D02*
X211669000Y-147349000D01*
X211320000Y-147000000D02*
X208714702Y-147000000D01*
X202674000Y-140959298D02*
X202674000Y-138426000D01*
X214457810Y-150130000D02*
X211676810Y-147349000D01*
X202674000Y-138426000D02*
X204300000Y-136800000D01*
X215440000Y-150130000D02*
X214457810Y-150130000D01*
%TO.N,Net-(IC10-Y5)*%
X202223000Y-141146108D02*
X202223000Y-137677000D01*
X211490000Y-147800000D02*
X208876892Y-147800000D01*
X214810000Y-151120000D02*
X211490000Y-147800000D01*
X208876892Y-147800000D02*
X202223000Y-141146108D01*
X202223000Y-137677000D02*
X204300000Y-135600000D01*
X216075000Y-151120000D02*
X214810000Y-151120000D01*
%TD*%
%TA.AperFunction,Conductor*%
%TO.N,AGND*%
G36*
X231254363Y-134845185D02*
G01*
X231300118Y-134897989D01*
X231310062Y-134967147D01*
X231308941Y-134973691D01*
X231299500Y-135021153D01*
X231299500Y-135178846D01*
X231330261Y-135333489D01*
X231330264Y-135333501D01*
X231390602Y-135479172D01*
X231390609Y-135479185D01*
X231478210Y-135610288D01*
X231478213Y-135610292D01*
X231589707Y-135721786D01*
X231589711Y-135721789D01*
X231720814Y-135809390D01*
X231720827Y-135809397D01*
X231855395Y-135865136D01*
X231866503Y-135869737D01*
X231999973Y-135896286D01*
X232021153Y-135900499D01*
X232021156Y-135900500D01*
X232021158Y-135900500D01*
X232178844Y-135900500D01*
X232178845Y-135900499D01*
X232333497Y-135869737D01*
X232479179Y-135809394D01*
X232610289Y-135721789D01*
X232721789Y-135610289D01*
X232809394Y-135479179D01*
X232869737Y-135333497D01*
X232900500Y-135178842D01*
X232900500Y-135021158D01*
X232900500Y-135021155D01*
X232900499Y-135021153D01*
X232891059Y-134973691D01*
X232897286Y-134904099D01*
X232940149Y-134848922D01*
X233006039Y-134825678D01*
X233012676Y-134825500D01*
X235540283Y-134825500D01*
X235607322Y-134845185D01*
X235627959Y-134861814D01*
X235664134Y-134897989D01*
X235685030Y-134918885D01*
X235685032Y-134918886D01*
X235836608Y-135020166D01*
X235836612Y-135020168D01*
X236005037Y-135089931D01*
X236005042Y-135089933D01*
X236005046Y-135089933D01*
X236005047Y-135089934D01*
X236183843Y-135125500D01*
X236183846Y-135125500D01*
X236366156Y-135125500D01*
X236486445Y-135101572D01*
X236544958Y-135089933D01*
X236713389Y-135020167D01*
X236826609Y-134944515D01*
X236893287Y-134923638D01*
X236960667Y-134942123D01*
X237007357Y-134994102D01*
X237019500Y-135047618D01*
X237019500Y-155785500D01*
X236999815Y-155852539D01*
X236947011Y-155898294D01*
X236895500Y-155909500D01*
X203798181Y-155909500D01*
X203731142Y-155889815D01*
X203685387Y-155837011D01*
X203674181Y-155785762D01*
X203672795Y-155130000D01*
X203648747Y-143756066D01*
X203668290Y-143688988D01*
X203720997Y-143643122D01*
X203790135Y-143633032D01*
X203853751Y-143661923D01*
X203860428Y-143668126D01*
X208155121Y-147962819D01*
X208165733Y-147982255D01*
X208180234Y-147998989D01*
X208182150Y-148012320D01*
X208188606Y-148024142D01*
X208187026Y-148046228D01*
X208190178Y-148068147D01*
X208184582Y-148080398D01*
X208183622Y-148093834D01*
X208170351Y-148111560D01*
X208161153Y-148131703D01*
X208149821Y-148138985D01*
X208141750Y-148149767D01*
X208121004Y-148157504D01*
X208102375Y-148169477D01*
X208080456Y-148172628D01*
X208076286Y-148174184D01*
X208067440Y-148174500D01*
X207857940Y-148174500D01*
X207790901Y-148154815D01*
X207770263Y-148138185D01*
X207710289Y-148078211D01*
X207710288Y-148078210D01*
X207710287Y-148078209D01*
X207579185Y-147990609D01*
X207579172Y-147990602D01*
X207433501Y-147930264D01*
X207433489Y-147930261D01*
X207278845Y-147899500D01*
X207278842Y-147899500D01*
X207121158Y-147899500D01*
X207121155Y-147899500D01*
X206966510Y-147930261D01*
X206966498Y-147930264D01*
X206820827Y-147990602D01*
X206820814Y-147990609D01*
X206689711Y-148078210D01*
X206689707Y-148078213D01*
X206578213Y-148189707D01*
X206578210Y-148189711D01*
X206490609Y-148320814D01*
X206490602Y-148320827D01*
X206430264Y-148466498D01*
X206430261Y-148466510D01*
X206399500Y-148621153D01*
X206399500Y-148778846D01*
X206430261Y-148933489D01*
X206430264Y-148933501D01*
X206490602Y-149079172D01*
X206490609Y-149079185D01*
X206578210Y-149210288D01*
X206578213Y-149210292D01*
X206689707Y-149321786D01*
X206689711Y-149321789D01*
X206820814Y-149409390D01*
X206820827Y-149409397D01*
X206962746Y-149468181D01*
X206966503Y-149469737D01*
X207116015Y-149499477D01*
X207121153Y-149500499D01*
X207121156Y-149500500D01*
X207121158Y-149500500D01*
X207278844Y-149500500D01*
X207278845Y-149500499D01*
X207433497Y-149469737D01*
X207492771Y-149445185D01*
X207517508Y-149434939D01*
X207564960Y-149425500D01*
X211519548Y-149425500D01*
X211586587Y-149445185D01*
X211607229Y-149461819D01*
X211863076Y-149717666D01*
X211896561Y-149778989D01*
X211891577Y-149848681D01*
X211849705Y-149904614D01*
X211844286Y-149908449D01*
X211814711Y-149928210D01*
X211814707Y-149928213D01*
X211703213Y-150039707D01*
X211703210Y-150039711D01*
X211615609Y-150170814D01*
X211615602Y-150170827D01*
X211555264Y-150316498D01*
X211555261Y-150316510D01*
X211524500Y-150471153D01*
X211524500Y-150628846D01*
X211555261Y-150783489D01*
X211555264Y-150783501D01*
X211615602Y-150929172D01*
X211615609Y-150929184D01*
X211678602Y-151023459D01*
X211699480Y-151090136D01*
X211699500Y-151092350D01*
X211699500Y-153711610D01*
X211723535Y-153832444D01*
X211723538Y-153832454D01*
X211770687Y-153946283D01*
X211770692Y-153946292D01*
X211839141Y-154048732D01*
X211839144Y-154048736D01*
X211926263Y-154135855D01*
X211926267Y-154135858D01*
X212028707Y-154204307D01*
X212028713Y-154204310D01*
X212028714Y-154204311D01*
X212142548Y-154251463D01*
X212244722Y-154271786D01*
X212263389Y-154275499D01*
X212263393Y-154275500D01*
X212263394Y-154275500D01*
X221907650Y-154275500D01*
X221974689Y-154295185D01*
X221976541Y-154296398D01*
X222070821Y-154359394D01*
X222070823Y-154359395D01*
X222070827Y-154359397D01*
X222216498Y-154419735D01*
X222216503Y-154419737D01*
X222371153Y-154450499D01*
X222371156Y-154450500D01*
X222371158Y-154450500D01*
X222528844Y-154450500D01*
X222528845Y-154450499D01*
X222683497Y-154419737D01*
X222829179Y-154359394D01*
X222960289Y-154271789D01*
X223071789Y-154160289D01*
X223159394Y-154029179D01*
X223219737Y-153883497D01*
X223241858Y-153772282D01*
X223274240Y-153710375D01*
X223275733Y-153708855D01*
X224022771Y-152961819D01*
X224084094Y-152928334D01*
X224110452Y-152925500D01*
X228561607Y-152925500D01*
X228561608Y-152925499D01*
X228682452Y-152901463D01*
X228796286Y-152854311D01*
X228898733Y-152785858D01*
X228985858Y-152698733D01*
X229054311Y-152596286D01*
X229101463Y-152482452D01*
X229125500Y-152361606D01*
X229125500Y-147849500D01*
X229145185Y-147782461D01*
X229197989Y-147736706D01*
X229249500Y-147725500D01*
X231961607Y-147725500D01*
X232022029Y-147713481D01*
X232082452Y-147701463D01*
X232115792Y-147687652D01*
X232196286Y-147654312D01*
X232262169Y-147610289D01*
X232298733Y-147585858D01*
X232385858Y-147498733D01*
X232385859Y-147498731D01*
X232392925Y-147491665D01*
X232392928Y-147491661D01*
X233008797Y-146875791D01*
X233070118Y-146842308D01*
X233072128Y-146841889D01*
X233183497Y-146819737D01*
X233329179Y-146759394D01*
X233460289Y-146671789D01*
X233571789Y-146560289D01*
X233659394Y-146429179D01*
X233719737Y-146283497D01*
X233750500Y-146128842D01*
X233750500Y-145971158D01*
X233750500Y-145971155D01*
X233750499Y-145971153D01*
X233719738Y-145816510D01*
X233719738Y-145816508D01*
X233719737Y-145816503D01*
X233704935Y-145780768D01*
X233659397Y-145670827D01*
X233659390Y-145670814D01*
X233571789Y-145539711D01*
X233571786Y-145539707D01*
X233460292Y-145428213D01*
X233460288Y-145428210D01*
X233329185Y-145340609D01*
X233329172Y-145340602D01*
X233183501Y-145280264D01*
X233183489Y-145280261D01*
X233028845Y-145249500D01*
X233028842Y-145249500D01*
X232871158Y-145249500D01*
X232871155Y-145249500D01*
X232716510Y-145280261D01*
X232716498Y-145280264D01*
X232570827Y-145340602D01*
X232570814Y-145340609D01*
X232439711Y-145428210D01*
X232439707Y-145428213D01*
X232328213Y-145539707D01*
X232328210Y-145539711D01*
X232240609Y-145670814D01*
X232240602Y-145670827D01*
X232180264Y-145816498D01*
X232180261Y-145816508D01*
X232158141Y-145927714D01*
X232125756Y-145989625D01*
X232124205Y-145991203D01*
X231677229Y-146438181D01*
X231615906Y-146471666D01*
X231589548Y-146474500D01*
X229042350Y-146474500D01*
X228975311Y-146454815D01*
X228973459Y-146453602D01*
X228879184Y-146390609D01*
X228879172Y-146390602D01*
X228733501Y-146330264D01*
X228733489Y-146330261D01*
X228578845Y-146299500D01*
X228578842Y-146299500D01*
X228421158Y-146299500D01*
X228421155Y-146299500D01*
X228266510Y-146330261D01*
X228266498Y-146330264D01*
X228120827Y-146390602D01*
X228120815Y-146390609D01*
X228026541Y-146453602D01*
X228008494Y-146459252D01*
X227992585Y-146469477D01*
X227961625Y-146473928D01*
X227959864Y-146474480D01*
X227957650Y-146474500D01*
X227760452Y-146474500D01*
X227693413Y-146454815D01*
X227672771Y-146438181D01*
X223424624Y-142190034D01*
X223391139Y-142128711D01*
X223390688Y-142078165D01*
X223391858Y-142072282D01*
X223424242Y-142010374D01*
X223425732Y-142008856D01*
X223972772Y-141461819D01*
X224034095Y-141428334D01*
X224060453Y-141425500D01*
X228436607Y-141425500D01*
X228436608Y-141425499D01*
X228557452Y-141401463D01*
X228671286Y-141354311D01*
X228773733Y-141285858D01*
X228860858Y-141198733D01*
X228929311Y-141096286D01*
X228976463Y-140982452D01*
X229000500Y-140861606D01*
X229000500Y-135867350D01*
X229020185Y-135800311D01*
X229021398Y-135798459D01*
X229072629Y-135721786D01*
X229084394Y-135704179D01*
X229144737Y-135558497D01*
X229166858Y-135447282D01*
X229199240Y-135385375D01*
X229200732Y-135383856D01*
X229722771Y-134861819D01*
X229784094Y-134828334D01*
X229810452Y-134825500D01*
X231187324Y-134825500D01*
X231254363Y-134845185D01*
G37*
%TD.AperFunction*%
%TA.AperFunction,Conductor*%
G36*
X236962539Y-105880185D02*
G01*
X237008294Y-105932989D01*
X237019500Y-105984500D01*
X237019500Y-125200041D01*
X236999815Y-125267080D01*
X236947011Y-125312835D01*
X236877853Y-125322779D01*
X236852168Y-125316223D01*
X236757485Y-125280909D01*
X236757483Y-125280908D01*
X236697883Y-125274501D01*
X236697881Y-125274500D01*
X236697873Y-125274500D01*
X236697864Y-125274500D01*
X235752129Y-125274500D01*
X235752123Y-125274501D01*
X235692516Y-125280908D01*
X235557671Y-125331202D01*
X235557664Y-125331206D01*
X235442455Y-125417452D01*
X235442452Y-125417455D01*
X235356206Y-125532664D01*
X235356202Y-125532671D01*
X235305908Y-125667517D01*
X235299501Y-125727116D01*
X235299500Y-125727135D01*
X235299500Y-126672870D01*
X235299501Y-126672876D01*
X235305908Y-126732483D01*
X235341447Y-126827765D01*
X235346431Y-126897456D01*
X235339828Y-126918545D01*
X235335069Y-126930034D01*
X235335065Y-126930047D01*
X235299500Y-127108843D01*
X235299500Y-127108846D01*
X235299500Y-127291154D01*
X235299500Y-127291156D01*
X235299499Y-127291156D01*
X235335065Y-127469952D01*
X235335067Y-127469958D01*
X235404835Y-127638394D01*
X235406525Y-127641556D01*
X235406908Y-127643399D01*
X235407164Y-127644016D01*
X235407047Y-127644064D01*
X235420761Y-127709960D01*
X235406525Y-127758444D01*
X235404835Y-127761605D01*
X235335067Y-127930041D01*
X235335065Y-127930047D01*
X235299500Y-128108843D01*
X235299500Y-128108846D01*
X235299500Y-128291154D01*
X235299500Y-128291156D01*
X235299499Y-128291156D01*
X235335065Y-128469952D01*
X235335068Y-128469962D01*
X235366135Y-128544965D01*
X235373604Y-128614434D01*
X235367757Y-128635747D01*
X235355909Y-128667515D01*
X235355908Y-128667516D01*
X235349501Y-128727116D01*
X235349500Y-128727135D01*
X235349500Y-129672870D01*
X235349501Y-129672876D01*
X235355908Y-129732483D01*
X235391447Y-129827765D01*
X235396431Y-129897456D01*
X235389828Y-129918545D01*
X235385069Y-129930034D01*
X235385065Y-129930047D01*
X235349500Y-130108843D01*
X235349500Y-130108846D01*
X235349500Y-130291154D01*
X235349500Y-130291156D01*
X235349499Y-130291156D01*
X235385065Y-130469952D01*
X235385067Y-130469958D01*
X235454835Y-130638394D01*
X235456525Y-130641556D01*
X235456908Y-130643399D01*
X235457164Y-130644016D01*
X235457047Y-130644064D01*
X235470761Y-130709960D01*
X235456525Y-130758444D01*
X235454835Y-130761605D01*
X235385067Y-130930041D01*
X235385065Y-130930047D01*
X235349500Y-131108843D01*
X235349500Y-131108846D01*
X235349500Y-131291154D01*
X235349500Y-131291156D01*
X235349499Y-131291156D01*
X235385065Y-131469952D01*
X235385068Y-131469962D01*
X235389826Y-131481448D01*
X235397295Y-131550917D01*
X235391447Y-131572233D01*
X235355908Y-131667517D01*
X235349501Y-131727116D01*
X235349500Y-131727135D01*
X235349500Y-132672870D01*
X235349501Y-132672876D01*
X235355908Y-132732483D01*
X235391447Y-132827765D01*
X235396431Y-132897456D01*
X235389828Y-132918545D01*
X235385069Y-132930034D01*
X235385065Y-132930047D01*
X235349500Y-133108843D01*
X235349500Y-133108846D01*
X235349500Y-133291154D01*
X235349500Y-133291156D01*
X235349499Y-133291156D01*
X235376384Y-133426308D01*
X235370157Y-133495900D01*
X235327294Y-133551077D01*
X235261405Y-133574322D01*
X235254767Y-133574500D01*
X232138390Y-133574500D01*
X232124187Y-133577325D01*
X232075813Y-133577325D01*
X232061609Y-133574500D01*
X232061607Y-133574500D01*
X232061606Y-133574500D01*
X229561606Y-133574500D01*
X229438393Y-133574500D01*
X229438389Y-133574500D01*
X229377971Y-133586518D01*
X229334743Y-133595116D01*
X229317546Y-133598537D01*
X229203716Y-133645687D01*
X229203707Y-133645692D01*
X229101268Y-133714140D01*
X229057705Y-133757703D01*
X229014142Y-133801267D01*
X229014139Y-133801270D01*
X228437680Y-134377728D01*
X228376357Y-134411213D01*
X228306665Y-134406229D01*
X228262318Y-134377728D01*
X223672271Y-129787681D01*
X223638786Y-129726358D01*
X223643770Y-129656666D01*
X223672271Y-129612319D01*
X223822771Y-129461819D01*
X223884094Y-129428334D01*
X223910452Y-129425500D01*
X228611607Y-129425500D01*
X228611608Y-129425499D01*
X228732452Y-129401463D01*
X228846286Y-129354311D01*
X228948733Y-129285858D01*
X229035858Y-129198733D01*
X229104311Y-129096286D01*
X229151463Y-128982452D01*
X229175500Y-128861606D01*
X229175500Y-124049500D01*
X229195185Y-123982461D01*
X229247989Y-123936706D01*
X229299500Y-123925500D01*
X231961607Y-123925500D01*
X232022029Y-123913481D01*
X232082452Y-123901463D01*
X232115792Y-123887652D01*
X232196286Y-123854312D01*
X232262169Y-123810289D01*
X232298733Y-123785858D01*
X232385858Y-123698733D01*
X232385859Y-123698731D01*
X232392925Y-123691665D01*
X232392928Y-123691661D01*
X232908797Y-123175791D01*
X232970118Y-123142308D01*
X232972128Y-123141889D01*
X233083497Y-123119737D01*
X233229179Y-123059394D01*
X233360289Y-122971789D01*
X233471789Y-122860289D01*
X233559394Y-122729179D01*
X233562854Y-122720827D01*
X233582051Y-122674480D01*
X233619737Y-122583497D01*
X233650500Y-122428842D01*
X233650500Y-122271158D01*
X233650500Y-122271155D01*
X233650499Y-122271153D01*
X233641858Y-122227714D01*
X233619737Y-122116503D01*
X233619735Y-122116498D01*
X233559397Y-121970827D01*
X233559390Y-121970814D01*
X233471789Y-121839711D01*
X233471786Y-121839707D01*
X233360292Y-121728213D01*
X233360288Y-121728210D01*
X233229185Y-121640609D01*
X233229172Y-121640602D01*
X233083501Y-121580264D01*
X233083489Y-121580261D01*
X232928845Y-121549500D01*
X232928842Y-121549500D01*
X232771158Y-121549500D01*
X232771155Y-121549500D01*
X232616510Y-121580261D01*
X232616498Y-121580264D01*
X232470827Y-121640602D01*
X232470814Y-121640609D01*
X232339711Y-121728210D01*
X232339707Y-121728213D01*
X232228213Y-121839707D01*
X232228210Y-121839711D01*
X232140609Y-121970814D01*
X232140602Y-121970827D01*
X232080264Y-122116498D01*
X232080261Y-122116508D01*
X232058141Y-122227714D01*
X232025756Y-122289625D01*
X232024205Y-122291203D01*
X231677229Y-122638181D01*
X231615906Y-122671666D01*
X231589548Y-122674500D01*
X229092350Y-122674500D01*
X229025311Y-122654815D01*
X229023459Y-122653602D01*
X228929184Y-122590609D01*
X228929172Y-122590602D01*
X228783501Y-122530264D01*
X228783489Y-122530261D01*
X228628845Y-122499500D01*
X228628842Y-122499500D01*
X228471158Y-122499500D01*
X228471155Y-122499500D01*
X228316510Y-122530261D01*
X228316498Y-122530264D01*
X228170827Y-122590602D01*
X228170815Y-122590609D01*
X228076541Y-122653602D01*
X228058494Y-122659252D01*
X228042585Y-122669477D01*
X228011625Y-122673928D01*
X228009864Y-122674480D01*
X228007650Y-122674500D01*
X227910453Y-122674500D01*
X227843414Y-122654815D01*
X227822772Y-122638181D01*
X223358328Y-118173738D01*
X223324843Y-118112415D01*
X223324392Y-118061868D01*
X223343155Y-117967538D01*
X223354942Y-117908286D01*
X223354942Y-117750597D01*
X223354941Y-117750595D01*
X223354563Y-117748691D01*
X223354654Y-117747673D01*
X223354345Y-117744535D01*
X223354940Y-117744476D01*
X223360790Y-117679099D01*
X223403654Y-117623922D01*
X223469543Y-117600678D01*
X223476180Y-117600500D01*
X228511607Y-117600500D01*
X228511608Y-117600499D01*
X228632452Y-117576463D01*
X228746286Y-117529311D01*
X228848733Y-117460858D01*
X228935858Y-117373733D01*
X229004311Y-117271286D01*
X229051463Y-117157452D01*
X229075500Y-117036606D01*
X229075500Y-112124500D01*
X229095185Y-112057461D01*
X229147989Y-112011706D01*
X229199500Y-112000500D01*
X231961607Y-112000500D01*
X232022029Y-111988481D01*
X232082452Y-111976463D01*
X232115792Y-111962652D01*
X232196286Y-111929312D01*
X232262169Y-111885289D01*
X232298733Y-111860858D01*
X232385858Y-111773733D01*
X232385859Y-111773731D01*
X232392925Y-111766665D01*
X232392928Y-111766661D01*
X232908797Y-111250791D01*
X232970118Y-111217308D01*
X232972128Y-111216889D01*
X233083497Y-111194737D01*
X233229179Y-111134394D01*
X233360289Y-111046789D01*
X233471789Y-110935289D01*
X233559394Y-110804179D01*
X233619737Y-110658497D01*
X233650500Y-110503842D01*
X233650500Y-110346158D01*
X233650500Y-110346155D01*
X233650499Y-110346153D01*
X233619738Y-110191510D01*
X233619738Y-110191508D01*
X233619737Y-110191503D01*
X233619735Y-110191498D01*
X233559397Y-110045827D01*
X233559390Y-110045814D01*
X233471789Y-109914711D01*
X233471786Y-109914707D01*
X233360292Y-109803213D01*
X233360288Y-109803210D01*
X233229185Y-109715609D01*
X233229172Y-109715602D01*
X233083501Y-109655264D01*
X233083489Y-109655261D01*
X232928845Y-109624500D01*
X232928842Y-109624500D01*
X232771158Y-109624500D01*
X232771155Y-109624500D01*
X232616510Y-109655261D01*
X232616498Y-109655264D01*
X232470827Y-109715602D01*
X232470814Y-109715609D01*
X232339711Y-109803210D01*
X232339707Y-109803213D01*
X232228213Y-109914707D01*
X232228210Y-109914711D01*
X232140609Y-110045814D01*
X232140602Y-110045827D01*
X232080264Y-110191498D01*
X232080261Y-110191508D01*
X232058141Y-110302714D01*
X232025756Y-110364625D01*
X232024205Y-110366203D01*
X231677229Y-110713181D01*
X231615906Y-110746666D01*
X231589548Y-110749500D01*
X228992350Y-110749500D01*
X228925311Y-110729815D01*
X228923459Y-110728602D01*
X228829184Y-110665609D01*
X228829172Y-110665602D01*
X228683501Y-110605264D01*
X228683489Y-110605261D01*
X228528845Y-110574500D01*
X228528842Y-110574500D01*
X228371158Y-110574500D01*
X228371155Y-110574500D01*
X228216510Y-110605261D01*
X228216498Y-110605264D01*
X228070827Y-110665602D01*
X228070814Y-110665609D01*
X227939711Y-110753210D01*
X227939707Y-110753213D01*
X227828213Y-110864707D01*
X227828210Y-110864711D01*
X227740609Y-110995814D01*
X227740602Y-110995827D01*
X227680264Y-111141498D01*
X227680261Y-111141510D01*
X227649500Y-111296153D01*
X227649500Y-111453846D01*
X227680261Y-111608489D01*
X227680264Y-111608501D01*
X227740602Y-111754172D01*
X227740609Y-111754184D01*
X227803602Y-111848459D01*
X227824480Y-111915136D01*
X227824500Y-111917350D01*
X227824500Y-116225500D01*
X227804815Y-116292539D01*
X227752011Y-116338294D01*
X227700500Y-116349500D01*
X222838389Y-116349500D01*
X222783488Y-116360420D01*
X222783481Y-116360422D01*
X222777971Y-116361518D01*
X222717548Y-116373537D01*
X222670397Y-116393067D01*
X222664335Y-116395577D01*
X222664328Y-116395580D01*
X222603718Y-116420685D01*
X222584571Y-116433479D01*
X222578190Y-116437743D01*
X222578189Y-116437744D01*
X222578188Y-116437743D01*
X222501266Y-116489142D01*
X222501265Y-116489143D01*
X222457704Y-116532705D01*
X222414142Y-116576267D01*
X222068586Y-116921822D01*
X222068580Y-116921830D01*
X222034356Y-116973047D01*
X222034357Y-116973048D01*
X222000133Y-117024266D01*
X222000126Y-117024278D01*
X221981207Y-117069957D01*
X221981207Y-117069958D01*
X221952980Y-117138103D01*
X221952977Y-117138113D01*
X221928942Y-117258947D01*
X221928942Y-117287092D01*
X221909257Y-117354131D01*
X221908068Y-117355945D01*
X221887244Y-117387110D01*
X221845051Y-117450257D01*
X221845044Y-117450270D01*
X221784706Y-117595940D01*
X221784703Y-117595952D01*
X221753942Y-117750595D01*
X221753942Y-117908288D01*
X221784703Y-118062931D01*
X221784706Y-118062943D01*
X221845044Y-118208614D01*
X221845051Y-118208627D01*
X221920372Y-118321352D01*
X221923563Y-118329055D01*
X221927145Y-118332768D01*
X221938887Y-118366051D01*
X221946815Y-118405907D01*
X221946815Y-118405908D01*
X221952976Y-118436886D01*
X221952979Y-118436893D01*
X222000130Y-118550728D01*
X222000131Y-118550730D01*
X222000132Y-118550731D01*
X222000133Y-118550734D01*
X222028071Y-118592544D01*
X222032505Y-118599179D01*
X222068584Y-118653175D01*
X222155709Y-118740300D01*
X222155711Y-118740301D01*
X222165767Y-118750357D01*
X227201263Y-123785855D01*
X227201267Y-123785858D01*
X227303712Y-123854310D01*
X227303711Y-123854310D01*
X227303713Y-123854311D01*
X227303715Y-123854312D01*
X227340955Y-123869737D01*
X227417548Y-123901463D01*
X227437597Y-123905451D01*
X227510785Y-123920009D01*
X227538392Y-123925501D01*
X227538394Y-123925501D01*
X227667721Y-123925501D01*
X227667741Y-123925500D01*
X227800500Y-123925500D01*
X227867539Y-123945185D01*
X227913294Y-123997989D01*
X227924500Y-124049500D01*
X227924500Y-128050500D01*
X227904815Y-128117539D01*
X227852011Y-128163294D01*
X227800500Y-128174500D01*
X223538389Y-128174500D01*
X223477971Y-128186518D01*
X223434743Y-128195116D01*
X223417546Y-128198537D01*
X223303716Y-128245687D01*
X223303707Y-128245692D01*
X223201268Y-128314140D01*
X223167122Y-128348287D01*
X223114142Y-128401267D01*
X223114139Y-128401270D01*
X222641203Y-128874205D01*
X222579880Y-128907690D01*
X222577714Y-128908141D01*
X222466508Y-128930261D01*
X222466498Y-128930264D01*
X222320827Y-128990602D01*
X222320814Y-128990609D01*
X222189711Y-129078210D01*
X222189707Y-129078213D01*
X222078213Y-129189707D01*
X222078210Y-129189711D01*
X221990609Y-129320814D01*
X221990602Y-129320827D01*
X221930264Y-129466498D01*
X221930261Y-129466510D01*
X221899500Y-129621153D01*
X221899500Y-129778846D01*
X221930261Y-129933489D01*
X221930264Y-129933501D01*
X221990602Y-130079172D01*
X221990609Y-130079185D01*
X222078210Y-130210288D01*
X222078213Y-130210292D01*
X222189707Y-130321786D01*
X222189711Y-130321789D01*
X222320814Y-130409390D01*
X222320827Y-130409397D01*
X222408230Y-130445599D01*
X222466503Y-130469737D01*
X222577716Y-130491858D01*
X222639623Y-130524241D01*
X222641203Y-130525793D01*
X227561620Y-135446210D01*
X227595105Y-135507533D01*
X227595556Y-135509699D01*
X227605261Y-135558491D01*
X227605264Y-135558501D01*
X227665602Y-135704172D01*
X227665609Y-135704184D01*
X227728602Y-135798459D01*
X227749480Y-135865136D01*
X227749500Y-135867350D01*
X227749500Y-140050500D01*
X227729815Y-140117539D01*
X227677011Y-140163294D01*
X227625500Y-140174500D01*
X223817741Y-140174500D01*
X223817721Y-140174499D01*
X223811607Y-140174499D01*
X223688394Y-140174499D01*
X223587597Y-140194548D01*
X223587592Y-140194548D01*
X223567553Y-140198535D01*
X223567545Y-140198537D01*
X223529873Y-140214141D01*
X223529874Y-140214142D01*
X223453711Y-140245689D01*
X223351267Y-140314141D01*
X223351263Y-140314144D01*
X222541203Y-141124205D01*
X222479880Y-141157690D01*
X222477714Y-141158141D01*
X222366508Y-141180261D01*
X222366498Y-141180264D01*
X222220827Y-141240602D01*
X222220814Y-141240609D01*
X222089711Y-141328210D01*
X222089707Y-141328213D01*
X221978213Y-141439707D01*
X221978210Y-141439711D01*
X221890609Y-141570814D01*
X221890602Y-141570827D01*
X221830264Y-141716498D01*
X221830261Y-141716510D01*
X221799500Y-141871153D01*
X221799500Y-142028846D01*
X221830261Y-142183489D01*
X221830264Y-142183501D01*
X221890602Y-142329172D01*
X221890609Y-142329185D01*
X221978210Y-142460288D01*
X221978213Y-142460292D01*
X222015150Y-142497228D01*
X222033540Y-142520683D01*
X222038423Y-142528747D01*
X222045688Y-142546286D01*
X222079915Y-142597509D01*
X222081453Y-142599811D01*
X222081455Y-142599814D01*
X222114141Y-142648732D01*
X222114144Y-142648736D01*
X222205586Y-142740178D01*
X222205608Y-142740198D01*
X226964139Y-147498729D01*
X226964142Y-147498733D01*
X227051267Y-147585858D01*
X227110597Y-147625501D01*
X227153715Y-147654312D01*
X227207198Y-147676465D01*
X227267548Y-147701463D01*
X227327971Y-147713481D01*
X227388393Y-147725500D01*
X227388394Y-147725500D01*
X227750500Y-147725500D01*
X227817539Y-147745185D01*
X227863294Y-147797989D01*
X227874500Y-147849500D01*
X227874500Y-151550500D01*
X227854815Y-151617539D01*
X227802011Y-151663294D01*
X227750500Y-151674500D01*
X223738389Y-151674500D01*
X223677971Y-151686518D01*
X223634743Y-151695116D01*
X223617546Y-151698537D01*
X223503716Y-151745687D01*
X223503707Y-151745692D01*
X223401268Y-151814140D01*
X223378803Y-151836606D01*
X223314142Y-151901267D01*
X223314139Y-151901270D01*
X222391203Y-152824205D01*
X222329880Y-152857690D01*
X222327714Y-152858141D01*
X222216508Y-152880261D01*
X222216498Y-152880264D01*
X222070827Y-152940602D01*
X222070815Y-152940609D01*
X221976541Y-153003602D01*
X221909864Y-153024480D01*
X221907650Y-153024500D01*
X213074500Y-153024500D01*
X213007461Y-153004815D01*
X212961706Y-152952011D01*
X212950500Y-152900500D01*
X212950500Y-152078595D01*
X212970185Y-152011556D01*
X213022989Y-151965801D01*
X213092147Y-151955857D01*
X213155703Y-151984882D01*
X213189061Y-152031143D01*
X213205685Y-152071279D01*
X213205692Y-152071292D01*
X213274141Y-152173732D01*
X213274144Y-152173736D01*
X213361263Y-152260855D01*
X213361267Y-152260858D01*
X213463707Y-152329307D01*
X213463713Y-152329310D01*
X213463714Y-152329311D01*
X213577548Y-152376463D01*
X213679722Y-152396786D01*
X213698389Y-152400499D01*
X213698393Y-152400500D01*
X213698394Y-152400500D01*
X213821606Y-152400500D01*
X216257650Y-152400500D01*
X216324689Y-152420185D01*
X216326541Y-152421398D01*
X216420821Y-152484394D01*
X216420823Y-152484395D01*
X216420827Y-152484397D01*
X216566498Y-152544735D01*
X216566503Y-152544737D01*
X216721153Y-152575499D01*
X216721156Y-152575500D01*
X216721158Y-152575500D01*
X216878844Y-152575500D01*
X216878845Y-152575499D01*
X217033497Y-152544737D01*
X217179179Y-152484394D01*
X217310289Y-152396789D01*
X217421789Y-152285289D01*
X217509394Y-152154179D01*
X217569737Y-152008497D01*
X217600500Y-151853842D01*
X217600500Y-151696158D01*
X217600500Y-151696155D01*
X217600499Y-151696153D01*
X217593963Y-151663294D01*
X217569737Y-151541503D01*
X217569735Y-151541498D01*
X217509397Y-151395827D01*
X217509390Y-151395814D01*
X217421789Y-151264711D01*
X217421786Y-151264707D01*
X217361819Y-151204740D01*
X217328334Y-151143417D01*
X217325500Y-151117059D01*
X217325500Y-143110452D01*
X217334143Y-143081015D01*
X217340667Y-143051026D01*
X217344422Y-143046009D01*
X217345185Y-143043413D01*
X217361818Y-143022772D01*
X217414964Y-142969625D01*
X217476285Y-142936141D01*
X217478453Y-142935690D01*
X217526547Y-142926123D01*
X217603988Y-142910719D01*
X217749670Y-142850376D01*
X217880780Y-142762771D01*
X217992280Y-142651271D01*
X218079885Y-142520161D01*
X218082160Y-142514670D01*
X218106722Y-142455370D01*
X218140228Y-142374479D01*
X218165199Y-142248944D01*
X218197584Y-142187033D01*
X218199086Y-142185503D01*
X218398729Y-141985860D01*
X218398733Y-141985858D01*
X218485858Y-141898733D01*
X218554311Y-141796286D01*
X218601463Y-141682452D01*
X218613626Y-141621304D01*
X218625500Y-141561607D01*
X218625500Y-141438393D01*
X218625500Y-131036540D01*
X218645185Y-130969501D01*
X218680610Y-130933438D01*
X218722853Y-130905211D01*
X218810289Y-130846789D01*
X218921789Y-130735289D01*
X219009394Y-130604179D01*
X219069737Y-130458497D01*
X219100500Y-130303842D01*
X219100500Y-130146158D01*
X219100500Y-130146155D01*
X219100499Y-130146153D01*
X219069737Y-129991503D01*
X219045712Y-129933501D01*
X219009397Y-129845827D01*
X219009390Y-129845814D01*
X218996398Y-129826370D01*
X218975520Y-129759692D01*
X218975500Y-129757479D01*
X218975500Y-118642739D01*
X218975500Y-118636611D01*
X218975501Y-118636607D01*
X218975501Y-118567515D01*
X218995186Y-118500476D01*
X218995189Y-118500473D01*
X218996400Y-118498625D01*
X219009394Y-118479179D01*
X219069737Y-118333497D01*
X219100500Y-118178842D01*
X219100500Y-118021158D01*
X219100500Y-118021155D01*
X219100499Y-118021153D01*
X219069737Y-117866503D01*
X219020938Y-117748691D01*
X219009397Y-117720827D01*
X219009390Y-117720814D01*
X218921789Y-117589711D01*
X218921786Y-117589707D01*
X218810292Y-117478213D01*
X218810288Y-117478210D01*
X218679185Y-117390609D01*
X218679172Y-117390602D01*
X218533501Y-117330264D01*
X218533489Y-117330261D01*
X218378845Y-117299500D01*
X218378842Y-117299500D01*
X218221158Y-117299500D01*
X218221155Y-117299500D01*
X218066510Y-117330261D01*
X218066498Y-117330264D01*
X217920827Y-117390602D01*
X217920814Y-117390609D01*
X217789711Y-117478210D01*
X217789707Y-117478213D01*
X217678213Y-117589707D01*
X217678210Y-117589711D01*
X217590609Y-117720814D01*
X217590602Y-117720827D01*
X217530264Y-117866498D01*
X217530261Y-117866510D01*
X217499500Y-118021153D01*
X217499500Y-118178846D01*
X217530261Y-118333489D01*
X217530264Y-118333501D01*
X217590602Y-118479172D01*
X217590609Y-118479185D01*
X217665930Y-118591910D01*
X217669119Y-118599609D01*
X217672701Y-118603321D01*
X217684444Y-118636604D01*
X217686518Y-118647029D01*
X217695052Y-118689933D01*
X217695053Y-118689936D01*
X217695052Y-118689936D01*
X217698536Y-118707447D01*
X217698537Y-118707451D01*
X217712143Y-118740300D01*
X217715061Y-118747343D01*
X217724500Y-118794796D01*
X217724500Y-129617059D01*
X217704815Y-129684098D01*
X217688181Y-129704740D01*
X217678213Y-129714707D01*
X217678210Y-129714711D01*
X217590609Y-129845814D01*
X217590602Y-129845827D01*
X217530264Y-129991498D01*
X217530261Y-129991508D01*
X217503738Y-130124845D01*
X217485224Y-130169542D01*
X217445691Y-130228709D01*
X217445685Y-130228719D01*
X217398540Y-130342538D01*
X217398535Y-130342554D01*
X217377264Y-130449497D01*
X217377263Y-130449502D01*
X217374500Y-130463389D01*
X217374500Y-134289127D01*
X217354815Y-134356166D01*
X217302011Y-134401921D01*
X217232853Y-134411865D01*
X217184607Y-134393378D01*
X217184554Y-134393479D01*
X217183750Y-134393049D01*
X217181609Y-134392229D01*
X217179185Y-134390609D01*
X217179172Y-134390602D01*
X217033501Y-134330264D01*
X217033489Y-134330261D01*
X216878845Y-134299500D01*
X216878842Y-134299500D01*
X216721158Y-134299500D01*
X216721155Y-134299500D01*
X216566510Y-134330261D01*
X216566498Y-134330264D01*
X216420827Y-134390602D01*
X216420814Y-134390609D01*
X216289711Y-134478210D01*
X216289707Y-134478213D01*
X216178213Y-134589707D01*
X216178210Y-134589711D01*
X216089371Y-134722668D01*
X216073950Y-134741458D01*
X212077229Y-138738181D01*
X212015906Y-138771666D01*
X211989548Y-138774500D01*
X203842350Y-138774500D01*
X203828257Y-138770957D01*
X203816873Y-138771855D01*
X203794637Y-138762506D01*
X203783716Y-138759761D01*
X203778435Y-138756927D01*
X203679179Y-138690606D01*
X203572542Y-138646435D01*
X203567075Y-138643502D01*
X203546429Y-138623154D01*
X203523853Y-138604961D01*
X203521843Y-138598922D01*
X203517312Y-138594457D01*
X203510944Y-138566176D01*
X203501788Y-138538667D01*
X203503361Y-138532501D01*
X203501964Y-138526294D01*
X203511897Y-138499058D01*
X203519067Y-138470967D01*
X203524864Y-138463504D01*
X203525904Y-138460654D01*
X203528772Y-138458474D01*
X203538024Y-138446564D01*
X204158270Y-137826319D01*
X204219593Y-137792834D01*
X204245951Y-137790000D01*
X204505479Y-137790000D01*
X204572518Y-137809685D01*
X204587220Y-137820757D01*
X204682892Y-137904638D01*
X204813419Y-137965170D01*
X204813421Y-137965170D01*
X204813424Y-137965172D01*
X204880338Y-137985244D01*
X204880341Y-137985244D01*
X204880343Y-137985245D01*
X205022634Y-138006550D01*
X211570767Y-138044754D01*
X211682800Y-138032853D01*
X211736433Y-138021000D01*
X211843043Y-137984582D01*
X211963106Y-137905296D01*
X212015337Y-137858888D01*
X212015339Y-137858886D01*
X212108201Y-137748984D01*
X212166338Y-137617373D01*
X212185187Y-137550094D01*
X212203890Y-137407436D01*
X212093423Y-128525959D01*
X212093423Y-128525958D01*
X212093020Y-128511111D01*
X212092712Y-128503764D01*
X212091868Y-128488884D01*
X212091868Y-128488878D01*
X212061285Y-128348293D01*
X212061284Y-128348287D01*
X212036867Y-128282823D01*
X211967916Y-128156548D01*
X211915703Y-128104333D01*
X211901348Y-128078043D01*
X211884849Y-128053052D01*
X211883703Y-128045728D01*
X211882220Y-128043011D01*
X211879397Y-128018196D01*
X211879125Y-127996167D01*
X211897983Y-127928893D01*
X211915426Y-127906972D01*
X215260579Y-124561822D01*
X215321902Y-124528337D01*
X215348260Y-124525503D01*
X215715931Y-124525503D01*
X215782970Y-124545188D01*
X215784820Y-124546400D01*
X215878391Y-124608922D01*
X215878393Y-124608923D01*
X215878397Y-124608925D01*
X215949543Y-124638394D01*
X216024073Y-124669265D01*
X216178723Y-124700027D01*
X216178726Y-124700028D01*
X216178728Y-124700028D01*
X216336414Y-124700028D01*
X216336415Y-124700027D01*
X216491067Y-124669265D01*
X216636749Y-124608922D01*
X216767859Y-124521317D01*
X216879359Y-124409817D01*
X216966964Y-124278707D01*
X217027307Y-124133025D01*
X217058070Y-123978370D01*
X217058070Y-123820686D01*
X217058070Y-123820683D01*
X217058069Y-123820681D01*
X217027308Y-123666038D01*
X217027307Y-123666031D01*
X217027305Y-123666026D01*
X216964633Y-123514720D01*
X216967115Y-123513691D01*
X216955223Y-123456678D01*
X216964264Y-123419136D01*
X216999737Y-123333497D01*
X217030500Y-123178842D01*
X217030500Y-123021158D01*
X217030500Y-123021155D01*
X217030499Y-123021153D01*
X216999738Y-122866510D01*
X216999737Y-122866503D01*
X216997163Y-122860288D01*
X216939397Y-122720827D01*
X216939390Y-122720814D01*
X216851789Y-122589711D01*
X216851786Y-122589707D01*
X216740292Y-122478213D01*
X216740288Y-122478210D01*
X216609185Y-122390609D01*
X216609172Y-122390602D01*
X216463501Y-122330264D01*
X216463489Y-122330261D01*
X216308845Y-122299500D01*
X216308842Y-122299500D01*
X216151158Y-122299500D01*
X216151155Y-122299500D01*
X215996510Y-122330261D01*
X215996498Y-122330264D01*
X215850827Y-122390602D01*
X215850815Y-122390609D01*
X215756541Y-122453602D01*
X215689864Y-122474480D01*
X215687650Y-122474500D01*
X215100578Y-122474500D01*
X214979745Y-122498535D01*
X214979737Y-122498537D01*
X214865906Y-122545687D01*
X214809333Y-122583489D01*
X214809321Y-122583497D01*
X214800027Y-122589707D01*
X214763453Y-122614144D01*
X212056716Y-125320881D01*
X211995393Y-125354366D01*
X211925701Y-125349382D01*
X211869768Y-125307510D01*
X211845351Y-125242046D01*
X211845044Y-125234730D01*
X211838445Y-124700027D01*
X211787229Y-120550256D01*
X211806084Y-120482984D01*
X211823530Y-120461059D01*
X219862263Y-112422326D01*
X219902487Y-112395449D01*
X219929179Y-112384394D01*
X220060289Y-112296789D01*
X220171789Y-112185289D01*
X220259394Y-112054179D01*
X220319737Y-111908497D01*
X220350500Y-111753842D01*
X220350500Y-111596158D01*
X220350500Y-111596155D01*
X220350499Y-111596153D01*
X220322191Y-111453842D01*
X220319737Y-111441503D01*
X220319735Y-111441498D01*
X220259397Y-111295827D01*
X220259390Y-111295814D01*
X220171789Y-111164711D01*
X220171786Y-111164707D01*
X220060292Y-111053213D01*
X220060288Y-111053210D01*
X219929185Y-110965609D01*
X219929172Y-110965602D01*
X219783501Y-110905264D01*
X219783489Y-110905261D01*
X219628845Y-110874500D01*
X219628842Y-110874500D01*
X219471158Y-110874500D01*
X219471155Y-110874500D01*
X219316510Y-110905261D01*
X219316498Y-110905264D01*
X219170822Y-110965604D01*
X219170820Y-110965605D01*
X219168885Y-110966899D01*
X219167717Y-110967264D01*
X219165451Y-110968476D01*
X219165221Y-110968045D01*
X219102206Y-110987773D01*
X219034827Y-110969285D01*
X219031115Y-110966899D01*
X219029179Y-110965605D01*
X219029177Y-110965604D01*
X218883501Y-110905264D01*
X218883489Y-110905261D01*
X218728845Y-110874500D01*
X218728842Y-110874500D01*
X218571158Y-110874500D01*
X218571155Y-110874500D01*
X218416510Y-110905261D01*
X218416498Y-110905264D01*
X218270827Y-110965602D01*
X218270814Y-110965609D01*
X218139711Y-111053210D01*
X218139707Y-111053213D01*
X218028213Y-111164707D01*
X218028210Y-111164711D01*
X217940609Y-111295814D01*
X217940604Y-111295824D01*
X217894195Y-111407865D01*
X217867315Y-111448093D01*
X212162565Y-117152843D01*
X212101242Y-117186328D01*
X212031550Y-117181344D01*
X211975617Y-117139472D01*
X211951200Y-117074008D01*
X211950894Y-117066704D01*
X211950366Y-117024278D01*
X211877110Y-111134390D01*
X211813077Y-105986042D01*
X211831926Y-105918763D01*
X211884157Y-105872355D01*
X211937067Y-105860500D01*
X236895500Y-105860500D01*
X236962539Y-105880185D01*
G37*
%TD.AperFunction*%
%TD*%
%TA.AperFunction,Conductor*%
%TO.N,DGND*%
G36*
X190409262Y-105880185D02*
G01*
X190455017Y-105932989D01*
X190464961Y-106002147D01*
X190445327Y-106053388D01*
X190439831Y-106061612D01*
X190370068Y-106230037D01*
X190370065Y-106230047D01*
X190334500Y-106408843D01*
X190334500Y-106408846D01*
X190334500Y-106591154D01*
X190334500Y-106591156D01*
X190334499Y-106591156D01*
X190370065Y-106769952D01*
X190370068Y-106769962D01*
X190439831Y-106938387D01*
X190439833Y-106938391D01*
X190541113Y-107089967D01*
X190541119Y-107089975D01*
X190670024Y-107218880D01*
X190670032Y-107218886D01*
X190821608Y-107320166D01*
X190821612Y-107320168D01*
X190990037Y-107389931D01*
X190990042Y-107389933D01*
X190990046Y-107389933D01*
X190990047Y-107389934D01*
X191168843Y-107425500D01*
X191168846Y-107425500D01*
X191351156Y-107425500D01*
X191471445Y-107401572D01*
X191529958Y-107389933D01*
X191698389Y-107320167D01*
X191698394Y-107320163D01*
X191701541Y-107318482D01*
X191703386Y-107318097D01*
X191704018Y-107317836D01*
X191704067Y-107317955D01*
X191769943Y-107304236D01*
X191818459Y-107318482D01*
X191821615Y-107320169D01*
X191990037Y-107389931D01*
X191990042Y-107389933D01*
X191990046Y-107389933D01*
X191990047Y-107389934D01*
X192168843Y-107425500D01*
X192168846Y-107425500D01*
X192351156Y-107425500D01*
X192529953Y-107389934D01*
X192529953Y-107389933D01*
X192529958Y-107389933D01*
X192541442Y-107385175D01*
X192610909Y-107377703D01*
X192632226Y-107383549D01*
X192727517Y-107419091D01*
X192787127Y-107425500D01*
X193732872Y-107425499D01*
X193792483Y-107419091D01*
X193887768Y-107383551D01*
X193957457Y-107378568D01*
X193978551Y-107385173D01*
X193990042Y-107389933D01*
X193990044Y-107389933D01*
X193990046Y-107389934D01*
X194168843Y-107425500D01*
X194168846Y-107425500D01*
X194351156Y-107425500D01*
X194471445Y-107401572D01*
X194529958Y-107389933D01*
X194698389Y-107320167D01*
X194698394Y-107320163D01*
X194701541Y-107318482D01*
X194703386Y-107318097D01*
X194704018Y-107317836D01*
X194704067Y-107317955D01*
X194769943Y-107304236D01*
X194818459Y-107318482D01*
X194821615Y-107320169D01*
X194990037Y-107389931D01*
X194990042Y-107389933D01*
X194990046Y-107389933D01*
X194990047Y-107389934D01*
X195168843Y-107425500D01*
X195168846Y-107425500D01*
X195351156Y-107425500D01*
X195529953Y-107389934D01*
X195529953Y-107389933D01*
X195529958Y-107389933D01*
X195541442Y-107385175D01*
X195610909Y-107377703D01*
X195632226Y-107383549D01*
X195727517Y-107419091D01*
X195787127Y-107425500D01*
X196732872Y-107425499D01*
X196792483Y-107419091D01*
X196887768Y-107383551D01*
X196957457Y-107378568D01*
X196978551Y-107385173D01*
X196990042Y-107389933D01*
X196990044Y-107389933D01*
X196990046Y-107389934D01*
X197168843Y-107425500D01*
X197168846Y-107425500D01*
X197351156Y-107425500D01*
X197471445Y-107401572D01*
X197529958Y-107389933D01*
X197698389Y-107320167D01*
X197698394Y-107320163D01*
X197701541Y-107318482D01*
X197703386Y-107318097D01*
X197704018Y-107317836D01*
X197704067Y-107317955D01*
X197769943Y-107304236D01*
X197818459Y-107318482D01*
X197821615Y-107320169D01*
X197990037Y-107389931D01*
X197990042Y-107389933D01*
X197990046Y-107389933D01*
X197990047Y-107389934D01*
X198168843Y-107425500D01*
X198168846Y-107425500D01*
X198351156Y-107425500D01*
X198529953Y-107389934D01*
X198529953Y-107389933D01*
X198529958Y-107389933D01*
X198541442Y-107385175D01*
X198610909Y-107377703D01*
X198632226Y-107383549D01*
X198727517Y-107419091D01*
X198787127Y-107425500D01*
X199732872Y-107425499D01*
X199792483Y-107419091D01*
X199887768Y-107383551D01*
X199957457Y-107378568D01*
X199978551Y-107385173D01*
X199990042Y-107389933D01*
X199990044Y-107389933D01*
X199990046Y-107389934D01*
X200168843Y-107425500D01*
X200168846Y-107425500D01*
X200351156Y-107425500D01*
X200471445Y-107401572D01*
X200529958Y-107389933D01*
X200698389Y-107320167D01*
X200698394Y-107320163D01*
X200701541Y-107318482D01*
X200703386Y-107318097D01*
X200704018Y-107317836D01*
X200704067Y-107317955D01*
X200769943Y-107304236D01*
X200818459Y-107318482D01*
X200821615Y-107320169D01*
X200990037Y-107389931D01*
X200990042Y-107389933D01*
X200990046Y-107389933D01*
X200990047Y-107389934D01*
X201168843Y-107425500D01*
X201168846Y-107425500D01*
X201351156Y-107425500D01*
X201529953Y-107389934D01*
X201529953Y-107389933D01*
X201529958Y-107389933D01*
X201541442Y-107385175D01*
X201610909Y-107377703D01*
X201632226Y-107383549D01*
X201727517Y-107419091D01*
X201787127Y-107425500D01*
X202732872Y-107425499D01*
X202792483Y-107419091D01*
X202927331Y-107368796D01*
X203042546Y-107282546D01*
X203128796Y-107167331D01*
X203179091Y-107032483D01*
X203185500Y-106972873D01*
X203185499Y-106027128D01*
X203182341Y-105997753D01*
X203194747Y-105928995D01*
X203242358Y-105877858D01*
X203305631Y-105860500D01*
X211183509Y-105860500D01*
X211250548Y-105880185D01*
X211296303Y-105932989D01*
X211307499Y-105982958D01*
X211454575Y-117807919D01*
X211435726Y-117875198D01*
X211418266Y-117897142D01*
X210237180Y-119078228D01*
X210175857Y-119111713D01*
X210106165Y-119106729D01*
X210050232Y-119064857D01*
X210025815Y-118999393D01*
X210025499Y-118990566D01*
X210025499Y-118327128D01*
X210019091Y-118267517D01*
X209983551Y-118172231D01*
X209978568Y-118102542D01*
X209985173Y-118081447D01*
X209989933Y-118069958D01*
X210025500Y-117891154D01*
X210025500Y-117708846D01*
X210025500Y-117708843D01*
X209989934Y-117530047D01*
X209989933Y-117530046D01*
X209989933Y-117530042D01*
X209920167Y-117361611D01*
X209920166Y-117361609D01*
X209918482Y-117358459D01*
X209918097Y-117356613D01*
X209917836Y-117355982D01*
X209917955Y-117355932D01*
X209904236Y-117290057D01*
X209918482Y-117241541D01*
X209920163Y-117238394D01*
X209920167Y-117238389D01*
X209989933Y-117069958D01*
X210025500Y-116891154D01*
X210025500Y-116708846D01*
X210025500Y-116708843D01*
X209989934Y-116530047D01*
X209989933Y-116530046D01*
X209989933Y-116530042D01*
X209989931Y-116530037D01*
X209920168Y-116361612D01*
X209920166Y-116361608D01*
X209818886Y-116210032D01*
X209818880Y-116210024D01*
X209689975Y-116081119D01*
X209689967Y-116081113D01*
X209538391Y-115979833D01*
X209538387Y-115979831D01*
X209369962Y-115910068D01*
X209369952Y-115910065D01*
X209191156Y-115874500D01*
X209191154Y-115874500D01*
X209008846Y-115874500D01*
X209008844Y-115874500D01*
X208830047Y-115910065D01*
X208830037Y-115910068D01*
X208661612Y-115979831D01*
X208661608Y-115979833D01*
X208510032Y-116081113D01*
X208510024Y-116081119D01*
X208381119Y-116210024D01*
X208381113Y-116210032D01*
X208279833Y-116361608D01*
X208279831Y-116361612D01*
X208210068Y-116530037D01*
X208210065Y-116530047D01*
X208174500Y-116708843D01*
X208174500Y-116708846D01*
X208174500Y-116891154D01*
X208174500Y-116891156D01*
X208174499Y-116891156D01*
X208210065Y-117069952D01*
X208210067Y-117069958D01*
X208279835Y-117238394D01*
X208281525Y-117241556D01*
X208281908Y-117243399D01*
X208282164Y-117244016D01*
X208282047Y-117244064D01*
X208295761Y-117309960D01*
X208281525Y-117358444D01*
X208279835Y-117361605D01*
X208210067Y-117530041D01*
X208210065Y-117530047D01*
X208174500Y-117708843D01*
X208174500Y-117708846D01*
X208174500Y-117891154D01*
X208174500Y-117891156D01*
X208174499Y-117891156D01*
X208210065Y-118069952D01*
X208210068Y-118069962D01*
X208214826Y-118081448D01*
X208222295Y-118150917D01*
X208216447Y-118172233D01*
X208180908Y-118267517D01*
X208174501Y-118327116D01*
X208174501Y-118327123D01*
X208174500Y-118327135D01*
X208174500Y-119272870D01*
X208174501Y-119272876D01*
X208180908Y-119332483D01*
X208231202Y-119467328D01*
X208231206Y-119467335D01*
X208317452Y-119582544D01*
X208317455Y-119582547D01*
X208432664Y-119668793D01*
X208432671Y-119668797D01*
X208567517Y-119719091D01*
X208567516Y-119719091D01*
X208573525Y-119719737D01*
X208627127Y-119725500D01*
X209572872Y-119725499D01*
X209632483Y-119719091D01*
X209707167Y-119691236D01*
X209776859Y-119686252D01*
X209838182Y-119719737D01*
X209871666Y-119781061D01*
X209874500Y-119807418D01*
X209874500Y-126151738D01*
X209854815Y-126218777D01*
X209838181Y-126239419D01*
X209237181Y-126840419D01*
X209175858Y-126873904D01*
X209106166Y-126868920D01*
X209050233Y-126827048D01*
X209025816Y-126761584D01*
X209025500Y-126752738D01*
X209025500Y-125238393D01*
X209025499Y-125238389D01*
X209002883Y-125124685D01*
X209000500Y-125100494D01*
X209000500Y-125021155D01*
X209000499Y-125021153D01*
X208969738Y-124866510D01*
X208969737Y-124866503D01*
X208933427Y-124778842D01*
X208909397Y-124720827D01*
X208909390Y-124720814D01*
X208821789Y-124589711D01*
X208821786Y-124589707D01*
X208710292Y-124478213D01*
X208710288Y-124478210D01*
X208579185Y-124390609D01*
X208579172Y-124390602D01*
X208433501Y-124330264D01*
X208433489Y-124330261D01*
X208278845Y-124299500D01*
X208278842Y-124299500D01*
X208249500Y-124299500D01*
X208182461Y-124279815D01*
X208136706Y-124227011D01*
X208125500Y-124175500D01*
X208125500Y-123137350D01*
X208145185Y-123070311D01*
X208146398Y-123068459D01*
X208166487Y-123038394D01*
X208209394Y-122974179D01*
X208269737Y-122828497D01*
X208300500Y-122673842D01*
X208300500Y-122516158D01*
X208300500Y-122516155D01*
X208300499Y-122516153D01*
X208269738Y-122361510D01*
X208269737Y-122361503D01*
X208269735Y-122361498D01*
X208209397Y-122215827D01*
X208209390Y-122215814D01*
X208121789Y-122084711D01*
X208117924Y-122080001D01*
X208118966Y-122079145D01*
X208088777Y-122023874D01*
X208093753Y-121954182D01*
X208118584Y-121915541D01*
X208117924Y-121914999D01*
X208121784Y-121910293D01*
X208121789Y-121910289D01*
X208209394Y-121779179D01*
X208269737Y-121633497D01*
X208300500Y-121478842D01*
X208300500Y-121321158D01*
X208300500Y-121321155D01*
X208300499Y-121321153D01*
X208279892Y-121217555D01*
X208269737Y-121166503D01*
X208243729Y-121103714D01*
X208209397Y-121020827D01*
X208209390Y-121020814D01*
X208121789Y-120889711D01*
X208121786Y-120889707D01*
X208010292Y-120778213D01*
X208010288Y-120778210D01*
X207879185Y-120690609D01*
X207879172Y-120690602D01*
X207733501Y-120630264D01*
X207733489Y-120630261D01*
X207578845Y-120599500D01*
X207578842Y-120599500D01*
X207421158Y-120599500D01*
X207421155Y-120599500D01*
X207266510Y-120630261D01*
X207266498Y-120630264D01*
X207120827Y-120690602D01*
X207120815Y-120690609D01*
X207026541Y-120753602D01*
X206959864Y-120774480D01*
X206957650Y-120774500D01*
X206812389Y-120774500D01*
X206691555Y-120798535D01*
X206691545Y-120798538D01*
X206577716Y-120845687D01*
X206577707Y-120845692D01*
X206475267Y-120914141D01*
X206475263Y-120914144D01*
X206388144Y-121001263D01*
X206388141Y-121001267D01*
X206319692Y-121103707D01*
X206319687Y-121103716D01*
X206272538Y-121217545D01*
X206272535Y-121217555D01*
X206248500Y-121338389D01*
X206248500Y-127864307D01*
X206228815Y-127931346D01*
X206212181Y-127951988D01*
X203137181Y-131026988D01*
X203075858Y-131060473D01*
X203006166Y-131055489D01*
X202950233Y-131013617D01*
X202925816Y-130948153D01*
X202925500Y-130939307D01*
X202925500Y-130017940D01*
X202945185Y-129950901D01*
X202961821Y-129930257D01*
X202981787Y-129910291D01*
X202981789Y-129910289D01*
X203069394Y-129779179D01*
X203129737Y-129633497D01*
X203160500Y-129478842D01*
X203160500Y-129321158D01*
X203160500Y-129321155D01*
X203160499Y-129321153D01*
X203152783Y-129282364D01*
X203129737Y-129166503D01*
X203129735Y-129166498D01*
X203069397Y-129020827D01*
X203069390Y-129020814D01*
X202981789Y-128889711D01*
X202981786Y-128889707D01*
X202870292Y-128778213D01*
X202870288Y-128778210D01*
X202739185Y-128690609D01*
X202739172Y-128690602D01*
X202593501Y-128630264D01*
X202593489Y-128630261D01*
X202438845Y-128599500D01*
X202438842Y-128599500D01*
X202281158Y-128599500D01*
X202281155Y-128599500D01*
X202126510Y-128630261D01*
X202126498Y-128630264D01*
X201980827Y-128690602D01*
X201980814Y-128690609D01*
X201849711Y-128778210D01*
X201849707Y-128778213D01*
X201738213Y-128889707D01*
X201738210Y-128889711D01*
X201650609Y-129020814D01*
X201650601Y-129020829D01*
X201627624Y-129076300D01*
X201583782Y-129130703D01*
X201517488Y-129152767D01*
X201449789Y-129135487D01*
X201425383Y-129116527D01*
X201389975Y-129081119D01*
X201389967Y-129081113D01*
X201238391Y-128979833D01*
X201238387Y-128979831D01*
X201069962Y-128910068D01*
X201069952Y-128910065D01*
X200891156Y-128874500D01*
X200891154Y-128874500D01*
X200708846Y-128874500D01*
X200708844Y-128874500D01*
X200530047Y-128910065D01*
X200530041Y-128910067D01*
X200361605Y-128979835D01*
X200358444Y-128981525D01*
X200356600Y-128981908D01*
X200355984Y-128982164D01*
X200355935Y-128982047D01*
X200290040Y-128995761D01*
X200241556Y-128981525D01*
X200238394Y-128979835D01*
X200069958Y-128910067D01*
X200069952Y-128910065D01*
X199891156Y-128874500D01*
X199891154Y-128874500D01*
X199708846Y-128874500D01*
X199708844Y-128874500D01*
X199530047Y-128910065D01*
X199530034Y-128910069D01*
X199518545Y-128914828D01*
X199449076Y-128922294D01*
X199427765Y-128916447D01*
X199423424Y-128914828D01*
X199362083Y-128891949D01*
X199332481Y-128880908D01*
X199332483Y-128880908D01*
X199272883Y-128874501D01*
X199272881Y-128874500D01*
X199272873Y-128874500D01*
X199272864Y-128874500D01*
X198327129Y-128874500D01*
X198327123Y-128874501D01*
X198267516Y-128880908D01*
X198132671Y-128931202D01*
X198132669Y-128931203D01*
X198115311Y-128944198D01*
X198049846Y-128968614D01*
X197981573Y-128953762D01*
X197937899Y-128913820D01*
X197921792Y-128889715D01*
X197921786Y-128889707D01*
X197810292Y-128778213D01*
X197810288Y-128778210D01*
X197679185Y-128690609D01*
X197679172Y-128690602D01*
X197533501Y-128630264D01*
X197533489Y-128630261D01*
X197378845Y-128599500D01*
X197378842Y-128599500D01*
X197221158Y-128599500D01*
X197221155Y-128599500D01*
X197066510Y-128630261D01*
X197066498Y-128630264D01*
X196920827Y-128690602D01*
X196920814Y-128690609D01*
X196789711Y-128778210D01*
X196789707Y-128778213D01*
X196737681Y-128830240D01*
X196676358Y-128863725D01*
X196606666Y-128858741D01*
X196562319Y-128830240D01*
X196510292Y-128778213D01*
X196510288Y-128778210D01*
X196379185Y-128690609D01*
X196379172Y-128690602D01*
X196233501Y-128630264D01*
X196233489Y-128630261D01*
X196078845Y-128599500D01*
X196078842Y-128599500D01*
X195921158Y-128599500D01*
X195921155Y-128599500D01*
X195766510Y-128630261D01*
X195766498Y-128630264D01*
X195620827Y-128690602D01*
X195620814Y-128690609D01*
X195489711Y-128778210D01*
X195489707Y-128778213D01*
X195437681Y-128830240D01*
X195376358Y-128863725D01*
X195306666Y-128858741D01*
X195262319Y-128830240D01*
X195210292Y-128778213D01*
X195210288Y-128778210D01*
X195079185Y-128690609D01*
X195079172Y-128690602D01*
X194933501Y-128630264D01*
X194933489Y-128630261D01*
X194778845Y-128599500D01*
X194778842Y-128599500D01*
X194621158Y-128599500D01*
X194621155Y-128599500D01*
X194466510Y-128630261D01*
X194466498Y-128630264D01*
X194320827Y-128690602D01*
X194320814Y-128690609D01*
X194189711Y-128778210D01*
X194189707Y-128778213D01*
X194187681Y-128780240D01*
X194186357Y-128780962D01*
X194185001Y-128782076D01*
X194184789Y-128781818D01*
X194126358Y-128813725D01*
X194056666Y-128808741D01*
X194015060Y-128782001D01*
X194014999Y-128782076D01*
X194014360Y-128781552D01*
X194012319Y-128780240D01*
X194010292Y-128778213D01*
X194010288Y-128778210D01*
X193879185Y-128690609D01*
X193879172Y-128690602D01*
X193733501Y-128630264D01*
X193733489Y-128630261D01*
X193578845Y-128599500D01*
X193578842Y-128599500D01*
X193421158Y-128599500D01*
X193421155Y-128599500D01*
X193266510Y-128630261D01*
X193266498Y-128630264D01*
X193120827Y-128690602D01*
X193120814Y-128690609D01*
X192989711Y-128778210D01*
X192989707Y-128778213D01*
X192937681Y-128830240D01*
X192876358Y-128863725D01*
X192806666Y-128858741D01*
X192762319Y-128830240D01*
X192710292Y-128778213D01*
X192710288Y-128778210D01*
X192579185Y-128690609D01*
X192579172Y-128690602D01*
X192433501Y-128630264D01*
X192433489Y-128630261D01*
X192278845Y-128599500D01*
X192278842Y-128599500D01*
X192121158Y-128599500D01*
X192121155Y-128599500D01*
X191966510Y-128630261D01*
X191966498Y-128630264D01*
X191820827Y-128690602D01*
X191820814Y-128690609D01*
X191689711Y-128778210D01*
X191689707Y-128778213D01*
X191637681Y-128830240D01*
X191576358Y-128863725D01*
X191506666Y-128858741D01*
X191462319Y-128830240D01*
X191410292Y-128778213D01*
X191410288Y-128778210D01*
X191279185Y-128690609D01*
X191279172Y-128690602D01*
X191133501Y-128630264D01*
X191133489Y-128630261D01*
X190978845Y-128599500D01*
X190978842Y-128599500D01*
X190821158Y-128599500D01*
X190821155Y-128599500D01*
X190666510Y-128630261D01*
X190666498Y-128630264D01*
X190520827Y-128690602D01*
X190520814Y-128690609D01*
X190389711Y-128778210D01*
X190389707Y-128778213D01*
X190278213Y-128889707D01*
X190278208Y-128889713D01*
X190252601Y-128928037D01*
X190198989Y-128972841D01*
X190129664Y-128981548D01*
X190066636Y-128951393D01*
X190029918Y-128891949D01*
X190025500Y-128859145D01*
X190025500Y-128510452D01*
X190045185Y-128443413D01*
X190061819Y-128422771D01*
X193122772Y-125361819D01*
X193184095Y-125328334D01*
X193210453Y-125325500D01*
X204357648Y-125325500D01*
X204424687Y-125345185D01*
X204426539Y-125346398D01*
X204520819Y-125409394D01*
X204520821Y-125409395D01*
X204520825Y-125409397D01*
X204666496Y-125469735D01*
X204666501Y-125469737D01*
X204821151Y-125500499D01*
X204821154Y-125500500D01*
X204821156Y-125500500D01*
X204978842Y-125500500D01*
X204978843Y-125500499D01*
X205133495Y-125469737D01*
X205279177Y-125409394D01*
X205410287Y-125321789D01*
X205521787Y-125210289D01*
X205609392Y-125079179D01*
X205669735Y-124933497D01*
X205700498Y-124778842D01*
X205700498Y-124621158D01*
X205700498Y-124621155D01*
X205700497Y-124621153D01*
X205672064Y-124478211D01*
X205669735Y-124466503D01*
X205638296Y-124390602D01*
X205609395Y-124320827D01*
X205609388Y-124320814D01*
X205521787Y-124189711D01*
X205521784Y-124189707D01*
X205410290Y-124078213D01*
X205410286Y-124078210D01*
X205279183Y-123990609D01*
X205279170Y-123990602D01*
X205133499Y-123930264D01*
X205133487Y-123930261D01*
X204978843Y-123899500D01*
X204978840Y-123899500D01*
X204821156Y-123899500D01*
X204821153Y-123899500D01*
X204666508Y-123930261D01*
X204666505Y-123930262D01*
X204666504Y-123930262D01*
X204666501Y-123930263D01*
X204592240Y-123961022D01*
X204571952Y-123969426D01*
X204502482Y-123976894D01*
X204440003Y-123945618D01*
X204404351Y-123885529D01*
X204400500Y-123854864D01*
X204400500Y-123821155D01*
X204400499Y-123821153D01*
X204369738Y-123666510D01*
X204369737Y-123666503D01*
X204331550Y-123574311D01*
X204309397Y-123520827D01*
X204309390Y-123520814D01*
X204221789Y-123389711D01*
X204221786Y-123389707D01*
X204110292Y-123278213D01*
X204110288Y-123278210D01*
X203979185Y-123190609D01*
X203979172Y-123190602D01*
X203833501Y-123130264D01*
X203833489Y-123130261D01*
X203678845Y-123099500D01*
X203678842Y-123099500D01*
X203521158Y-123099500D01*
X203521155Y-123099500D01*
X203366510Y-123130261D01*
X203366498Y-123130264D01*
X203220827Y-123190602D01*
X203220815Y-123190609D01*
X203126541Y-123253602D01*
X203059864Y-123274480D01*
X203057650Y-123274500D01*
X192461607Y-123274500D01*
X192338393Y-123274500D01*
X192319741Y-123278210D01*
X192298414Y-123282452D01*
X192298413Y-123282451D01*
X192217552Y-123298536D01*
X192217541Y-123298539D01*
X192185262Y-123311909D01*
X192170397Y-123318067D01*
X192103718Y-123345685D01*
X192084571Y-123358479D01*
X192078190Y-123362743D01*
X192078189Y-123362744D01*
X192078188Y-123362743D01*
X192001266Y-123414142D01*
X192001265Y-123414143D01*
X191957704Y-123457705D01*
X191914142Y-123501267D01*
X187004225Y-128411183D01*
X187004218Y-128411190D01*
X187001270Y-128414139D01*
X187001267Y-128414142D01*
X186914142Y-128501267D01*
X186881660Y-128549880D01*
X186877208Y-128556542D01*
X186877205Y-128556546D01*
X186845687Y-128603715D01*
X186845685Y-128603718D01*
X186798540Y-128717538D01*
X186798538Y-128717545D01*
X186798537Y-128717548D01*
X186798537Y-128717549D01*
X186776123Y-128830240D01*
X186775278Y-128834487D01*
X186775274Y-128834503D01*
X186774500Y-128838388D01*
X186774500Y-140557650D01*
X186754815Y-140624689D01*
X186753602Y-140626541D01*
X186690609Y-140720815D01*
X186690602Y-140720828D01*
X186630264Y-140866498D01*
X186630261Y-140866510D01*
X186599500Y-141021153D01*
X186599500Y-141178846D01*
X186630261Y-141333489D01*
X186630264Y-141333501D01*
X186690602Y-141479172D01*
X186690609Y-141479185D01*
X186778210Y-141610288D01*
X186778213Y-141610292D01*
X186889707Y-141721786D01*
X186889711Y-141721789D01*
X187020814Y-141809390D01*
X187020827Y-141809397D01*
X187160494Y-141867248D01*
X187166503Y-141869737D01*
X187321153Y-141900499D01*
X187321156Y-141900500D01*
X187321158Y-141900500D01*
X187478844Y-141900500D01*
X187478845Y-141900499D01*
X187633497Y-141869737D01*
X187746166Y-141823067D01*
X187779172Y-141809397D01*
X187779172Y-141809396D01*
X187779179Y-141809394D01*
X187910289Y-141721789D01*
X188021789Y-141610289D01*
X188109394Y-141479179D01*
X188169737Y-141333497D01*
X188200500Y-141178842D01*
X188200500Y-141021158D01*
X188200500Y-141021155D01*
X188200499Y-141021153D01*
X188169738Y-140866510D01*
X188169737Y-140866503D01*
X188109394Y-140720821D01*
X188046397Y-140626539D01*
X188025520Y-140559863D01*
X188025500Y-140557650D01*
X188025500Y-129210452D01*
X188045185Y-129143413D01*
X188061819Y-129122771D01*
X188562819Y-128621771D01*
X188624142Y-128588286D01*
X188693834Y-128593270D01*
X188749767Y-128635142D01*
X188774184Y-128700606D01*
X188774500Y-128709452D01*
X188774500Y-140557650D01*
X188754815Y-140624689D01*
X188753602Y-140626541D01*
X188690609Y-140720815D01*
X188690602Y-140720828D01*
X188630264Y-140866498D01*
X188630261Y-140866510D01*
X188599500Y-141021153D01*
X188599500Y-141178846D01*
X188630261Y-141333489D01*
X188630264Y-141333501D01*
X188690602Y-141479172D01*
X188690609Y-141479185D01*
X188778210Y-141610288D01*
X188778213Y-141610292D01*
X188889707Y-141721786D01*
X188889711Y-141721789D01*
X189020814Y-141809390D01*
X189020827Y-141809397D01*
X189160494Y-141867248D01*
X189166503Y-141869737D01*
X189321153Y-141900499D01*
X189321156Y-141900500D01*
X189321158Y-141900500D01*
X189478844Y-141900500D01*
X189478845Y-141900499D01*
X189633497Y-141869737D01*
X189746166Y-141823067D01*
X189779172Y-141809397D01*
X189779172Y-141809396D01*
X189779179Y-141809394D01*
X189910289Y-141721789D01*
X190021789Y-141610289D01*
X190109394Y-141479179D01*
X190169737Y-141333497D01*
X190200500Y-141178842D01*
X190200500Y-141021158D01*
X190200500Y-141021155D01*
X190200499Y-141021153D01*
X190169738Y-140866510D01*
X190169737Y-140866503D01*
X190109394Y-140720821D01*
X190046397Y-140626539D01*
X190025520Y-140559863D01*
X190025500Y-140557650D01*
X190025500Y-129940854D01*
X190045185Y-129873815D01*
X190097989Y-129828060D01*
X190167147Y-129818116D01*
X190230703Y-129847141D01*
X190252602Y-129871963D01*
X190278210Y-129910288D01*
X190278213Y-129910292D01*
X190389707Y-130021786D01*
X190389711Y-130021789D01*
X190520814Y-130109390D01*
X190520827Y-130109397D01*
X190608230Y-130145599D01*
X190666503Y-130169737D01*
X190777716Y-130191858D01*
X190839623Y-130224241D01*
X190841203Y-130225793D01*
X193438181Y-132822771D01*
X193471666Y-132884094D01*
X193474500Y-132910452D01*
X193474500Y-141744510D01*
X193454815Y-141811549D01*
X193402011Y-141857304D01*
X193332853Y-141867248D01*
X193303048Y-141859071D01*
X193233501Y-141830264D01*
X193233489Y-141830261D01*
X193078845Y-141799500D01*
X193078842Y-141799500D01*
X192921158Y-141799500D01*
X192921155Y-141799500D01*
X192766510Y-141830261D01*
X192766498Y-141830264D01*
X192620827Y-141890602D01*
X192620814Y-141890609D01*
X192489711Y-141978210D01*
X192489707Y-141978213D01*
X192378213Y-142089707D01*
X192378210Y-142089711D01*
X192290609Y-142220814D01*
X192290602Y-142220827D01*
X192230264Y-142366498D01*
X192230261Y-142366510D01*
X192199500Y-142521153D01*
X192199500Y-142678846D01*
X192230261Y-142833489D01*
X192230264Y-142833501D01*
X192290602Y-142979172D01*
X192290609Y-142979185D01*
X192378210Y-143110288D01*
X192378213Y-143110292D01*
X192489707Y-143221786D01*
X192489711Y-143221789D01*
X192620814Y-143309390D01*
X192620827Y-143309397D01*
X192766498Y-143369735D01*
X192766503Y-143369737D01*
X192921153Y-143400499D01*
X192921156Y-143400500D01*
X192921158Y-143400500D01*
X193078844Y-143400500D01*
X193078845Y-143400499D01*
X193233497Y-143369737D01*
X193379179Y-143309394D01*
X193473459Y-143246398D01*
X193540136Y-143225520D01*
X193542350Y-143225500D01*
X194061607Y-143225500D01*
X194122029Y-143213481D01*
X194182452Y-143201463D01*
X194215792Y-143187652D01*
X194296286Y-143154312D01*
X194296286Y-143154311D01*
X194301916Y-143151980D01*
X194302542Y-143153492D01*
X194363202Y-143140857D01*
X194428448Y-143165851D01*
X194440945Y-143176777D01*
X194452586Y-143188418D01*
X194452608Y-143188438D01*
X197145544Y-145881374D01*
X197145573Y-145881405D01*
X197235792Y-145971624D01*
X197272357Y-145996056D01*
X197272359Y-145996057D01*
X197338243Y-146040080D01*
X197391726Y-146062233D01*
X197452076Y-146087231D01*
X197512499Y-146099249D01*
X197572921Y-146111268D01*
X197572922Y-146111268D01*
X197960657Y-146111268D01*
X198027696Y-146130953D01*
X198029548Y-146132166D01*
X198123828Y-146195162D01*
X198123830Y-146195163D01*
X198123834Y-146195165D01*
X198269505Y-146255503D01*
X198269510Y-146255505D01*
X198424160Y-146286267D01*
X198424163Y-146286268D01*
X198424165Y-146286268D01*
X198581851Y-146286268D01*
X198581852Y-146286267D01*
X198736504Y-146255505D01*
X198882186Y-146195162D01*
X199013296Y-146107557D01*
X199124796Y-145996057D01*
X199212401Y-145864947D01*
X199272744Y-145719265D01*
X199303507Y-145564610D01*
X199303507Y-145406926D01*
X199303507Y-145406923D01*
X199303506Y-145406921D01*
X199272745Y-145252278D01*
X199272744Y-145252271D01*
X199272742Y-145252266D01*
X199212404Y-145106595D01*
X199212397Y-145106582D01*
X199124796Y-144975479D01*
X199124793Y-144975475D01*
X199078379Y-144929061D01*
X199044894Y-144867738D01*
X199049878Y-144798046D01*
X199078380Y-144753698D01*
X199121786Y-144710292D01*
X199121789Y-144710289D01*
X199209394Y-144579179D01*
X199269737Y-144433497D01*
X199300500Y-144278842D01*
X199300500Y-144121158D01*
X199300500Y-144121155D01*
X199300499Y-144121153D01*
X199269738Y-143966510D01*
X199269737Y-143966503D01*
X199269735Y-143966498D01*
X199209397Y-143820827D01*
X199209390Y-143820814D01*
X199121789Y-143689711D01*
X199121786Y-143689707D01*
X199069760Y-143637681D01*
X199036275Y-143576358D01*
X199041259Y-143506666D01*
X199069760Y-143462319D01*
X199121786Y-143410292D01*
X199121789Y-143410289D01*
X199209394Y-143279179D01*
X199269737Y-143133497D01*
X199300500Y-142978842D01*
X199300500Y-142821158D01*
X199300500Y-142821155D01*
X199300499Y-142821153D01*
X199269738Y-142666508D01*
X199269737Y-142666507D01*
X199269737Y-142666503D01*
X199269735Y-142666498D01*
X199268763Y-142663293D01*
X199268747Y-142661523D01*
X199268549Y-142660528D01*
X199268737Y-142660490D01*
X199268135Y-142593426D01*
X199284317Y-142558403D01*
X199331040Y-142488479D01*
X199391383Y-142342797D01*
X199422146Y-142188142D01*
X199422146Y-142030458D01*
X199422146Y-142030455D01*
X199422145Y-142030453D01*
X199411753Y-141978210D01*
X199391383Y-141875803D01*
X199388870Y-141869735D01*
X199331043Y-141730127D01*
X199331036Y-141730114D01*
X199243435Y-141599011D01*
X199243432Y-141599007D01*
X199131938Y-141487513D01*
X199131933Y-141487509D01*
X199000831Y-141399909D01*
X199000818Y-141399902D01*
X198855147Y-141339564D01*
X198855135Y-141339561D01*
X198700491Y-141308800D01*
X198700488Y-141308800D01*
X198542804Y-141308800D01*
X198542801Y-141308800D01*
X198388156Y-141339561D01*
X198388144Y-141339564D01*
X198242473Y-141399902D01*
X198242461Y-141399909D01*
X198148187Y-141462902D01*
X198130140Y-141468552D01*
X198114231Y-141478777D01*
X198083271Y-141483228D01*
X198081510Y-141483780D01*
X198079296Y-141483800D01*
X197949500Y-141483800D01*
X197882461Y-141464115D01*
X197836706Y-141411311D01*
X197825500Y-141359800D01*
X197825500Y-140292784D01*
X197845185Y-140225745D01*
X197897989Y-140179990D01*
X197967147Y-140170046D01*
X197973692Y-140171167D01*
X198121155Y-140200500D01*
X198121158Y-140200500D01*
X198278844Y-140200500D01*
X198278845Y-140200499D01*
X198433497Y-140169737D01*
X198579179Y-140109394D01*
X198673459Y-140046398D01*
X198740136Y-140025520D01*
X198742350Y-140025500D01*
X199561607Y-140025500D01*
X199622029Y-140013481D01*
X199682452Y-140001463D01*
X199715792Y-139987652D01*
X199796286Y-139954312D01*
X199862169Y-139910289D01*
X199898733Y-139885858D01*
X199985858Y-139798733D01*
X199985858Y-139798731D01*
X199996066Y-139788524D01*
X199996067Y-139788521D01*
X201385820Y-138398768D01*
X201447142Y-138365285D01*
X201516834Y-138370269D01*
X201572767Y-138412141D01*
X201597184Y-138477605D01*
X201597500Y-138486451D01*
X201597500Y-141207717D01*
X201620927Y-141325496D01*
X201620928Y-141325500D01*
X201621537Y-141328559D01*
X201621538Y-141328561D01*
X201621539Y-141328566D01*
X201668685Y-141442388D01*
X201668687Y-141442391D01*
X201668688Y-141442394D01*
X201698835Y-141487511D01*
X201737142Y-141544841D01*
X201824267Y-141631966D01*
X201824270Y-141631968D01*
X201831747Y-141639445D01*
X203105330Y-142913028D01*
X203138815Y-142974351D01*
X203141649Y-143000447D01*
X203168679Y-155785238D01*
X203149136Y-155852319D01*
X203096429Y-155898185D01*
X203044679Y-155909500D01*
X181904500Y-155909500D01*
X181837461Y-155889815D01*
X181791706Y-155837011D01*
X181780500Y-155785500D01*
X181780500Y-154733543D01*
X182079499Y-154733543D01*
X182117947Y-154926829D01*
X182117950Y-154926839D01*
X182193364Y-155108907D01*
X182193371Y-155108920D01*
X182302860Y-155272781D01*
X182302863Y-155272785D01*
X182442214Y-155412136D01*
X182442218Y-155412139D01*
X182606079Y-155521628D01*
X182606092Y-155521635D01*
X182788160Y-155597049D01*
X182788165Y-155597051D01*
X182788169Y-155597051D01*
X182788170Y-155597052D01*
X182981456Y-155635500D01*
X182981459Y-155635500D01*
X183178543Y-155635500D01*
X183308582Y-155609632D01*
X183371835Y-155597051D01*
X183553914Y-155521632D01*
X183717782Y-155412139D01*
X183857139Y-155272782D01*
X183966632Y-155108914D01*
X184042051Y-154926835D01*
X184080500Y-154733543D01*
X190719499Y-154733543D01*
X190757947Y-154926829D01*
X190757950Y-154926839D01*
X190833364Y-155108907D01*
X190833371Y-155108920D01*
X190942860Y-155272781D01*
X190942863Y-155272785D01*
X191082214Y-155412136D01*
X191082218Y-155412139D01*
X191246079Y-155521628D01*
X191246092Y-155521635D01*
X191428160Y-155597049D01*
X191428165Y-155597051D01*
X191428169Y-155597051D01*
X191428170Y-155597052D01*
X191621456Y-155635500D01*
X191621459Y-155635500D01*
X191818543Y-155635500D01*
X191948582Y-155609632D01*
X192011835Y-155597051D01*
X192193914Y-155521632D01*
X192357782Y-155412139D01*
X192497139Y-155272782D01*
X192606632Y-155108914D01*
X192682051Y-154926835D01*
X192720500Y-154733541D01*
X192720500Y-153936459D01*
X192720500Y-153936456D01*
X192682052Y-153743170D01*
X192682051Y-153743169D01*
X192682051Y-153743165D01*
X192618489Y-153589711D01*
X192606635Y-153561092D01*
X192606628Y-153561079D01*
X192497139Y-153397218D01*
X192497136Y-153397214D01*
X192357785Y-153257863D01*
X192357781Y-153257860D01*
X192193920Y-153148371D01*
X192193907Y-153148364D01*
X192011839Y-153072950D01*
X192011829Y-153072947D01*
X191818543Y-153034500D01*
X191818541Y-153034500D01*
X191621459Y-153034500D01*
X191621457Y-153034500D01*
X191428170Y-153072947D01*
X191428160Y-153072950D01*
X191246092Y-153148364D01*
X191246079Y-153148371D01*
X191082218Y-153257860D01*
X191082214Y-153257863D01*
X190942863Y-153397214D01*
X190942860Y-153397218D01*
X190833371Y-153561079D01*
X190833364Y-153561092D01*
X190757950Y-153743160D01*
X190757947Y-153743170D01*
X190719500Y-153936456D01*
X190719500Y-153936459D01*
X190719500Y-154733541D01*
X190719500Y-154733543D01*
X190719499Y-154733543D01*
X184080500Y-154733543D01*
X184080500Y-154733541D01*
X184080500Y-153936459D01*
X184080500Y-153936456D01*
X184042052Y-153743170D01*
X184042051Y-153743169D01*
X184042051Y-153743165D01*
X183978489Y-153589711D01*
X183966635Y-153561092D01*
X183966628Y-153561079D01*
X183857139Y-153397218D01*
X183857136Y-153397214D01*
X183717785Y-153257863D01*
X183717781Y-153257860D01*
X183553920Y-153148371D01*
X183553907Y-153148364D01*
X183371839Y-153072950D01*
X183371829Y-153072947D01*
X183178543Y-153034500D01*
X183178541Y-153034500D01*
X182981459Y-153034500D01*
X182981457Y-153034500D01*
X182788170Y-153072947D01*
X182788160Y-153072950D01*
X182606092Y-153148364D01*
X182606079Y-153148371D01*
X182442218Y-153257860D01*
X182442214Y-153257863D01*
X182302863Y-153397214D01*
X182302860Y-153397218D01*
X182193371Y-153561079D01*
X182193364Y-153561092D01*
X182117950Y-153743160D01*
X182117947Y-153743170D01*
X182079500Y-153936456D01*
X182079500Y-153936459D01*
X182079500Y-154733541D01*
X182079500Y-154733543D01*
X182079499Y-154733543D01*
X181780500Y-154733543D01*
X181780500Y-150803543D01*
X182079499Y-150803543D01*
X182117947Y-150996829D01*
X182117950Y-150996839D01*
X182193364Y-151178907D01*
X182193371Y-151178920D01*
X182302860Y-151342781D01*
X182302863Y-151342785D01*
X182442214Y-151482136D01*
X182442218Y-151482139D01*
X182606079Y-151591628D01*
X182606092Y-151591635D01*
X182788160Y-151667049D01*
X182788165Y-151667051D01*
X182788169Y-151667051D01*
X182788170Y-151667052D01*
X182981456Y-151705500D01*
X182981459Y-151705500D01*
X183178543Y-151705500D01*
X183308582Y-151679632D01*
X183371835Y-151667051D01*
X183553914Y-151591632D01*
X183717782Y-151482139D01*
X183857139Y-151342782D01*
X183966632Y-151178914D01*
X183970540Y-151169478D01*
X184014376Y-151115074D01*
X184080669Y-151093004D01*
X184148369Y-151110279D01*
X184153028Y-151113432D01*
X184156633Y-151115513D01*
X184156635Y-151115515D01*
X184287865Y-151191281D01*
X184434234Y-151230500D01*
X184434236Y-151230500D01*
X184585764Y-151230500D01*
X184585766Y-151230500D01*
X184732135Y-151191281D01*
X184863365Y-151115515D01*
X184970515Y-151008365D01*
X185046281Y-150877135D01*
X185085500Y-150730766D01*
X185085500Y-150579234D01*
X189714500Y-150579234D01*
X189714500Y-150730765D01*
X189753719Y-150877136D01*
X189783767Y-150929179D01*
X189829485Y-151008365D01*
X189936635Y-151115515D01*
X190067865Y-151191281D01*
X190214234Y-151230500D01*
X190214236Y-151230500D01*
X190365764Y-151230500D01*
X190365766Y-151230500D01*
X190512135Y-151191281D01*
X190643365Y-151115515D01*
X190643366Y-151115513D01*
X190650403Y-151111451D01*
X190651749Y-151113783D01*
X190704553Y-151093357D01*
X190773001Y-151107381D01*
X190823001Y-151156185D01*
X190829458Y-151169474D01*
X190833367Y-151178913D01*
X190833371Y-151178920D01*
X190942860Y-151342781D01*
X190942863Y-151342785D01*
X191082214Y-151482136D01*
X191082218Y-151482139D01*
X191246079Y-151591628D01*
X191246092Y-151591635D01*
X191428160Y-151667049D01*
X191428165Y-151667051D01*
X191428169Y-151667051D01*
X191428170Y-151667052D01*
X191621456Y-151705500D01*
X191621459Y-151705500D01*
X191818543Y-151705500D01*
X191948582Y-151679632D01*
X192011835Y-151667051D01*
X192193914Y-151591632D01*
X192357782Y-151482139D01*
X192497139Y-151342782D01*
X192606632Y-151178914D01*
X192682051Y-150996835D01*
X192705861Y-150877135D01*
X192720500Y-150803543D01*
X192720500Y-149506456D01*
X192682052Y-149313170D01*
X192682051Y-149313169D01*
X192682051Y-149313165D01*
X192639439Y-149210289D01*
X192606635Y-149131092D01*
X192606628Y-149131079D01*
X192497139Y-148967218D01*
X192497136Y-148967214D01*
X192357785Y-148827863D01*
X192357781Y-148827860D01*
X192193920Y-148718371D01*
X192193907Y-148718364D01*
X192011839Y-148642950D01*
X192011829Y-148642947D01*
X191818543Y-148604500D01*
X191818541Y-148604500D01*
X191621459Y-148604500D01*
X191621457Y-148604500D01*
X191428170Y-148642947D01*
X191428160Y-148642950D01*
X191246092Y-148718364D01*
X191246079Y-148718371D01*
X191082218Y-148827860D01*
X191082214Y-148827863D01*
X190942863Y-148967214D01*
X190942860Y-148967218D01*
X190833371Y-149131079D01*
X190833364Y-149131092D01*
X190757950Y-149313160D01*
X190757947Y-149313170D01*
X190719500Y-149506456D01*
X190719500Y-150023666D01*
X190699815Y-150090705D01*
X190647011Y-150136460D01*
X190577853Y-150146404D01*
X190533501Y-150131054D01*
X190512137Y-150118719D01*
X190407584Y-150090705D01*
X190365766Y-150079500D01*
X190214234Y-150079500D01*
X190067863Y-150118719D01*
X189936635Y-150194485D01*
X189936632Y-150194487D01*
X189829487Y-150301632D01*
X189829485Y-150301635D01*
X189753719Y-150432863D01*
X189714500Y-150579234D01*
X185085500Y-150579234D01*
X185046281Y-150432865D01*
X184970515Y-150301635D01*
X184863365Y-150194485D01*
X184780087Y-150146404D01*
X184732136Y-150118719D01*
X184627584Y-150090705D01*
X184585766Y-150079500D01*
X184434234Y-150079500D01*
X184287862Y-150118719D01*
X184266499Y-150131054D01*
X184198598Y-150147525D01*
X184132572Y-150124673D01*
X184089382Y-150069751D01*
X184080500Y-150023666D01*
X184080500Y-149506456D01*
X184042052Y-149313170D01*
X184042051Y-149313169D01*
X184042051Y-149313165D01*
X183999439Y-149210289D01*
X183966635Y-149131092D01*
X183966628Y-149131079D01*
X183857139Y-148967218D01*
X183857136Y-148967214D01*
X183717785Y-148827863D01*
X183717781Y-148827860D01*
X183553920Y-148718371D01*
X183553907Y-148718364D01*
X183371839Y-148642950D01*
X183371829Y-148642947D01*
X183178543Y-148604500D01*
X183178541Y-148604500D01*
X182981459Y-148604500D01*
X182981457Y-148604500D01*
X182788170Y-148642947D01*
X182788160Y-148642950D01*
X182606092Y-148718364D01*
X182606079Y-148718371D01*
X182442218Y-148827860D01*
X182442214Y-148827863D01*
X182302863Y-148967214D01*
X182302860Y-148967218D01*
X182193371Y-149131079D01*
X182193364Y-149131092D01*
X182117950Y-149313160D01*
X182117947Y-149313170D01*
X182079500Y-149506456D01*
X182079500Y-149506459D01*
X182079500Y-150803541D01*
X182079500Y-150803543D01*
X182079499Y-150803543D01*
X181780500Y-150803543D01*
X181780500Y-129221153D01*
X184299500Y-129221153D01*
X184299500Y-129378846D01*
X184330261Y-129533489D01*
X184330264Y-129533501D01*
X184390602Y-129679172D01*
X184390609Y-129679185D01*
X184478210Y-129810288D01*
X184478213Y-129810292D01*
X184589707Y-129921786D01*
X184589711Y-129921789D01*
X184720814Y-130009390D01*
X184720827Y-130009397D01*
X184866498Y-130069735D01*
X184866503Y-130069737D01*
X185021153Y-130100499D01*
X185021156Y-130100500D01*
X185021158Y-130100500D01*
X185178844Y-130100500D01*
X185178845Y-130100499D01*
X185333497Y-130069737D01*
X185479179Y-130009394D01*
X185610289Y-129921789D01*
X185721789Y-129810289D01*
X185809394Y-129679179D01*
X185869737Y-129533497D01*
X185900500Y-129378842D01*
X185900500Y-129221158D01*
X185900500Y-129221155D01*
X185900499Y-129221153D01*
X185872643Y-129081113D01*
X185869737Y-129066503D01*
X185834803Y-128982164D01*
X185809397Y-128920828D01*
X185809396Y-128920827D01*
X185809394Y-128920821D01*
X185746397Y-128826539D01*
X185725520Y-128759863D01*
X185725500Y-128757650D01*
X185725500Y-127210452D01*
X185745185Y-127143413D01*
X185761819Y-127122771D01*
X190744416Y-122140174D01*
X190744429Y-122140159D01*
X200093433Y-112791156D01*
X208174499Y-112791156D01*
X208210065Y-112969952D01*
X208210067Y-112969958D01*
X208279835Y-113138394D01*
X208281525Y-113141556D01*
X208281908Y-113143399D01*
X208282164Y-113144016D01*
X208282047Y-113144064D01*
X208295761Y-113209960D01*
X208281525Y-113258444D01*
X208279835Y-113261605D01*
X208210067Y-113430041D01*
X208210065Y-113430047D01*
X208174500Y-113608843D01*
X208174500Y-113608846D01*
X208174500Y-113791154D01*
X208174500Y-113791156D01*
X208174499Y-113791156D01*
X208210065Y-113969952D01*
X208210068Y-113969962D01*
X208214826Y-113981448D01*
X208222295Y-114050917D01*
X208216447Y-114072233D01*
X208180908Y-114167517D01*
X208174501Y-114227116D01*
X208174501Y-114227123D01*
X208174500Y-114227135D01*
X208174500Y-115172870D01*
X208174501Y-115172876D01*
X208180908Y-115232483D01*
X208231202Y-115367328D01*
X208231206Y-115367335D01*
X208317452Y-115482544D01*
X208317455Y-115482547D01*
X208432664Y-115568793D01*
X208432671Y-115568797D01*
X208567517Y-115619091D01*
X208567516Y-115619091D01*
X208574444Y-115619835D01*
X208627127Y-115625500D01*
X209572872Y-115625499D01*
X209632483Y-115619091D01*
X209767331Y-115568796D01*
X209882546Y-115482546D01*
X209968796Y-115367331D01*
X210019091Y-115232483D01*
X210025500Y-115172873D01*
X210025499Y-114227128D01*
X210019091Y-114167517D01*
X209983551Y-114072231D01*
X209978568Y-114002542D01*
X209985173Y-113981447D01*
X209989933Y-113969958D01*
X210025500Y-113791154D01*
X210025500Y-113608846D01*
X210025500Y-113608843D01*
X209989934Y-113430047D01*
X209989933Y-113430046D01*
X209989933Y-113430042D01*
X209920167Y-113261611D01*
X209920166Y-113261609D01*
X209918482Y-113258459D01*
X209918097Y-113256613D01*
X209917836Y-113255982D01*
X209917955Y-113255932D01*
X209904236Y-113190057D01*
X209918482Y-113141541D01*
X209920163Y-113138394D01*
X209920167Y-113138389D01*
X209989933Y-112969958D01*
X210025500Y-112791154D01*
X210025500Y-112608846D01*
X210025500Y-112608843D01*
X209989934Y-112430047D01*
X209989933Y-112430046D01*
X209989933Y-112430042D01*
X209989931Y-112430037D01*
X209920168Y-112261612D01*
X209920166Y-112261608D01*
X209818886Y-112110032D01*
X209818880Y-112110024D01*
X209689975Y-111981119D01*
X209689967Y-111981113D01*
X209538391Y-111879833D01*
X209538387Y-111879831D01*
X209369962Y-111810068D01*
X209369952Y-111810065D01*
X209191156Y-111774500D01*
X209191154Y-111774500D01*
X209008846Y-111774500D01*
X209008844Y-111774500D01*
X208830047Y-111810065D01*
X208830037Y-111810068D01*
X208661612Y-111879831D01*
X208661608Y-111879833D01*
X208510032Y-111981113D01*
X208510024Y-111981119D01*
X208381119Y-112110024D01*
X208381113Y-112110032D01*
X208279833Y-112261608D01*
X208279831Y-112261612D01*
X208210068Y-112430037D01*
X208210065Y-112430047D01*
X208174500Y-112608843D01*
X208174500Y-112608846D01*
X208174500Y-112791154D01*
X208174500Y-112791156D01*
X208174499Y-112791156D01*
X200093433Y-112791156D01*
X204958798Y-107925791D01*
X205020119Y-107892308D01*
X205022114Y-107891892D01*
X205133497Y-107869737D01*
X205279179Y-107809394D01*
X205410289Y-107721789D01*
X205521789Y-107610289D01*
X205609394Y-107479179D01*
X205669737Y-107333497D01*
X205700500Y-107178842D01*
X205700500Y-107021158D01*
X205700500Y-107021155D01*
X205700499Y-107021153D01*
X205669737Y-106866503D01*
X205629745Y-106769952D01*
X205609397Y-106720827D01*
X205609390Y-106720814D01*
X205521789Y-106589711D01*
X205521786Y-106589707D01*
X205410292Y-106478213D01*
X205410288Y-106478210D01*
X205279185Y-106390609D01*
X205279172Y-106390602D01*
X205133501Y-106330264D01*
X205133489Y-106330261D01*
X204978845Y-106299500D01*
X204978842Y-106299500D01*
X204821158Y-106299500D01*
X204821155Y-106299500D01*
X204666510Y-106330261D01*
X204666498Y-106330264D01*
X204520827Y-106390602D01*
X204520814Y-106390609D01*
X204389711Y-106478210D01*
X204389707Y-106478213D01*
X204278213Y-106589707D01*
X204278210Y-106589711D01*
X204190609Y-106720814D01*
X204190602Y-106720827D01*
X204130264Y-106866498D01*
X204130261Y-106866508D01*
X204108141Y-106977713D01*
X204075756Y-107039624D01*
X204074205Y-107041202D01*
X189801267Y-121314143D01*
X184701270Y-126414139D01*
X184614141Y-126501267D01*
X184605071Y-126514842D01*
X184599089Y-126523796D01*
X184545687Y-126603715D01*
X184545685Y-126603718D01*
X184498540Y-126717538D01*
X184498535Y-126717554D01*
X184482875Y-126796287D01*
X184474500Y-126838389D01*
X184474500Y-128757650D01*
X184454815Y-128824689D01*
X184453626Y-128826503D01*
X184445686Y-128838388D01*
X184390609Y-128920815D01*
X184390602Y-128920828D01*
X184330264Y-129066498D01*
X184330261Y-129066510D01*
X184299500Y-129221153D01*
X181780500Y-129221153D01*
X181780500Y-105984500D01*
X181800185Y-105917461D01*
X181852989Y-105871706D01*
X181904500Y-105860500D01*
X190342223Y-105860500D01*
X190409262Y-105880185D01*
G37*
%TD.AperFunction*%
%TD*%
M02*
